<svg width="243" height="78" viewBox="0 0 243 78" fill="none" xmlns="http://www.w3.org/2000/svg">
<rect y="0.9375" width="243" height="77" rx="20" fill="#F7FAFC"/>
<path d="M102.337 17.7557V27.9375H100.925L95.7493 20.4702H95.6548V27.9375H94.1186V17.7557H95.5405L100.721 25.233H100.815V17.7557H102.337ZM107.469 28.0916C106.717 28.0916 106.069 27.9309 105.526 27.6094C104.985 27.2846 104.568 26.8288 104.273 26.2422C103.981 25.6522 103.835 24.9612 103.835 24.169C103.835 23.3868 103.981 22.6974 104.273 22.1009C104.568 21.5043 104.979 21.0386 105.506 20.7038C106.036 20.3691 106.656 20.2017 107.365 20.2017C107.796 20.2017 108.214 20.273 108.618 20.4155C109.022 20.558 109.385 20.7817 109.707 21.0866C110.028 21.3916 110.282 21.7876 110.467 22.2749C110.653 22.7588 110.746 23.3471 110.746 24.0398V24.5668H104.675V23.4531H109.289C109.289 23.062 109.21 22.7157 109.05 22.4141C108.891 22.1091 108.668 21.8688 108.379 21.6932C108.094 21.5175 107.759 21.4297 107.375 21.4297C106.957 21.4297 106.593 21.5324 106.281 21.7379C105.973 21.9401 105.734 22.2053 105.565 22.5334C105.4 22.8582 105.317 23.2112 105.317 23.5923V24.4624C105.317 24.9728 105.406 25.407 105.585 25.7649C105.768 26.1229 106.021 26.3963 106.346 26.5852C106.671 26.7708 107.05 26.8636 107.484 26.8636C107.766 26.8636 108.023 26.8239 108.255 26.7443C108.487 26.6615 108.688 26.5388 108.857 26.3764C109.026 26.214 109.155 26.0135 109.244 25.7749L110.651 26.0284C110.539 26.4427 110.336 26.8056 110.045 27.1172C109.756 27.4254 109.393 27.6657 108.956 27.8381C108.522 28.0071 108.026 28.0916 107.469 28.0916ZM113.757 27.9375L111.51 20.3011H113.046L114.542 25.9091H114.617L116.118 20.3011H117.655L119.146 25.8842H119.221L120.707 20.3011H122.243L120.001 27.9375H118.485L116.934 22.424H116.819L115.268 27.9375H113.757ZM130.016 28.0916C129.277 28.0916 128.64 27.9242 128.107 27.5895C127.576 27.2514 127.169 26.7857 126.884 26.1925C126.599 25.5992 126.456 24.9197 126.456 24.1541C126.456 23.3786 126.602 22.6941 126.894 22.1009C127.185 21.5043 127.596 21.0386 128.127 20.7038C128.657 20.3691 129.282 20.2017 130.001 20.2017C130.581 20.2017 131.098 20.3094 131.552 20.5249C132.006 20.737 132.372 21.0353 132.651 21.4197C132.932 21.8042 133.1 22.2533 133.153 22.767H131.706C131.627 22.4091 131.444 22.1009 131.159 21.8423C130.878 21.5838 130.5 21.4545 130.026 21.4545C129.611 21.4545 129.249 21.5639 128.937 21.7827C128.629 21.9981 128.388 22.3063 128.216 22.7074C128.044 23.1051 127.958 23.5758 127.958 24.1193C127.958 24.6761 128.042 25.1567 128.211 25.5611C128.38 25.9654 128.619 26.2786 128.927 26.5007C129.239 26.7228 129.605 26.8338 130.026 26.8338C130.307 26.8338 130.563 26.7824 130.791 26.6797C131.023 26.5736 131.217 26.4228 131.373 26.2273C131.532 26.0317 131.643 25.7964 131.706 25.5213H133.153C133.1 26.0152 132.939 26.456 132.671 26.8438C132.402 27.2315 132.043 27.5365 131.592 27.7585C131.144 27.9806 130.619 28.0916 130.016 28.0916ZM135.949 17.7557V27.9375H134.463V17.7557H135.949ZM137.669 27.9375V20.3011H139.155V27.9375H137.669ZM138.42 19.1229C138.161 19.1229 137.939 19.0367 137.753 18.8643C137.571 18.6887 137.48 18.4799 137.48 18.2379C137.48 17.9927 137.571 17.7839 137.753 17.6115C137.939 17.4358 138.161 17.348 138.42 17.348C138.678 17.348 138.899 17.4358 139.081 17.6115C139.266 17.7839 139.359 17.9927 139.359 18.2379C139.359 18.4799 139.266 18.6887 139.081 18.8643C138.899 19.0367 138.678 19.1229 138.42 19.1229ZM144.166 28.0916C143.414 28.0916 142.766 27.9309 142.223 27.6094C141.682 27.2846 141.265 26.8288 140.97 26.2422C140.678 25.6522 140.532 24.9612 140.532 24.169C140.532 23.3868 140.678 22.6974 140.97 22.1009C141.265 21.5043 141.676 21.0386 142.203 20.7038C142.733 20.3691 143.353 20.2017 144.062 20.2017C144.493 20.2017 144.911 20.273 145.315 20.4155C145.719 20.558 146.082 20.7817 146.404 21.0866C146.725 21.3916 146.979 21.7876 147.164 22.2749C147.35 22.7588 147.443 23.3471 147.443 24.0398V24.5668H141.372V23.4531H145.986C145.986 23.062 145.906 22.7157 145.747 22.4141C145.588 22.1091 145.365 21.8688 145.076 21.6932C144.791 21.5175 144.456 21.4297 144.072 21.4297C143.654 21.4297 143.29 21.5324 142.978 21.7379C142.67 21.9401 142.431 22.2053 142.262 22.5334C142.097 22.8582 142.014 23.2112 142.014 23.5923V24.4624C142.014 24.9728 142.103 25.407 142.282 25.7649C142.464 26.1229 142.718 26.3963 143.043 26.5852C143.368 26.7708 143.747 26.8636 144.181 26.8636C144.463 26.8636 144.72 26.8239 144.952 26.7443C145.184 26.6615 145.384 26.5388 145.553 26.3764C145.723 26.214 145.852 26.0135 145.941 25.7749L147.348 26.0284C147.236 26.4427 147.033 26.8056 146.742 27.1172C146.453 27.4254 146.09 27.6657 145.653 27.8381C145.219 28.0071 144.723 28.0916 144.166 28.0916ZM150.299 23.4034V27.9375H148.812V20.3011H150.239V21.544H150.333C150.509 21.1397 150.784 20.8149 151.159 20.5696C151.536 20.3243 152.012 20.2017 152.585 20.2017C153.106 20.2017 153.562 20.3111 153.953 20.5298C154.344 20.7453 154.647 21.0668 154.862 21.4943C155.078 21.9219 155.186 22.4505 155.186 23.0803V27.9375H153.699V23.2592C153.699 22.7057 153.555 22.2732 153.267 21.9616C152.978 21.6468 152.582 21.4893 152.078 21.4893C151.734 21.4893 151.427 21.5639 151.159 21.7131C150.893 21.8622 150.683 22.081 150.527 22.3693C150.375 22.6544 150.299 22.9991 150.299 23.4034ZM160.464 20.3011V21.4943H156.293V20.3011H160.464ZM157.411 18.4716H158.898V25.6953C158.898 25.9837 158.941 26.2008 159.027 26.3466C159.113 26.4891 159.224 26.5869 159.36 26.6399C159.499 26.6896 159.65 26.7145 159.813 26.7145C159.932 26.7145 160.036 26.7062 160.126 26.6896C160.215 26.6731 160.285 26.6598 160.335 26.6499L160.603 27.8778C160.517 27.911 160.394 27.9441 160.235 27.9773C160.076 28.0137 159.877 28.0336 159.639 28.0369C159.247 28.0436 158.883 27.974 158.545 27.8281C158.207 27.6823 157.933 27.4569 157.724 27.152C157.516 26.8471 157.411 26.4643 157.411 26.0036V18.4716ZM167.427 22.1655L166.08 22.4041C166.024 22.2318 165.934 22.0677 165.812 21.9119C165.692 21.7562 165.53 21.6286 165.324 21.5291C165.119 21.4297 164.862 21.38 164.554 21.38C164.133 21.38 163.782 21.4744 163.5 21.6634C163.218 21.849 163.077 22.0893 163.077 22.3842C163.077 22.6394 163.172 22.8449 163.361 23.0007C163.55 23.1565 163.855 23.2841 164.275 23.3835L165.489 23.6619C166.191 23.8243 166.715 24.0746 167.06 24.4126C167.404 24.7507 167.577 25.1899 167.577 25.7301C167.577 26.1875 167.444 26.5952 167.179 26.9531C166.917 27.3078 166.551 27.5862 166.08 27.7884C165.613 27.9905 165.071 28.0916 164.454 28.0916C163.599 28.0916 162.902 27.9093 162.361 27.5447C161.821 27.1768 161.49 26.6548 161.367 25.9787L162.804 25.7599C162.893 26.1345 163.077 26.4179 163.356 26.6101C163.634 26.799 163.997 26.8935 164.444 26.8935C164.932 26.8935 165.321 26.7924 165.613 26.5902C165.904 26.3847 166.05 26.1345 166.05 25.8395C166.05 25.6009 165.961 25.4003 165.782 25.2379C165.606 25.0755 165.336 24.9529 164.971 24.87L163.679 24.5866C162.966 24.4242 162.439 24.1657 162.098 23.8111C161.76 23.4564 161.591 23.0073 161.591 22.4638C161.591 22.013 161.717 21.6186 161.969 21.2805C162.221 20.9425 162.569 20.679 163.013 20.4901C163.457 20.2978 163.966 20.2017 164.539 20.2017C165.364 20.2017 166.014 20.3807 166.488 20.7386C166.962 21.0933 167.275 21.5689 167.427 22.1655Z" fill="#322659"/>
<path d="M100.866 59.7552C99.5938 59.7552 98.4602 59.5365 97.4659 59.099C96.4773 58.6558 95.696 58.0479 95.1222 57.2751C94.554 56.4967 94.2614 55.599 94.2443 54.5819H97.9602C97.983 55.0081 98.1222 55.3831 98.3778 55.7069C98.6392 56.0251 98.9858 56.2723 99.4176 56.4484C99.8494 56.6246 100.335 56.7126 100.875 56.7126C101.438 56.7126 101.935 56.6132 102.366 56.4143C102.798 56.2155 103.136 55.9399 103.381 55.5876C103.625 55.2354 103.747 54.8291 103.747 54.3689C103.747 53.903 103.616 53.491 103.355 53.1331C103.099 52.7694 102.73 52.4854 102.247 52.2808C101.77 52.0763 101.202 51.974 100.543 51.974H98.9148V49.2638H100.543C101.099 49.2638 101.591 49.1672 102.017 48.974C102.449 48.7808 102.784 48.5138 103.023 48.1729C103.261 47.8263 103.381 47.4229 103.381 46.9626C103.381 46.5251 103.276 46.1416 103.065 45.8121C102.861 45.4768 102.571 45.2155 102.196 45.028C101.827 44.8405 101.395 44.7467 100.901 44.7467C100.401 44.7467 99.9432 44.8376 99.5284 45.0194C99.1136 45.1956 98.7812 45.4484 98.5312 45.778C98.2812 46.1075 98.1477 46.4939 98.1307 46.9371H94.5938C94.6108 45.9314 94.8977 45.045 95.4545 44.278C96.0114 43.5109 96.7614 42.9115 97.7045 42.4797C98.6534 42.0422 99.7244 41.8234 100.918 41.8234C102.122 41.8234 103.176 42.0422 104.08 42.4797C104.983 42.9172 105.685 43.5081 106.185 44.2524C106.69 44.991 106.94 45.8206 106.935 46.741C106.94 47.7183 106.636 48.5336 106.023 49.1871C105.415 49.8405 104.622 50.2552 103.645 50.4314V50.5677C104.929 50.7325 105.906 51.1785 106.577 51.9058C107.253 52.6274 107.588 53.5308 107.582 54.616C107.588 55.6104 107.301 56.4939 106.722 57.2666C106.148 58.0393 105.355 58.6473 104.344 59.0905C103.332 59.5336 102.173 59.7552 100.866 59.7552ZM109.755 59.5166V56.8575L115.968 51.1047C116.497 50.5933 116.94 50.1331 117.298 49.724C117.661 49.3149 117.937 48.9143 118.124 48.5223C118.312 48.1246 118.406 47.6956 118.406 47.2354C118.406 46.724 118.289 46.2836 118.056 45.9143C117.823 45.5393 117.505 45.2524 117.102 45.0535C116.698 44.849 116.241 44.7467 115.73 44.7467C115.195 44.7467 114.73 44.8547 114.332 45.0706C113.934 45.2865 113.627 45.5961 113.411 45.9996C113.195 46.403 113.087 46.8831 113.087 47.4399H109.585C109.585 46.2979 109.843 45.3064 110.36 44.4655C110.877 43.6246 111.602 42.974 112.533 42.5138C113.465 42.0535 114.539 41.8234 115.755 41.8234C117.005 41.8234 118.093 42.045 119.019 42.4882C119.951 42.9257 120.676 43.5336 121.193 44.3121C121.71 45.0905 121.968 45.9825 121.968 46.9882C121.968 47.6473 121.837 48.2979 121.576 48.9399C121.32 49.5819 120.863 50.295 120.204 51.0791C119.545 51.8575 118.616 52.7922 117.417 53.8831L114.869 56.3802V56.4996H122.198V59.5166H109.755ZM131.986 42.0621V59.5166H128.296V45.5649H128.193L124.196 48.0706V44.7979L128.517 42.0621H131.986Z" fill="#322659"/>
<circle cx="35" cy="39.9375" r="28" fill="url(#paint0_linear_2805_893)"/>
<g clip-path="url(#clip0_2805_893)">
<path fill-rule="evenodd" clip-rule="evenodd" d="M40.4487 41.2568C42.0471 42.3418 43.1671 43.8118 43.1671 45.7718V49.2718H46.6671C47.3087 49.2718 47.8337 48.7468 47.8337 48.1052V45.7718C47.8337 43.2285 43.6687 41.7235 40.4487 41.2568Z" fill="#F7FAFC"/>
<path d="M31.5002 39.9388C34.0775 39.9388 36.1668 37.8495 36.1668 35.2721C36.1668 32.6948 34.0775 30.6055 31.5002 30.6055C28.9228 30.6055 26.8335 32.6948 26.8335 35.2721C26.8335 37.8495 28.9228 39.9388 31.5002 39.9388Z" fill="#F7FAFC"/>
<path fill-rule="evenodd" clip-rule="evenodd" d="M38.5004 39.9388C41.0787 39.9388 43.1671 37.8505 43.1671 35.2721C43.1671 32.6938 41.0787 30.6055 38.5004 30.6055C37.9521 30.6055 37.4387 30.7221 36.9487 30.8855C37.9171 32.0871 38.5004 33.6155 38.5004 35.2721C38.5004 36.9288 37.9171 38.4571 36.9487 39.6588C37.4387 39.8221 37.9521 39.9388 38.5004 39.9388Z" fill="#F7FAFC"/>
<path fill-rule="evenodd" clip-rule="evenodd" d="M31.5003 41.1045C28.3853 41.1045 22.167 42.6678 22.167 45.7712V48.1045C22.167 48.7462 22.692 49.2712 23.3337 49.2712H39.667C40.3087 49.2712 40.8337 48.7462 40.8337 48.1045V45.7712C40.8337 42.6678 34.6153 41.1045 31.5003 41.1045Z" fill="#F7FAFC"/>
</g>
<path d="M166 51.6416C166 51.6416 172.146 53.4324 178.292 51.6416C192.614 47.468 188 20.9375 199 27.9375C212.178 36.3238 222.656 35.8763 224.5 23.9375" stroke="url(#paint1_linear_2805_893)" stroke-width="3" stroke-linecap="round" stroke-linejoin="round"/>
<defs>
<linearGradient id="paint0_linear_2805_893" x1="7" y1="11.9375" x2="63" y2="67.9375" gradientUnits="userSpaceOnUse">
<stop stop-color="#322659"/>
<stop offset="1" stop-color="#DEC2FF"/>
</linearGradient>
<linearGradient id="paint1_linear_2805_893" x1="129" y1="59.9375" x2="212.56" y2="9.07152" gradientUnits="userSpaceOnUse">
<stop stop-color="#322659"/>
<stop offset="1" stop-color="#4F2CFF" stop-opacity="0"/>
</linearGradient>
<clipPath id="clip0_2805_893">
<rect width="28" height="28" fill="white" transform="translate(21 25.9375)"/>
</clipPath>
</defs>
</svg>
