<svg width="216" height="80" viewBox="0 0 216 80" fill="none" xmlns="http://www.w3.org/2000/svg">
<g clip-path="url(#clip0_2805_884)">
<rect y="0.9375" width="216" height="79" rx="20" fill="#F7FAFC"/>
<path d="M81.3295 28.9375V18.7557H87.7131V20.0781H82.8658V23.1804H87.38V24.4979H82.8658V27.6151H87.7727V28.9375H81.3295ZM91.5881 29.1065C91.1042 29.1065 90.6667 29.017 90.2756 28.8381C89.8845 28.6558 89.5746 28.3923 89.3459 28.0476C89.1205 27.7029 89.0078 27.2803 89.0078 26.7798C89.0078 26.349 89.0907 25.9943 89.2564 25.7159C89.4221 25.4375 89.6458 25.2171 89.9276 25.0547C90.2093 24.8923 90.5242 24.7696 90.8722 24.6868C91.2202 24.6039 91.5748 24.541 91.9361 24.4979C92.3935 24.4448 92.7647 24.4018 93.0497 24.3686C93.3348 24.3321 93.5419 24.2741 93.6712 24.1946C93.8004 24.1151 93.8651 23.9858 93.8651 23.8068V23.772C93.8651 23.3378 93.7424 23.0014 93.4972 22.7628C93.2552 22.5241 92.8939 22.4048 92.4134 22.4048C91.9129 22.4048 91.5185 22.5159 91.2301 22.7379C90.9451 22.9567 90.7479 23.2003 90.6385 23.4688L89.2415 23.1506C89.4072 22.6866 89.6492 22.312 89.9673 22.027C90.2888 21.7386 90.6584 21.5298 91.076 21.4006C91.4936 21.268 91.9328 21.2017 92.3935 21.2017C92.6984 21.2017 93.0216 21.2382 93.3629 21.3111C93.7076 21.3807 94.0291 21.5099 94.3274 21.6989C94.629 21.8878 94.876 22.1579 95.0682 22.5092C95.2604 22.8572 95.3565 23.3097 95.3565 23.8665V28.9375H93.9048V27.8935H93.8452C93.7491 28.0857 93.6049 28.2746 93.4126 28.4602C93.2204 28.6458 92.9735 28.8 92.6719 28.9226C92.3703 29.0452 92.009 29.1065 91.5881 29.1065ZM91.9112 27.9134C92.3222 27.9134 92.6735 27.8321 92.9652 27.6697C93.2602 27.5073 93.4839 27.2952 93.6364 27.0334C93.7921 26.7682 93.87 26.4848 93.87 26.1832V25.1989C93.817 25.2519 93.7143 25.3016 93.5618 25.348C93.4126 25.3911 93.242 25.4292 93.0497 25.4624C92.8575 25.4922 92.6702 25.5204 92.4879 25.5469C92.3056 25.5701 92.1532 25.59 92.0305 25.6065C91.7422 25.643 91.4787 25.7043 91.2401 25.7905C91.0047 25.8767 90.8158 26.0009 90.6733 26.1634C90.5341 26.3224 90.4645 26.5346 90.4645 26.7997C90.4645 27.1676 90.6004 27.446 90.8722 27.6349C91.1439 27.8205 91.4903 27.9134 91.9112 27.9134ZM97.0565 28.9375V21.3011H98.4933V22.5142H98.5728C98.712 22.1032 98.9573 21.7801 99.3086 21.5447C99.6632 21.3061 100.064 21.1868 100.512 21.1868C100.605 21.1868 100.714 21.1901 100.84 21.1967C100.969 21.2034 101.07 21.2116 101.143 21.2216V22.6435C101.083 22.6269 100.977 22.6087 100.825 22.5888C100.672 22.5656 100.52 22.554 100.368 22.554C100.016 22.554 99.703 22.6286 99.4279 22.7777C99.1561 22.9235 98.9407 23.1274 98.7816 23.3892C98.6225 23.6477 98.543 23.9427 98.543 24.2741V28.9375H97.0565ZM103.636 24.4034V28.9375H102.15V21.3011H103.576V22.544H103.671C103.846 22.1397 104.122 21.8149 104.496 21.5696C104.874 21.3243 105.35 21.2017 105.923 21.2017C106.443 21.2017 106.899 21.3111 107.29 21.5298C107.681 21.7453 107.985 22.0668 108.2 22.4943C108.415 22.9219 108.523 23.4505 108.523 24.0803V28.9375H107.037V24.2592C107.037 23.7057 106.892 23.2732 106.604 22.9616C106.316 22.6468 105.92 22.4893 105.416 22.4893C105.071 22.4893 104.765 22.5639 104.496 22.7131C104.231 22.8622 104.02 23.081 103.865 23.3693C103.712 23.6544 103.636 23.9991 103.636 24.4034ZM110.237 28.9375V21.3011H111.723V28.9375H110.237ZM110.987 20.1229C110.729 20.1229 110.507 20.0367 110.321 19.8643C110.139 19.6887 110.048 19.4799 110.048 19.2379C110.048 18.9927 110.139 18.7839 110.321 18.6115C110.507 18.4358 110.729 18.348 110.987 18.348C111.246 18.348 111.466 18.4358 111.649 18.6115C111.834 18.7839 111.927 18.9927 111.927 19.2379C111.927 19.4799 111.834 19.6887 111.649 19.8643C111.466 20.0367 111.246 20.1229 110.987 20.1229ZM114.93 24.4034V28.9375H113.443V21.3011H114.87V22.544H114.964C115.14 22.1397 115.415 21.8149 115.79 21.5696C116.167 21.3243 116.643 21.2017 117.216 21.2017C117.737 21.2017 118.193 21.3111 118.584 21.5298C118.975 21.7453 119.278 22.0668 119.493 22.4943C119.709 22.9219 119.817 23.4505 119.817 24.0803V28.9375H118.33V24.2592C118.33 23.7057 118.186 23.2732 117.898 22.9616C117.609 22.6468 117.213 22.4893 116.709 22.4893C116.365 22.4893 116.058 22.5639 115.79 22.7131C115.524 22.8622 115.314 23.081 115.158 23.3693C115.006 23.6544 114.93 23.9991 114.93 24.4034ZM124.732 31.9602C124.125 31.9602 123.603 31.8807 123.166 31.7216C122.732 31.5625 122.377 31.352 122.102 31.0902C121.827 30.8284 121.621 30.5417 121.485 30.2301L122.763 29.7031C122.853 29.849 122.972 30.0031 123.121 30.1655C123.274 30.3312 123.479 30.4721 123.738 30.5881C123.999 30.7041 124.336 30.7621 124.747 30.7621C125.31 30.7621 125.776 30.6245 126.144 30.3494C126.512 30.0777 126.696 29.6435 126.696 29.0469V27.5455H126.601C126.512 27.7079 126.382 27.8885 126.213 28.0874C126.048 28.2862 125.819 28.4586 125.527 28.6044C125.236 28.7502 124.856 28.8232 124.389 28.8232C123.786 28.8232 123.242 28.6823 122.758 28.4006C122.278 28.1155 121.896 27.6963 121.615 27.1428C121.336 26.5859 121.197 25.9015 121.197 25.0895C121.197 24.2775 121.335 23.5814 121.61 23.0014C121.888 22.4214 122.269 21.9773 122.753 21.669C123.237 21.3575 123.786 21.2017 124.399 21.2017C124.873 21.2017 125.256 21.2812 125.547 21.4403C125.839 21.5961 126.066 21.7784 126.228 21.9872C126.394 22.196 126.522 22.38 126.611 22.5391H126.721V21.3011H128.177V29.1065C128.177 29.7628 128.025 30.3014 127.72 30.7223C127.415 31.1432 127.002 31.4548 126.482 31.657C125.965 31.8591 125.382 31.9602 124.732 31.9602ZM124.717 27.5902C125.145 27.5902 125.506 27.4908 125.801 27.2919C126.099 27.0897 126.324 26.8014 126.477 26.4268C126.633 26.049 126.711 25.5966 126.711 25.0696C126.711 24.5559 126.634 24.1035 126.482 23.7124C126.329 23.3213 126.106 23.0163 125.811 22.7976C125.516 22.5755 125.151 22.4645 124.717 22.4645C124.27 22.4645 123.897 22.5805 123.598 22.8125C123.3 23.0412 123.075 23.3527 122.922 23.7472C122.773 24.1416 122.699 24.5824 122.699 25.0696C122.699 25.5701 122.775 26.0092 122.927 26.3871C123.08 26.7649 123.305 27.0599 123.603 27.272C123.905 27.4841 124.276 27.5902 124.717 27.5902ZM135.613 23.1655L134.266 23.4041C134.21 23.2318 134.12 23.0677 133.997 22.9119C133.878 22.7562 133.716 22.6286 133.51 22.5291C133.305 22.4297 133.048 22.38 132.74 22.38C132.319 22.38 131.967 22.4744 131.686 22.6634C131.404 22.849 131.263 23.0893 131.263 23.3842C131.263 23.6394 131.357 23.8449 131.546 24.0007C131.735 24.1565 132.04 24.2841 132.461 24.3835L133.674 24.6619C134.377 24.8243 134.901 25.0746 135.245 25.4126C135.59 25.7507 135.762 26.1899 135.762 26.7301C135.762 27.1875 135.63 27.5952 135.365 27.9531C135.103 28.3078 134.736 28.5862 134.266 28.7884C133.799 28.9905 133.257 29.0916 132.64 29.0916C131.785 29.0916 131.087 28.9093 130.547 28.5447C130.007 28.1768 129.675 27.6548 129.553 26.9787L130.99 26.7599C131.079 27.1345 131.263 27.4179 131.541 27.6101C131.82 27.799 132.183 27.8935 132.63 27.8935C133.117 27.8935 133.507 27.7924 133.799 27.5902C134.09 27.3847 134.236 27.1345 134.236 26.8395C134.236 26.6009 134.147 26.4003 133.968 26.2379C133.792 26.0755 133.522 25.9529 133.157 25.87L131.865 25.5866C131.152 25.4242 130.625 25.1657 130.284 24.8111C129.946 24.4564 129.777 24.0073 129.777 23.4638C129.777 23.013 129.902 22.6186 130.154 22.2805C130.406 21.9425 130.754 21.679 131.198 21.4901C131.643 21.2978 132.151 21.2017 132.725 21.2017C133.55 21.2017 134.2 21.3807 134.674 21.7386C135.147 22.0933 135.461 22.5689 135.613 23.1655Z" fill="#1A202C"/>
<path d="M87.4893 62.1193V40.3011H88.8871V62.1193H87.4893ZM91.1967 47.5028C91.1286 46.8153 90.8359 46.2812 90.3189 45.9006C89.8018 45.5199 89.1001 45.3295 88.2138 45.3295C87.6115 45.3295 87.103 45.4148 86.6882 45.5852C86.2734 45.75 85.9553 45.9801 85.7337 46.2756C85.5178 46.571 85.4098 46.9062 85.4098 47.2812C85.3984 47.5938 85.4638 47.8665 85.6058 48.0994C85.7536 48.3324 85.9553 48.5341 86.2109 48.7045C86.4666 48.8693 86.7621 49.0142 87.0973 49.1392C87.4325 49.2585 87.7905 49.3608 88.1712 49.446L89.7393 49.821C90.5007 49.9915 91.1996 50.2187 91.8359 50.5028C92.4723 50.7869 93.0234 51.1364 93.4893 51.5511C93.9553 51.9659 94.3161 52.4545 94.5717 53.017C94.8331 53.5795 94.9666 54.2244 94.9723 54.9517C94.9666 56.0199 94.6939 56.946 94.1541 57.7301C93.62 58.5085 92.8473 59.1136 91.8359 59.5455C90.8303 59.9716 89.6172 60.1847 88.1967 60.1847C86.7876 60.1847 85.5604 59.9688 84.5149 59.5369C83.4751 59.1051 82.6626 58.4659 82.0774 57.6193C81.4979 56.767 81.1939 55.7131 81.1655 54.4574H84.7365C84.7763 55.0426 84.9439 55.5312 85.2393 55.9233C85.5405 56.3097 85.9411 56.6023 86.4411 56.8011C86.9467 56.9943 87.5178 57.0909 88.1541 57.0909C88.7791 57.0909 89.3217 57 89.782 56.8182C90.2479 56.6364 90.6087 56.3835 90.8643 56.0597C91.12 55.7358 91.2479 55.3636 91.2479 54.9432C91.2479 54.5511 91.1314 54.2216 90.8984 53.9545C90.6712 53.6875 90.3359 53.4602 89.8928 53.2727C89.4553 53.0852 88.9183 52.9148 88.282 52.7614L86.3814 52.2841C84.9098 51.9261 83.7479 51.3665 82.8956 50.6051C82.0433 49.8437 81.62 48.8182 81.6257 47.5284C81.62 46.4716 81.9013 45.5483 82.4695 44.7585C83.0433 43.9688 83.8303 43.3523 84.8303 42.9091C85.8303 42.4659 86.9666 42.2443 88.2393 42.2443C89.5348 42.2443 90.6655 42.4659 91.6314 42.9091C92.603 43.3523 93.3587 43.9688 93.8984 44.7585C94.4382 45.5483 94.7166 46.4631 94.7337 47.5028H91.1967ZM103.324 60.1761C102.051 60.1761 100.918 59.9574 99.9234 59.5199C98.9348 59.0767 98.1535 58.4687 97.5797 57.696C97.0115 56.9176 96.7189 56.0199 96.7018 55.0028H100.418C100.44 55.429 100.58 55.804 100.835 56.1278C101.097 56.446 101.443 56.6932 101.875 56.8693C102.307 57.0455 102.793 57.1335 103.333 57.1335C103.895 57.1335 104.392 57.0341 104.824 56.8352C105.256 56.6364 105.594 56.3608 105.838 56.0085C106.083 55.6562 106.205 55.25 106.205 54.7898C106.205 54.3239 106.074 53.9119 105.813 53.554C105.557 53.1903 105.188 52.9062 104.705 52.7017C104.227 52.4972 103.659 52.3949 103 52.3949H101.372V49.6847H103C103.557 49.6847 104.048 49.5881 104.475 49.3949C104.906 49.2017 105.242 48.9347 105.48 48.5938C105.719 48.2472 105.838 47.8438 105.838 47.3835C105.838 46.946 105.733 46.5625 105.523 46.233C105.318 45.8977 105.029 45.6364 104.654 45.4489C104.284 45.2614 103.852 45.1676 103.358 45.1676C102.858 45.1676 102.401 45.2585 101.986 45.4403C101.571 45.6165 101.239 45.8693 100.989 46.1989C100.739 46.5284 100.605 46.9148 100.588 47.358H97.0513C97.0683 46.3523 97.3552 45.4659 97.912 44.6989C98.4689 43.9318 99.2189 43.3324 100.162 42.9006C101.111 42.4631 102.182 42.2443 103.375 42.2443C104.58 42.2443 105.634 42.4631 106.537 42.9006C107.44 43.3381 108.142 43.929 108.642 44.6733C109.148 45.4119 109.398 46.2415 109.392 47.1619C109.398 48.1392 109.094 48.9545 108.48 49.608C107.872 50.2614 107.08 50.6761 106.102 50.8523V50.9886C107.386 51.1534 108.364 51.5994 109.034 52.3267C109.71 53.0483 110.046 53.9517 110.04 55.0369C110.046 56.0312 109.759 56.9148 109.179 57.6875C108.605 58.4602 107.813 59.0682 106.801 59.5114C105.79 59.9545 104.631 60.1761 103.324 60.1761ZM118.588 60.1761C117.383 60.1761 116.309 59.9545 115.366 59.5114C114.428 59.0682 113.684 58.4574 113.133 57.679C112.582 56.9006 112.295 56.0085 112.272 55.0028H115.852C115.892 55.679 116.176 56.2273 116.704 56.6477C117.232 57.0682 117.86 57.2784 118.588 57.2784C119.167 57.2784 119.678 57.1506 120.122 56.8949C120.571 56.6335 120.92 56.2727 121.17 55.8125C121.426 55.3466 121.553 54.8125 121.553 54.2102C121.553 53.5966 121.423 53.0568 121.161 52.5909C120.906 52.125 120.551 51.7614 120.096 51.5C119.642 51.2386 119.122 51.1051 118.536 51.0994C118.025 51.0994 117.528 51.2045 117.045 51.4148C116.568 51.625 116.196 51.9119 115.928 52.2756L112.647 51.6875L113.474 42.483H124.144V45.5H116.517L116.065 49.8722H116.167C116.474 49.4403 116.937 49.0824 117.556 48.7983C118.176 48.5142 118.869 48.3722 119.636 48.3722C120.687 48.3722 121.625 48.6193 122.448 49.1136C123.272 49.608 123.923 50.2869 124.4 51.1506C124.877 52.0085 125.113 52.9972 125.107 54.1165C125.113 55.2926 124.84 56.3381 124.289 57.2528C123.744 58.1619 122.98 58.8778 121.997 59.4006C121.019 59.9176 119.883 60.1761 118.588 60.1761ZM134.045 60.321C132.579 60.3153 131.318 59.9545 130.261 59.2386C129.21 58.5227 128.4 57.4858 127.832 56.1278C127.27 54.7699 126.991 53.1364 126.997 51.2273C126.997 49.3239 127.278 47.7017 127.841 46.3608C128.409 45.0199 129.218 44 130.27 43.3011C131.326 42.5966 132.585 42.2443 134.045 42.2443C135.505 42.2443 136.761 42.5966 137.812 43.3011C138.869 44.0057 139.681 45.0284 140.25 46.3693C140.818 47.7045 141.099 49.3239 141.093 51.2273C141.093 53.142 140.809 54.7784 140.241 56.1364C139.679 57.4943 138.872 58.5312 137.821 59.2472C136.77 59.9631 135.511 60.321 134.045 60.321ZM134.045 57.2614C135.045 57.2614 135.843 56.7585 136.44 55.7528C137.037 54.7472 137.332 53.2386 137.326 51.2273C137.326 49.9034 137.19 48.8011 136.917 47.9205C136.65 47.0398 136.27 46.3778 135.775 45.9347C135.287 45.4915 134.71 45.2699 134.045 45.2699C133.051 45.2699 132.255 45.767 131.659 46.7614C131.062 47.7557 130.761 49.2443 130.755 51.2273C130.755 52.5682 130.889 53.6875 131.156 54.5852C131.429 55.4773 131.812 56.1477 132.306 56.5966C132.801 57.0398 133.38 57.2614 134.045 57.2614ZM144.698 60.1591C144.135 60.1591 143.652 59.9602 143.249 59.5625C142.851 59.1591 142.652 58.6761 142.652 58.1136C142.652 57.5568 142.851 57.0795 143.249 56.6818C143.652 56.2841 144.135 56.0852 144.698 56.0852C145.243 56.0852 145.721 56.2841 146.13 56.6818C146.539 57.0795 146.743 57.5568 146.743 58.1136C146.743 58.4886 146.647 58.8324 146.454 59.1449C146.266 59.4517 146.019 59.6989 145.712 59.8864C145.405 60.0682 145.067 60.1591 144.698 60.1591ZM148.946 56.8693V53.9631L156.233 42.483H158.738V46.5057H157.256L152.662 53.7756V53.9119H163.017V56.8693H148.946ZM157.324 59.9375V55.983L157.392 54.696V42.483H160.852V59.9375H157.324ZM171.839 60.321C170.374 60.3153 169.112 59.9545 168.055 59.2386C167.004 58.5227 166.195 57.4858 165.626 56.1278C165.064 54.7699 164.785 53.1364 164.791 51.2273C164.791 49.3239 165.072 47.7017 165.635 46.3608C166.203 45.0199 167.013 44 168.064 43.3011C169.121 42.5966 170.379 42.2443 171.839 42.2443C173.3 42.2443 174.555 42.5966 175.607 43.3011C176.663 44.0057 177.476 45.0284 178.044 46.3693C178.612 47.7045 178.893 49.3239 178.888 51.2273C178.888 53.142 178.604 54.7784 178.035 56.1364C177.473 57.4943 176.666 58.5312 175.615 59.2472C174.564 59.9631 173.305 60.321 171.839 60.321ZM171.839 57.2614C172.839 57.2614 173.638 56.7585 174.234 55.7528C174.831 54.7472 175.126 53.2386 175.121 51.2273C175.121 49.9034 174.984 48.8011 174.712 47.9205C174.445 47.0398 174.064 46.3778 173.57 45.9347C173.081 45.4915 172.504 45.2699 171.839 45.2699C170.845 45.2699 170.05 45.767 169.453 46.7614C168.857 47.7557 168.555 49.2443 168.55 51.2273C168.55 52.5682 168.683 53.6875 168.95 54.5852C169.223 55.4773 169.607 56.1477 170.101 56.5966C170.595 57.0398 171.175 57.2614 171.839 57.2614Z" fill="#322659"/>
<circle cx="34" cy="39.9375" r="28" fill="#F4F7FE"/>
<g clip-path="url(#clip1_2805_884)">
<path d="M26.2839 36.2522H26.5576C27.6113 36.2522 28.4734 37.1143 28.4734 38.1679V47.7468C28.4734 48.8004 27.6113 49.6625 26.5576 49.6625H26.2839C25.2303 49.6625 24.3682 48.8004 24.3682 47.7468V38.1679C24.3682 37.1143 25.2303 36.2522 26.2839 36.2522ZM33.947 30.5049C35.0007 30.5049 35.8627 31.367 35.8627 32.4206V47.7468C35.8627 48.8004 35.0007 49.6625 33.947 49.6625C32.8933 49.6625 32.0312 48.8004 32.0312 47.7468V32.4206C32.0312 31.367 32.8933 30.5049 33.947 30.5049ZM41.61 41.4521C42.6637 41.4521 43.5258 42.3142 43.5258 43.3679V47.7468C43.5258 48.8004 42.6637 49.6625 41.61 49.6625C40.5564 49.6625 39.6943 48.8004 39.6943 47.7468V43.3679C39.6943 42.3142 40.5564 41.4521 41.61 41.4521Z" fill="#ED8936"/>
</g>
</g>
<defs>
<clipPath id="clip0_2805_884">
<rect y="0.9375" width="216" height="79" rx="20" fill="white"/>
</clipPath>
<clipPath id="clip1_2805_884">
<rect width="32.8417" height="32.8417" fill="white" transform="translate(17.5264 23.6621)"/>
</clipPath>
</defs>
</svg>
