<svg width="412" height="266" viewBox="0 0 412 266" fill="none" xmlns="http://www.w3.org/2000/svg">
<path d="M0.946289 14.7313C0.946289 7.11318 7.12196 0.9375 14.74 0.9375H398.206C405.825 0.9375 412 7.11318 412 14.7313V251.294C412 258.912 405.825 265.088 398.206 265.088H14.74C7.12197 265.088 0.946289 258.912 0.946289 251.294V14.7313Z" fill="white"/>
<path d="M22.9744 20.2742C22.9356 19.9105 22.7718 19.6274 22.4831 19.4248C22.1972 19.2222 21.8253 19.1208 21.3673 19.1208C21.0453 19.1208 20.7691 19.1694 20.5387 19.2666C20.3083 19.3637 20.1321 19.4956 20.0099 19.6621C19.8878 19.8287 19.8253 20.0188 19.8226 20.2325C19.8226 20.4102 19.8628 20.5642 19.9433 20.6947C20.0266 20.8251 20.139 20.9362 20.2806 21.0278C20.4221 21.1166 20.579 21.1915 20.7511 21.2526C20.9232 21.3137 21.0966 21.365 21.2715 21.4067L22.0709 21.6065C22.3929 21.6815 22.7024 21.7828 22.9994 21.9105C23.2992 22.0381 23.567 22.1991 23.803 22.3934C24.0417 22.5877 24.2304 22.8223 24.3692 23.0971C24.508 23.3719 24.5774 23.6939 24.5774 24.063C24.5774 24.5627 24.4497 25.0026 24.1944 25.3829C23.939 25.7604 23.5698 26.056 23.0868 26.2697C22.6066 26.4807 22.0251 26.5862 21.3423 26.5862C20.6789 26.5862 20.1029 26.4835 19.6144 26.2781C19.1286 26.0727 18.7484 25.7729 18.4736 25.3787C18.2015 24.9846 18.0544 24.5044 18.0322 23.9381H19.5519C19.5741 24.2351 19.6657 24.4822 19.8267 24.6792C19.9877 24.8763 20.1973 25.0234 20.4554 25.1206C20.7164 25.2177 21.0078 25.2663 21.3298 25.2663C21.6657 25.2663 21.9599 25.2164 22.2125 25.1164C22.4678 25.0137 22.6677 24.8722 22.812 24.6917C22.9564 24.5085 23.0299 24.2948 23.0327 24.0505C23.0299 23.8285 22.9647 23.6453 22.837 23.501C22.7093 23.3538 22.5303 23.2317 22.2999 23.1346C22.0723 23.0346 21.8058 22.9458 21.5005 22.8681L20.5304 22.6183C19.8281 22.4378 19.273 22.1644 18.8649 21.798C18.4597 21.4289 18.2571 20.939 18.2571 20.3283C18.2571 19.8259 18.3931 19.3859 18.6651 19.0084C18.9399 18.6309 19.3132 18.3381 19.7851 18.1299C20.257 17.919 20.7913 17.8135 21.3881 17.8135C21.9932 17.8135 22.5234 17.919 22.9786 18.1299C23.4366 18.3381 23.796 18.6282 24.057 19.0001C24.3179 19.3693 24.4525 19.794 24.4608 20.2742H22.9744Z" fill="#0E132F"/>
<path d="M27.611 26.5862C27.2057 26.5862 26.8407 26.514 26.5159 26.3697C26.1939 26.2226 25.9386 26.0061 25.7498 25.7201C25.5639 25.4342 25.4709 25.0817 25.4709 24.6626C25.4709 24.3018 25.5375 24.0034 25.6707 23.7674C25.804 23.5315 25.9858 23.3427 26.2162 23.2012C26.4465 23.0596 26.7061 22.9527 26.9947 22.8806C27.2862 22.8056 27.5874 22.7515 27.8982 22.7182C28.273 22.6793 28.5769 22.6446 28.8101 22.6141C29.0432 22.5808 29.2126 22.5308 29.318 22.4642C29.4263 22.3948 29.4804 22.288 29.4804 22.1436V22.1186C29.4804 21.805 29.3874 21.5621 29.2015 21.39C29.0155 21.2179 28.7476 21.1319 28.3979 21.1319C28.0287 21.1319 27.7359 21.2124 27.5194 21.3734C27.3056 21.5343 27.1613 21.7245 27.0863 21.9438L25.679 21.7439C25.7901 21.3553 25.9733 21.0305 26.2286 20.7696C26.484 20.5059 26.7963 20.3089 27.1655 20.1784C27.5346 20.0452 27.9427 19.9785 28.3896 19.9785C28.6977 19.9785 29.0044 20.0146 29.3097 20.0868C29.615 20.159 29.894 20.2783 30.1466 20.4449C30.3992 20.6086 30.6018 20.8321 30.7545 21.1152C30.9099 21.3983 30.9876 21.7522 30.9876 22.1769V26.4571H29.5387V25.5786H29.4887C29.3971 25.7562 29.2681 25.9228 29.1015 26.0782C28.9378 26.2309 28.731 26.3544 28.4812 26.4488C28.2341 26.5404 27.944 26.5862 27.611 26.5862ZM28.0023 25.4787C28.3049 25.4787 28.5672 25.419 28.7893 25.2996C29.0113 25.1775 29.182 25.0165 29.3014 24.8166C29.4235 24.6168 29.4846 24.3989 29.4846 24.163V23.4094C29.4374 23.4482 29.3569 23.4843 29.2431 23.5176C29.1321 23.5509 29.0072 23.5801 28.8684 23.605C28.7296 23.63 28.5922 23.6522 28.4562 23.6717C28.3202 23.6911 28.2022 23.7077 28.1023 23.7216C27.8774 23.7522 27.6762 23.8021 27.4985 23.8715C27.3209 23.9409 27.1807 24.0381 27.078 24.163C26.9753 24.2851 26.924 24.4433 26.924 24.6376C26.924 24.9152 27.0253 25.1248 27.2279 25.2663C27.4305 25.4079 27.6887 25.4787 28.0023 25.4787Z" fill="#0E132F"/>
<path d="M33.8932 17.9301V26.4571H32.3859V17.9301H33.8932Z" fill="#0E132F"/>
<path d="M38.1571 26.582C37.5159 26.582 36.9621 26.4488 36.4958 26.1823C36.0322 25.9131 35.6756 25.5328 35.4257 25.0415C35.1759 24.5474 35.051 23.9659 35.051 23.2969C35.051 22.6391 35.1759 22.0617 35.4257 21.5649C35.6783 21.0652 36.0308 20.6766 36.4833 20.3991C36.9357 20.1187 37.4673 19.9785 38.078 19.9785C38.4721 19.9785 38.8441 20.0424 39.1938 20.1701C39.5463 20.295 39.8572 20.4893 40.1264 20.753C40.3985 21.0167 40.6122 21.3525 40.7676 21.7606C40.9231 22.1658 41.0008 22.6488 41.0008 23.2095V23.6717H35.7588V22.6557H39.556C39.5533 22.3671 39.4908 22.1103 39.3687 21.8855C39.2465 21.6579 39.0758 21.4788 38.8565 21.3484C38.64 21.2179 38.3874 21.1527 38.0988 21.1527C37.7907 21.1527 37.52 21.2276 37.2869 21.3775C37.0537 21.5246 36.8719 21.7189 36.7414 21.9604C36.6138 22.1991 36.5485 22.4614 36.5457 22.7473V23.6342C36.5457 24.0061 36.6138 24.3253 36.7498 24.5918C36.8858 24.8555 37.0759 25.0581 37.3202 25.1997C37.5644 25.3385 37.8503 25.4079 38.1779 25.4079C38.3972 25.4079 38.5956 25.3773 38.7733 25.3163C38.9509 25.2524 39.105 25.1595 39.2354 25.0373C39.3659 24.9152 39.4644 24.7639 39.531 24.5835L40.9383 24.7417C40.8495 25.1137 40.6802 25.4384 40.4304 25.716C40.1833 25.9908 39.8669 26.2045 39.4811 26.3572C39.0953 26.5071 38.6539 26.582 38.1571 26.582Z" fill="#0E132F"/>
<path d="M353.634 25.7664L356.775 19.5533V19.4985H353.154V18.7441H357.652V19.5396L354.525 25.7664H353.634Z" fill="#878997"/>
<path d="M363.456 25.8761C363.017 25.8761 362.629 25.7653 362.293 25.5435C361.957 25.3195 361.694 25.0041 361.505 24.5972C361.315 24.188 361.22 23.7045 361.22 23.1468C361.22 22.5936 361.315 22.1136 361.505 21.7067C361.694 21.2998 361.958 20.9855 362.297 20.7637C362.635 20.542 363.026 20.4311 363.469 20.4311C363.812 20.4311 364.083 20.4883 364.282 20.6026C364.483 20.7146 364.636 20.8426 364.741 20.9866C364.849 21.1283 364.932 21.2449 364.992 21.3363H365.06V18.7441H365.869V25.7664H365.088V24.9572H364.992C364.932 25.0532 364.848 25.1744 364.738 25.3207C364.628 25.4647 364.472 25.5938 364.268 25.7081C364.065 25.8201 363.794 25.8761 363.456 25.8761ZM363.565 25.1492C363.89 25.1492 364.164 25.0646 364.388 24.8955C364.612 24.724 364.782 24.4875 364.899 24.1857C365.016 23.8817 365.074 23.5308 365.074 23.1331C365.074 22.7399 365.017 22.3959 364.903 22.101C364.788 21.8038 364.619 21.5729 364.395 21.4084C364.171 21.2415 363.894 21.158 363.565 21.158C363.222 21.158 362.937 21.2461 362.708 21.4221C362.482 21.5958 362.311 21.8324 362.197 22.1318C362.085 22.429 362.029 22.7627 362.029 23.1331C362.029 23.5079 362.086 23.8485 362.201 24.1549C362.317 24.4589 362.489 24.7012 362.715 24.8818C362.943 25.0601 363.227 25.1492 363.565 25.1492Z" fill="#878997"/>
<path d="M368.917 25.8899C368.583 25.8899 368.281 25.827 368.008 25.7013C367.736 25.5733 367.52 25.3892 367.36 25.1492C367.2 24.9069 367.12 24.6143 367.12 24.2714C367.12 23.9697 367.18 23.7251 367.299 23.5377C367.418 23.3479 367.576 23.1994 367.775 23.0919C367.974 22.9845 368.194 22.9045 368.434 22.8519C368.676 22.797 368.919 22.7536 369.164 22.7216C369.484 22.6805 369.743 22.6496 369.942 22.629C370.144 22.6062 370.29 22.5684 370.381 22.5159C370.475 22.4633 370.522 22.3719 370.522 22.2416V22.2141C370.522 21.8758 370.429 21.6129 370.244 21.4255C370.061 21.2381 369.783 21.1443 369.411 21.1443C369.025 21.1443 368.722 21.2289 368.502 21.3981C368.283 21.5672 368.129 21.7478 368.039 21.9398L367.271 21.6655C367.408 21.3455 367.591 21.0963 367.82 20.918C368.051 20.7374 368.302 20.6117 368.574 20.5409C368.849 20.4677 369.118 20.4311 369.383 20.4311C369.553 20.4311 369.747 20.4517 369.966 20.4929C370.188 20.5317 370.402 20.6129 370.608 20.7363C370.816 20.8597 370.988 21.046 371.125 21.2952C371.262 21.5444 371.331 21.8781 371.331 22.2964V25.7664H370.522V25.0532H370.481C370.426 25.1675 370.334 25.2898 370.206 25.4201C370.078 25.5504 369.908 25.6613 369.695 25.7527C369.483 25.8441 369.223 25.8899 368.917 25.8899ZM369.041 25.1629C369.361 25.1629 369.63 25.1001 369.85 24.9744C370.072 24.8486 370.238 24.6863 370.35 24.4875C370.465 24.2886 370.522 24.0794 370.522 23.86V23.1193C370.488 23.1605 370.412 23.1982 370.296 23.2325C370.181 23.2645 370.049 23.2931 369.898 23.3182C369.749 23.3411 369.604 23.3617 369.462 23.3799C369.323 23.3959 369.21 23.4097 369.123 23.4211C368.913 23.4485 368.716 23.4931 368.533 23.5548C368.353 23.6142 368.206 23.7045 368.094 23.8257C367.984 23.9446 367.93 24.1069 367.93 24.3126C367.93 24.5938 368.034 24.8063 368.242 24.9503C368.452 25.0921 368.718 25.1629 369.041 25.1629Z" fill="#878997"/>
<path d="M373.044 27.7414C372.907 27.7414 372.785 27.73 372.677 27.7071C372.57 27.6866 372.495 27.666 372.454 27.6454L372.66 26.9322C372.857 26.9825 373.03 27.0008 373.181 26.9871C373.332 26.9734 373.466 26.9059 373.582 26.7848C373.701 26.6659 373.81 26.4728 373.908 26.2053L374.059 25.7938L372.111 20.4997H372.989L374.443 24.6966H374.498L375.952 20.4997H376.83L374.594 26.5345C374.493 26.8065 374.369 27.0317 374.22 27.21C374.072 27.3905 373.899 27.5243 373.702 27.6111C373.508 27.698 373.289 27.7414 373.044 27.7414Z" fill="#878997"/>
<path d="M381.532 21.6792L380.805 21.885C380.759 21.7638 380.692 21.6461 380.602 21.5318C380.516 21.4152 380.397 21.3192 380.246 21.2438C380.095 21.1683 379.902 21.1306 379.666 21.1306C379.344 21.1306 379.075 21.2049 378.861 21.3535C378.648 21.4998 378.542 21.6861 378.542 21.9124C378.542 22.1136 378.615 22.2724 378.761 22.389C378.907 22.5056 379.136 22.6027 379.447 22.6805L380.229 22.8725C380.7 22.9868 381.05 23.1616 381.281 23.3971C381.512 23.6302 381.628 23.9308 381.628 24.2989C381.628 24.6006 381.541 24.8703 381.367 25.1081C381.196 25.3458 380.956 25.5333 380.647 25.6704C380.338 25.8076 379.979 25.8761 379.57 25.8761C379.033 25.8761 378.589 25.7596 378.236 25.5264C377.884 25.2932 377.662 24.9526 377.568 24.5046L378.336 24.3126C378.409 24.596 378.547 24.8086 378.751 24.9503C378.957 25.0921 379.225 25.1629 379.557 25.1629C379.934 25.1629 380.233 25.0829 380.455 24.9229C380.679 24.7606 380.791 24.5663 380.791 24.34C380.791 24.1571 380.727 24.004 380.599 23.8806C380.471 23.7548 380.274 23.6611 380.009 23.5994L379.131 23.3937C378.649 23.2794 378.295 23.1022 378.068 22.8622C377.844 22.6199 377.732 22.317 377.732 21.9535C377.732 21.6564 377.816 21.3935 377.983 21.1649C378.152 20.9363 378.382 20.7569 378.672 20.6266C378.965 20.4963 379.296 20.4311 379.666 20.4311C380.188 20.4311 380.597 20.5454 380.894 20.774C381.193 21.0026 381.406 21.3043 381.532 21.6792Z" fill="#878997"/>
<path d="M389.24 20.9405L391.999 23.6992L394.757 20.9405" stroke="#878997" stroke-width="1.2" stroke-linecap="round" stroke-linejoin="round"/>
<path fill-rule="evenodd" clip-rule="evenodd" d="M396.697 89.3593C396.612 89.5697 396.486 89.8804 396.32 90.2837L395.045 89.7578C395.209 89.3584 395.334 89.0513 395.417 88.8446C395.458 88.7412 395.49 88.6629 395.51 88.6107L395.539 88.5375L395.541 88.534L395.541 88.5332L396.825 89.0374L396.824 89.0389L396.823 89.043L396.817 89.0588L396.792 89.1201C396.771 89.1741 396.739 89.2542 396.697 89.3593ZM395.232 92.8627C394.911 93.6081 394.543 94.4507 394.131 95.3799L392.87 94.82C393.28 93.8958 393.646 93.0582 393.965 92.3175L395.232 92.8627ZM261.73 95.5126C260.893 95.4753 260.025 95.4995 259.124 95.5897L258.986 94.2172C259.951 94.1207 260.885 94.0942 261.791 94.1345L261.73 95.5126ZM266.795 96.5918C265.997 96.2727 265.17 96.0196 264.309 95.8374L264.595 94.488C265.534 94.6868 266.437 94.9631 267.307 95.3111L266.795 96.5918ZM256.539 96.0118C256.105 96.1089 255.663 96.2202 255.214 96.3461C254.761 96.4732 254.32 96.6118 253.891 96.7615L253.437 95.4592C253.893 95.2998 254.362 95.1526 254.842 95.018C255.314 94.8857 255.779 94.7683 256.238 94.6657L256.539 96.0118ZM271.26 99.2721C270.572 98.708 269.86 98.2014 269.124 97.7562L269.838 96.5757C270.634 97.0573 271.399 97.6024 272.134 98.2049L271.26 99.2721ZM251.383 97.8251C250.557 98.2425 249.78 98.708 249.047 99.2177L248.26 98.0852C249.045 97.5392 249.877 97.0408 250.76 96.5942L251.383 97.8251ZM392.992 97.9061C392.628 98.7032 392.239 99.5436 391.827 100.423L390.578 99.8369C390.988 98.9619 391.375 98.1258 391.738 97.3328L392.992 97.9061ZM246.923 100.924C246.254 101.541 245.626 102.201 245.035 102.902L243.981 102.013C244.607 101.271 245.274 100.568 245.988 99.91L246.923 100.924ZM274.946 103.066C274.38 102.356 273.797 101.688 273.197 101.066L274.19 100.108C274.823 100.765 275.434 101.466 276.024 102.206L274.946 103.066ZM390.634 102.932C390.244 103.742 389.837 104.578 389.413 105.437L388.176 104.827C388.598 103.972 389.003 103.14 389.391 102.334L390.634 102.932ZM243.386 105.096C242.879 105.851 242.403 106.639 241.955 107.457L240.745 106.794C241.212 105.943 241.709 105.119 242.241 104.327L243.386 105.096ZM277.964 107.46C277.496 106.68 277.016 105.928 276.524 105.209L277.663 104.431C278.172 105.175 278.666 105.949 279.147 106.75L277.964 107.46ZM388.179 107.906C387.773 108.709 387.354 109.528 386.922 110.362L385.697 109.727C386.127 108.898 386.544 108.082 386.948 107.283L388.179 107.906ZM280.528 112.194C280.123 111.374 279.712 110.573 279.292 109.795L280.506 109.14C280.935 109.935 281.354 110.75 281.765 111.584L280.528 112.194ZM240.714 109.939C240.334 110.773 239.975 111.629 239.634 112.506L238.348 112.007C238.698 111.108 239.067 110.226 239.459 109.367L240.714 109.939ZM385.631 112.821C385.203 113.627 384.764 114.444 384.314 115.27L383.103 114.61C383.55 113.789 383.987 112.976 384.413 112.174L385.631 112.821ZM282.784 117.11C282.424 116.273 282.06 115.451 281.69 114.643L282.944 114.069C283.319 114.887 283.687 115.719 284.051 116.564L282.784 117.11ZM238.684 115.13C238.388 116.006 238.106 116.896 237.834 117.798L236.513 117.4C236.789 116.485 237.076 115.58 237.377 114.689L238.684 115.13ZM382.983 117.683C382.536 118.483 382.081 119.289 381.616 120.1L380.419 119.414C380.881 118.607 381.335 117.806 381.779 117.011L382.983 117.683ZM284.847 122.122C284.511 121.274 284.173 120.433 283.832 119.603L285.108 119.079C285.452 119.916 285.792 120.761 286.129 121.615L284.847 122.122ZM149.64 120.511C149.18 120.508 148.724 120.514 148.272 120.53L148.223 119.152C148.694 119.135 149.17 119.128 149.65 119.131C150.142 119.135 150.629 119.151 151.11 119.18L151.027 120.557C150.571 120.529 150.109 120.514 149.64 120.511ZM145.566 120.742C144.658 120.853 143.767 121.002 142.89 121.187L142.604 119.838C143.52 119.644 144.451 119.488 145.399 119.373L145.566 120.742ZM156.426 121.475C155.556 121.227 154.665 121.023 153.752 120.868L153.983 119.508C154.947 119.672 155.887 119.887 156.804 120.148L156.426 121.475ZM237.059 120.496C236.811 121.395 236.57 122.302 236.334 123.215L234.999 122.869C235.236 121.951 235.479 121.037 235.729 120.13L237.059 120.496ZM140.262 121.864C139.392 122.128 138.538 122.428 137.696 122.762L137.187 121.479C138.063 121.132 138.954 120.819 139.861 120.544L140.262 121.864ZM161.522 123.522C160.706 123.097 159.874 122.711 159.022 122.367L159.538 121.088C160.433 121.449 161.307 121.855 162.159 122.299L161.522 123.522ZM380.223 122.499C379.759 123.287 379.287 124.079 378.807 124.873L377.626 124.16C378.104 123.37 378.573 122.583 379.034 121.799L380.223 122.499ZM135.207 123.863C134.393 124.26 133.592 124.689 132.801 125.146L132.11 123.953C132.928 123.48 133.758 123.036 134.601 122.624L135.207 123.863ZM166.189 126.479C165.444 125.924 164.685 125.397 163.911 124.905L164.652 123.741C165.457 124.253 166.243 124.799 167.014 125.373L166.189 126.479ZM286.805 127.188C286.482 126.339 286.16 125.494 285.836 124.655L287.123 124.158C287.448 125 287.771 125.847 288.095 126.698L286.805 127.188ZM130.481 126.59C129.727 127.092 128.982 127.619 128.245 128.17L127.419 127.065C128.175 126.5 128.94 125.958 129.717 125.441L130.481 126.59ZM235.297 127.317C235.182 127.773 235.068 128.23 234.953 128.687L233.616 128.351C233.73 127.895 233.844 127.439 233.958 126.982C234.073 126.525 234.187 126.068 234.301 125.611L235.639 125.947C235.53 126.381 235.422 126.816 235.313 127.251L235.297 127.317ZM377.354 127.243C376.869 128.022 376.377 128.803 375.878 129.583L374.716 128.84C375.212 128.064 375.701 127.289 376.182 126.515L377.354 127.243ZM170.442 130.066C169.759 129.426 169.067 128.806 168.363 128.21L169.254 127.157C169.978 127.769 170.687 128.405 171.386 129.059L170.442 130.066ZM126.087 129.866C125.386 130.445 124.692 131.043 124.003 131.659L123.083 130.632C123.784 130.004 124.493 129.393 125.21 128.802L126.087 129.866ZM287.808 129.837L287.769 129.733L289.059 129.245C289.379 130.092 289.7 130.941 290.023 131.79L288.733 132.279C288.424 131.464 288.116 130.649 287.808 129.837ZM174.375 134.046C173.737 133.358 173.093 132.681 172.442 132.019L173.424 131.051C174.087 131.724 174.741 132.411 175.387 133.109L174.375 134.046ZM234.256 131.43C234.018 132.347 233.776 133.262 233.526 134.169L232.196 133.803C232.444 132.904 232.684 131.997 232.921 131.084L234.256 131.43ZM374.367 131.909C373.86 132.679 373.345 133.448 372.823 134.215L371.683 133.439C372.201 132.678 372.712 131.914 373.216 131.15L374.367 131.909ZM121.984 133.531C121.326 134.162 120.673 134.808 120.023 135.468L119.04 134.499C119.698 133.832 120.361 133.176 121.029 132.536L121.984 133.531ZM290.694 137.365C290.361 136.52 290.032 135.672 289.705 134.823L290.992 134.328C291.318 135.174 291.646 136.018 291.977 136.859L290.694 137.365ZM178.108 138.247C177.495 137.536 176.879 136.828 176.259 136.128L177.291 135.213C177.917 135.919 178.537 136.632 179.153 137.347L178.108 138.247ZM371.247 136.494C370.715 137.25 370.177 138.003 369.632 138.752L368.517 137.941C369.057 137.198 369.591 136.451 370.118 135.701L371.247 136.494ZM232.74 136.899C232.464 137.814 232.177 138.719 231.875 139.61L230.568 139.168C230.865 138.293 231.147 137.403 231.42 136.5L232.74 136.899ZM118.11 137.457C117.483 138.124 116.859 138.801 116.237 139.488L115.214 138.562C115.842 137.87 116.472 137.186 117.105 136.512L118.11 137.457ZM292.753 142.42C292.399 141.584 292.051 140.742 291.706 139.896L292.984 139.377C293.326 140.217 293.672 141.053 294.023 141.881L292.753 142.42ZM180.454 140.993C180.283 140.791 180.111 140.59 179.94 140.389L180.99 139.495C181.161 139.695 181.332 139.896 181.502 140.096C181.942 140.613 182.381 141.129 182.819 141.642L181.771 142.538C181.332 142.025 180.893 141.509 180.454 140.993ZM367.981 140.982C367.424 141.721 366.86 142.455 366.289 143.183L365.204 142.332C365.769 141.611 366.327 140.884 366.88 140.151L367.981 140.982ZM114.395 141.552C113.787 142.242 113.181 142.939 112.576 143.641L111.531 142.74C112.139 142.035 112.748 141.335 113.359 140.641L114.395 141.552ZM230.901 142.292C230.551 143.19 230.181 144.07 229.787 144.928L228.533 144.353C228.915 143.522 229.274 142.667 229.616 141.791L230.901 142.292ZM185.499 146.805C184.869 146.108 184.242 145.399 183.618 144.682L184.658 143.776C185.278 144.488 185.899 145.19 186.522 145.879L185.499 146.805ZM294.985 147.414C294.597 146.595 294.217 145.767 293.844 144.929L295.104 144.368C295.473 145.196 295.849 146.015 296.231 146.823L294.985 147.414ZM364.557 145.351C363.97 146.07 363.376 146.783 362.777 147.486L361.727 146.592C362.32 145.896 362.907 145.191 363.488 144.479L364.557 145.351ZM110.773 145.746C110.175 146.449 109.577 147.154 108.978 147.862L107.925 146.971C108.524 146.263 109.123 145.556 109.722 144.852L110.773 145.746ZM228.493 147.499C228.023 148.35 227.522 149.172 226.986 149.961L225.845 149.185C226.355 148.435 226.834 147.649 227.286 146.832L228.493 147.499ZM189.445 150.908C188.767 150.255 188.098 149.58 187.435 148.887L188.431 147.933C189.083 148.614 189.74 149.276 190.402 149.915L189.445 150.908ZM360.955 149.577C360.335 150.272 359.708 150.958 359.076 151.633L358.069 150.69C358.694 150.023 359.313 149.346 359.926 148.659L360.955 149.577ZM107.183 149.982C106.585 150.688 105.985 151.394 105.382 152.099L104.334 151.203C104.935 150.5 105.533 149.795 106.131 149.09L107.183 149.982ZM297.474 152.302C297.036 151.506 296.608 150.694 296.189 149.87L297.419 149.245C297.831 150.057 298.252 150.855 298.682 151.636L297.474 152.302ZM225.229 152.265C224.597 153.003 223.923 153.699 223.201 154.35L222.278 153.326C222.953 152.717 223.586 152.063 224.182 151.368L225.229 152.265ZM193.778 154.643C193.023 154.074 192.281 153.471 191.552 152.838L192.455 151.796C193.164 152.41 193.88 152.993 194.608 153.541L193.778 154.643ZM357.148 153.636C356.492 154.298 355.831 154.948 355.164 155.584L354.212 154.586C354.869 153.959 355.521 153.319 356.167 152.666L357.148 153.636ZM103.567 154.208C102.959 154.909 102.347 155.607 101.732 156.301L100.7 155.385C101.312 154.696 101.92 154.001 102.526 153.303L103.567 154.208ZM300.322 157.001C299.817 156.249 299.326 155.475 298.847 154.683L300.028 153.97C300.496 154.745 300.975 155.5 301.467 156.233L300.322 157.001ZM220.905 156.148C220.113 156.683 219.274 157.169 218.382 157.602L217.779 156.362C218.612 155.957 219.395 155.504 220.134 155.005L220.905 156.148ZM198.68 157.684C197.817 157.264 196.974 156.793 196.15 156.278L196.881 155.108C197.668 155.6 198.468 156.047 199.284 156.444L198.68 157.684ZM353.114 157.477C352.419 158.098 351.718 158.704 351.011 159.293L350.128 158.233C350.823 157.655 351.511 157.06 352.195 156.449L353.114 157.477ZM215.687 158.693C215.228 158.845 214.757 158.984 214.274 159.111C213.791 159.237 213.314 159.349 212.842 159.445L212.566 158.094C213.013 158.002 213.466 157.897 213.925 157.776C214.38 157.657 214.823 157.526 215.255 157.384L215.687 158.693ZM99.8673 158.372C99.2391 159.059 98.6061 159.741 97.9675 160.414L96.9665 159.465C97.5987 158.798 98.226 158.123 98.8491 157.442L99.8673 158.372ZM204.179 159.547C203.216 159.36 202.278 159.107 201.363 158.794L201.809 157.489C202.667 157.782 203.543 158.018 204.442 158.193L204.179 159.547ZM303.663 161.401C303.063 160.71 302.483 159.991 301.919 159.245L303.019 158.413C303.565 159.136 304.127 159.831 304.705 160.497L303.663 161.401ZM209.974 159.857C208.982 159.938 208.014 159.951 207.069 159.902L207.141 158.525C208.024 158.571 208.93 158.558 209.861 158.482L209.974 159.857ZM348.83 161.04C348.086 161.612 347.336 162.165 346.58 162.697L345.786 161.568C346.526 161.048 347.26 160.507 347.989 159.947L348.83 161.04ZM96.0249 162.42C95.3675 163.083 94.7035 163.737 94.0322 164.379L93.0785 163.383C93.7403 162.749 94.3956 162.104 95.0452 161.449L96.0249 162.42ZM307.627 165.284C306.916 164.701 306.227 164.081 305.561 163.425L306.528 162.442C307.167 163.07 307.824 163.662 308.501 164.217L307.627 165.284ZM344.266 164.245C343.47 164.75 342.667 165.232 341.859 165.688L341.181 164.487C341.968 164.043 342.75 163.574 343.527 163.08L344.266 164.245ZM91.9824 166.283C91.2866 166.909 90.5823 167.522 89.8688 168.12L88.9827 167.063C89.683 166.476 90.3751 165.874 91.0597 165.258L91.9824 166.283ZM339.379 166.994C338.535 167.407 337.685 167.792 336.829 168.145L336.302 166.87C337.13 166.528 337.954 166.156 338.772 165.755L339.379 166.994ZM312.286 168.342C311.453 167.92 310.648 167.45 309.87 166.937L310.629 165.785C311.365 166.271 312.125 166.714 312.91 167.112L312.286 168.342ZM334.192 169.128C333.298 169.426 332.397 169.689 331.49 169.916L331.156 168.577C332.027 168.36 332.894 168.107 333.757 167.82L334.192 169.128ZM317.535 170.256C316.615 170.041 315.723 169.774 314.858 169.458L315.33 168.162C316.143 168.459 316.983 168.71 317.85 168.913L317.535 170.256ZM87.6851 169.879C87.3149 170.165 86.9422 170.446 86.5668 170.723C86.1893 171.002 85.8095 171.279 85.4275 171.556L84.6192 170.438C84.9976 170.164 85.3739 169.889 85.7478 169.613C86.1149 169.342 86.4796 169.067 86.8421 168.787L87.6851 169.879ZM328.734 170.486C327.806 170.639 326.872 170.751 325.933 170.823L325.828 169.447C326.727 169.379 327.621 169.271 328.511 169.125L328.734 170.486ZM321.697 170.857C321.218 170.828 320.746 170.786 320.28 170.732L320.439 169.362C320.879 169.413 321.326 169.453 321.78 169.48C322.233 169.507 322.684 169.524 323.135 169.53L323.115 170.91C322.644 170.903 322.171 170.885 321.697 170.857ZM83.123 173.191C82.3522 173.728 81.575 174.26 80.7933 174.786L80.0229 173.642C80.7988 173.12 81.57 172.592 82.3345 172.059L83.123 173.191ZM78.4401 176.346C77.6508 176.861 76.8589 177.369 76.0661 177.872L75.328 176.706C76.1157 176.207 76.9025 175.702 77.6864 175.19L78.4401 176.346ZM73.6745 179.366C72.869 179.862 72.0646 180.351 71.2634 180.833L70.5533 179.65C71.3501 179.172 72.1499 178.685 72.9507 178.192L73.6745 179.366ZM68.8369 182.272C68.0179 182.752 67.2044 183.223 66.3987 183.684L65.7133 182.487C66.5152 182.028 67.3247 181.559 68.1395 181.082L68.8369 182.272ZM63.944 185.074C63.1093 185.541 62.2858 185.997 61.476 186.44L60.8134 185.23C61.6196 184.789 62.4394 184.335 63.2702 183.87L63.944 185.074ZM59.0018 187.781C58.1492 188.238 57.3164 188.68 56.5069 189.105L55.8655 187.884C56.6717 187.46 57.501 187.021 58.3499 186.565L59.0018 187.781ZM54.007 190.404C53.1343 190.853 52.2974 191.279 51.5014 191.68L50.881 190.448C51.6736 190.049 52.507 189.625 53.3761 189.178L54.007 190.404ZM48.979 192.936C48.0409 193.399 47.1878 193.813 46.4326 194.176L45.8348 192.933C46.5863 192.572 47.4354 192.159 48.3694 191.699L48.979 192.936ZM42.6116 195.971C42.6116 195.971 42.6116 195.971 42.3282 195.342L42.0449 194.713L42.046 194.713L42.0496 194.711L42.0647 194.704L42.1255 194.677C42.1795 194.652 42.2602 194.615 42.3664 194.567C42.5789 194.469 42.8937 194.324 43.3014 194.134L43.8845 195.384C43.4738 195.576 43.1562 195.722 42.941 195.821C42.8334 195.87 42.7513 195.907 42.696 195.932L42.6333 195.961L42.6131 195.97L42.6116 195.971Z" fill="#FF4F79"/>
<path d="M132.846 240.922V240.275H137.36V240.922H135.467V246.294H134.738V240.922H132.846Z" fill="#3E4259"/>
<path d="M139.084 243.578V246.294H138.391V240.275H139.084V242.485H139.143C139.249 242.252 139.408 242.067 139.619 241.93C139.833 241.791 140.117 241.721 140.472 241.721C140.779 241.721 141.049 241.783 141.28 241.906C141.511 242.028 141.69 242.215 141.818 242.468C141.947 242.718 142.012 243.038 142.012 243.426V246.294H141.318V243.473C141.318 243.114 141.225 242.837 141.039 242.641C140.855 242.443 140.599 242.344 140.272 242.344C140.045 242.344 139.841 242.392 139.661 242.488C139.482 242.584 139.341 242.724 139.237 242.908C139.135 243.093 139.084 243.316 139.084 243.578Z" fill="#3E4259"/>
<path d="M143.281 246.294V241.78H143.974V246.294H143.281ZM143.633 241.027C143.498 241.027 143.382 240.981 143.284 240.889C143.188 240.797 143.14 240.686 143.14 240.557C143.14 240.428 143.188 240.317 143.284 240.225C143.382 240.133 143.498 240.087 143.633 240.087C143.769 240.087 143.884 240.133 143.98 240.225C144.078 240.317 144.127 240.428 144.127 240.557C144.127 240.686 144.078 240.797 143.98 240.889C143.884 240.981 143.769 241.027 143.633 241.027Z" fill="#3E4259"/>
<path d="M148.442 242.791L147.819 242.967C147.78 242.863 147.722 242.762 147.646 242.664C147.571 242.565 147.469 242.482 147.34 242.418C147.211 242.353 147.045 242.321 146.843 242.321C146.567 242.321 146.337 242.384 146.153 242.512C145.971 242.637 145.879 242.797 145.879 242.991C145.879 243.163 145.942 243.299 146.068 243.399C146.193 243.499 146.389 243.582 146.655 243.649L147.325 243.814C147.729 243.912 148.03 244.061 148.228 244.263C148.426 244.463 148.525 244.721 148.525 245.036C148.525 245.295 148.45 245.526 148.301 245.73C148.154 245.934 147.949 246.094 147.684 246.212C147.42 246.329 147.112 246.388 146.761 246.388C146.301 246.388 145.92 246.288 145.618 246.088C145.316 245.889 145.125 245.597 145.045 245.213L145.703 245.048C145.766 245.291 145.884 245.473 146.059 245.595C146.235 245.716 146.465 245.777 146.749 245.777C147.073 245.777 147.329 245.708 147.519 245.571C147.711 245.432 147.807 245.265 147.807 245.071C147.807 244.915 147.753 244.783 147.643 244.678C147.533 244.57 147.365 244.49 147.137 244.437L146.385 244.26C145.972 244.162 145.668 244.01 145.474 243.805C145.282 243.597 145.186 243.337 145.186 243.026C145.186 242.771 145.257 242.546 145.4 242.35C145.545 242.154 145.742 242 145.991 241.889C146.242 241.777 146.526 241.721 146.843 241.721C147.29 241.721 147.641 241.819 147.896 242.015C148.152 242.211 148.335 242.469 148.442 242.791Z" fill="#3E4259"/>
<path d="M151.99 240.275H152.86L154.906 245.271H154.976L157.022 240.275H157.892V246.294H157.21V241.721H157.151L155.27 246.294H154.612L152.731 241.721H152.672V246.294H151.99V240.275Z" fill="#3E4259"/>
<path d="M161.093 246.388C160.686 246.388 160.328 246.291 160.021 246.097C159.715 245.903 159.476 245.632 159.303 245.283C159.133 244.934 159.048 244.527 159.048 244.06C159.048 243.59 159.133 243.18 159.303 242.829C159.476 242.478 159.715 242.206 160.021 242.012C160.328 241.818 160.686 241.721 161.093 241.721C161.501 241.721 161.857 241.818 162.163 242.012C162.471 242.206 162.71 242.478 162.88 242.829C163.053 243.18 163.139 243.59 163.139 244.06C163.139 244.527 163.053 244.934 162.88 245.283C162.71 245.632 162.471 245.903 162.163 246.097C161.857 246.291 161.501 246.388 161.093 246.388ZM161.093 245.765C161.403 245.765 161.658 245.686 161.857 245.527C162.057 245.368 162.205 245.16 162.301 244.901C162.397 244.642 162.445 244.362 162.445 244.06C162.445 243.759 162.397 243.478 162.301 243.217C162.205 242.956 162.057 242.746 161.857 242.585C161.658 242.424 161.403 242.344 161.093 242.344C160.784 242.344 160.529 242.424 160.329 242.585C160.129 242.746 159.981 242.956 159.885 243.217C159.789 243.478 159.741 243.759 159.741 244.06C159.741 244.362 159.789 244.642 159.885 244.901C159.981 245.16 160.129 245.368 160.329 245.527C160.529 245.686 160.784 245.765 161.093 245.765Z" fill="#3E4259"/>
<path d="M164.891 243.578V246.294H164.198V241.78H164.868V242.485H164.926C165.032 242.256 165.193 242.072 165.408 241.933C165.624 241.792 165.902 241.721 166.243 241.721C166.549 241.721 166.816 241.784 167.046 241.909C167.275 242.033 167.453 242.221 167.58 242.473C167.708 242.724 167.771 243.042 167.771 243.426V246.294H167.078V243.473C167.078 243.118 166.986 242.842 166.802 242.644C166.617 242.444 166.365 242.344 166.043 242.344C165.822 242.344 165.624 242.392 165.45 242.488C165.277 242.584 165.141 242.724 165.041 242.908C164.941 243.093 164.891 243.316 164.891 243.578Z" fill="#3E4259"/>
<path d="M171.002 241.78V242.368H168.663V241.78H171.002ZM169.345 240.698H170.038V245.001C170.038 245.197 170.067 245.344 170.123 245.442C170.182 245.538 170.257 245.602 170.347 245.636C170.439 245.667 170.536 245.683 170.638 245.683C170.714 245.683 170.777 245.679 170.826 245.671C170.875 245.661 170.914 245.653 170.943 245.648L171.084 246.271C171.037 246.288 170.972 246.306 170.888 246.323C170.803 246.343 170.696 246.353 170.567 246.353C170.371 246.353 170.179 246.311 169.991 246.227C169.805 246.142 169.65 246.014 169.527 245.841C169.405 245.669 169.345 245.452 169.345 245.189V240.698Z" fill="#3E4259"/>
<path d="M172.836 243.578V246.294H172.142V240.275H172.836V242.485H172.895C173.001 242.252 173.159 242.067 173.371 241.93C173.585 241.791 173.869 241.721 174.223 241.721C174.531 241.721 174.8 241.783 175.032 241.906C175.263 242.028 175.442 242.215 175.569 242.468C175.699 242.718 175.763 243.038 175.763 243.426V246.294H175.07V243.473C175.07 243.114 174.977 242.837 174.791 242.641C174.606 242.443 174.351 242.344 174.023 242.344C173.796 242.344 173.592 242.392 173.412 242.488C173.234 242.584 173.093 242.724 172.989 242.908C172.887 243.093 172.836 243.316 172.836 243.578Z" fill="#3E4259"/>
<path d="M128.308 243.536C128.308 245.821 126.455 247.674 124.17 247.674C121.884 247.674 120.032 245.821 120.032 243.536C120.032 241.25 121.884 239.397 124.17 239.397C126.455 239.397 128.308 241.25 128.308 243.536Z" fill="#4169E1"/>
<path d="M207.963 246.294V240.274H208.692V245.647H211.49V246.294H207.963Z" fill="#3E4259"/>
<path d="M213.853 246.399C213.567 246.399 213.307 246.345 213.074 246.238C212.841 246.128 212.656 245.97 212.519 245.764C212.382 245.557 212.313 245.306 212.313 245.012C212.313 244.753 212.364 244.544 212.466 244.383C212.568 244.221 212.704 244.093 212.874 244.001C213.045 243.909 213.233 243.84 213.439 243.795C213.646 243.748 213.855 243.711 214.065 243.684C214.339 243.648 214.561 243.622 214.732 243.604C214.904 243.585 215.03 243.552 215.108 243.507C215.188 243.462 215.229 243.384 215.229 243.272V243.249C215.229 242.959 215.149 242.733 214.991 242.573C214.834 242.412 214.596 242.332 214.276 242.332C213.945 242.332 213.686 242.404 213.498 242.549C213.309 242.694 213.177 242.849 213.101 243.014L212.442 242.778C212.56 242.504 212.717 242.291 212.913 242.138C213.111 241.983 213.326 241.875 213.559 241.814C213.794 241.752 214.026 241.72 214.253 241.72C214.398 241.72 214.564 241.738 214.752 241.773C214.943 241.807 215.126 241.876 215.302 241.982C215.48 242.088 215.628 242.247 215.746 242.461C215.863 242.675 215.922 242.961 215.922 243.319V246.294H215.229V245.682H215.193C215.146 245.78 215.068 245.885 214.958 245.997C214.849 246.108 214.703 246.203 214.52 246.282C214.338 246.36 214.116 246.399 213.853 246.399ZM213.959 245.776C214.233 245.776 214.464 245.722 214.653 245.615C214.843 245.507 214.986 245.368 215.082 245.197C215.18 245.027 215.229 244.848 215.229 244.659V244.025C215.199 244.06 215.135 244.092 215.035 244.122C214.937 244.149 214.823 244.174 214.694 244.195C214.566 244.215 214.442 244.232 214.32 244.248C214.201 244.262 214.104 244.273 214.029 244.283C213.849 244.307 213.681 244.345 213.524 244.398C213.369 244.449 213.244 244.526 213.148 244.63C213.054 244.732 213.007 244.871 213.007 245.047C213.007 245.288 213.096 245.471 213.274 245.594C213.454 245.716 213.683 245.776 213.959 245.776Z" fill="#3E4259"/>
<path d="M220.386 242.79L219.763 242.967C219.724 242.863 219.666 242.762 219.589 242.664C219.515 242.564 219.413 242.482 219.284 242.417C219.154 242.352 218.989 242.32 218.787 242.32C218.511 242.32 218.281 242.384 218.096 242.511C217.914 242.636 217.823 242.796 217.823 242.99C217.823 243.162 217.886 243.299 218.011 243.399C218.137 243.499 218.332 243.582 218.599 243.648L219.269 243.813C219.673 243.911 219.973 244.061 220.171 244.263C220.369 244.463 220.468 244.72 220.468 245.036C220.468 245.294 220.394 245.525 220.245 245.729C220.098 245.933 219.892 246.094 219.628 246.211C219.363 246.329 219.055 246.388 218.705 246.388C218.244 246.388 217.863 246.288 217.561 246.088C217.26 245.888 217.069 245.596 216.988 245.212L217.647 245.047C217.709 245.29 217.828 245.473 218.002 245.594C218.179 245.716 218.409 245.776 218.693 245.776C219.016 245.776 219.273 245.708 219.463 245.571C219.655 245.431 219.751 245.265 219.751 245.071C219.751 244.914 219.696 244.783 219.586 244.677C219.477 244.569 219.308 244.489 219.081 244.436L218.329 244.26C217.915 244.162 217.611 244.01 217.417 243.804C217.225 243.596 217.129 243.337 217.129 243.025C217.129 242.771 217.201 242.545 217.344 242.349C217.489 242.153 217.686 242 217.935 241.888C218.186 241.776 218.47 241.72 218.787 241.72C219.234 241.72 219.584 241.818 219.839 242.014C220.096 242.21 220.278 242.469 220.386 242.79Z" fill="#3E4259"/>
<path d="M223.475 241.779V242.367H221.136V241.779H223.475ZM221.818 240.698H222.511V245C222.511 245.196 222.54 245.343 222.597 245.441C222.655 245.537 222.73 245.602 222.82 245.635C222.912 245.667 223.009 245.682 223.111 245.682C223.187 245.682 223.25 245.678 223.299 245.67C223.348 245.661 223.387 245.653 223.417 245.647L223.558 246.27C223.511 246.288 223.445 246.305 223.361 246.323C223.277 246.342 223.17 246.352 223.041 246.352C222.845 246.352 222.653 246.31 222.464 246.226C222.278 246.142 222.124 246.013 222 245.841C221.879 245.668 221.818 245.451 221.818 245.188V240.698Z" fill="#3E4259"/>
<path d="M226.941 240.274H227.811L229.856 245.271H229.927L231.972 240.274H232.842V246.294H232.16V241.72H232.101L230.221 246.294H229.562L227.681 241.72H227.622V246.294H226.941V240.274Z" fill="#3E4259"/>
<path d="M236.043 246.388C235.636 246.388 235.278 246.291 234.971 246.097C234.665 245.903 234.426 245.631 234.254 245.282C234.083 244.934 233.998 244.526 233.998 244.06C233.998 243.59 234.083 243.179 234.254 242.828C234.426 242.478 234.665 242.205 234.971 242.011C235.278 241.817 235.636 241.72 236.043 241.72C236.451 241.72 236.808 241.817 237.113 242.011C237.421 242.205 237.66 242.478 237.83 242.828C238.003 243.179 238.089 243.59 238.089 244.06C238.089 244.526 238.003 244.934 237.83 245.282C237.66 245.631 237.421 245.903 237.113 246.097C236.808 246.291 236.451 246.388 236.043 246.388ZM236.043 245.764C236.353 245.764 236.608 245.685 236.808 245.526C237.007 245.368 237.155 245.159 237.251 244.9C237.347 244.642 237.395 244.362 237.395 244.06C237.395 243.758 237.347 243.477 237.251 243.216C237.155 242.956 237.007 242.745 236.808 242.584C236.608 242.424 236.353 242.343 236.043 242.343C235.734 242.343 235.479 242.424 235.279 242.584C235.079 242.745 234.931 242.956 234.835 243.216C234.739 243.477 234.691 243.758 234.691 244.06C234.691 244.362 234.739 244.642 234.835 244.9C234.931 245.159 235.079 245.368 235.279 245.526C235.479 245.685 235.734 245.764 236.043 245.764Z" fill="#3E4259"/>
<path d="M239.841 243.578V246.294H239.148V241.779H239.818V242.485H239.877C239.982 242.255 240.143 242.071 240.359 241.932C240.574 241.791 240.852 241.72 241.193 241.72C241.499 241.72 241.766 241.783 241.996 241.909C242.225 242.032 242.403 242.22 242.531 242.473C242.658 242.724 242.722 243.041 242.722 243.425V246.294H242.028V243.472C242.028 243.117 241.936 242.841 241.752 242.643C241.568 242.443 241.315 242.343 240.993 242.343C240.772 242.343 240.574 242.391 240.4 242.487C240.227 242.583 240.091 242.724 239.991 242.908C239.891 243.092 239.841 243.315 239.841 243.578Z" fill="#3E4259"/>
<path d="M245.952 241.779V242.367H243.613V241.779H245.952ZM244.295 240.698H244.988V245C244.988 245.196 245.017 245.343 245.074 245.441C245.132 245.537 245.207 245.602 245.297 245.635C245.389 245.667 245.486 245.682 245.588 245.682C245.664 245.682 245.727 245.678 245.776 245.67C245.825 245.661 245.864 245.653 245.894 245.647L246.035 246.27C245.988 246.288 245.922 246.305 245.838 246.323C245.753 246.342 245.647 246.352 245.517 246.352C245.321 246.352 245.129 246.31 244.941 246.226C244.755 246.142 244.6 246.013 244.477 245.841C244.355 245.668 244.295 245.451 244.295 245.188V240.698Z" fill="#3E4259"/>
<path d="M247.786 243.578V246.294H247.093V240.274H247.786V242.485H247.845C247.951 242.251 248.11 242.066 248.321 241.929C248.535 241.79 248.819 241.72 249.173 241.72C249.481 241.72 249.75 241.782 249.982 241.906C250.213 242.027 250.392 242.214 250.52 242.467C250.649 242.718 250.713 243.037 250.713 243.425V246.294H250.02V243.472C250.02 243.113 249.927 242.836 249.741 242.64C249.556 242.442 249.301 242.343 248.974 242.343C248.746 242.343 248.543 242.391 248.362 242.487C248.184 242.583 248.043 242.724 247.939 242.908C247.837 243.092 247.786 243.315 247.786 243.578Z" fill="#3E4259"/>
<path d="M203.097 243.536C203.097 245.821 201.244 247.674 198.959 247.674C196.674 247.674 194.821 245.821 194.821 243.536C194.821 241.25 196.674 239.397 198.959 239.397C201.244 239.397 203.097 241.25 203.097 243.536Z" fill="#FF4F79"/>
<path fill-rule="evenodd" clip-rule="evenodd" d="M396.137 60.3487L43.0166 60.3488L43.0166 60.0039L396.137 60.0039L396.137 60.3487Z" fill="#B7B8C1"/>
<path d="M18.1733 63.7964V63.2233L20.3257 60.8671C20.5783 60.5912 20.7863 60.3513 20.9497 60.1476C21.1132 59.9417 21.2342 59.7485 21.3127 59.5681C21.3934 59.3856 21.4337 59.1945 21.4337 58.995C21.4337 58.7658 21.3785 58.5673 21.2681 58.3996C21.1599 58.2319 21.0113 58.1024 20.8224 58.0112C20.6335 57.9199 20.4212 57.8743 20.1856 57.8743C19.9351 57.8743 19.7165 57.9263 19.5297 58.0303C19.345 58.1322 19.2017 58.2754 19.0999 58.4601C19.0001 58.6448 18.9502 58.8613 18.9502 59.1096H18.1988C18.1988 58.7275 18.2869 58.3922 18.4631 58.1035C18.6393 57.8148 18.8791 57.5898 19.1826 57.4285C19.4883 57.2672 19.8311 57.1865 20.2111 57.1865C20.5931 57.1865 20.9317 57.2672 21.2267 57.4285C21.5218 57.5898 21.7531 57.8074 21.9208 58.0812C22.0885 58.355 22.1724 58.6596 22.1724 58.995C22.1724 59.2349 22.1288 59.4694 22.0418 59.6986C21.9569 59.9258 21.8083 60.1794 21.5961 60.4596C21.3859 60.7377 21.0941 61.0773 20.7205 61.4785L19.2559 63.045V63.0959H22.287V63.7964H18.1733Z" fill="#3E4259"/>
<path d="M25.55 63.8855C25.1764 63.8855 24.84 63.8112 24.5407 63.6626C24.2414 63.5141 24.0015 63.3103 23.8211 63.0513C23.6407 62.7924 23.542 62.4973 23.525 62.1662H24.2892C24.3189 62.4612 24.4526 62.7053 24.6903 62.8985C24.9302 63.0895 25.2167 63.185 25.55 63.185C25.8174 63.185 26.0552 63.1224 26.2632 62.9972C26.4733 62.872 26.6378 62.7 26.7567 62.4814C26.8777 62.2606 26.9382 62.0112 26.9382 61.7332C26.9382 61.4487 26.8756 61.1951 26.7503 60.9722C26.6272 60.7472 26.4574 60.57 26.2409 60.4405C26.0244 60.311 25.7771 60.2452 25.499 60.2431C25.2995 60.241 25.0947 60.2718 24.8846 60.3354C24.6744 60.397 24.5014 60.4766 24.3656 60.5742L23.6269 60.4851L24.0217 57.2757H27.4094V57.9761H24.684L24.4547 59.8992H24.4929C24.6267 59.7931 24.7943 59.705 24.996 59.635C25.1976 59.5649 25.4078 59.5299 25.6264 59.5299C26.0255 59.5299 26.381 59.6254 26.693 59.8164C27.0072 60.0054 27.2534 60.2643 27.4317 60.5933C27.6121 60.9223 27.7023 61.298 27.7023 61.7204C27.7023 62.1365 27.6089 62.5079 27.4221 62.8348C27.2375 63.1596 26.9828 63.4164 26.658 63.6053C26.3332 63.7921 25.9639 63.8855 25.55 63.8855Z" fill="#3E4259"/>
<path d="M29.5907 62.0134L29.5779 61.0837H29.7308L31.8704 58.9058H32.8001L30.5204 61.211H30.4567L29.5907 62.0134ZM28.8902 63.7964V57.2757H29.6416V63.7964H28.8902ZM31.9977 63.7964L30.0874 61.3766L30.6223 60.8544L32.9529 63.7964H31.9977Z" fill="#3E4259"/>
<path fill-rule="evenodd" clip-rule="evenodd" d="M396.137 100.353L43.0171 100.353L43.0171 100.008L396.137 100.008L396.137 100.353Z" fill="#B7B8C1"/>
<path d="M18.1733 103.8V103.227L20.3257 100.871C20.5783 100.595 20.7863 100.355 20.9497 100.151C21.1132 99.9456 21.2342 99.7524 21.3127 99.572C21.3934 99.3895 21.4337 99.1984 21.4337 98.9989C21.4337 98.7697 21.3785 98.5712 21.2681 98.4035C21.1599 98.2358 21.0113 98.1063 20.8224 98.0151C20.6335 97.9238 20.4212 97.8782 20.1856 97.8782C19.9351 97.8782 19.7165 97.9302 19.5297 98.0342C19.345 98.1361 19.2017 98.2793 19.0999 98.464C19.0001 98.6487 18.9502 98.8652 18.9502 99.1135H18.1988C18.1988 98.7315 18.2869 98.3961 18.4631 98.1074C18.6393 97.8187 18.8791 97.5937 19.1826 97.4324C19.4883 97.2711 19.8311 97.1904 20.2111 97.1904C20.5931 97.1904 20.9317 97.2711 21.2267 97.4324C21.5218 97.5937 21.7531 97.8113 21.9208 98.0851C22.0885 98.3589 22.1724 98.6635 22.1724 98.9989C22.1724 99.2388 22.1288 99.4733 22.0418 99.7025C21.9569 99.9297 21.8083 100.183 21.5961 100.464C21.3859 100.742 21.0941 101.081 20.7205 101.482L19.2559 103.049V103.1H22.287V103.8H18.1733Z" fill="#3E4259"/>
<path d="M25.6391 103.889C25.1594 103.889 24.7508 103.759 24.4133 103.498C24.0758 103.235 23.8179 102.854 23.6396 102.355C23.4613 101.854 23.3722 101.249 23.3722 100.54C23.3722 99.8352 23.4613 99.2335 23.6396 98.7346C23.8201 98.2337 24.079 97.8516 24.4165 97.5884C24.7561 97.3231 25.1637 97.1904 25.6391 97.1904C26.1146 97.1904 26.5211 97.3231 26.8586 97.5884C27.1982 97.8516 27.4572 98.2337 27.6355 98.7346C27.8159 99.2335 27.9061 99.8352 27.9061 100.54C27.9061 101.249 27.8169 101.854 27.6386 102.355C27.4603 102.854 27.2024 103.235 26.865 103.498C26.5275 103.759 26.1189 103.889 25.6391 103.889ZM25.6391 103.189C26.1146 103.189 26.4839 102.96 26.7471 102.501C27.0104 102.043 27.142 101.389 27.142 100.54C27.142 99.9753 27.0815 99.4945 26.9605 99.0976C26.8416 98.7007 26.6697 98.3982 26.4447 98.1902C26.2218 97.9822 25.9533 97.8782 25.6391 97.8782C25.1679 97.8782 24.7996 98.1106 24.5343 98.5754C24.269 99.0382 24.1363 99.693 24.1363 100.54C24.1363 101.105 24.1958 101.584 24.3146 101.979C24.4335 102.374 24.6044 102.674 24.8272 102.88C25.0522 103.086 25.3229 103.189 25.6391 103.189Z" fill="#3E4259"/>
<path d="M29.7395 102.017L29.7268 101.088H29.8796L32.0192 98.9098H32.9489L30.6692 101.215H30.6056L29.7395 102.017ZM29.0391 103.8V97.2796H29.7905V103.8H29.0391ZM32.1466 103.8L30.2362 101.38L30.7711 100.858L33.1018 103.8H32.1466Z" fill="#3E4259"/>
<path fill-rule="evenodd" clip-rule="evenodd" d="M396.138 140.355L43.0181 140.355L43.0181 140.01L396.138 140.01L396.138 140.355Z" fill="#B7B8C1"/>
<path d="M20.4667 137.282V143.803H19.677V138.11H19.6388L18.0469 139.167V138.365L19.677 137.282H20.4667Z" fill="#3E4259"/>
<path d="M24.29 143.892C23.9165 143.892 23.58 143.818 23.2807 143.669C22.9815 143.521 22.7416 143.317 22.5612 143.058C22.3808 142.799 22.2821 142.504 22.2651 142.173H23.0292C23.0589 142.468 23.1927 142.712 23.4304 142.905C23.6702 143.096 23.9568 143.192 24.29 143.192C24.5575 143.192 24.7952 143.129 25.0032 143.004C25.2134 142.879 25.3779 142.707 25.4968 142.488C25.6177 142.267 25.6782 142.018 25.6782 141.74C25.6782 141.455 25.6156 141.202 25.4904 140.979C25.3673 140.754 25.1975 140.577 24.981 140.447C24.7645 140.318 24.5172 140.252 24.2391 140.25C24.0396 140.248 23.8347 140.278 23.6246 140.342C23.4145 140.404 23.2415 140.483 23.1056 140.581L22.367 140.492L22.7618 137.282H26.1495V137.983H23.424L23.1948 139.906H23.233C23.3667 139.8 23.5344 139.712 23.736 139.642C23.9377 139.571 24.1478 139.536 24.3665 139.536C24.7655 139.536 25.1211 139.632 25.4331 139.823C25.7472 140.012 25.9935 140.271 26.1718 140.6C26.3522 140.929 26.4424 141.305 26.4424 141.727C26.4424 142.143 26.349 142.514 26.1622 142.841C25.9775 143.166 25.7228 143.423 25.3981 143.612C25.0733 143.799 24.704 143.892 24.29 143.892Z" fill="#3E4259"/>
<path d="M28.3307 142.02L28.318 141.09H28.4708L30.6104 138.912H31.5401L29.2604 141.218H29.1968L28.3307 142.02ZM27.6303 143.803V137.282H28.3817V143.803H27.6303ZM30.7378 143.803L28.8274 141.383L29.3623 140.861L31.693 143.803H30.7378Z" fill="#3E4259"/>
<path fill-rule="evenodd" clip-rule="evenodd" d="M396.138 180.354L43.0181 180.354L43.0181 180.009L396.138 180.009L396.138 180.354Z" fill="#B7B8C1"/>
<path d="M20.2115 183.892C19.8379 183.892 19.5015 183.818 19.2022 183.669C18.9029 183.521 18.6631 183.317 18.4826 183.058C18.3022 182.799 18.2035 182.504 18.1865 182.173H18.9507C18.9804 182.468 19.1141 182.712 19.3518 182.905C19.5917 183.096 19.8783 183.192 20.2115 183.192C20.479 183.192 20.7167 183.129 20.9247 183.004C21.1348 182.879 21.2993 182.707 21.4182 182.488C21.5392 182.267 21.5997 182.018 21.5997 181.74C21.5997 181.455 21.5371 181.202 21.4118 180.979C21.2887 180.754 21.1189 180.577 20.9024 180.447C20.6859 180.318 20.4386 180.252 20.1606 180.25C19.961 180.248 19.7562 180.278 19.5461 180.342C19.3359 180.404 19.1629 180.483 19.0271 180.581L18.2884 180.492L18.6832 177.282H22.0709V177.983H19.3455L19.1162 179.906H19.1544C19.2882 179.8 19.4558 179.712 19.6575 179.642C19.8591 179.571 20.0693 179.536 20.2879 179.536C20.687 179.536 21.0425 179.632 21.3545 179.823C21.6687 180.012 21.9149 180.271 22.0932 180.6C22.2736 180.929 22.3638 181.305 22.3638 181.727C22.3638 182.143 22.2704 182.514 22.0837 182.841C21.899 183.166 21.6443 183.423 21.3195 183.612C20.9947 183.799 20.6254 183.892 20.2115 183.892Z" fill="#3E4259"/>
<path d="M24.2522 182.02L24.2395 181.09H24.3923L26.5319 178.912H27.4616L25.1819 181.218H25.1182L24.2522 182.02ZM23.5517 183.803V177.282H24.3031V183.803H23.5517ZM26.6592 183.803L24.7489 181.383L25.2838 180.861L27.6144 183.803H26.6592Z" fill="#3E4259"/>
<path fill-rule="evenodd" clip-rule="evenodd" d="M396.138 216.909L43.0181 216.909L43.0181 216.564L396.138 216.564L396.138 216.909Z" fill="#B7B8C1"/>
<path d="M20.3011 220.447C19.8214 220.447 19.4128 220.316 19.0753 220.055C18.7378 219.792 18.4799 219.411 18.3016 218.912C18.1233 218.411 18.0342 217.806 18.0342 217.098C18.0342 216.393 18.1233 215.791 18.3016 215.292C18.4821 214.791 18.741 214.409 19.0785 214.146C19.4181 213.881 19.8257 213.748 20.3011 213.748C20.7766 213.748 21.1831 213.881 21.5206 214.146C21.8602 214.409 22.1192 214.791 22.2975 215.292C22.4779 215.791 22.5681 216.393 22.5681 217.098C22.5681 217.806 22.4789 218.411 22.3006 218.912C22.1223 219.411 21.8644 219.792 21.5269 220.055C21.1895 220.316 20.7808 220.447 20.3011 220.447ZM20.3011 219.747C20.7766 219.747 21.1459 219.517 21.4091 219.059C21.6723 218.6 21.804 217.947 21.804 217.098C21.804 216.533 21.7435 216.052 21.6225 215.655C21.5036 215.258 21.3317 214.956 21.1067 214.748C20.8838 214.54 20.6153 214.436 20.3011 214.436C19.8299 214.436 19.4616 214.668 19.1963 215.133C18.931 215.596 18.7983 216.251 18.7983 217.098C18.7983 217.662 18.8578 218.142 18.9766 218.537C19.0955 218.931 19.2664 219.232 19.4892 219.438C19.7142 219.644 19.9849 219.747 20.3011 219.747Z" fill="#3E4259"/>
<path d="M24.4015 218.575L24.3888 217.645H24.5416L26.6812 215.467H27.6109L25.3312 217.773H25.2676L24.4015 218.575ZM23.7011 220.358V213.837H24.4525V220.358H23.7011ZM26.8086 220.358L24.8982 217.938L25.4331 217.416L27.7638 220.358H26.8086Z" fill="#3E4259"/>
<path d="M88.7348 121.889C62.2706 129.258 43.939 179.478 43.939 179.478V219.353H396.827V112.923C396.827 112.923 388.687 153.241 369.756 163.96C339.145 181.294 329.22 107.284 294.989 112.923C278.298 115.673 273.523 133.953 256.639 134.303C232.211 134.811 232.407 92.3016 207.976 92.2325C175.993 92.1421 192.052 156.102 160.924 163.96C129.68 171.847 119.802 113.238 88.7348 121.889Z" fill="url(#paint0_linear_2805_978)"/>
<path fill-rule="evenodd" clip-rule="evenodd" d="M178.156 150.018C174.682 157.334 169.583 163.198 161.261 165.299C152.954 167.396 146.062 165.038 140.017 160.612C134.102 156.281 128.9 149.899 123.851 143.705L123.694 143.511C118.534 137.182 113.528 131.071 107.922 127.044C102.391 123.07 96.3751 121.195 89.1047 123.219C82.826 124.968 76.9252 129.294 71.5723 134.946C66.23 140.587 61.5181 147.459 57.603 154.145C53.6912 160.826 50.596 167.284 48.4783 172.075C47.4199 174.469 46.607 176.444 46.0596 177.818C45.7859 178.505 45.5786 179.041 45.4403 179.404C45.3711 179.586 45.3192 179.725 45.2848 179.817C45.2676 179.863 45.2548 179.898 45.2464 179.92L45.2372 179.945L45.235 179.951L45.2346 179.952C45.2346 179.952 45.2346 179.952 45.2276 179.95L45.2346 179.952C44.9734 180.668 44.1815 181.036 43.4658 180.775C42.7502 180.514 42.3819 179.722 42.6431 179.006L43.9388 179.479C42.6431 179.006 42.6433 179.006 42.6435 179.005L42.6472 178.995L42.658 178.966C42.6675 178.94 42.6814 178.903 42.6997 178.854C42.7363 178.755 42.7905 178.611 42.8621 178.423C43.0052 178.047 43.2176 177.497 43.4968 176.797C44.0553 175.395 44.8813 173.389 45.955 170.96C48.1015 166.104 51.2432 159.547 55.2224 152.751C59.1982 145.962 64.0312 138.897 69.5692 133.049C75.0965 127.213 81.4113 122.498 88.3647 120.562C96.6277 118.261 103.496 120.467 109.532 124.803C115.492 129.086 120.733 135.512 125.832 141.768L125.849 141.789C131.003 148.112 136.019 154.265 141.647 158.386C147.212 162.46 153.272 164.471 160.586 162.624C167.828 160.796 172.395 155.718 175.664 148.834C178.822 142.185 180.68 134.039 182.546 125.856C182.625 125.507 182.705 125.159 182.784 124.81C184.71 116.379 186.711 107.932 190.31 101.615C192.123 98.4313 194.377 95.7213 197.292 93.8136C200.221 91.897 203.737 90.8426 207.979 90.8546C214.557 90.8732 219.464 93.7737 223.45 97.9565C227.34 102.039 230.424 107.422 233.398 112.613L233.505 112.8C236.556 118.123 239.5 123.228 243.155 126.995C246.758 130.707 250.977 133.043 256.61 132.926C264.483 132.762 269.554 128.463 274.953 123.499C275.221 123.252 275.49 123.004 275.76 122.754C280.857 118.049 286.387 112.944 294.765 111.564C303.905 110.058 311.357 113.915 317.754 119.955C323.76 125.624 328.998 133.37 333.994 140.758C334.287 141.192 334.58 141.624 334.872 142.055C340.199 149.92 345.254 157.161 350.811 161.411C353.56 163.513 356.359 164.823 359.307 165.143C362.24 165.46 365.456 164.811 369.076 162.761C373.539 160.234 377.45 155.908 380.815 150.715C384.17 145.535 386.923 139.584 389.103 133.927C391.282 128.275 392.877 122.949 393.927 119.034C394.452 117.078 394.84 115.477 395.096 114.367C395.224 113.813 395.32 113.381 395.383 113.089C395.414 112.943 395.437 112.833 395.453 112.759L395.47 112.677L395.475 112.652L395.475 112.652C395.626 111.905 396.353 111.422 397.1 111.573C397.847 111.723 398.33 112.451 398.179 113.198L396.827 112.925C398.179 113.198 398.179 113.198 398.179 113.199L398.178 113.2L398.172 113.231L398.153 113.322C398.137 113.402 398.112 113.519 398.079 113.671C398.014 113.975 397.916 114.42 397.784 114.988C397.521 116.126 397.126 117.758 396.592 119.749C395.524 123.729 393.9 129.152 391.678 134.919C389.457 140.682 386.625 146.82 383.13 152.215C379.644 157.596 375.439 162.329 370.436 165.162C366.403 167.445 362.612 168.275 359.01 167.885C355.422 167.497 352.156 165.913 349.135 163.602C343.152 159.027 337.847 151.368 332.587 143.602C332.314 143.199 332.041 142.795 331.768 142.391C326.715 134.922 321.636 127.413 315.861 121.961C309.813 116.251 303.188 112.972 295.213 114.286C287.672 115.528 282.703 120.108 277.5 124.904C277.274 125.112 277.047 125.321 276.82 125.53C271.437 130.48 265.678 135.497 256.667 135.684C250.087 135.821 245.17 133.033 241.175 128.916C237.234 124.853 234.12 119.421 231.112 114.171L231.104 114.158C228.056 108.838 225.111 103.699 221.452 99.8596C217.84 96.0683 213.609 93.6293 207.972 93.6133C204.218 93.6027 201.24 94.5273 198.803 96.1219C196.353 97.7254 194.371 100.059 192.707 102.981C189.348 108.877 187.422 116.894 185.474 125.424C185.385 125.812 185.297 126.2 185.208 126.589C183.367 134.667 181.449 143.085 178.156 150.018Z" fill="#4169E1"/>
<path fill-rule="evenodd" clip-rule="evenodd" d="M208.207 58.0841L208.207 55.9707L208.897 55.9707L208.897 58.0841L208.207 58.0841ZM208.207 66.5375L208.207 62.3108L208.897 62.3108L208.897 66.5375L208.207 66.5375ZM208.207 74.991L208.207 70.7643L208.897 70.7643L208.897 74.991L208.207 74.991ZM208.207 83.4445L208.207 79.2178L208.897 79.2178L208.897 83.4445L208.207 83.4445ZM208.207 91.898L208.207 87.6712L208.897 87.6712L208.897 91.898L208.207 91.898ZM208.207 100.351L208.207 96.1247L208.897 96.1247L208.897 100.351L208.207 100.351ZM208.207 108.805L208.207 104.578L208.897 104.578L208.897 108.805L208.207 108.805ZM208.207 117.258L208.207 113.032L208.897 113.032L208.897 117.258L208.207 117.258ZM208.207 125.712L208.207 121.485L208.897 121.485L208.897 125.712L208.207 125.712ZM208.207 134.165L208.207 129.939L208.897 129.939L208.897 134.165L208.207 134.165ZM208.207 142.619L208.207 138.392L208.897 138.392L208.897 142.619L208.207 142.619ZM208.207 151.072L208.207 146.846L208.897 146.846L208.897 151.072L208.207 151.072ZM208.207 159.526L208.207 155.299L208.897 155.299L208.897 159.526L208.207 159.526ZM208.207 167.979L208.207 163.752L208.897 163.752L208.897 167.979L208.207 167.979ZM208.207 176.433L208.207 172.206L208.897 172.206L208.897 176.433L208.207 176.433ZM208.207 184.886L208.207 180.659L208.897 180.659L208.897 184.886L208.207 184.886ZM208.207 193.34L208.207 189.113L208.897 189.113L208.897 193.34L208.207 193.34ZM208.207 201.793L208.207 197.566L208.897 197.566L208.897 201.793L208.207 201.793ZM208.207 210.247L208.207 206.02L208.897 206.02L208.897 210.247L208.207 210.247ZM208.207 216.587L208.207 214.473L208.897 214.473L208.897 216.587L208.207 216.587Z" fill="#9D9EA9"/>
<rect x="181.645" y="60.3496" width="55.8647" height="23.4494" rx="11.7247" fill="#0E132F"/>
<path d="M186.327 77.8318V65.1045H187.142V77.8318H186.327ZM188.679 69.1762C188.632 68.742 188.437 68.404 188.092 68.162C187.751 67.9201 187.306 67.7991 186.76 67.7991C186.375 67.7991 186.045 67.8571 185.77 67.9731C185.495 68.0891 185.285 68.2465 185.139 68.4454C184.993 68.6443 184.918 68.8713 184.915 69.1265C184.915 69.3386 184.963 69.5226 185.059 69.6784C185.159 69.8341 185.293 69.9667 185.462 70.0761C185.631 70.1821 185.818 70.2716 186.024 70.3445C186.229 70.4175 186.436 70.4788 186.645 70.5285L187.6 70.7671C187.984 70.8566 188.354 70.9776 188.708 71.1301C189.066 71.2825 189.386 71.4748 189.668 71.7068C189.953 71.9388 190.178 72.2188 190.344 72.547C190.51 72.8751 190.593 73.2596 190.593 73.7004C190.593 74.297 190.44 74.8223 190.135 75.2764C189.83 75.7271 189.39 76.0801 188.813 76.3353C188.239 76.5872 187.545 76.7132 186.73 76.7132C185.938 76.7132 185.25 76.5905 184.667 76.3453C184.087 76.1 183.632 75.742 183.304 75.2714C182.98 74.8008 182.804 74.2274 182.777 73.5512H184.592C184.618 73.9059 184.728 74.2008 184.92 74.4362C185.112 74.6715 185.363 74.8472 185.671 74.9632C185.982 75.0792 186.33 75.1372 186.715 75.1372C187.116 75.1372 187.467 75.0775 187.769 74.9582C188.074 74.8356 188.312 74.6665 188.485 74.4511C188.657 74.2323 188.745 73.9771 188.748 73.6855C188.745 73.4203 188.667 73.2016 188.515 73.0292C188.362 72.8535 188.148 72.7077 187.873 72.5917C187.601 72.4724 187.283 72.3663 186.919 72.2735L185.76 71.9752C184.922 71.7598 184.259 71.4333 183.772 70.9958C183.288 70.555 183.046 69.97 183.046 69.2409C183.046 68.641 183.208 68.1156 183.533 67.6649C183.861 67.2141 184.307 66.8644 184.87 66.6159C185.434 66.364 186.072 66.238 186.784 66.238C187.507 66.238 188.14 66.364 188.684 66.6159C189.23 66.8644 189.66 67.2108 189.971 67.6549C190.283 68.0957 190.444 68.6028 190.453 69.1762H188.679Z" fill="white"/>
<path d="M196.139 66.3772V76.559H194.294V68.172H194.235L191.853 69.6933V68.0029L194.384 66.3772H196.139Z" fill="white"/>
<path d="M202.124 76.6982C201.461 76.6982 200.868 76.574 200.344 76.3254C199.82 76.0735 199.404 75.7288 199.096 75.2913C198.791 74.8538 198.629 74.3533 198.609 73.7899H200.399C200.432 74.2075 200.613 74.5489 200.941 74.814C201.269 75.0758 201.663 75.2068 202.124 75.2068C202.485 75.2068 202.807 75.1239 203.088 74.9582C203.37 74.7925 203.592 74.5621 203.755 74.2671C203.917 73.9722 203.997 73.6357 203.993 73.2579C203.997 72.8734 203.915 72.532 203.75 72.2338C203.584 71.9355 203.357 71.7018 203.069 71.5328C202.78 71.3604 202.449 71.2742 202.074 71.2742C201.769 71.2709 201.469 71.3273 201.174 71.4433C200.879 71.5593 200.646 71.7117 200.473 71.9007L198.808 71.6272L199.34 66.3772H205.246V67.9184H200.866L200.573 70.618H200.632C200.821 70.3959 201.088 70.212 201.433 70.0661C201.778 69.917 202.155 69.8424 202.566 69.8424C203.183 69.8424 203.733 69.9883 204.217 70.2799C204.701 70.5683 205.082 70.966 205.36 71.4731C205.639 71.9802 205.778 72.5602 205.778 73.2132C205.778 73.886 205.622 74.4859 205.311 75.0129C205.002 75.5365 204.573 75.9492 204.023 76.2508C203.476 76.5491 202.843 76.6982 202.124 76.6982Z" fill="white"/>
<path d="M209.095 75.167L209.03 75.7139C208.984 76.1315 208.901 76.5557 208.781 76.9866C208.665 77.4208 208.543 77.8202 208.413 78.1847C208.284 78.5493 208.18 78.836 208.1 79.0448H206.887C206.934 78.8427 206.997 78.5676 207.076 78.2195C207.159 77.8715 207.238 77.4804 207.315 77.0463C207.391 76.6121 207.442 76.1713 207.469 75.7238L207.504 75.167H209.095Z" fill="white"/>
<path d="M214.318 76.7529C213.499 76.7529 212.796 76.5458 212.21 76.1315C211.626 75.7139 211.177 75.1123 210.862 74.3268C210.551 73.538 210.395 72.5884 210.395 71.4781C210.398 70.3677 210.556 69.4231 210.867 68.6443C211.182 67.8621 211.631 67.2655 212.215 66.8545C212.801 66.4435 213.502 66.238 214.318 66.238C215.133 66.238 215.834 66.4435 216.421 66.8545C217.007 67.2655 217.456 67.8621 217.768 68.6443C218.083 69.4265 218.24 70.3711 218.24 71.4781C218.24 72.5917 218.083 73.5429 217.768 74.3318C217.456 75.1173 217.007 75.7172 216.421 76.1315C215.837 76.5458 215.136 76.7529 214.318 76.7529ZM214.318 75.1968C214.954 75.1968 215.456 74.8836 215.824 74.2572C216.195 73.6275 216.381 72.7011 216.381 71.4781C216.381 70.6694 216.296 69.9899 216.127 69.4397C215.958 68.8895 215.72 68.4752 215.411 68.1968C215.103 67.9151 214.739 67.7742 214.318 67.7742C213.685 67.7742 213.184 68.0891 212.816 68.7188C212.448 69.3453 212.263 70.265 212.259 71.4781C212.256 72.2901 212.337 72.9729 212.503 73.5264C212.672 74.0799 212.911 74.4975 213.219 74.7792C213.527 75.0576 213.893 75.1968 214.318 75.1968Z" fill="white"/>
<path d="M223.287 66.238C223.774 66.2413 224.248 66.3275 224.709 66.4965C225.173 66.6623 225.59 66.934 225.962 67.3119C226.333 67.6864 226.628 68.1885 226.847 68.8183C227.065 69.448 227.175 70.2269 227.175 71.1549C227.178 72.0299 227.085 72.8121 226.896 73.5015C226.711 74.1876 226.444 74.7676 226.096 75.2416C225.748 75.7155 225.329 76.0768 224.838 76.3254C224.347 76.574 223.796 76.6982 223.182 76.6982C222.539 76.6982 221.969 76.5723 221.472 76.3204C220.978 76.0685 220.579 75.7238 220.274 75.2863C219.969 74.8488 219.782 74.3483 219.712 73.7849H221.527C221.62 74.1892 221.809 74.5107 222.094 74.7494C222.382 74.9847 222.745 75.1024 223.182 75.1024C223.888 75.1024 224.432 74.7958 224.813 74.1826C225.194 73.5695 225.385 72.7177 225.385 71.6272H225.315C225.153 71.9189 224.942 72.1708 224.684 72.3829C224.425 72.5917 224.132 72.7525 223.804 72.8651C223.479 72.9778 223.134 73.0342 222.77 73.0342C222.173 73.0342 221.636 72.8917 221.159 72.6066C220.685 72.3216 220.309 71.9305 220.03 71.4333C219.755 70.9362 219.616 70.3678 219.613 69.7281C219.613 69.0652 219.765 68.4703 220.07 67.9433C220.378 67.413 220.808 66.9954 221.358 66.6904C221.908 66.3822 222.551 66.2314 223.287 66.238ZM223.292 67.7295C222.934 67.7295 222.611 67.8173 222.322 67.993C222.037 68.1653 221.812 68.4007 221.646 68.699C221.484 68.9939 221.403 69.3237 221.403 69.6883C221.406 70.0496 221.487 70.3777 221.646 70.6727C221.809 70.9677 222.029 71.2013 222.307 71.3737C222.589 71.546 222.911 71.6322 223.272 71.6322C223.54 71.6322 223.791 71.5808 224.023 71.4781C224.255 71.3753 224.457 71.2328 224.629 71.0505C224.805 70.8649 224.941 70.6544 225.037 70.4191C225.136 70.1838 225.184 69.9352 225.181 69.6734C225.181 69.3254 225.098 69.0039 224.932 68.7089C224.77 68.4139 224.546 68.1769 224.261 67.998C223.98 67.819 223.656 67.7295 223.292 67.7295Z" fill="white"/>
<path d="M232.454 76.7529C231.635 76.7529 230.932 76.5458 230.346 76.1315C229.762 75.7139 229.313 75.1123 228.998 74.3268C228.687 73.538 228.531 72.5884 228.531 71.4781C228.534 70.3677 228.692 69.4231 229.003 68.6443C229.318 67.8621 229.767 67.2655 230.351 66.8545C230.937 66.4435 231.638 66.238 232.454 66.238C233.269 66.238 233.97 66.4435 234.557 66.8545C235.143 67.2655 235.592 67.8621 235.904 68.6443C236.219 69.4265 236.376 70.3711 236.376 71.4781C236.376 72.5917 236.219 73.5429 235.904 74.3318C235.592 75.1173 235.143 75.7172 234.557 76.1315C233.973 76.5458 233.272 76.7529 232.454 76.7529ZM232.454 75.1968C233.09 75.1968 233.592 74.8836 233.96 74.2572C234.331 73.6275 234.517 72.7011 234.517 71.4781C234.517 70.6694 234.432 69.9899 234.263 69.4397C234.094 68.8895 233.856 68.4752 233.547 68.1968C233.239 67.9151 232.875 67.7742 232.454 67.7742C231.821 67.7742 231.32 68.0891 230.952 68.7188C230.584 69.3453 230.399 70.265 230.395 71.4781C230.392 72.2901 230.473 72.9729 230.639 73.5264C230.808 74.0799 231.047 74.4975 231.355 74.7792C231.663 75.0576 232.029 75.1968 232.454 75.1968Z" fill="white"/>
<path d="M211.301 90.9834C211.301 92.507 210.066 93.7421 208.542 93.7421C207.018 93.7421 205.783 92.507 205.783 90.9834C205.783 89.4597 207.018 88.2246 208.542 88.2246C210.066 88.2246 211.301 89.4597 211.301 90.9834Z" fill="#0E132F"/>
<path fill-rule="evenodd" clip-rule="evenodd" d="M214.059 90.9853C214.059 94.0325 211.589 96.5028 208.542 96.5028C205.495 96.5028 203.024 94.0325 203.024 90.9853C203.024 87.938 205.495 85.4678 208.542 85.4678C211.589 85.4678 214.059 87.938 214.059 90.9853ZM208.542 93.744C210.066 93.744 211.301 92.5089 211.301 90.9853C211.301 89.4617 210.066 88.2265 208.542 88.2265C207.018 88.2265 205.783 89.4617 205.783 90.9853C205.783 92.5089 207.018 93.744 208.542 93.744Z" fill="white"/>
<defs>
<linearGradient id="paint0_linear_2805_978" x1="220.383" y1="92.2324" x2="220.383" y2="219.353" gradientUnits="userSpaceOnUse">
<stop stop-color="#4169E1" stop-opacity="0.12"/>
<stop offset="1" stop-color="#4169E1" stop-opacity="0.01"/>
</linearGradient>
</defs>
</svg>
