<svg width="369" height="233" viewBox="0 0 369 233" fill="none" xmlns="http://www.w3.org/2000/svg">
<g clip-path="url(#clip0_2805_837)">
<rect y="0.9375" width="369" height="232" rx="20" fill="#422369"/>
<path d="M29.1186 40.9375V30.7557H32.7479C33.54 30.7557 34.1963 30.8999 34.7166 31.1882C35.237 31.4766 35.6264 31.871 35.8849 32.3714C36.1435 32.8686 36.2727 33.4287 36.2727 34.0518C36.2727 34.6783 36.1418 35.2417 35.88 35.7422C35.6214 36.2393 35.2304 36.6338 34.7067 36.9254C34.1863 37.2138 33.5317 37.358 32.7429 37.358H30.2472V36.0554H32.6037C33.1042 36.0554 33.5102 35.9692 33.8217 35.7969C34.1333 35.6212 34.362 35.3826 34.5078 35.081C34.6536 34.7794 34.7266 34.4363 34.7266 34.0518C34.7266 33.6674 34.6536 33.326 34.5078 33.0277C34.362 32.7294 34.1316 32.4957 33.8168 32.3267C33.5052 32.1577 33.0942 32.0732 32.5838 32.0732H30.6548V40.9375H29.1186ZM37.6744 40.9375V33.3011H39.1112V34.5142H39.1907C39.3299 34.1032 39.5752 33.7801 39.9265 33.5447C40.2811 33.3061 40.6822 33.1868 41.1296 33.1868C41.2224 33.1868 41.3318 33.1901 41.4577 33.1967C41.587 33.2034 41.6881 33.2116 41.761 33.2216V34.6435C41.7014 34.6269 41.5953 34.6087 41.4428 34.5888C41.2904 34.5656 41.1379 34.554 40.9854 34.554C40.6341 34.554 40.3209 34.6286 40.0458 34.7777C39.774 34.9235 39.5586 35.1274 39.3995 35.3892C39.2404 35.6477 39.1609 35.9427 39.1609 36.2741V40.9375H37.6744ZM45.7106 41.0916C44.9947 41.0916 44.3699 40.9276 43.8363 40.5994C43.3027 40.2713 42.8884 39.8123 42.5934 39.2223C42.2984 38.6323 42.1509 37.9429 42.1509 37.1541C42.1509 36.362 42.2984 35.6693 42.5934 35.076C42.8884 34.4827 43.3027 34.022 43.8363 33.6939C44.3699 33.3658 44.9947 33.2017 45.7106 33.2017C46.4265 33.2017 47.0513 33.3658 47.5849 33.6939C48.1185 34.022 48.5328 34.4827 48.8278 35.076C49.1228 35.6693 49.2703 36.362 49.2703 37.1541C49.2703 37.9429 49.1228 38.6323 48.8278 39.2223C48.5328 39.8123 48.1185 40.2713 47.5849 40.5994C47.0513 40.9276 46.4265 41.0916 45.7106 41.0916ZM45.7156 39.8438C46.1796 39.8438 46.5641 39.7211 46.869 39.4759C47.1739 39.2306 47.3993 38.9041 47.5451 38.4964C47.6943 38.0888 47.7688 37.6397 47.7688 37.1491C47.7688 36.6619 47.6943 36.2145 47.5451 35.8068C47.3993 35.3958 47.1739 35.0661 46.869 34.8175C46.5641 34.5689 46.1796 34.4446 45.7156 34.4446C45.2482 34.4446 44.8605 34.5689 44.5522 34.8175C44.2473 35.0661 44.0203 35.3958 43.8711 35.8068C43.7253 36.2145 43.6524 36.6619 43.6524 37.1491C43.6524 37.6397 43.7253 38.0888 43.8711 38.4964C44.0203 38.9041 44.2473 39.2306 44.5522 39.4759C44.8605 39.7211 45.2482 39.8438 45.7156 39.8438ZM54.2838 33.3011V34.4943H49.9684V33.3011H54.2838ZM51.1517 40.9375V32.4162C51.1517 31.9389 51.2561 31.5428 51.4649 31.228C51.6737 30.9098 51.9504 30.6728 52.2951 30.517C52.6398 30.358 53.0143 30.2784 53.4187 30.2784C53.717 30.2784 53.9722 30.3033 54.1843 30.353C54.3964 30.3994 54.5539 30.4425 54.6566 30.4822L54.3086 31.6854C54.239 31.6655 54.1495 31.6423 54.0401 31.6158C53.9308 31.5859 53.7982 31.571 53.6424 31.571C53.2812 31.571 53.0226 31.6605 52.8669 31.8395C52.7144 32.0185 52.6382 32.277 52.6382 32.6151V40.9375H51.1517ZM55.5375 40.9375V33.3011H57.024V40.9375H55.5375ZM56.2882 32.1229C56.0297 32.1229 55.8076 32.0367 55.622 31.8643C55.4397 31.6887 55.3486 31.4799 55.3486 31.2379C55.3486 30.9927 55.4397 30.7839 55.622 30.6115C55.8076 30.4358 56.0297 30.348 56.2882 30.348C56.5467 30.348 56.7671 30.4358 56.9494 30.6115C57.135 30.7839 57.2278 30.9927 57.2278 31.2379C57.2278 31.4799 57.135 31.6887 56.9494 31.8643C56.7671 32.0367 56.5467 32.1229 56.2882 32.1229ZM62.3085 33.3011V34.4943H58.1373V33.3011H62.3085ZM59.2559 31.4716H60.7424V38.6953C60.7424 38.9837 60.7855 39.2008 60.8717 39.3466C60.9578 39.4891 61.0689 39.5869 61.2048 39.6399C61.344 39.6896 61.4948 39.7145 61.6572 39.7145C61.7765 39.7145 61.8809 39.7062 61.9704 39.6896C62.0599 39.6731 62.1295 39.6598 62.1792 39.6499L62.4477 40.8778C62.3615 40.911 62.2388 40.9441 62.0798 40.9773C61.9207 41.0137 61.7218 41.0336 61.4832 41.0369C61.0921 41.0436 60.7275 40.974 60.3894 40.8281C60.0513 40.6823 59.7779 40.4569 59.5691 40.152C59.3603 39.8471 59.2559 39.4643 59.2559 39.0036V31.4716ZM69.3202 41.1065C68.8363 41.1065 68.3988 41.017 68.0077 40.8381C67.6166 40.6558 67.3067 40.3923 67.078 40.0476C66.8526 39.7029 66.7399 39.2803 66.7399 38.7798C66.7399 38.349 66.8228 37.9943 66.9885 37.7159C67.1542 37.4375 67.378 37.2171 67.6597 37.0547C67.9414 36.8923 68.2563 36.7696 68.6043 36.6868C68.9523 36.6039 69.3069 36.541 69.6682 36.4979C70.1256 36.4448 70.4968 36.4018 70.7818 36.3686C71.0669 36.3321 71.274 36.2741 71.4033 36.1946C71.5325 36.1151 71.5972 35.9858 71.5972 35.8068V35.772C71.5972 35.3378 71.4745 35.0014 71.2293 34.7628C70.9873 34.5241 70.6261 34.4048 70.1455 34.4048C69.645 34.4048 69.2506 34.5159 68.9622 34.7379C68.6772 34.9567 68.48 35.2003 68.3706 35.4688L66.9736 35.1506C67.1393 34.6866 67.3813 34.312 67.6994 34.027C68.0209 33.7386 68.3905 33.5298 68.8081 33.4006C69.2257 33.268 69.6649 33.2017 70.1256 33.2017C70.4305 33.2017 70.7537 33.2382 71.095 33.3111C71.4397 33.3807 71.7612 33.5099 72.0595 33.6989C72.3611 33.8878 72.6081 34.1579 72.8003 34.5092C72.9925 34.8572 73.0887 35.3097 73.0887 35.8665V40.9375H71.6369V39.8935H71.5773C71.4812 40.0857 71.337 40.2746 71.1448 40.4602C70.9525 40.6458 70.7056 40.8 70.404 40.9226C70.1024 41.0452 69.7411 41.1065 69.3202 41.1065ZM69.6433 39.9134C70.0543 39.9134 70.4056 39.8321 70.6973 39.6697C70.9923 39.5073 71.216 39.2952 71.3685 39.0334C71.5243 38.7682 71.6021 38.4848 71.6021 38.1832V37.1989C71.5491 37.2519 71.4464 37.3016 71.2939 37.348C71.1448 37.3911 70.9741 37.4292 70.7818 37.4624C70.5896 37.4922 70.4023 37.5204 70.22 37.5469C70.0378 37.5701 69.8853 37.59 69.7627 37.6065C69.4743 37.643 69.2108 37.7043 68.9722 37.7905C68.7369 37.8767 68.5479 38.0009 68.4054 38.1634C68.2662 38.3224 68.1966 38.5346 68.1966 38.7997C68.1966 39.1676 68.3325 39.446 68.6043 39.6349C68.8761 39.8205 69.2224 39.9134 69.6433 39.9134ZM76.2751 36.4034V40.9375H74.7886V33.3011H76.2154V34.544H76.3099C76.4856 34.1397 76.7606 33.8149 77.1352 33.5696C77.513 33.3243 77.9886 33.2017 78.562 33.2017C79.0824 33.2017 79.5381 33.3111 79.9292 33.5298C80.3203 33.7453 80.6236 34.0668 80.839 34.4943C81.0544 34.9219 81.1622 35.4505 81.1622 36.0803V40.9375H79.6757V36.2592C79.6757 35.7057 79.5315 35.2732 79.2431 34.9616C78.9548 34.6468 78.5587 34.4893 78.0549 34.4893C77.7102 34.4893 77.4036 34.5639 77.1352 34.7131C76.87 34.8622 76.6596 35.081 76.5038 35.3693C76.3513 35.6544 76.2751 35.9991 76.2751 36.4034ZM85.7344 41.0866C85.118 41.0866 84.5678 40.9292 84.0839 40.6143C83.6033 40.2962 83.2254 39.8437 82.9503 39.2571C82.6786 38.6671 82.5427 37.9595 82.5427 37.1342C82.5427 36.3089 82.6802 35.603 82.9553 35.0163C83.2337 34.4297 83.6149 33.9806 84.0988 33.669C84.5827 33.3575 85.1312 33.2017 85.7444 33.2017C86.2183 33.2017 86.5995 33.2812 86.8878 33.4403C87.1795 33.5961 87.4049 33.7784 87.564 33.9872C87.7264 34.196 87.8523 34.38 87.9418 34.5391H88.0313V30.7557H89.5178V40.9375H88.0661V39.7493H87.9418C87.8523 39.9117 87.7231 40.0973 87.554 40.3061C87.3883 40.5149 87.1596 40.6972 86.868 40.853C86.5763 41.0088 86.1985 41.0866 85.7344 41.0866ZM86.0626 39.8189C86.4901 39.8189 86.8514 39.7062 87.1464 39.4808C87.4447 39.2521 87.67 38.9356 87.8225 38.5312C87.9783 38.1269 88.0562 37.6562 88.0562 37.1193C88.0562 36.589 87.9799 36.125 87.8275 35.7273C87.675 35.3295 87.4513 35.0196 87.1563 34.7976C86.8613 34.5755 86.4967 34.4645 86.0626 34.4645C85.6151 34.4645 85.2423 34.5805 84.944 34.8125C84.6457 35.0445 84.4203 35.361 84.2678 35.7621C84.1187 36.1631 84.0441 36.6155 84.0441 37.1193C84.0441 37.6297 84.1203 38.0888 84.2728 38.4964C84.4253 38.9041 84.6506 39.2273 84.9489 39.4659C85.2505 39.7012 85.6217 39.8189 86.0626 39.8189ZM94.9038 40.9375V30.7557H96.4401V39.6151H101.054V40.9375H94.9038ZM105.623 41.0916C104.908 41.0916 104.283 40.9276 103.749 40.5994C103.216 40.2713 102.801 39.8123 102.506 39.2223C102.211 38.6323 102.064 37.9429 102.064 37.1541C102.064 36.362 102.211 35.6693 102.506 35.076C102.801 34.4827 103.216 34.022 103.749 33.6939C104.283 33.3658 104.908 33.2017 105.623 33.2017C106.339 33.2017 106.964 33.3658 107.498 33.6939C108.031 34.022 108.446 34.4827 108.741 35.076C109.036 35.6693 109.183 36.362 109.183 37.1541C109.183 37.9429 109.036 38.6323 108.741 39.2223C108.446 39.8123 108.031 40.2713 107.498 40.5994C106.964 40.9276 106.339 41.0916 105.623 41.0916ZM105.628 39.8438C106.092 39.8438 106.477 39.7211 106.782 39.4759C107.087 39.2306 107.312 38.9041 107.458 38.4964C107.607 38.0888 107.682 37.6397 107.682 37.1491C107.682 36.6619 107.607 36.2145 107.458 35.8068C107.312 35.3958 107.087 35.0661 106.782 34.8175C106.477 34.5689 106.092 34.4446 105.628 34.4446C105.161 34.4446 104.773 34.5689 104.465 34.8175C104.16 35.0661 103.933 35.3958 103.784 35.8068C103.638 36.2145 103.565 36.6619 103.565 37.1491C103.565 37.6397 103.638 38.0888 103.784 38.4964C103.933 38.9041 104.16 39.2306 104.465 39.4759C104.773 39.7211 105.161 39.8438 105.628 39.8438ZM116.285 35.1655L114.937 35.4041C114.881 35.2318 114.792 35.0677 114.669 34.9119C114.55 34.7562 114.387 34.6286 114.182 34.5291C113.976 34.4297 113.719 34.38 113.411 34.38C112.99 34.38 112.639 34.4744 112.357 34.6634C112.075 34.849 111.935 35.0893 111.935 35.3842C111.935 35.6394 112.029 35.8449 112.218 36.0007C112.407 36.1565 112.712 36.2841 113.133 36.3835L114.346 36.6619C115.048 36.8243 115.572 37.0746 115.917 37.4126C116.262 37.7507 116.434 38.1899 116.434 38.7301C116.434 39.1875 116.301 39.5952 116.036 39.9531C115.774 40.3078 115.408 40.5862 114.937 40.7884C114.47 40.9905 113.928 41.0916 113.312 41.0916C112.457 41.0916 111.759 40.9093 111.219 40.5447C110.678 40.1768 110.347 39.6548 110.224 38.9787L111.661 38.7599C111.751 39.1345 111.935 39.4179 112.213 39.6101C112.491 39.799 112.854 39.8935 113.302 39.8935C113.789 39.8935 114.178 39.7924 114.47 39.5902C114.762 39.3847 114.908 39.1345 114.908 38.8395C114.908 38.6009 114.818 38.4003 114.639 38.2379C114.463 38.0755 114.193 37.9529 113.829 37.87L112.536 37.5866C111.824 37.4242 111.297 37.1657 110.955 36.8111C110.617 36.4564 110.448 36.0073 110.448 35.4638C110.448 35.013 110.574 34.6186 110.826 34.2805C111.078 33.9425 111.426 33.679 111.87 33.4901C112.314 33.2978 112.823 33.2017 113.396 33.2017C114.222 33.2017 114.871 33.3807 115.345 33.7386C115.819 34.0933 116.132 34.5689 116.285 35.1655ZM123.511 35.1655L122.163 35.4041C122.107 35.2318 122.017 35.0677 121.895 34.9119C121.775 34.7562 121.613 34.6286 121.408 34.5291C121.202 34.4297 120.945 34.38 120.637 34.38C120.216 34.38 119.865 34.4744 119.583 34.6634C119.301 34.849 119.16 35.0893 119.16 35.3842C119.16 35.6394 119.255 35.8449 119.444 36.0007C119.633 36.1565 119.938 36.2841 120.359 36.3835L121.572 36.6619C122.274 36.8243 122.798 37.0746 123.143 37.4126C123.487 37.7507 123.66 38.1899 123.66 38.7301C123.66 39.1875 123.527 39.5952 123.262 39.9531C123 40.3078 122.634 40.5862 122.163 40.7884C121.696 40.9905 121.154 41.0916 120.538 41.0916C119.682 41.0916 118.985 40.9093 118.445 40.5447C117.904 40.1768 117.573 39.6548 117.45 38.9787L118.887 38.7599C118.976 39.1345 119.16 39.4179 119.439 39.6101C119.717 39.799 120.08 39.8935 120.528 39.8935C121.015 39.8935 121.404 39.7924 121.696 39.5902C121.988 39.3847 122.133 39.1345 122.133 38.8395C122.133 38.6009 122.044 38.4003 121.865 38.2379C121.689 38.0755 121.419 37.9529 121.055 37.87L119.762 37.5866C119.049 37.4242 118.522 37.1657 118.181 36.8111C117.843 36.4564 117.674 36.0073 117.674 35.4638C117.674 35.013 117.8 34.6186 118.052 34.2805C118.304 33.9425 118.652 33.679 119.096 33.4901C119.54 33.2978 120.049 33.2017 120.622 33.2017C121.447 33.2017 122.097 33.3807 122.571 33.7386C123.045 34.0933 123.358 34.5689 123.511 35.1655Z" fill="#EDF2F7"/>
<path d="M38.3111 85.0284V54.1193H40.2912V85.0284H38.3111ZM43.5632 64.3217C43.4666 63.3478 43.0521 62.5911 42.3196 62.0518C41.5871 61.5125 40.593 61.2429 39.3374 61.2429C38.4841 61.2429 37.7637 61.3636 37.1761 61.6051C36.5885 61.8385 36.1378 62.1645 35.8239 62.5831C35.518 63.0017 35.3651 63.4766 35.3651 64.0078C35.349 64.4505 35.4415 64.8369 35.6428 65.1669C35.852 65.4969 36.1378 65.7827 36.5 66.0241C36.8622 66.2576 37.2808 66.4628 37.7557 66.6399C38.2306 66.8089 38.7377 66.9538 39.277 67.0746L41.4986 67.6058C42.5772 67.8473 43.5672 68.1693 44.4688 68.5717C45.3703 68.9742 46.151 69.4692 46.8111 70.0568C47.4711 70.6444 47.9822 71.3366 48.3445 72.1335C48.7147 72.9304 48.9039 73.844 48.9119 74.8743C48.9039 76.3875 48.5175 77.6996 47.7528 78.8104C46.9962 79.9131 45.9015 80.7704 44.4688 81.3821C43.044 81.9858 41.3255 82.2876 39.3132 82.2876C37.317 82.2876 35.5784 81.9818 34.0973 81.37C32.6243 80.7583 31.4732 79.8527 30.6442 78.6534C29.8232 77.446 29.3925 75.9529 29.3523 74.174H34.4112C34.4676 75.0031 34.705 75.6953 35.1236 76.2507C35.5502 76.7981 36.1177 77.2126 36.826 77.4943C37.5424 77.768 38.3513 77.9048 39.2528 77.9048C40.1383 77.9048 40.907 77.776 41.5589 77.5185C42.219 77.2609 42.7301 76.9027 43.0923 76.4439C43.4545 75.9851 43.6357 75.4579 43.6357 74.8622C43.6357 74.3068 43.4706 73.84 43.1406 73.4616C42.8187 73.0833 42.3438 72.7614 41.7159 72.4957C41.0961 72.2301 40.3355 71.9886 39.4339 71.7713L36.7415 71.0952C34.6567 70.5881 33.0107 69.7952 31.8033 68.7166C30.5959 67.638 29.9962 66.1851 30.0043 64.358C29.9962 62.8608 30.3946 61.5528 31.1996 60.4339C32.0125 59.3151 33.1274 58.4418 34.544 57.8139C35.9607 57.1861 37.5705 56.8722 39.3736 56.8722C41.2088 56.8722 42.8106 57.1861 44.179 57.8139C45.5554 58.4418 46.6259 59.3151 47.3906 60.4339C48.1553 61.5528 48.5497 62.8487 48.5739 64.3217H43.5632ZM61.0936 82.2756C59.8218 82.2675 58.5943 82.0542 57.4111 81.6357C56.2359 81.2171 55.1814 80.5369 54.2477 79.5952C53.314 78.6534 52.5735 77.4058 52.0261 75.8523C51.4868 74.2988 51.2172 72.3911 51.2172 70.1293C51.2252 68.0526 51.4627 66.1972 51.9296 64.5632C52.4045 62.9212 53.0806 61.5286 53.958 60.3857C54.8434 59.2427 55.9019 58.3733 57.1334 57.7777C58.3649 57.174 59.7454 56.8722 61.2747 56.8722C62.9248 56.8722 64.3817 57.1941 65.6455 57.8381C66.9092 58.474 67.9234 59.3393 68.6881 60.4339C69.4608 61.5286 69.9277 62.7562 70.0886 64.1165H64.9331C64.7319 63.2552 64.3093 62.5791 63.6653 62.0881C63.0214 61.5971 62.2245 61.3516 61.2747 61.3516C59.6649 61.3516 58.4414 62.0518 57.6043 63.4524C56.7752 64.853 56.3526 66.7566 56.3365 69.1634H56.5055C56.8758 68.4309 57.3749 67.8071 58.0027 67.2919C58.6386 66.7687 59.359 66.3703 60.1639 66.0966C60.9769 65.8149 61.8341 65.674 62.7357 65.674C64.2006 65.674 65.5046 66.0201 66.6476 66.7124C67.7906 67.3965 68.6921 68.3383 69.3521 69.5376C70.0122 70.737 70.3422 72.1094 70.3422 73.6548C70.3422 75.3291 69.9518 76.8182 69.171 78.1222C68.3983 79.4261 67.3157 80.4484 65.9232 81.1889C64.5387 81.9214 62.9288 82.2836 61.0936 82.2756ZM61.0695 78.1705C61.8744 78.1705 62.5948 77.9773 63.2307 77.5909C63.8666 77.2045 64.3656 76.6813 64.7278 76.0213C65.0901 75.3613 65.2712 74.6207 65.2712 73.7997C65.2712 72.9787 65.0901 72.2422 64.7278 71.5902C64.3737 70.9382 63.8827 70.419 63.2548 70.0327C62.627 69.6463 61.9106 69.4531 61.1057 69.4531C60.502 69.4531 59.9426 69.5658 59.4274 69.7912C58.9203 70.0166 58.4736 70.3305 58.0872 70.733C57.7089 71.1354 57.4111 71.6023 57.1938 72.1335C56.9764 72.6567 56.8678 73.2161 56.8678 73.8118C56.8678 74.6087 57.0489 75.3371 57.4111 75.9972C57.7814 76.6572 58.2804 77.1844 58.9082 77.5788C59.5441 77.9732 60.2645 78.1705 61.0695 78.1705ZM82.5933 82.2756C80.7339 82.2756 79.0798 81.9737 77.6309 81.37C76.1901 80.7583 75.0592 79.9252 74.2382 78.8707C73.4172 77.8163 73.0067 76.621 73.0067 75.2848C73.0067 74.2545 73.2401 73.3087 73.7069 72.4474C74.1818 71.5781 74.8258 70.8577 75.6388 70.2862C76.4517 69.7067 77.3613 69.3364 78.3675 69.1754V69.0064C77.0474 68.7408 75.9768 68.1009 75.1558 67.0866C74.3348 66.0644 73.9243 64.8771 73.9243 63.5249C73.9243 62.245 74.2986 61.1061 75.0471 60.108C75.7957 59.1018 76.822 58.313 78.126 57.7415C79.438 57.1619 80.9271 56.8722 82.5933 56.8722C84.2595 56.8722 85.7446 57.1619 87.0486 57.7415C88.3606 58.321 89.3909 59.1139 90.1395 60.12C90.888 61.1181 91.2664 62.2531 91.2744 63.5249C91.2664 64.8852 90.8478 66.0724 90.0187 67.0866C89.1897 68.1009 88.1272 68.7408 86.8312 69.0064V69.1754C87.8213 69.3364 88.7188 69.7067 89.5237 70.2862C90.3367 70.8577 90.9806 71.5781 91.4555 72.4474C91.9385 73.3087 92.184 74.2545 92.192 75.2848C92.184 76.621 91.7694 77.8163 90.9484 78.8707C90.1274 79.9252 88.9925 80.7583 87.5436 81.37C86.1028 81.9737 84.4527 82.2756 82.5933 82.2756ZM82.5933 78.4361C83.4224 78.4361 84.1468 78.2872 84.7666 77.9893C85.3864 77.6835 85.8693 77.2649 86.2155 76.7337C86.5696 76.1944 86.7467 75.5746 86.7467 74.8743C86.7467 74.1579 86.5656 73.526 86.2034 72.9787C85.8412 72.4233 85.3502 71.9886 84.7304 71.6747C84.1106 71.3527 83.3982 71.1918 82.5933 71.1918C81.7964 71.1918 81.0841 71.3527 80.4562 71.6747C79.8284 71.9886 79.3334 72.4233 78.9711 72.9787C78.617 73.526 78.4399 74.1579 78.4399 74.8743C78.4399 75.5746 78.613 76.1944 78.9591 76.7337C79.3052 77.2649 79.7922 77.6835 80.42 77.9893C81.0478 78.2872 81.7723 78.4361 82.5933 78.4361ZM82.5933 67.3885C83.2855 67.3885 83.9013 67.2476 84.4406 66.9659C84.9799 66.6842 85.4025 66.2938 85.7084 65.7947C86.0142 65.2957 86.1672 64.7202 86.1672 64.0682C86.1672 63.4242 86.0142 62.8608 85.7084 62.3778C85.4025 61.8868 84.9839 61.5045 84.4527 61.2308C83.9214 60.9491 83.3016 60.8082 82.5933 60.8082C81.893 60.8082 81.2732 60.9491 80.7339 61.2308C80.1946 61.5045 79.772 61.8868 79.4662 62.3778C79.1683 62.8608 79.0194 63.4242 79.0194 64.0682C79.0194 64.7202 79.1724 65.2957 79.4782 65.7947C79.7841 66.2938 80.2067 66.6842 80.746 66.9659C81.2853 67.2476 81.9011 67.3885 82.5933 67.3885ZM95.1674 81.9375V78.1705L103.969 70.0206C104.718 69.2962 105.346 68.6442 105.853 68.0646C106.368 67.4851 106.758 66.9176 107.024 66.3622C107.29 65.7988 107.422 65.1911 107.422 64.5391C107.422 63.8146 107.257 63.1908 106.927 62.6676C106.597 62.1364 106.147 61.7299 105.575 61.4482C105.004 61.1584 104.356 61.0135 103.631 61.0135C102.875 61.0135 102.214 61.1664 101.651 61.4723C101.088 61.7782 100.653 62.2169 100.347 62.7884C100.041 63.3598 99.8883 64.04 99.8883 64.8288H94.9259C94.9259 63.2109 95.2921 61.8063 96.0246 60.6151C96.7571 59.4238 97.7834 58.5021 99.1035 57.8501C100.424 57.1982 101.945 56.8722 103.667 56.8722C105.438 56.8722 106.98 57.1861 108.292 57.8139C109.612 58.4337 110.638 59.295 111.371 60.3977C112.103 61.5005 112.469 62.7642 112.469 64.1889C112.469 65.1226 112.284 66.0443 111.914 66.9538C111.552 67.8634 110.904 68.8736 109.97 69.9844C109.036 71.0871 107.72 72.4112 106.022 73.9567L102.412 77.4943V77.6634H112.795V81.9375H95.1674ZM118.958 82.2514C118.161 82.2514 117.477 81.9697 116.906 81.4062C116.342 80.8348 116.06 80.1506 116.06 79.3537C116.06 78.5649 116.342 77.8887 116.906 77.3253C117.477 76.7618 118.161 76.4801 118.958 76.4801C119.731 76.4801 120.407 76.7618 120.986 77.3253C121.566 77.8887 121.856 78.5649 121.856 79.3537C121.856 79.8849 121.719 80.3719 121.445 80.8146C121.18 81.2493 120.83 81.5994 120.395 81.8651C119.96 82.1226 119.481 82.2514 118.958 82.2514ZM134.182 82.2756C132.476 82.2756 130.955 81.9616 129.618 81.3338C128.29 80.706 127.236 79.8407 126.455 78.7379C125.674 77.6352 125.268 76.3714 125.236 74.9467H130.307C130.363 75.9046 130.765 76.6813 131.514 77.277C132.263 77.8726 133.152 78.1705 134.182 78.1705C135.003 78.1705 135.728 77.9893 136.356 77.6271C136.992 77.2569 137.487 76.7457 137.841 76.0938C138.203 75.4337 138.384 74.6771 138.384 73.8239C138.384 72.9545 138.199 72.1899 137.829 71.5298C137.466 70.8698 136.963 70.3546 136.319 69.9844C135.676 69.6141 134.939 69.425 134.11 69.4169C133.386 69.4169 132.681 69.5658 131.997 69.8636C131.321 70.1615 130.794 70.5679 130.415 71.0831L125.767 70.25L126.938 57.2102H142.055V61.4844H131.248L130.609 67.6783H130.753C131.188 67.0665 131.844 66.5594 132.721 66.157C133.599 65.7545 134.581 65.5533 135.667 65.5533C137.157 65.5533 138.485 65.9034 139.652 66.6037C140.819 67.304 141.741 68.2659 142.417 69.4893C143.093 70.7048 143.427 72.1054 143.419 73.6911C143.427 75.3572 143.041 76.8383 142.26 78.1342C141.487 79.4221 140.404 80.4363 139.012 81.1768C137.627 81.9093 136.018 82.2756 134.182 82.2756Z" fill="#EDF2F7"/>
<path d="M40.0977 167.438C33.1633 166.238 26.4766 171.938 24 174.938V277.938H341V102.938C337.038 115.337 324.49 125.437 318.711 128.937C317.679 125.937 314.005 121.237 307.566 126.437C301.127 131.637 283.42 137.271 275.371 139.437C273.101 134.271 267.075 125.437 261.131 131.437C253.701 138.937 240.08 144.938 238.223 141.937C236.365 138.937 230.174 128.937 222.125 134.937C214.076 140.937 203.551 147.438 196.121 147.438C188.691 147.438 184.357 140.437 180.643 136.437C176.928 132.437 173.832 140.437 170.736 143.437C167.641 146.437 166.402 147.438 163.926 144.938C161.449 142.437 160.83 142.938 158.354 144.938C155.877 146.938 150.924 151.438 140.398 157.438C129.873 163.438 128.635 151.438 123.062 147.438C117.49 143.438 107.584 150.438 99.5352 155.438C91.4863 160.438 90.248 159.938 84.6758 160.938C79.1035 161.938 76.0078 156.438 71.6738 155.438C67.3398 154.438 63.625 160.438 58.6719 167.438C53.7188 174.438 48.7656 168.938 40.0977 167.438Z" fill="url(#paint0_linear_2805_837)"/>
<path d="M26 174.438C28.4822 171.438 33.3225 166.238 40.2727 167.438C48.9605 168.938 53.9249 174.438 58.8893 167.438C63.8538 160.438 67.5771 154.438 71.9209 155.438C76.2648 156.438 79.3676 161.938 84.9526 160.938C90.5376 159.938 91.7787 160.438 99.8459 155.438C107.913 150.438 117.842 143.438 123.427 147.438C129.012 151.438 130.253 163.438 140.802 157.438C151.352 151.438 156.316 146.938 158.798 144.938C161.281 142.938 161.901 142.437 164.383 144.938C166.866 147.438 168.107 146.437 171.209 143.437C174.312 140.437 177.415 132.437 181.138 136.437C184.862 140.437 189.206 147.438 196.652 147.438C204.099 147.438 214.648 140.937 222.715 134.937C230.783 128.937 236.988 138.937 238.85 141.937C240.711 144.937 254.364 138.937 261.81 131.437C267.768 125.437 273.808 134.271 276.083 139.437C284.15 137.271 301.898 131.637 308.352 126.437C314.806 121.237 318.487 125.937 319.522 128.937C325.314 125.437 336.897 115.938 340 102.938" stroke="#EDF2F7" stroke-width="3" stroke-linecap="round" stroke-linejoin="round"/>
<rect x="28" y="99.9375" width="14" height="14" rx="7" fill="#ED8936"/>
<g clip-path="url(#clip1_2805_837)">
<path d="M33.125 108.363L31.5208 106.759C31.3421 106.58 31.0579 106.58 30.8792 106.759C30.7004 106.938 30.7004 107.222 30.8792 107.4L32.7996 109.321C32.9783 109.5 33.2671 109.5 33.4458 109.321L38.3042 104.467C38.4829 104.288 38.4829 104.004 38.3042 103.825C38.1254 103.647 37.8413 103.647 37.6625 103.825L33.125 108.363Z" fill="white"/>
</g>
<path d="M57.2415 106.847C57.2415 107.957 57.031 108.902 56.6101 109.68C56.1925 110.459 55.6224 111.054 54.8999 111.465C54.1806 111.873 53.3719 112.077 52.4737 112.077C51.5689 112.077 50.7569 111.871 50.0376 111.46C49.3184 111.049 48.75 110.454 48.3324 109.675C47.9148 108.897 47.706 107.954 47.706 106.847C47.706 105.736 47.9148 104.792 48.3324 104.013C48.75 103.234 49.3184 102.641 50.0376 102.233C50.7569 101.822 51.5689 101.616 52.4737 101.616C53.3719 101.616 54.1806 101.822 54.8999 102.233C55.6224 102.641 56.1925 103.234 56.6101 104.013C57.031 104.792 57.2415 105.736 57.2415 106.847ZM55.0589 106.847C55.0589 106.127 54.9512 105.521 54.7358 105.027C54.5237 104.533 54.2237 104.159 53.8359 103.903C53.4482 103.648 52.9941 103.521 52.4737 103.521C51.9534 103.521 51.4993 103.648 51.1115 103.903C50.7237 104.159 50.4221 104.533 50.2067 105.027C49.9946 105.521 49.8885 106.127 49.8885 106.847C49.8885 107.566 49.9946 108.172 50.2067 108.666C50.4221 109.16 50.7237 109.535 51.1115 109.79C51.4993 110.045 51.9534 110.173 52.4737 110.173C52.9941 110.173 53.4482 110.045 53.8359 109.79C54.2237 109.535 54.5237 109.16 54.7358 108.666C54.9512 108.172 55.0589 107.566 55.0589 106.847ZM60.6342 107.523V111.938H58.5163V104.301H60.5348V105.648H60.6243C60.7933 105.204 61.0767 104.853 61.4744 104.594C61.8722 104.333 62.3544 104.202 62.9212 104.202C63.4515 104.202 63.9138 104.318 64.3082 104.55C64.7027 104.782 65.0092 105.113 65.228 105.544C65.4467 105.972 65.5561 106.482 65.5561 107.075V111.938H63.4382V107.453C63.4415 106.986 63.3222 106.621 63.0803 106.359C62.8383 106.094 62.5052 105.962 62.081 105.962C61.7959 105.962 61.544 106.023 61.3253 106.146C61.1099 106.268 60.9408 106.447 60.8182 106.683C60.6989 106.915 60.6376 107.195 60.6342 107.523ZM73.9674 104.301V105.892H69.3686V104.301H73.9674ZM70.4127 102.472H72.5306V109.591C72.5306 109.786 72.5604 109.939 72.62 110.048C72.6797 110.154 72.7626 110.229 72.8686 110.272C72.978 110.315 73.104 110.337 73.2465 110.337C73.3459 110.337 73.4453 110.328 73.5448 110.312C73.6442 110.292 73.7204 110.277 73.7735 110.267L74.1066 111.843C74.0005 111.876 73.8513 111.914 73.6591 111.957C73.4669 112.004 73.2332 112.032 72.9581 112.042C72.4477 112.062 72.0003 111.994 71.6158 111.838C71.2346 111.682 70.938 111.44 70.7259 111.112C70.5138 110.784 70.4093 110.37 70.4127 109.869V102.472ZM75.067 111.938V104.301H77.1202V105.634H77.1998C77.339 105.16 77.5726 104.802 77.9008 104.56C78.2289 104.314 78.6067 104.192 79.0343 104.192C79.1404 104.192 79.2547 104.198 79.3773 104.212C79.5 104.225 79.6077 104.243 79.7005 104.266V106.146C79.6011 106.116 79.4635 106.089 79.2878 106.066C79.1122 106.043 78.9514 106.031 78.8056 106.031C78.494 106.031 78.2156 106.099 77.9704 106.235C77.7284 106.368 77.5362 106.553 77.3937 106.792C77.2545 107.031 77.1849 107.306 77.1849 107.617V111.938H75.067ZM82.4743 112.082C81.9871 112.082 81.5529 111.997 81.1717 111.828C80.7906 111.656 80.489 111.402 80.2669 111.067C80.0482 110.729 79.9388 110.308 79.9388 109.805C79.9388 109.38 80.0167 109.024 80.1724 108.736C80.3282 108.447 80.5403 108.215 80.8088 108.04C81.0773 107.864 81.3822 107.732 81.7236 107.642C82.0683 107.553 82.4295 107.49 82.8074 107.453C83.2515 107.407 83.6095 107.364 83.8812 107.324C84.153 107.281 84.3502 107.218 84.4729 107.135C84.5955 107.052 84.6568 106.929 84.6568 106.767V106.737C84.6568 106.422 84.5574 106.179 84.3585 106.006C84.163 105.834 83.8846 105.748 83.5233 105.748C83.1421 105.748 82.8389 105.832 82.6135 106.001C82.3881 106.167 82.239 106.376 82.166 106.628L80.2072 106.469C80.3067 106.005 80.5022 105.604 80.7939 105.266C81.0856 104.924 81.4617 104.662 81.9224 104.48C82.3865 104.295 82.9234 104.202 83.5332 104.202C83.9575 104.202 84.3635 104.251 84.7513 104.351C85.1424 104.45 85.4887 104.604 85.7903 104.813C86.0953 105.022 86.3356 105.29 86.5112 105.619C86.6869 105.943 86.7747 106.333 86.7747 106.787V111.938H84.7662V110.879H84.7065C84.5839 111.117 84.4198 111.328 84.2143 111.51C84.0089 111.689 83.7619 111.83 83.4736 111.933C83.1852 112.032 82.8521 112.082 82.4743 112.082ZM83.0808 110.62C83.3924 110.62 83.6675 110.559 83.9061 110.436C84.1447 110.31 84.332 110.141 84.4679 109.929C84.6038 109.717 84.6717 109.477 84.6717 109.208V108.398C84.6054 108.441 84.5143 108.481 84.3983 108.517C84.2856 108.55 84.158 108.582 84.0155 108.612C83.873 108.638 83.7304 108.663 83.5879 108.686C83.4454 108.706 83.3161 108.724 83.2001 108.741C82.9516 108.777 82.7345 108.835 82.5489 108.915C82.3633 108.994 82.2191 109.102 82.1163 109.238C82.0136 109.371 81.9622 109.536 81.9622 109.735C81.9622 110.023 82.0666 110.244 82.2754 110.396C82.4875 110.545 82.756 110.62 83.0808 110.62ZM91.5881 112.087C90.8059 112.087 90.1331 111.921 89.5696 111.589C89.0095 111.255 88.5786 110.791 88.277 110.197C87.9787 109.604 87.8296 108.921 87.8296 108.149C87.8296 107.367 87.9804 106.681 88.282 106.091C88.5869 105.498 89.0195 105.035 89.5796 104.704C90.1397 104.369 90.8059 104.202 91.5782 104.202C92.2444 104.202 92.8277 104.323 93.3282 104.565C93.8286 104.807 94.2247 105.146 94.5164 105.584C94.808 106.021 94.9688 106.535 94.9986 107.125H93C92.9437 106.744 92.7946 106.437 92.5526 106.205C92.314 105.97 92.0008 105.852 91.613 105.852C91.2848 105.852 90.9981 105.942 90.7529 106.121C90.5109 106.296 90.322 106.553 90.1861 106.891C90.0502 107.229 89.9823 107.639 89.9823 108.119C89.9823 108.607 90.0486 109.021 90.1812 109.362C90.317 109.704 90.5076 109.964 90.7529 110.143C90.9981 110.322 91.2848 110.411 91.613 110.411C91.8549 110.411 92.072 110.362 92.2642 110.262C92.4598 110.163 92.6205 110.018 92.7465 109.83C92.8758 109.637 92.9603 109.407 93 109.138H94.9986C94.9655 109.722 94.8064 110.236 94.5213 110.68C94.2396 111.121 93.8502 111.465 93.353 111.714C92.8559 111.962 92.2676 112.087 91.5881 112.087ZM97.9937 109.74L97.9986 107.2H98.3069L100.753 104.301H103.184L99.8978 108.139H99.3956L97.9937 109.74ZM96.0746 111.938V101.756H98.1925V111.938H96.0746ZM100.847 111.938L98.6002 108.612L100.012 107.115L103.328 111.938H100.847Z" fill="#ED8936"/>
</g>
<defs>
<linearGradient id="paint0_linear_2805_837" x1="182.5" y1="105.438" x2="182.5" y2="211.937" gradientUnits="userSpaceOnUse">
<stop stop-color="#E9E3FF"/>
<stop offset="1" stop-color="#E9E3FF" stop-opacity="0"/>
</linearGradient>
<clipPath id="clip0_2805_837">
<rect y="0.9375" width="369" height="232" rx="20" fill="white"/>
</clipPath>
<clipPath id="clip1_2805_837">
<rect width="11" height="11" fill="white" transform="translate(29 100.938)"/>
</clipPath>
</defs>
</svg>
