<svg width="192" height="36" viewBox="0 0 192 36" fill="none" xmlns="http://www.w3.org/2000/svg">
<rect width="36" height="36" rx="8" fill="#422369"/>
<path d="M27.9181 10.2567L18.9616 5.68621C18.7173 5.6046 18.473 5.6046 18.2288 5.68621L9.27223 10.2567C8.94654 10.42 8.78369 10.6648 8.78369 10.9913V12.9501C8.78369 13.4398 9.10938 13.7663 9.59792 13.7663H27.511C27.9995 13.7663 28.3252 13.4398 28.3252 12.9501V10.9913C28.3252 10.6648 28.1624 10.42 27.9181 10.2567Z" fill="white"/>
<path d="M29.0575 19.0721C28.8947 18.8273 28.6504 18.6641 28.3247 18.6641C26.5334 18.6641 24.8235 19.4802 23.765 20.9493L23.0322 21.9287C22.1366 22.9897 20.7524 23.5611 19.3682 23.5611H16.9255C16.437 23.5611 16.1113 23.2346 16.1113 22.7449C16.1113 22.2552 16.437 21.9287 16.9255 21.9287H18.4725C19.7753 21.9287 20.9967 20.8677 20.9967 19.5618V19.4802C20.9967 19.0721 20.5895 18.6641 20.1824 18.6641H15.2156C12.2844 18.6641 9.92313 19.9699 8.62036 22.092L6.42194 25.5199C6.25909 25.7647 6.25909 26.0912 6.42194 26.336L8.86463 30.4169C8.94605 30.5801 9.19032 30.7433 9.35317 30.8249C9.43459 30.8249 9.43459 30.8249 9.51601 30.8249C9.67886 30.8249 9.84171 30.7433 10.0046 30.6617C13.0986 28.6213 16.6812 27.5603 20.3453 27.5603C23.0322 27.5603 25.4749 26.0912 26.7777 23.7243L28.9761 19.8067C29.139 19.6435 29.139 19.317 29.0575 19.0721Z" fill="white"/>
<path d="M25.8819 17.4406V15.4002C25.8819 14.9105 25.5562 14.584 25.0677 14.584H23.4392C22.9507 14.584 22.625 14.9105 22.625 15.4002V19.7258C23.5207 18.6648 24.5792 17.9303 25.8819 17.4406Z" fill="white"/>
<path d="M14.483 17.0325V15.4002C14.483 14.9105 14.1573 14.584 13.6688 14.584H12.0403C11.5518 14.584 11.2261 14.9105 11.2261 15.4002V17.0325H14.483Z" fill="white"/>
<path d="M20.1827 17.1141V15.4002C20.1827 14.9105 19.857 14.584 19.3685 14.584H17.74C17.2515 14.584 16.9258 14.9105 16.9258 15.4002V17.8486C17.9029 17.4406 19.0428 17.1957 20.1827 17.1141Z" fill="white"/>
<path d="M172.829 22V1H190.671V5.94999H178.913V9.13H189.561V13.72H178.913V17.05H190.829V22H172.829Z" fill="#724BA4"/>
<path d="M160.665 22C154.108 22 148.829 17.3764 148.829 11.0604V11C148.829 4.83518 153.976 0 160.927 0C165.616 0 168.632 1.81318 170.665 4.41207L165.878 7.82691C164.567 6.31595 163.058 5.3489 160.862 5.3489C157.649 5.3489 155.386 7.85714 155.386 10.9396V11C155.386 14.1731 157.649 16.6511 160.862 16.6511C163.255 16.6511 164.665 15.6236 166.042 14.0824L170.829 17.2253C168.665 19.9753 165.747 22 160.665 22Z" fill="#724BA4"/>
<path d="M124.829 22V1H130.579L139.729 12.1V1H145.829V22H140.428L130.928 10.48V22H124.829Z" fill="#724BA4"/>
<path d="M96.8286 22L106.343 1H112.314L121.829 22H115.188L113.559 18.2766H104.938L103.342 22H96.8286ZM106.758 13.7787H111.771L109.28 7.8511L106.758 13.7787Z" fill="#724BA4"/>
<path d="M73.8286 22V1H79.5786L88.7288 12.1V1H94.8286V22H89.4274L79.9284 10.48V22H73.8286Z" fill="#724BA4"/>
<path d="M63.8286 22V1H69.8286V22H63.8286Z" fill="#724BA4"/>
<path d="M42.8286 22V1H60.8286V6.10001H49.0642V9.66999H59.7036V14.5H49.0642V22H42.8286Z" fill="#724BA4"/>
<path d="M187.07 31.2505C187.096 31.5328 187.164 31.7849 187.271 32.0067C187.379 32.2217 187.515 32.4066 187.684 32.5612C187.851 32.709 188.039 32.8233 188.247 32.904C188.454 32.9778 188.673 33.0149 188.9 33.0149C189.263 33.0149 189.571 32.9476 189.825 32.8133C190.088 32.6788 190.325 32.5007 190.54 32.2789L191.022 32.7124C190.761 33.0081 190.463 33.2468 190.127 33.4283C189.793 33.6029 189.377 33.6904 188.881 33.6904C188.525 33.6904 188.19 33.6265 187.875 33.4988C187.559 33.3644 187.285 33.1795 187.05 32.9443C186.815 32.7023 186.627 32.4133 186.486 32.0773C186.352 31.7412 186.285 31.3715 186.285 30.9682C186.285 30.5918 186.346 30.2389 186.467 29.9096C186.593 29.5735 186.768 29.2845 186.989 29.0426C187.21 28.7938 187.472 28.599 187.774 28.4578C188.083 28.3167 188.417 28.2461 188.78 28.2461C189.162 28.2461 189.503 28.32 189.805 28.4679C190.107 28.609 190.362 28.8039 190.57 29.0527C190.778 29.3013 190.935 29.5937 191.042 29.9298C191.15 30.2658 191.204 30.6255 191.204 31.0086C191.204 31.0421 191.204 31.0791 191.204 31.1195C191.204 31.1598 191.201 31.2034 191.194 31.2505H187.07ZM187.07 30.6759H190.419C190.399 30.4406 190.349 30.2154 190.268 30.0004C190.195 29.7852 190.088 29.5971 189.946 29.4358C189.812 29.2745 189.645 29.1467 189.443 29.0527C189.249 28.9518 189.021 28.9014 188.76 28.9014C188.531 28.9014 188.32 28.9484 188.126 29.0426C187.931 29.1299 187.761 29.2543 187.613 29.4156C187.466 29.5701 187.345 29.755 187.251 29.9701C187.157 30.1851 187.096 30.4204 187.07 30.6759Z" fill="black"/>
<path d="M185.475 32.6822C185.213 32.9778 184.914 33.2198 184.58 33.4081C184.251 33.5963 183.842 33.6904 183.352 33.6904C182.97 33.6904 182.615 33.6198 182.286 33.4787C181.965 33.3307 181.682 33.1359 181.441 32.8939C181.206 32.6451 181.022 32.3562 180.888 32.0269C180.754 31.6974 180.687 31.348 180.687 30.9783C180.687 30.6086 180.754 30.2591 180.888 29.9298C181.022 29.5937 181.206 29.3013 181.441 29.0527C181.682 28.8039 181.965 28.609 182.286 28.4679C182.615 28.32 182.97 28.2461 183.352 28.2461C183.6 28.2461 183.825 28.2695 184.026 28.3167C184.227 28.3637 184.411 28.4309 184.58 28.5183C184.747 28.599 184.901 28.6964 185.042 28.8107C185.183 28.9249 185.313 29.0459 185.434 29.1736L184.921 29.7181C184.713 29.503 184.486 29.3181 184.237 29.1636C183.996 29.0089 183.697 28.9317 183.342 28.9317C183.081 28.9317 182.836 28.9854 182.608 29.093C182.381 29.1938 182.183 29.3382 182.014 29.5265C181.847 29.708 181.716 29.923 181.622 30.1718C181.528 30.4137 181.481 30.6759 181.481 30.9582C181.481 31.2405 181.528 31.5059 181.622 31.7546C181.723 32.0033 181.857 32.2217 182.025 32.41C182.199 32.5914 182.4 32.7359 182.628 32.8435C182.863 32.9443 183.117 32.9947 183.392 32.9947C183.728 32.9947 184.023 32.9208 184.278 32.7729C184.539 32.625 184.774 32.4402 184.982 32.2184L185.475 32.6822Z" fill="black"/>
<path d="M179.272 27.2212H178.387V26.3643H179.272V27.2212ZM179.212 33.5729H178.436V28.3605H179.212V33.5729Z" fill="black"/>
<path d="M174.555 32.6807L176.314 28.3555H177.149L174.887 33.6082H174.202L171.95 28.3555H172.804L174.555 32.6807Z" fill="black"/>
<path d="M169.16 31.4957V33.5726H168.386V28.3602H169.16V29.7213C169.254 29.5062 169.371 29.3079 169.511 29.1265C169.653 28.945 169.814 28.7904 169.995 28.6627C170.176 28.5282 170.374 28.4274 170.588 28.3602C170.803 28.2929 171.034 28.2627 171.282 28.2695V29.1063H171.221C170.94 29.1063 170.672 29.1567 170.417 29.2575C170.169 29.3584 169.951 29.5096 169.763 29.7112C169.576 29.9129 169.428 30.1649 169.32 30.4674C169.213 30.763 169.16 31.1058 169.16 31.4957Z" fill="black"/>
<path d="M162.898 31.2505C162.925 31.5328 162.991 31.7849 163.099 32.0067C163.206 32.2217 163.344 32.4066 163.511 32.5612C163.679 32.709 163.867 32.8233 164.074 32.904C164.282 32.9778 164.5 33.0149 164.728 33.0149C165.09 33.0149 165.399 32.9476 165.654 32.8133C165.915 32.6788 166.153 32.5007 166.368 32.2789L166.851 32.7124C166.589 33.0081 166.29 33.2468 165.956 33.4283C165.62 33.6029 165.204 33.6904 164.708 33.6904C164.353 33.6904 164.018 33.6265 163.702 33.4988C163.387 33.3644 163.112 33.1795 162.877 32.9443C162.643 32.7023 162.456 32.4133 162.314 32.0773C162.18 31.7412 162.113 31.3715 162.113 30.9682C162.113 30.5918 162.173 30.2389 162.294 29.9096C162.422 29.5735 162.596 29.2845 162.817 29.0426C163.039 28.7938 163.3 28.599 163.602 28.4578C163.91 28.3167 164.246 28.2461 164.607 28.2461C164.989 28.2461 165.332 28.32 165.634 28.4679C165.935 28.609 166.19 28.8039 166.398 29.0527C166.606 29.3013 166.764 29.5937 166.871 29.9298C166.978 30.2658 167.032 30.6255 167.032 31.0086C167.032 31.0421 167.032 31.0791 167.032 31.1195C167.032 31.1598 167.028 31.2034 167.021 31.2505H162.898ZM162.898 30.6759H166.247C166.227 30.4406 166.177 30.2154 166.096 30.0004C166.022 29.7852 165.915 29.5971 165.775 29.4358C165.64 29.2745 165.473 29.1467 165.272 29.0527C165.076 28.9518 164.849 28.9014 164.587 28.9014C164.36 28.9014 164.149 28.9484 163.954 29.0426C163.76 29.1299 163.588 29.2543 163.441 29.4156C163.293 29.5701 163.172 29.755 163.078 29.9701C162.985 30.1851 162.925 30.4204 162.898 30.6759Z" fill="black"/>
<path d="M156.744 28.2792C156.744 28.4473 156.771 28.5986 156.825 28.7329C156.878 28.8674 156.976 28.9918 157.117 29.106C157.257 29.2136 157.451 29.3144 157.7 29.4084C157.949 29.4959 158.266 29.5798 158.655 29.6605C159.44 29.8353 160.017 30.0772 160.385 30.3864C160.761 30.6956 160.949 31.1224 160.949 31.6668C160.949 31.9693 160.888 32.2449 160.767 32.4935C160.647 32.7423 160.479 32.954 160.264 33.1287C160.057 33.3035 159.805 33.4379 159.51 33.532C159.215 33.6261 158.893 33.6731 158.545 33.6731C157.981 33.6731 157.465 33.5824 156.996 33.4009C156.534 33.2127 156.091 32.927 155.668 32.5439L156.161 31.9592C156.53 32.2953 156.902 32.5473 157.277 32.7153C157.652 32.8766 158.085 32.9573 158.575 32.9573C159.052 32.9573 159.43 32.8464 159.712 32.6246C160 32.4028 160.144 32.1104 160.144 31.7475C160.144 31.5795 160.117 31.4316 160.063 31.3038C160.01 31.1695 159.916 31.0485 159.782 30.9409C159.648 30.8334 159.46 30.736 159.219 30.6485C158.984 30.5612 158.682 30.4771 158.314 30.3965C157.911 30.3091 157.559 30.2083 157.257 30.094C156.962 29.9798 156.718 29.8419 156.523 29.6806C156.329 29.5193 156.184 29.3312 156.091 29.116C155.997 28.901 155.949 28.6456 155.949 28.3498C155.949 28.0675 156.007 27.8088 156.121 27.5735C156.235 27.3383 156.396 27.1367 156.604 26.9686C156.812 26.7939 157.056 26.6594 157.338 26.5653C157.62 26.4645 157.928 26.4141 158.263 26.4141C158.779 26.4141 159.229 26.488 159.611 26.6359C160 26.777 160.375 26.9921 160.738 27.2811L160.274 27.8961C159.947 27.6273 159.614 27.4323 159.279 27.3114C158.951 27.1904 158.605 27.1299 158.244 27.1299C158.015 27.1299 157.807 27.1601 157.62 27.2206C157.439 27.2811 157.281 27.3618 157.146 27.4626C157.02 27.5634 156.919 27.6844 156.844 27.8255C156.778 27.9667 156.744 28.1179 156.744 28.2792Z" fill="black"/>
<path d="M151.76 28.3555L149.578 33.7393C149.357 34.2769 149.109 34.6567 148.833 34.8785C148.566 35.1003 148.237 35.2112 147.848 35.2112C147.633 35.2112 147.439 35.1877 147.265 35.1407C147.091 35.1003 146.917 35.0365 146.742 34.9491L147.004 34.3341C147.13 34.4013 147.255 34.4483 147.376 34.4753C147.503 34.5088 147.65 34.5257 147.819 34.5257C148.052 34.5257 148.25 34.4551 148.412 34.3139C148.572 34.1728 148.731 33.9173 148.884 33.5477L146.52 28.3555H147.376L149.266 32.7008L150.937 28.3555H151.76Z" fill="black"/>
<path d="M145.811 32.6822C145.549 32.9778 145.25 33.2198 144.916 33.4081C144.587 33.5963 144.178 33.6904 143.688 33.6904C143.306 33.6904 142.95 33.6198 142.623 33.4787C142.301 33.3307 142.019 33.1359 141.777 32.8939C141.542 32.6451 141.358 32.3562 141.224 32.0269C141.09 31.6974 141.022 31.348 141.022 30.9783C141.022 30.6086 141.09 30.2591 141.224 29.9298C141.358 29.5937 141.542 29.3013 141.777 29.0527C142.019 28.8039 142.301 28.609 142.623 28.4679C142.95 28.32 143.306 28.2461 143.688 28.2461C143.937 28.2461 144.161 28.2695 144.362 28.3167C144.563 28.3637 144.747 28.4309 144.916 28.5183C145.083 28.599 145.238 28.6964 145.378 28.8107C145.519 28.9249 145.649 29.0459 145.77 29.1736L145.257 29.7181C145.049 29.503 144.822 29.3181 144.573 29.1636C144.333 29.0089 144.034 28.9317 143.678 28.9317C143.417 28.9317 143.172 28.9854 142.944 29.093C142.717 29.1938 142.519 29.3382 142.35 29.5265C142.183 29.708 142.052 29.923 141.958 30.1718C141.864 30.4137 141.818 30.6759 141.818 30.9582C141.818 31.2405 141.864 31.5059 141.958 31.7546C142.059 32.0033 142.193 32.2217 142.361 32.41C142.535 32.5914 142.736 32.7359 142.964 32.8435C143.199 32.9443 143.453 32.9947 143.729 32.9947C144.064 32.9947 144.359 32.9208 144.614 32.7729C144.875 32.625 145.11 32.4402 145.318 32.2184L145.811 32.6822Z" fill="black"/>
<path d="M135.921 30.5851V33.5694H135.147V28.357H135.921V29.2644C136.096 28.9821 136.323 28.7434 136.605 28.5486C136.887 28.3469 137.252 28.2461 137.702 28.2461C138.016 28.2461 138.295 28.2965 138.536 28.3973C138.785 28.4981 138.993 28.6426 139.16 28.8308C139.334 29.0123 139.465 29.2307 139.552 29.4862C139.646 29.7415 139.693 30.0238 139.693 30.3331V33.5694H138.918V30.5246C138.918 30.0407 138.795 29.6576 138.546 29.3753C138.299 29.093 137.943 28.9518 137.481 28.9518C137.259 28.9518 137.051 28.9922 136.857 29.0728C136.669 29.1467 136.504 29.2576 136.364 29.4055C136.223 29.5467 136.112 29.7181 136.032 29.9197C135.958 30.1213 135.921 30.3432 135.921 30.5851Z" fill="black"/>
<path d="M131.204 28.9746C130.896 28.9746 130.614 29.0117 130.36 29.0855C130.111 29.1528 129.867 29.2436 129.626 29.3578L129.394 28.7226C129.682 28.5882 129.975 28.484 130.27 28.41C130.565 28.3294 130.903 28.2891 131.286 28.2891C131.995 28.2891 132.542 28.4673 132.924 28.8234C133.306 29.173 133.498 29.6939 133.498 30.3861V33.572H132.754V32.7856C132.573 33.0209 132.328 33.2293 132.019 33.4107C131.717 33.5922 131.335 33.6829 130.873 33.6829C130.631 33.6829 130.393 33.6494 130.159 33.5821C129.931 33.515 129.723 33.4141 129.535 33.2797C129.354 33.1385 129.206 32.9671 129.092 32.7655C128.985 32.5638 128.932 32.3253 128.932 32.0497C128.932 31.7742 128.985 31.5322 129.092 31.3238C129.199 31.1087 129.351 30.9306 129.545 30.7894C129.746 30.6483 129.98 30.5408 130.249 30.4668C130.524 30.3929 130.826 30.3559 131.155 30.3559C131.489 30.3559 131.782 30.376 132.029 30.4164C132.278 30.4567 132.519 30.5105 132.754 30.5777V30.3962C132.754 29.9258 132.616 29.5729 132.341 29.3376C132.073 29.0956 131.694 28.9746 131.204 28.9746ZM131.235 30.9306C130.745 30.9306 130.37 31.0281 130.108 31.2229C129.847 31.4179 129.716 31.6834 129.716 32.0194C129.716 32.1875 129.75 32.3354 129.817 32.463C129.89 32.5908 129.987 32.7017 130.108 32.7957C130.229 32.8832 130.367 32.9504 130.521 32.9974C130.682 33.0445 130.849 33.0679 131.024 33.0679C131.265 33.0679 131.489 33.0344 131.697 32.9671C131.912 32.8933 132.096 32.7957 132.251 32.6747C132.411 32.5471 132.536 32.3992 132.623 32.2311C132.716 32.0565 132.764 31.8649 132.764 31.6565V31.1524C132.57 31.0987 132.345 31.0483 132.09 31.0011C131.842 30.9541 131.557 30.9306 131.235 30.9306Z" fill="black"/>
<path d="M126.302 29.0445V32.0893C126.302 32.4119 126.384 32.6371 126.544 32.7648C126.705 32.8926 126.916 32.9563 127.178 32.9563C127.311 32.9563 127.436 32.943 127.55 32.916C127.671 32.8892 127.797 32.8421 127.932 32.7749V33.4403C127.797 33.5142 127.654 33.568 127.499 33.6016C127.352 33.6419 127.185 33.6621 126.996 33.6621C126.789 33.6621 126.594 33.6352 126.413 33.5814C126.232 33.5277 126.075 33.4437 125.941 33.3294C125.813 33.2084 125.712 33.0539 125.639 32.8656C125.565 32.6774 125.528 32.4522 125.528 32.1901V29.0445H124.804V28.3589H125.528V26.7861H126.302V28.3589H127.952V29.0445H126.302Z" fill="black"/>
<path d="M123.46 33.5718H122.686V26.2119H123.46V33.5718Z" fill="black"/>
<path d="M120.107 31.3397V28.3555H120.871V33.5679H120.107V32.6605C119.933 32.9428 119.704 33.1848 119.423 33.3864C119.141 33.5812 118.776 33.6788 118.326 33.6788C118.012 33.6788 117.729 33.6284 117.482 33.5275C117.24 33.4267 117.032 33.2856 116.858 33.1041C116.69 32.9158 116.559 32.694 116.466 32.4387C116.379 32.1832 116.334 31.9009 116.334 31.5918V28.3555H117.11V31.4002C117.11 31.8842 117.233 32.2673 117.482 32.5496C117.729 32.8319 118.085 32.973 118.547 32.973C118.769 32.973 118.973 32.936 119.161 32.8621C119.355 32.7815 119.52 32.6706 119.654 32.5294C119.795 32.3815 119.906 32.2068 119.986 32.0052C120.066 31.8035 120.107 31.5817 120.107 31.3397Z" fill="black"/>
<path d="M114.977 32.1098C114.977 32.3586 114.927 32.5804 114.826 32.7752C114.732 32.9635 114.601 33.1248 114.434 33.2592C114.272 33.3936 114.078 33.4978 113.851 33.5717C113.629 33.639 113.388 33.6725 113.127 33.6725C112.75 33.6725 112.372 33.6053 111.99 33.4709C111.608 33.3297 111.269 33.1416 110.974 32.9063L111.366 32.3518C111.647 32.5669 111.94 32.7316 112.242 32.8458C112.549 32.9601 112.858 33.0172 113.166 33.0172C113.481 33.0172 113.74 32.9433 113.941 32.7954C114.143 32.6476 114.243 32.4459 114.243 32.1905V32.1703C114.243 32.0426 114.206 31.9317 114.132 31.8376C114.065 31.7436 113.971 31.6629 113.851 31.5956C113.73 31.5218 113.589 31.4579 113.428 31.4041C113.273 31.3504 113.113 31.3 112.946 31.2528C112.745 31.1923 112.54 31.1286 112.332 31.0613C112.131 30.9874 111.946 30.8967 111.778 30.7891C111.618 30.6816 111.483 30.5471 111.376 30.3858C111.275 30.2245 111.226 30.0228 111.226 29.7809V29.7607C111.226 29.5389 111.269 29.3372 111.356 29.1558C111.443 28.9676 111.564 28.8097 111.718 28.6819C111.879 28.5476 112.066 28.4467 112.281 28.3795C112.503 28.3056 112.741 28.2686 112.995 28.2686C113.318 28.2686 113.643 28.3224 113.971 28.4299C114.3 28.5307 114.598 28.6686 114.866 28.8432L114.514 29.428C114.272 29.2735 114.018 29.1525 113.75 29.065C113.488 28.971 113.231 28.9239 112.975 28.9239C112.667 28.9239 112.422 28.9979 112.242 29.1457C112.06 29.2868 111.969 29.465 111.969 29.68V29.7002C111.969 29.8212 112.007 29.9288 112.08 30.0228C112.153 30.1103 112.251 30.1875 112.372 30.2547C112.499 30.322 112.644 30.3825 112.804 30.4362C112.965 30.49 113.133 30.5438 113.307 30.5975C113.509 30.658 113.706 30.7253 113.901 30.7991C114.102 30.8731 114.283 30.9673 114.444 31.0814C114.605 31.1957 114.732 31.3335 114.826 31.4948C114.927 31.6561 114.977 31.8545 114.977 32.0896V32.1098Z" fill="black"/>
<path d="M105.984 30.5851V33.5694H105.21V28.357H105.984V29.2644C106.158 28.9821 106.386 28.7434 106.668 28.5486C106.949 28.3469 107.315 28.2461 107.764 28.2461C108.079 28.2461 108.357 28.2965 108.599 28.3973C108.847 28.4981 109.055 28.6426 109.223 28.8308C109.397 29.0123 109.528 29.2307 109.615 29.4862C109.709 29.7415 109.755 30.0238 109.755 30.3331V33.5694H108.981V30.5246C108.981 30.0407 108.857 29.6576 108.609 29.3753C108.361 29.093 108.006 28.9518 107.543 28.9518C107.322 28.9518 107.114 28.9922 106.92 29.0728C106.731 29.1467 106.567 29.2576 106.426 29.4055C106.286 29.5467 106.175 29.7181 106.095 29.9197C106.021 30.1213 105.984 30.3432 105.984 30.5851Z" fill="black"/>
<path d="M103.806 30.9582C103.806 31.3278 103.736 31.6807 103.595 32.0168C103.461 32.3461 103.274 32.6351 103.032 32.8838C102.79 33.1325 102.502 33.3307 102.167 33.4787C101.832 33.6198 101.469 33.6904 101.08 33.6904C100.691 33.6904 100.333 33.6198 100.004 33.4787C99.6754 33.3307 99.3906 33.1359 99.1499 32.8939C98.908 32.6451 98.7204 32.3562 98.5859 32.0269C98.4514 31.6974 98.3848 31.348 98.3848 30.9783C98.3848 30.6086 98.4514 30.2591 98.5859 29.9298C98.7204 29.5937 98.908 29.3013 99.1499 29.0527C99.3906 28.8039 99.6754 28.609 100.004 28.4679C100.34 28.32 100.705 28.2461 101.1 28.2461C101.489 28.2461 101.849 28.32 102.176 28.4679C102.512 28.609 102.8 28.8039 103.042 29.0527C103.283 29.2946 103.471 29.5802 103.605 29.9096C103.739 30.2389 103.806 30.5884 103.806 30.9582ZM103.011 30.9783C103.011 30.696 102.962 30.4305 102.861 30.1818C102.767 29.9331 102.633 29.7181 102.459 29.5366C102.284 29.3483 102.079 29.2005 101.845 29.093C101.61 28.9854 101.356 28.9317 101.08 28.9317C100.799 28.9317 100.541 28.9854 100.306 29.093C100.071 29.1938 99.8697 29.3382 99.7025 29.5265C99.542 29.708 99.4143 29.923 99.3205 30.1718C99.2267 30.4137 99.1792 30.6759 99.1792 30.9582C99.1792 31.2405 99.2267 31.5059 99.3205 31.7546C99.4211 32.0033 99.5544 32.2184 99.7228 32.3999C99.8969 32.5814 100.101 32.7258 100.336 32.8334C100.57 32.9409 100.826 32.9947 101.1 32.9947C101.382 32.9947 101.641 32.9443 101.875 32.8435C102.11 32.7359 102.311 32.5914 102.478 32.41C102.646 32.2285 102.776 32.0168 102.871 31.7748C102.965 31.526 103.011 31.2606 103.011 30.9783Z" fill="black"/>
<path d="M97.545 32.4519C97.3642 32.64 97.1732 32.8114 96.9721 32.9661C96.7765 33.1139 96.5663 33.2416 96.3381 33.3492C96.1098 33.4567 95.8657 33.5407 95.6035 33.6012C95.3424 33.6617 95.0508 33.692 94.7287 33.692C94.2191 33.692 93.7501 33.5978 93.3206 33.4097C92.8912 33.2214 92.5194 32.9661 92.2041 32.6434C91.8888 32.314 91.6413 31.9276 91.4593 31.484C91.2853 31.0404 91.1982 30.5631 91.1982 30.0523C91.1982 29.5482 91.2853 29.0744 91.4593 28.6308C91.6413 28.1872 91.8888 27.8007 92.2041 27.4713C92.5194 27.1352 92.8946 26.8731 93.3308 26.685C93.7659 26.49 94.2428 26.3926 94.7593 26.3926C95.0802 26.3926 95.3684 26.4194 95.6238 26.4732C95.8849 26.5269 96.1267 26.6043 96.3482 26.7051C96.5697 26.7991 96.7731 26.9168 96.9619 27.058C97.1495 27.1923 97.3303 27.3436 97.5043 27.5117L96.9619 28.0964C96.6601 27.8141 96.3347 27.5823 95.9855 27.4008C95.6442 27.2193 95.2317 27.1286 94.7491 27.1286C94.3592 27.1286 93.9976 27.2024 93.6619 27.3504C93.3342 27.4982 93.046 27.7032 92.7974 27.9654C92.5555 28.2275 92.3645 28.5366 92.2244 28.8929C92.0899 29.2424 92.0232 29.6221 92.0232 30.0322C92.0232 30.4421 92.0899 30.8253 92.2244 31.1815C92.3645 31.5377 92.5555 31.8469 92.7974 32.1091C93.046 32.3712 93.3342 32.5795 93.6619 32.7342C93.9976 32.882 94.3592 32.956 94.7491 32.956C95.2317 32.956 95.6476 32.8685 95.9956 32.6938C96.3448 32.5124 96.6861 32.2603 97.0218 31.9377L97.545 32.4519Z" fill="black"/>
<path d="M86.5656 33.5718H85.7915V26.2119H86.5656V33.5718Z" fill="black"/>
<path d="M84.3167 30.9582C84.3167 31.3278 84.2466 31.6807 84.1065 32.0168C83.972 32.3461 83.7844 32.6351 83.5426 32.8838C83.3019 33.1325 83.0125 33.3307 82.678 33.4787C82.3424 33.6198 81.9807 33.6904 81.592 33.6904C81.2021 33.6904 80.8439 33.6198 80.515 33.4787C80.1872 33.3307 79.9013 33.1359 79.6606 32.8939C79.4188 32.6451 79.2312 32.3562 79.0967 32.0269C78.9633 31.6974 78.8955 31.348 78.8955 30.9783C78.8955 30.6086 78.9633 30.2591 79.0967 29.9298C79.2312 29.5937 79.4188 29.3013 79.6606 29.0527C79.9013 28.8039 80.1872 28.609 80.515 28.4679C80.8506 28.32 81.2157 28.2461 81.6112 28.2461C82 28.2461 82.3593 28.32 82.6882 28.4679C83.0227 28.609 83.3109 28.8039 83.5528 29.0527C83.7946 29.2946 83.9822 29.5802 84.1156 29.9096C84.25 30.2389 84.3167 30.5884 84.3167 30.9582ZM83.5222 30.9783C83.5222 30.696 83.4725 30.4305 83.3719 30.1818C83.2781 29.9331 83.1437 29.7181 82.9696 29.5366C82.7956 29.3483 82.591 29.2005 82.3559 29.093C82.1209 28.9854 81.8666 28.9317 81.592 28.9317C81.3095 28.9317 81.0518 28.9854 80.8167 29.093C80.5828 29.1938 80.3816 29.3382 80.2132 29.5265C80.0528 29.708 79.9251 29.923 79.8313 30.1718C79.7375 30.4137 79.69 30.6759 79.69 30.9582C79.69 31.2405 79.7375 31.5059 79.8313 31.7546C79.9318 32.0033 80.0663 32.2184 80.2336 32.3999C80.4076 32.5814 80.6122 32.7258 80.8472 32.8334C81.0823 32.9409 81.3366 32.9947 81.6112 32.9947C81.8937 32.9947 82.1514 32.9443 82.3865 32.8435C82.6204 32.7359 82.8216 32.5914 82.9899 32.41C83.1572 32.2285 83.2883 32.0168 83.3821 31.7748C83.4759 31.526 83.5222 31.2606 83.5222 30.9783Z" fill="black"/>
<path d="M77.8172 30.9582C77.8172 31.3278 77.746 31.6807 77.6059 32.0168C77.4714 32.3461 77.2838 32.6351 77.042 32.8838C76.8012 33.1325 76.513 33.3307 76.1774 33.4787C75.8418 33.6198 75.4801 33.6904 75.0914 33.6904C74.7026 33.6904 74.3432 33.6198 74.0155 33.4787C73.6866 33.3307 73.4018 33.1359 73.16 32.8939C72.9181 32.6451 72.7305 32.3562 72.5972 32.0269C72.4627 31.6974 72.396 31.348 72.396 30.9783C72.396 30.6086 72.4627 30.2591 72.5972 29.9298C72.7305 29.5937 72.9181 29.3013 73.16 29.0527C73.4018 28.8039 73.6866 28.609 74.0155 28.4679C74.35 28.32 74.7161 28.2461 75.1117 28.2461C75.5005 28.2461 75.8587 28.32 76.1876 28.4679C76.5232 28.609 76.8114 28.8039 77.0521 29.0527C77.294 29.2946 77.4816 29.5802 77.616 29.9096C77.7494 30.2389 77.8172 30.5884 77.8172 30.9582ZM77.0227 30.9783C77.0227 30.696 76.9719 30.4305 76.8713 30.1818C76.7775 29.9331 76.643 29.7181 76.469 29.5366C76.2949 29.3483 76.0904 29.2005 75.8553 29.093C75.6214 28.9854 75.366 28.9317 75.0914 28.9317C74.81 28.9317 74.5511 28.9854 74.3172 29.093C74.0821 29.1938 73.881 29.3382 73.7137 29.5265C73.5521 29.708 73.4244 29.923 73.3306 30.1718C73.2368 30.4137 73.1905 30.6759 73.1905 30.9582C73.1905 31.2405 73.2368 31.5059 73.3306 31.7546C73.4312 32.0033 73.5657 32.2184 73.7329 32.3999C73.9081 32.5814 74.1127 32.7258 74.3466 32.8334C74.5817 32.9409 74.8359 32.9947 75.1117 32.9947C75.3931 32.9947 75.6508 32.9443 75.8858 32.8435C76.1209 32.7359 76.3221 32.5914 76.4893 32.41C76.6566 32.2285 76.7877 32.0168 76.8815 31.7748C76.9753 31.526 77.0227 31.2606 77.0227 30.9783Z" fill="black"/>
<path d="M71.2877 30.9582C71.2877 31.3883 71.2176 31.7714 71.0763 32.1075C70.9362 32.4435 70.7475 32.7292 70.5135 32.9645C70.2852 33.193 70.0208 33.371 69.719 33.4988C69.4241 33.6198 69.119 33.6803 68.8037 33.6803C68.5618 33.6803 68.3403 33.6501 68.1391 33.5896C67.938 33.5291 67.7572 33.4484 67.5967 33.3476C67.4351 33.2468 67.2881 33.1291 67.1537 32.9947C67.026 32.8603 66.913 32.7191 66.8124 32.5713V35.1825H66.0371V28.357H66.8124V29.4055C66.9186 29.2509 67.0361 29.1031 67.1638 28.9619C67.2983 28.8208 67.4452 28.6998 67.6068 28.599C67.7673 28.4913 67.9448 28.4074 68.1391 28.3469C68.3403 28.2796 68.5618 28.2461 68.8037 28.2461C69.1122 28.2461 69.4139 28.3066 69.7089 28.4276C70.0106 28.5486 70.2785 28.7266 70.5135 28.9619C70.7475 29.1904 70.9362 29.4727 71.0763 29.8088C71.2176 30.1448 71.2877 30.5279 71.2877 30.9582ZM70.4932 30.9682C70.4932 30.659 70.4423 30.3801 70.3417 30.1314C70.2479 29.8827 70.118 29.6709 69.9496 29.4963C69.7823 29.3148 69.588 29.1769 69.3665 29.0829C69.1449 28.9888 68.911 28.9418 68.6624 28.9418C68.4217 28.9418 68.1866 28.9922 67.9583 29.093C67.7368 29.187 67.5356 29.3215 67.3548 29.4963C67.1808 29.6709 67.0395 29.8827 66.9322 30.1314C66.8316 30.3801 66.7819 30.6557 66.7819 30.9582C66.7819 31.2606 66.8316 31.5395 66.9322 31.795C67.0395 32.0436 67.1808 32.2553 67.3548 32.4301C67.5356 32.6048 67.7368 32.7427 67.9583 32.8435C68.1866 32.9375 68.4217 32.9846 68.6624 32.9846C68.911 32.9846 69.1449 32.9409 69.3665 32.8536C69.5947 32.7594 69.7891 32.6284 69.9496 32.4604C70.118 32.2856 70.2479 32.0739 70.3417 31.8252C70.4423 31.5698 70.4932 31.2841 70.4932 30.9682Z" fill="black"/>
<path d="M60.613 30.5875V33.5718H59.8389V26.2119H60.613V29.2668C60.7882 28.9845 61.0153 28.7459 61.2967 28.5509C61.5793 28.3493 61.9443 28.2485 62.3941 28.2485C62.7083 28.2485 62.9874 28.2989 63.2281 28.3997C63.4767 28.5005 63.6847 28.6451 63.8519 28.8332C64.026 29.0147 64.1571 29.2332 64.2441 29.4886C64.3379 29.744 64.3854 30.0263 64.3854 30.3355V33.5718H63.6101V30.527C63.6101 30.0431 63.4869 29.66 63.2383 29.3777C62.9908 29.0954 62.6348 28.9542 62.1726 28.9542C61.9511 28.9542 61.7431 28.9946 61.5487 29.0752C61.3611 29.1492 61.1961 29.2601 61.056 29.4079C60.9147 29.5491 60.804 29.7205 60.7238 29.9221C60.6503 30.1237 60.613 30.3455 60.613 30.5875Z" fill="black"/>
<path d="M58.5585 32.6822C58.2975 32.9778 57.9991 33.2198 57.6635 33.4081C57.3346 33.5963 56.9255 33.6904 56.4362 33.6904C56.0542 33.6904 55.6993 33.6198 55.3702 33.4787C55.0484 33.3307 54.7668 33.1359 54.5254 32.8939C54.2907 32.6451 54.1063 32.3562 53.9722 32.0269C53.8381 31.6974 53.771 31.348 53.771 30.9783C53.771 30.6086 53.8381 30.2591 53.9722 29.9298C54.1063 29.5937 54.2907 29.3013 54.5254 29.0527C54.7668 28.8039 55.0484 28.609 55.3702 28.4679C55.6993 28.32 56.0542 28.2461 56.4362 28.2461C56.6848 28.2461 56.9097 28.2695 57.1109 28.3167C57.312 28.3637 57.4962 28.4309 57.6635 28.5183C57.8307 28.599 57.9856 28.6964 58.1257 28.8107C58.267 28.9249 58.3981 29.0459 58.519 29.1736L58.0059 29.7181C57.798 29.503 57.5697 29.3181 57.3211 29.1636C57.0803 29.0089 56.782 28.9317 56.426 28.9317C56.1649 28.9317 55.9197 28.9854 55.6926 29.093C55.4642 29.1938 55.2664 29.3382 55.0987 29.5265C54.9311 29.708 54.8003 29.923 54.7064 30.1718C54.6126 30.4137 54.5656 30.6759 54.5656 30.9582C54.5656 31.2405 54.6126 31.5059 54.7064 31.7546C54.807 32.0033 54.9411 32.2217 55.1087 32.41C55.2831 32.5914 55.4843 32.7359 55.7118 32.8435C55.9468 32.9443 56.2022 32.9947 56.4769 32.9947C56.8125 32.9947 57.1075 32.9208 57.3617 32.7729C57.6228 32.625 57.8579 32.4402 58.0658 32.2184L58.5585 32.6822Z" fill="black"/>
<path d="M48.6039 31.2505C48.6308 31.5328 48.6978 31.7849 48.805 32.0067C48.9124 32.2217 49.0498 32.4066 49.2174 32.5612C49.3851 32.709 49.5728 32.8233 49.7807 32.904C49.9886 32.9778 50.2065 33.0149 50.4344 33.0149C50.7965 33.0149 51.1051 32.9476 51.3598 32.8133C51.6213 32.6788 51.8594 32.5007 52.0739 32.2789L52.5567 32.7124C52.2952 33.0081 51.9968 33.2468 51.6615 33.4283C51.3263 33.6029 50.9106 33.6904 50.4143 33.6904C50.059 33.6904 49.7237 33.6265 49.4085 33.4988C49.0934 33.3644 48.8185 33.1795 48.5837 32.9443C48.3491 32.7023 48.1613 32.4133 48.0205 32.0773C47.8865 31.7412 47.8193 31.3715 47.8193 30.9682C47.8193 30.5918 47.8797 30.2389 48.0004 29.9096C48.1279 29.5735 48.3021 29.2845 48.5234 29.0426C48.7447 28.7938 49.0062 28.599 49.3079 28.4578C49.6165 28.3167 49.9517 28.2461 50.3137 28.2461C50.696 28.2461 51.0379 28.32 51.3397 28.4679C51.6414 28.609 51.8963 28.8039 52.1041 29.0527C52.312 29.3013 52.4696 29.5937 52.5768 29.9298C52.6842 30.2658 52.7378 30.6255 52.7378 31.0086C52.7378 31.0421 52.7378 31.0791 52.7378 31.1195C52.7378 31.1598 52.7345 31.2034 52.7277 31.2505H48.6039ZM48.6039 30.6759H51.9532C51.9331 30.4406 51.8828 30.2154 51.8023 30.0004C51.7287 29.7852 51.6213 29.5971 51.4805 29.4358C51.3465 29.2745 51.1787 29.1467 50.9776 29.0527C50.7832 28.9518 50.5551 28.9014 50.2936 28.9014C50.0657 28.9014 49.8545 28.9484 49.66 29.0426C49.4656 29.1299 49.2946 29.2543 49.147 29.4156C48.9995 29.5701 48.8788 29.755 48.7849 29.9701C48.6911 30.1851 48.6308 30.4204 48.6039 30.6759Z" fill="black"/>
<path d="M45.6922 27.2516V33.573H44.8876V27.2516H42.5239V26.5156H48.0559V27.2516H45.6922Z" fill="black"/>
</svg>
