<svg width="192" height="37" viewBox="0 0 192 37" fill="none" xmlns="http://www.w3.org/2000/svg">
<rect y="0.230469" width="36" height="36" rx="8" fill="white"/>
<path d="M27.9181 10.4872L18.9616 5.91668C18.7173 5.83506 18.473 5.83506 18.2288 5.91668L9.27223 10.4872C8.94654 10.6504 8.78369 10.8953 8.78369 11.2218V13.1806C8.78369 13.6703 9.10938 13.9967 9.59792 13.9967H27.511C27.9995 13.9967 28.3252 13.6703 28.3252 13.1806V11.2218C28.3252 10.8953 28.1624 10.6504 27.9181 10.4872Z" fill="#422369"/>
<path d="M29.0575 19.3026C28.8947 19.0578 28.6504 18.8945 28.3247 18.8945C26.5334 18.8945 24.8235 19.7107 23.765 21.1798L23.0322 22.1592C22.1366 23.2202 20.7524 23.7915 19.3682 23.7915H16.9255C16.437 23.7915 16.1113 23.4651 16.1113 22.9754C16.1113 22.4857 16.437 22.1592 16.9255 22.1592H18.4725C19.7753 22.1592 20.9967 21.0982 20.9967 19.7923V19.7107C20.9967 19.3026 20.5895 18.8945 20.1824 18.8945H15.2156C12.2844 18.8945 9.92313 20.2004 8.62036 22.3224L6.42194 25.7503C6.25909 25.9952 6.25909 26.3216 6.42194 26.5665L8.86463 30.6473C8.94605 30.8106 9.19032 30.9738 9.35317 31.0554C9.43459 31.0554 9.43459 31.0554 9.51601 31.0554C9.67886 31.0554 9.8417 30.9738 10.0046 30.8922C13.0986 28.8518 16.6812 27.7907 20.3453 27.7907C23.0322 27.7907 25.4749 26.3216 26.7777 23.9548L28.9761 20.0372C29.139 19.8739 29.139 19.5475 29.0575 19.3026Z" fill="#422369"/>
<path d="M25.8824 17.671V15.6306C25.8824 15.1409 25.5567 14.8145 25.0682 14.8145H23.4397C22.9512 14.8145 22.6255 15.1409 22.6255 15.6306V19.9563C23.5211 18.8953 24.5796 18.1607 25.8824 17.671Z" fill="#422369"/>
<path d="M14.4825 17.263V15.6306C14.4825 15.1409 14.1568 14.8145 13.6683 14.8145H12.0398C11.5513 14.8145 11.2256 15.1409 11.2256 15.6306V17.263H14.4825Z" fill="#422369"/>
<path d="M20.1827 17.3446V15.6306C20.1827 15.1409 19.857 14.8145 19.3685 14.8145H17.74C17.2515 14.8145 16.9258 15.1409 16.9258 15.6306V18.0791C17.9029 17.671 19.0428 17.4262 20.1827 17.3446Z" fill="#422369"/>
<path d="M173.076 23.4277V0.927734H191.13V6.23129H179.233V9.63844H190.007V14.5563H179.233V18.1242H191.29V23.4277H173.076Z" fill="white"/>
<path d="M160.459 23.8766C154.046 23.8766 148.883 18.9587 148.883 12.2408V12.1766C148.883 5.61944 153.917 0.476562 160.716 0.476562C165.301 0.476562 168.251 2.40513 170.239 5.1694L165.558 8.80155C164.275 7.19444 162.8 6.16584 160.652 6.16584C157.509 6.16584 155.296 8.8337 155.296 12.1123V12.1766C155.296 15.5516 157.509 18.1873 160.652 18.1873C162.992 18.1873 164.371 17.0944 165.718 15.4552L170.4 18.798C168.283 21.723 165.429 23.8766 160.459 23.8766Z" fill="white"/>
<path d="M124.475 23.4277V0.927734H130.279L139.514 12.8206V0.927734H145.671V23.4277H140.22L130.632 11.0849V23.4277H124.475Z" fill="white"/>
<path d="M97.1885 23.4264L106.744 0.765625H112.741L122.297 23.4264H115.627L113.991 19.4085H105.333L103.73 23.4264H97.1885ZM107.161 14.5549H112.195L109.694 8.15853L107.161 14.5549Z" fill="white"/>
<path d="M73.8076 23.4277V0.927734H79.6113L88.8469 12.8206V0.927734H95.0036V23.4277H89.552L79.9644 11.0849V23.4277H73.8076Z" fill="white"/>
<path d="M63.4448 23.4277V0.927734H69.6979V23.4277H63.4448Z" fill="white"/>
<path d="M42.5234 23.4277V0.927734H60.4807V6.39202H48.7442V10.217H59.3584V15.392H48.7442V23.4277H42.5234Z" fill="white"/>
<path d="M187.07 31.481C187.096 31.7633 187.163 32.0154 187.271 32.2372C187.378 32.4522 187.515 32.637 187.683 32.7917C187.851 32.9395 188.038 33.0538 188.246 33.1345C188.454 33.2083 188.672 33.2454 188.899 33.2454C189.262 33.2454 189.571 33.1781 189.825 33.0437C190.087 32.9093 190.324 32.7312 190.539 32.5094L191.022 32.9429C190.761 33.2386 190.462 33.4772 190.127 33.6587C189.792 33.8334 189.376 33.9209 188.88 33.9209C188.524 33.9209 188.19 33.857 187.874 33.7293C187.559 33.5948 187.284 33.41 187.049 33.1748C186.814 32.9328 186.627 32.6437 186.485 32.3077C186.352 31.9716 186.284 31.602 186.284 31.1987C186.284 30.8223 186.345 30.4694 186.466 30.1401C186.593 29.804 186.768 29.515 186.988 29.273C187.21 29.0243 187.472 28.8294 187.774 28.6883C188.082 28.5471 188.417 28.4766 188.779 28.4766C189.161 28.4766 189.503 28.5504 189.805 28.6984C190.106 28.8395 190.362 29.0344 190.57 29.2831C190.778 29.5318 190.935 29.8242 191.042 30.1603C191.149 30.4962 191.204 30.8559 191.204 31.239C191.204 31.2726 191.204 31.3096 191.204 31.3499C191.204 31.3903 191.2 31.4339 191.193 31.481H187.07ZM187.07 30.9063H190.418C190.399 30.671 190.348 30.4458 190.268 30.2308C190.194 30.0157 190.087 29.8276 189.946 29.6662C189.811 29.5049 189.644 29.3771 189.443 29.2831C189.248 29.1823 189.02 29.1319 188.759 29.1319C188.531 29.1319 188.32 29.1789 188.125 29.273C187.931 29.3604 187.76 29.4848 187.612 29.6461C187.465 29.8006 187.344 29.9855 187.25 30.2006C187.157 30.4156 187.096 30.6509 187.07 30.9063Z" fill="white"/>
<path d="M185.475 32.9127C185.213 33.2083 184.914 33.4503 184.58 33.6386C184.251 33.8267 183.842 33.9209 183.352 33.9209C182.97 33.9209 182.615 33.8503 182.286 33.7091C181.965 33.5612 181.682 33.3663 181.441 33.1244C181.206 32.8756 181.022 32.5866 180.888 32.2573C180.754 31.9279 180.687 31.5784 180.687 31.2088C180.687 30.839 180.754 30.4896 180.888 30.1603C181.022 29.8242 181.206 29.5318 181.441 29.2831C181.682 29.0344 181.965 28.8395 182.286 28.6984C182.615 28.5504 182.97 28.4766 183.352 28.4766C183.6 28.4766 183.825 28.5 184.026 28.5471C184.227 28.5941 184.411 28.6613 184.58 28.7488C184.747 28.8294 184.901 28.9269 185.042 29.0412C185.183 29.1553 185.313 29.2763 185.434 29.4041L184.921 29.9485C184.713 29.7334 184.486 29.5485 184.237 29.394C183.996 29.2394 183.697 29.1621 183.342 29.1621C183.081 29.1621 182.836 29.2158 182.608 29.3235C182.381 29.4243 182.183 29.5687 182.014 29.757C181.847 29.9385 181.716 30.1535 181.622 30.4022C181.528 30.6442 181.481 30.9063 181.481 31.1886C181.481 31.4709 181.528 31.7363 181.622 31.9851C181.723 32.2338 181.857 32.4522 182.025 32.6404C182.199 32.8219 182.4 32.9663 182.628 33.074C182.863 33.1748 183.117 33.2252 183.392 33.2252C183.728 33.2252 184.023 33.1512 184.278 33.0034C184.539 32.8554 184.774 32.6707 184.982 32.4489L185.475 32.9127Z" fill="white"/>
<path d="M179.271 27.4527H178.386V26.5957H179.271V27.4527ZM179.211 33.8043H178.436V28.5919H179.211V33.8043Z" fill="white"/>
<path d="M174.555 32.9131L176.314 28.5879H177.149L174.887 33.8406H174.202L171.95 28.5879H172.804L174.555 32.9131Z" fill="white"/>
<path d="M169.159 31.7272V33.8041H168.385V28.5917H169.159V29.9528C169.253 29.7376 169.371 29.5394 169.511 29.3579C169.652 29.1764 169.814 29.0218 169.995 28.8941C170.175 28.7597 170.373 28.6589 170.588 28.5917C170.803 28.5244 171.033 28.4941 171.282 28.5009V29.3377H171.221C170.939 29.3377 170.672 29.3882 170.416 29.489C170.169 29.5898 169.95 29.741 169.763 29.9427C169.575 30.1443 169.427 30.3964 169.32 30.6988C169.213 30.9945 169.159 31.3373 169.159 31.7272Z" fill="white"/>
<path d="M162.897 31.481C162.924 31.7633 162.991 32.0154 163.098 32.2372C163.206 32.4522 163.344 32.637 163.511 32.7917C163.678 32.9395 163.867 33.0538 164.074 33.1345C164.282 33.2083 164.5 33.2454 164.728 33.2454C165.09 33.2454 165.398 33.1781 165.653 33.0437C165.915 32.9093 166.153 32.7312 166.368 32.5094L166.85 32.9429C166.588 33.2386 166.29 33.4772 165.955 33.6587C165.62 33.8334 165.204 33.9209 164.708 33.9209C164.353 33.9209 164.017 33.857 163.702 33.7293C163.386 33.5948 163.112 33.41 162.877 33.1748C162.643 32.9328 162.455 32.6437 162.314 32.3077C162.179 31.9716 162.113 31.602 162.113 31.1987C162.113 30.8223 162.173 30.4694 162.294 30.1401C162.421 29.804 162.595 29.515 162.817 29.273C163.038 29.0243 163.299 28.8294 163.601 28.6883C163.91 28.5471 164.245 28.4766 164.607 28.4766C164.989 28.4766 165.331 28.5504 165.633 28.6984C165.935 28.8395 166.189 29.0344 166.397 29.2831C166.605 29.5318 166.763 29.8242 166.871 30.1603C166.978 30.4962 167.031 30.8559 167.031 31.239C167.031 31.2726 167.031 31.3096 167.031 31.3499C167.031 31.3903 167.028 31.4339 167.021 31.481H162.897ZM162.897 30.9063H166.247C166.226 30.671 166.177 30.4458 166.095 30.2308C166.022 30.0157 165.915 29.8276 165.774 29.6662C165.64 29.5049 165.473 29.3771 165.271 29.2831C165.076 29.1823 164.849 29.1319 164.587 29.1319C164.359 29.1319 164.148 29.1789 163.954 29.273C163.759 29.3604 163.588 29.4848 163.441 29.6461C163.293 29.8006 163.172 29.9855 163.078 30.2006C162.984 30.4156 162.924 30.6509 162.897 30.9063Z" fill="white"/>
<path d="M156.743 28.5097C156.743 28.6778 156.77 28.829 156.825 28.9634C156.878 29.0979 156.975 29.2222 157.116 29.3364C157.256 29.444 157.451 29.5449 157.699 29.6389C157.948 29.7263 158.266 29.8103 158.654 29.8909C159.44 30.0657 160.016 30.3077 160.385 30.6168C160.761 30.9261 160.949 31.3528 160.949 31.8973C160.949 32.1997 160.888 32.4753 160.767 32.724C160.647 32.9728 160.478 33.1845 160.264 33.3592C160.057 33.5339 159.805 33.6684 159.51 33.7624C159.215 33.8566 158.893 33.9036 158.545 33.9036C157.981 33.9036 157.464 33.8128 156.995 33.6314C156.533 33.4432 156.09 33.1575 155.667 32.7744L156.16 32.1896C156.53 32.5257 156.902 32.7778 157.277 32.9458C157.652 33.1071 158.085 33.1878 158.574 33.1878C159.051 33.1878 159.43 33.0769 159.711 32.8551C159.999 32.6332 160.144 32.3409 160.144 31.9779C160.144 31.8099 160.117 31.6621 160.063 31.5343C160.009 31.4 159.916 31.279 159.781 31.1714C159.648 31.0639 159.459 30.9664 159.218 30.879C158.983 30.7916 158.682 30.7076 158.313 30.6269C157.911 30.5396 157.558 30.4388 157.256 30.3245C156.961 30.2103 156.717 30.0724 156.523 29.9111C156.329 29.7498 156.184 29.5616 156.09 29.3465C155.996 29.1315 155.949 28.8761 155.949 28.5803C155.949 28.298 156.007 28.0392 156.121 27.804C156.235 27.5688 156.395 27.3671 156.603 27.199C156.811 27.0244 157.055 26.8899 157.338 26.7958C157.619 26.6949 157.928 26.6445 158.262 26.6445C158.779 26.6445 159.229 26.7185 159.61 26.8663C159.999 27.0075 160.374 27.2226 160.737 27.5116L160.274 28.1266C159.946 27.8578 159.614 27.6628 159.278 27.5418C158.95 27.4208 158.605 27.3604 158.243 27.3604C158.015 27.3604 157.807 27.3906 157.619 27.4511C157.438 27.5116 157.28 27.5922 157.146 27.6931C157.019 27.7939 156.919 27.9149 156.844 28.056C156.777 28.1972 156.743 28.3484 156.743 28.5097Z" fill="white"/>
<path d="M151.76 28.5879L149.578 33.9717C149.357 34.5093 149.109 34.8892 148.833 35.111C148.566 35.3328 148.237 35.4437 147.848 35.4437C147.633 35.4437 147.439 35.4201 147.265 35.3731C147.091 35.3328 146.917 35.2689 146.742 35.1815L147.004 34.5665C147.13 34.6337 147.255 34.6807 147.376 34.7077C147.503 34.7412 147.65 34.7581 147.819 34.7581C148.052 34.7581 148.25 34.6875 148.412 34.5464C148.572 34.4052 148.731 34.1498 148.884 33.7801L146.52 28.5879H147.376L149.266 32.9332L150.937 28.5879H151.76Z" fill="white"/>
<path d="M145.81 32.9127C145.548 33.2083 145.25 33.4503 144.915 33.6386C144.586 33.8267 144.177 33.9209 143.688 33.9209C143.306 33.9209 142.95 33.8503 142.622 33.7091C142.3 33.5612 142.019 33.3663 141.777 33.1244C141.542 32.8756 141.358 32.5866 141.223 32.2573C141.09 31.9279 141.022 31.5784 141.022 31.2088C141.022 30.839 141.09 30.4896 141.223 30.1603C141.358 29.8242 141.542 29.5318 141.777 29.2831C142.019 29.0344 142.3 28.8395 142.622 28.6984C142.95 28.5504 143.306 28.4766 143.688 28.4766C143.937 28.4766 144.16 28.5 144.361 28.5471C144.563 28.5941 144.747 28.6613 144.915 28.7488C145.083 28.8294 145.237 28.9269 145.377 29.0412C145.519 29.1553 145.649 29.2763 145.77 29.4041L145.257 29.9485C145.049 29.7334 144.821 29.5485 144.573 29.394C144.332 29.2394 144.034 29.1621 143.678 29.1621C143.417 29.1621 143.171 29.2158 142.943 29.3235C142.716 29.4243 142.518 29.5687 142.35 29.757C142.183 29.9385 142.052 30.1535 141.958 30.4022C141.864 30.6442 141.818 30.9063 141.818 31.1886C141.818 31.4709 141.864 31.7363 141.958 31.9851C142.058 32.2338 142.193 32.4522 142.36 32.6404C142.534 32.8219 142.735 32.9663 142.964 33.074C143.199 33.1748 143.453 33.2252 143.729 33.2252C144.063 33.2252 144.358 33.1512 144.614 33.0034C144.875 32.8554 145.11 32.6707 145.318 32.4489L145.81 32.9127Z" fill="white"/>
<path d="M135.921 30.8156V33.7999H135.147V28.5875H135.921V29.4948C136.096 29.2126 136.323 28.9739 136.605 28.779C136.887 28.5774 137.252 28.4766 137.702 28.4766C138.016 28.4766 138.295 28.527 138.536 28.6278C138.785 28.7286 138.993 28.873 139.16 29.0613C139.334 29.2428 139.465 29.4612 139.552 29.7167C139.646 29.972 139.693 30.2543 139.693 30.5635V33.7999H138.918V30.7551C138.918 30.2712 138.795 29.888 138.546 29.6058C138.299 29.3235 137.943 29.1823 137.481 29.1823C137.259 29.1823 137.051 29.2226 136.857 29.3033C136.669 29.3771 136.504 29.488 136.364 29.636C136.223 29.7771 136.112 29.9485 136.032 30.1502C135.958 30.3518 135.921 30.5736 135.921 30.8156Z" fill="white"/>
<path d="M131.203 29.2051C130.895 29.2051 130.613 29.2422 130.359 29.316C130.111 29.3833 129.866 29.474 129.625 29.5882L129.393 28.9531C129.681 28.8187 129.974 28.7145 130.269 28.6405C130.564 28.5599 130.902 28.5195 131.285 28.5195C131.994 28.5195 132.541 28.6977 132.923 29.0539C133.305 29.4035 133.498 29.9243 133.498 30.6166V33.8025H132.753V33.0161C132.572 33.2514 132.327 33.4597 132.018 33.6412C131.716 33.8227 131.334 33.9134 130.872 33.9134C130.63 33.9134 130.392 33.8799 130.158 33.8126C129.93 33.7454 129.722 33.6446 129.534 33.5101C129.353 33.369 129.205 33.1976 129.091 32.9959C128.984 32.7943 128.931 32.5557 128.931 32.2801C128.931 32.0046 128.984 31.7627 129.091 31.5542C129.199 31.3392 129.35 31.161 129.544 31.0199C129.745 30.8787 129.979 30.7712 130.248 30.6972C130.523 30.6234 130.825 30.5863 131.154 30.5863C131.488 30.5863 131.781 30.6065 132.028 30.6468C132.277 30.6872 132.518 30.741 132.753 30.8082V30.6267C132.753 30.1562 132.615 29.8034 132.34 29.5681C132.072 29.3261 131.693 29.2051 131.203 29.2051ZM131.234 31.161C130.745 31.161 130.369 31.2586 130.107 31.4534C129.846 31.6484 129.715 31.9139 129.715 32.2499C129.715 32.418 129.749 32.5658 129.816 32.6935C129.889 32.8213 129.986 32.9322 130.107 33.0262C130.228 33.1137 130.366 33.1808 130.52 33.2278C130.681 33.275 130.848 33.2984 131.023 33.2984C131.264 33.2984 131.488 33.2649 131.696 33.1976C131.911 33.1237 132.095 33.0262 132.25 32.9052C132.41 32.7775 132.535 32.6297 132.622 32.4616C132.715 32.2869 132.763 32.0954 132.763 31.8869V31.3828C132.569 31.3291 132.344 31.2787 132.089 31.2316C131.841 31.1846 131.556 31.161 131.234 31.161Z" fill="white"/>
<path d="M126.302 29.2759V32.3207C126.302 32.6434 126.384 32.8685 126.544 32.9962C126.705 33.124 126.916 33.1878 127.178 33.1878C127.311 33.1878 127.436 33.1744 127.55 33.1474C127.671 33.1206 127.797 33.0736 127.932 33.0063V33.6717C127.797 33.7457 127.654 33.7995 127.499 33.833C127.352 33.8734 127.185 33.8935 126.996 33.8935C126.789 33.8935 126.594 33.8667 126.413 33.8129C126.232 33.7592 126.075 33.6751 125.941 33.5608C125.813 33.4398 125.712 33.2853 125.639 33.097C125.565 32.9089 125.528 32.6837 125.528 32.4215V29.2759H124.804V28.5904H125.528V27.0176H126.302V28.5904H127.952V29.2759H126.302Z" fill="white"/>
<path d="M123.46 33.8032H122.686V26.4434H123.46V33.8032Z" fill="white"/>
<path d="M120.106 31.5722V28.5879H120.87V33.8003H120.106V32.8929C119.932 33.1752 119.704 33.4172 119.423 33.6188C119.14 33.8137 118.775 33.9112 118.325 33.9112C118.011 33.9112 117.729 33.8608 117.481 33.76C117.239 33.6591 117.031 33.518 116.857 33.3365C116.69 33.1483 116.559 32.9264 116.465 32.6711C116.378 32.4157 116.334 32.1334 116.334 31.8242V28.5879H117.109V31.6327C117.109 32.1166 117.232 32.4997 117.481 32.782C117.729 33.0643 118.085 33.2055 118.547 33.2055C118.768 33.2055 118.973 33.1684 119.16 33.0946C119.355 33.0139 119.52 32.903 119.653 32.7618C119.794 32.6139 119.905 32.4392 119.985 32.2376C120.066 32.0359 120.106 31.8141 120.106 31.5722Z" fill="white"/>
<path d="M114.977 32.3413C114.977 32.59 114.927 32.8118 114.826 33.0067C114.732 33.1949 114.601 33.3562 114.434 33.4906C114.272 33.6251 114.078 33.7293 113.851 33.8031C113.629 33.8704 113.388 33.904 113.127 33.904C112.75 33.904 112.372 33.8368 111.99 33.7023C111.608 33.5612 111.269 33.373 110.974 33.1377L111.366 32.5832C111.647 32.7983 111.94 32.9631 112.242 33.0772C112.549 33.1915 112.858 33.2486 113.166 33.2486C113.481 33.2486 113.74 33.1748 113.941 33.0268C114.143 32.879 114.243 32.6774 114.243 32.4219V32.4017C114.243 32.2741 114.206 32.1632 114.132 32.069C114.065 31.975 113.971 31.8944 113.851 31.8271C113.73 31.7532 113.589 31.6893 113.428 31.6355C113.273 31.5818 113.113 31.5314 112.946 31.4843C112.745 31.4238 112.54 31.36 112.332 31.2927C112.131 31.2189 111.946 31.1281 111.778 31.0205C111.618 30.913 111.483 30.7785 111.376 30.6172C111.275 30.4559 111.226 30.2543 111.226 30.0123V29.9921C111.226 29.7703 111.269 29.5687 111.356 29.3872C111.443 29.1991 111.564 29.0411 111.718 28.9134C111.879 28.779 112.066 28.6782 112.281 28.6109C112.503 28.537 112.741 28.5 112.995 28.5C113.318 28.5 113.643 28.5538 113.971 28.6613C114.3 28.7621 114.598 28.9 114.866 29.0747L114.514 29.6594C114.272 29.5049 114.018 29.3839 113.75 29.2965C113.488 29.2025 113.23 29.1553 112.975 29.1553C112.667 29.1553 112.422 29.2293 112.242 29.3771C112.06 29.5183 111.969 29.6965 111.969 29.9115V29.9316C111.969 30.0526 112.007 30.1603 112.08 30.2543C112.153 30.3417 112.251 30.419 112.372 30.4862C112.499 30.5534 112.644 30.6139 112.804 30.6676C112.965 30.7214 113.133 30.7753 113.307 30.8289C113.509 30.8894 113.706 30.9567 113.901 31.0306C114.102 31.1046 114.283 31.1987 114.444 31.3129C114.605 31.4272 114.732 31.5649 114.826 31.7262C114.927 31.8876 114.977 32.0859 114.977 32.3211V32.3413Z" fill="white"/>
<path d="M105.984 30.8156V33.7999H105.21V28.5875H105.984V29.4948C106.158 29.2126 106.386 28.9739 106.668 28.779C106.949 28.5774 107.315 28.4766 107.764 28.4766C108.079 28.4766 108.357 28.527 108.599 28.6278C108.847 28.7286 109.055 28.873 109.223 29.0613C109.397 29.2428 109.528 29.4612 109.615 29.7167C109.709 29.972 109.755 30.2543 109.755 30.5635V33.7999H108.981V30.7551C108.981 30.2712 108.857 29.888 108.609 29.6058C108.361 29.3235 108.006 29.1823 107.543 29.1823C107.322 29.1823 107.114 29.2226 106.92 29.3033C106.731 29.3771 106.567 29.488 106.426 29.636C106.286 29.7771 106.175 29.9485 106.095 30.1502C106.021 30.3518 105.984 30.5736 105.984 30.8156Z" fill="white"/>
<path d="M103.806 31.1886C103.806 31.5583 103.736 31.9111 103.595 32.2472C103.461 32.5765 103.274 32.8655 103.032 33.1143C102.79 33.3629 102.502 33.5612 102.167 33.7091C101.832 33.8503 101.469 33.9209 101.08 33.9209C100.691 33.9209 100.333 33.8503 100.004 33.7091C99.6754 33.5612 99.3906 33.3663 99.1499 33.1244C98.908 32.8756 98.7204 32.5866 98.5859 32.2573C98.4514 31.9279 98.3848 31.5784 98.3848 31.2088C98.3848 30.839 98.4514 30.4896 98.5859 30.1603C98.7204 29.8242 98.908 29.5318 99.1499 29.2831C99.3906 29.0344 99.6754 28.8395 100.004 28.6984C100.34 28.5504 100.705 28.4766 101.1 28.4766C101.489 28.4766 101.849 28.5504 102.176 28.6984C102.512 28.8395 102.8 29.0344 103.042 29.2831C103.283 29.5251 103.471 29.8107 103.605 30.1401C103.739 30.4694 103.806 30.8189 103.806 31.1886ZM103.011 31.2088C103.011 30.9265 102.962 30.661 102.861 30.4123C102.767 30.1635 102.633 29.9485 102.459 29.7671C102.284 29.5788 102.079 29.431 101.845 29.3235C101.61 29.2158 101.356 29.1621 101.08 29.1621C100.799 29.1621 100.541 29.2158 100.306 29.3235C100.071 29.4243 99.8697 29.5687 99.7025 29.757C99.542 29.9385 99.4143 30.1535 99.3205 30.4022C99.2267 30.6442 99.1792 30.9063 99.1792 31.1886C99.1792 31.4709 99.2267 31.7363 99.3205 31.9851C99.4211 32.2338 99.5544 32.4489 99.7228 32.6304C99.8969 32.8118 100.101 32.9563 100.336 33.0639C100.57 33.1714 100.826 33.2252 101.1 33.2252C101.382 33.2252 101.641 33.1748 101.875 33.074C102.11 32.9663 102.311 32.8219 102.478 32.6404C102.646 32.459 102.776 32.2472 102.871 32.0053C102.965 31.7565 103.011 31.4911 103.011 31.2088Z" fill="white"/>
<path d="M97.545 32.6843C97.3642 32.8725 97.1732 33.0438 96.9721 33.1985C96.7765 33.3463 96.5663 33.474 96.3381 33.5816C96.1098 33.6891 95.8657 33.7731 95.6035 33.8336C95.3424 33.8941 95.0508 33.9244 94.7287 33.9244C94.2191 33.9244 93.7501 33.8302 93.3206 33.6421C92.8912 33.4538 92.5194 33.1985 92.2041 32.8759C91.8888 32.5464 91.6413 32.16 91.4593 31.7164C91.2853 31.2728 91.1982 30.7956 91.1982 30.2848C91.1982 29.7807 91.2853 29.3068 91.4593 28.8632C91.6413 28.4196 91.8888 28.0331 92.2041 27.7038C92.5194 27.3677 92.8946 27.1055 93.3308 26.9174C93.7659 26.7224 94.2428 26.625 94.7593 26.625C95.0802 26.625 95.3684 26.6518 95.6238 26.7057C95.8849 26.7593 96.1267 26.8367 96.3482 26.9375C96.5697 27.0316 96.7731 27.1493 96.9619 27.2904C97.1495 27.4248 97.3303 27.576 97.5043 27.7441L96.9619 28.3289C96.6601 28.0466 96.3347 27.8147 95.9855 27.6332C95.6442 27.4517 95.2317 27.361 94.7491 27.361C94.3592 27.361 93.9976 27.4348 93.6619 27.5828C93.3342 27.7306 93.046 27.9357 92.7974 28.1978C92.5555 28.4599 92.3645 28.7691 92.2244 29.1253C92.0899 29.4748 92.0232 29.8545 92.0232 30.2646C92.0232 30.6746 92.0899 31.0577 92.2244 31.414C92.3645 31.7701 92.5555 32.0794 92.7974 32.3415C93.046 32.6036 93.3342 32.812 93.6619 32.9666C93.9976 33.1144 94.3592 33.1884 94.7491 33.1884C95.2317 33.1884 95.6475 33.1009 95.9956 32.9263C96.3448 32.7448 96.6861 32.4927 97.0218 32.1701L97.545 32.6843Z" fill="white"/>
<path d="M86.5656 33.8032H85.7915V26.4434H86.5656V33.8032Z" fill="white"/>
<path d="M84.3167 31.1886C84.3167 31.5583 84.2466 31.9111 84.1065 32.2472C83.972 32.5765 83.7844 32.8655 83.5426 33.1143C83.3019 33.3629 83.0125 33.5612 82.678 33.7091C82.3424 33.8503 81.9807 33.9209 81.592 33.9209C81.2021 33.9209 80.8439 33.8503 80.515 33.7091C80.1872 33.5612 79.9013 33.3663 79.6606 33.1244C79.4188 32.8756 79.2312 32.5866 79.0967 32.2573C78.9633 31.9279 78.8955 31.5784 78.8955 31.2088C78.8955 30.839 78.9633 30.4896 79.0967 30.1603C79.2312 29.8242 79.4188 29.5318 79.6606 29.2831C79.9013 29.0344 80.1872 28.8395 80.515 28.6984C80.8506 28.5504 81.2157 28.4766 81.6112 28.4766C82 28.4766 82.3593 28.5504 82.6882 28.6984C83.0227 28.8395 83.3109 29.0344 83.5528 29.2831C83.7946 29.5251 83.9822 29.8107 84.1156 30.1401C84.25 30.4694 84.3167 30.8189 84.3167 31.1886ZM83.5222 31.2088C83.5222 30.9265 83.4725 30.661 83.3719 30.4123C83.2781 30.1635 83.1437 29.9485 82.9696 29.7671C82.7956 29.5788 82.591 29.431 82.3559 29.3235C82.1209 29.2158 81.8666 29.1621 81.592 29.1621C81.3095 29.1621 81.0518 29.2158 80.8167 29.3235C80.5828 29.4243 80.3816 29.5687 80.2132 29.757C80.0528 29.9385 79.9251 30.1535 79.8313 30.4022C79.7375 30.6442 79.69 30.9063 79.69 31.1886C79.69 31.4709 79.7375 31.7363 79.8313 31.9851C79.9318 32.2338 80.0663 32.4489 80.2336 32.6304C80.4076 32.8118 80.6122 32.9563 80.8472 33.0639C81.0823 33.1714 81.3366 33.2252 81.6112 33.2252C81.8937 33.2252 82.1514 33.1748 82.3865 33.074C82.6204 32.9663 82.8216 32.8219 82.9899 32.6404C83.1572 32.459 83.2883 32.2472 83.3821 32.0053C83.4759 31.7565 83.5222 31.4911 83.5222 31.2088Z" fill="white"/>
<path d="M77.8172 31.1886C77.8172 31.5583 77.746 31.9111 77.6059 32.2472C77.4714 32.5765 77.2838 32.8655 77.0419 33.1143C76.8012 33.3629 76.513 33.5612 76.1774 33.7091C75.8418 33.8503 75.4801 33.9209 75.0914 33.9209C74.7026 33.9209 74.3432 33.8503 74.0155 33.7091C73.6866 33.5612 73.4018 33.3663 73.16 33.1244C72.9181 32.8756 72.7305 32.5866 72.5972 32.2573C72.4627 31.9279 72.396 31.5784 72.396 31.2088C72.396 30.839 72.4627 30.4896 72.5972 30.1603C72.7305 29.8242 72.9181 29.5318 73.16 29.2831C73.4018 29.0344 73.6866 28.8395 74.0155 28.6984C74.35 28.5504 74.7161 28.4766 75.1117 28.4766C75.5005 28.4766 75.8587 28.5504 76.1876 28.6984C76.5232 28.8395 76.8114 29.0344 77.0521 29.2831C77.294 29.5251 77.4816 29.8107 77.616 30.1401C77.7494 30.4694 77.8172 30.8189 77.8172 31.1886ZM77.0227 31.2088C77.0227 30.9265 76.9719 30.661 76.8713 30.4123C76.7775 30.1635 76.643 29.9485 76.469 29.7671C76.2949 29.5788 76.0904 29.431 75.8553 29.3235C75.6214 29.2158 75.366 29.1621 75.0914 29.1621C74.81 29.1621 74.5511 29.2158 74.3172 29.3235C74.0821 29.4243 73.881 29.5687 73.7137 29.757C73.5521 29.9385 73.4244 30.1535 73.3306 30.4022C73.2368 30.6442 73.1905 30.9063 73.1905 31.1886C73.1905 31.4709 73.2368 31.7363 73.3306 31.9851C73.4312 32.2338 73.5657 32.4489 73.7329 32.6304C73.9081 32.8118 74.1127 32.9563 74.3466 33.0639C74.5817 33.1714 74.8359 33.2252 75.1117 33.2252C75.3931 33.2252 75.6508 33.1748 75.8858 33.074C76.1209 32.9663 76.3221 32.8219 76.4893 32.6404C76.6566 32.459 76.7877 32.2472 76.8815 32.0053C76.9753 31.7565 77.0227 31.4911 77.0227 31.2088Z" fill="white"/>
<path d="M71.2877 31.1886C71.2877 31.6188 71.2176 32.0019 71.0763 32.338C70.9362 32.674 70.7475 32.9597 70.5135 33.1949C70.2852 33.4234 70.0208 33.6015 69.719 33.7293C69.4241 33.8503 69.119 33.9108 68.8037 33.9108C68.5618 33.9108 68.3403 33.8805 68.1391 33.82C67.938 33.7595 67.7572 33.6789 67.5967 33.5781C67.4351 33.4772 67.2881 33.3595 67.1537 33.2252C67.026 33.0907 66.913 32.9496 66.8124 32.8017V35.413H66.0371V28.5875H66.8124V29.636C66.9186 29.4814 67.0361 29.3335 67.1638 29.1924C67.2983 29.0512 67.4452 28.9303 67.6068 28.8294C67.7673 28.7218 67.9448 28.6379 68.1391 28.5774C68.3403 28.5101 68.5618 28.4766 68.8037 28.4766C69.1122 28.4766 69.4139 28.5371 69.7089 28.658C70.0106 28.779 70.2785 28.9571 70.5135 29.1924C70.7475 29.4209 70.9362 29.7032 71.0763 30.0393C71.2176 30.3753 71.2877 30.7584 71.2877 31.1886ZM70.4932 31.1987C70.4932 30.8894 70.4423 30.6106 70.3417 30.3619C70.2479 30.1131 70.118 29.9014 69.9496 29.7267C69.7823 29.5453 69.588 29.4074 69.3665 29.3134C69.1449 29.2192 68.911 29.1722 68.6624 29.1722C68.4217 29.1722 68.1866 29.2226 67.9583 29.3235C67.7368 29.4175 67.5356 29.5519 67.3548 29.7267C67.1808 29.9014 67.0395 30.1131 66.9322 30.3619C66.8316 30.6106 66.7819 30.8862 66.7819 31.1886C66.7819 31.4911 66.8316 31.77 66.9322 32.0254C67.0395 32.2741 67.1808 32.4858 67.3548 32.6606C67.5356 32.8353 67.7368 32.9731 67.9583 33.074C68.1866 33.168 68.4217 33.2151 68.6624 33.2151C68.911 33.2151 69.1449 33.1714 69.3665 33.084C69.5947 32.9899 69.7891 32.8588 69.9496 32.6909C70.118 32.5161 70.2479 32.3043 70.3417 32.0557C70.4423 31.8002 70.4932 31.5145 70.4932 31.1987Z" fill="white"/>
<path d="M60.6125 30.819V33.8032H59.8384V26.4434H60.6125V29.4982C60.7877 29.2159 61.0148 28.9773 61.2962 28.7824C61.5788 28.5807 61.9438 28.4799 62.3936 28.4799C62.7078 28.4799 62.9869 28.5303 63.2276 28.6312C63.4762 28.732 63.6842 28.8765 63.8515 29.0647C64.0255 29.2462 64.1566 29.4647 64.2436 29.72C64.3374 29.9755 64.3849 30.2578 64.3849 30.5669V33.8032H63.6096V30.7585C63.6096 30.2745 63.4864 29.8914 63.2378 29.6091C62.9903 29.3268 62.6343 29.1857 62.1721 29.1857C61.9506 29.1857 61.7426 29.226 61.5483 29.3067C61.3607 29.3806 61.1957 29.4915 61.0555 29.6394C60.9143 29.7805 60.8035 29.9519 60.7233 30.1535C60.6498 30.3552 60.6125 30.577 60.6125 30.819Z" fill="white"/>
<path d="M58.5585 32.9127C58.2975 33.2083 57.9991 33.4503 57.6635 33.6386C57.3346 33.8267 56.9255 33.9209 56.4362 33.9209C56.0542 33.9209 55.6993 33.8503 55.3702 33.7091C55.0484 33.5612 54.7668 33.3663 54.5254 33.1244C54.2907 32.8756 54.1063 32.5866 53.9722 32.2573C53.8381 31.9279 53.771 31.5784 53.771 31.2088C53.771 30.839 53.8381 30.4896 53.9722 30.1603C54.1063 29.8242 54.2907 29.5318 54.5254 29.2831C54.7668 29.0344 55.0484 28.8395 55.3702 28.6984C55.6993 28.5504 56.0542 28.4766 56.4362 28.4766C56.6848 28.4766 56.9097 28.5 57.1109 28.5471C57.312 28.5941 57.4962 28.6613 57.6635 28.7488C57.8307 28.8294 57.9856 28.9269 58.1257 29.0412C58.267 29.1553 58.3981 29.2763 58.519 29.4041L58.0059 29.9485C57.798 29.7334 57.5697 29.5485 57.3211 29.394C57.0803 29.2394 56.782 29.1621 56.426 29.1621C56.1649 29.1621 55.9197 29.2158 55.6926 29.3235C55.4642 29.4243 55.2664 29.5687 55.0987 29.757C54.9311 29.9385 54.8003 30.1535 54.7064 30.4022C54.6126 30.6442 54.5656 30.9063 54.5656 31.1886C54.5656 31.4709 54.6126 31.7363 54.7064 31.9851C54.807 32.2338 54.9411 32.4522 55.1087 32.6404C55.2831 32.8219 55.4843 32.9663 55.7118 33.074C55.9468 33.1748 56.2022 33.2252 56.4769 33.2252C56.8125 33.2252 57.1075 33.1512 57.3617 33.0034C57.6228 32.8554 57.8579 32.6707 58.0658 32.4489L58.5585 32.9127Z" fill="white"/>
<path d="M48.6039 31.481C48.6308 31.7633 48.6978 32.0154 48.805 32.2372C48.9124 32.4522 49.0498 32.637 49.2174 32.7917C49.3851 32.9395 49.5728 33.0538 49.7807 33.1345C49.9886 33.2083 50.2065 33.2454 50.4344 33.2454C50.7965 33.2454 51.1051 33.1781 51.3598 33.0437C51.6213 32.9093 51.8594 32.7312 52.0739 32.5094L52.5567 32.9429C52.2952 33.2386 51.9968 33.4772 51.6615 33.6587C51.3263 33.8334 50.9106 33.9209 50.4143 33.9209C50.059 33.9209 49.7237 33.857 49.4085 33.7293C49.0934 33.5948 48.8185 33.41 48.5837 33.1748C48.3491 32.9328 48.1613 32.6437 48.0205 32.3077C47.8865 31.9716 47.8193 31.602 47.8193 31.1987C47.8193 30.8223 47.8797 30.4694 48.0004 30.1401C48.1279 29.804 48.3021 29.515 48.5234 29.273C48.7447 29.0243 49.0062 28.8294 49.3079 28.6883C49.6165 28.5471 49.9517 28.4766 50.3137 28.4766C50.696 28.4766 51.0379 28.5504 51.3397 28.6984C51.6414 28.8395 51.8963 29.0344 52.1041 29.2831C52.312 29.5318 52.4696 29.8242 52.5768 30.1603C52.6842 30.4962 52.7377 30.8559 52.7377 31.239C52.7377 31.2726 52.7377 31.3096 52.7377 31.3499C52.7377 31.3903 52.7345 31.4339 52.7277 31.481H48.6039ZM48.6039 30.9063H51.9532C51.9331 30.671 51.8828 30.4458 51.8023 30.2308C51.7287 30.0157 51.6213 29.8276 51.4805 29.6662C51.3465 29.5049 51.1787 29.3771 50.9776 29.2831C50.7832 29.1823 50.5551 29.1319 50.2936 29.1319C50.0657 29.1319 49.8545 29.1789 49.66 29.273C49.4656 29.3604 49.2946 29.4848 49.147 29.6461C48.9995 29.8006 48.8788 29.9855 48.7849 30.2006C48.6911 30.4156 48.6308 30.6509 48.6039 30.9063Z" fill="white"/>
<path d="M45.6917 27.4821V33.8035H44.8871V27.4821H42.5234V26.7461H48.0554V27.4821H45.6917Z" fill="white"/>
</svg>
