<svg width="636" height="303" viewBox="0 0 636 303" fill="none" xmlns="http://www.w3.org/2000/svg">
<path d="M81.848 285.118V293.358C81.848 294.275 81.5653 295.011 81 295.566C80.4347 296.11 79.688 296.382 78.76 296.382C77.8213 296.382 77.0693 296.104 76.504 295.55C75.9387 294.984 75.656 294.216 75.656 293.246H77.112C77.1227 293.79 77.2613 294.232 77.528 294.574C77.8053 294.915 78.216 295.086 78.76 295.086C79.304 295.086 79.7093 294.926 79.976 294.606C80.2427 294.275 80.376 293.859 80.376 293.358V285.118H81.848ZM84.1724 291.854C84.1724 290.958 84.3537 290.174 84.7164 289.502C85.079 288.819 85.575 288.291 86.2044 287.918C86.8444 287.544 87.5537 287.358 88.3324 287.358C89.1004 287.358 89.767 287.523 90.3324 287.854C90.8977 288.184 91.319 288.6 91.5964 289.102V287.502H93.0684V296.27H91.5964V294.638C91.3084 295.15 90.8764 295.576 90.3004 295.918C89.735 296.248 89.0737 296.414 88.3164 296.414C87.5377 296.414 86.8337 296.222 86.2044 295.838C85.575 295.454 85.079 294.915 84.7164 294.222C84.3537 293.528 84.1724 292.739 84.1724 291.854ZM91.5964 291.87C91.5964 291.208 91.463 290.632 91.1964 290.142C90.9297 289.651 90.567 289.278 90.1084 289.022C89.6604 288.755 89.1644 288.622 88.6204 288.622C88.0764 288.622 87.5804 288.75 87.1324 289.006C86.6844 289.262 86.327 289.635 86.0604 290.126C85.7937 290.616 85.6604 291.192 85.6604 291.854C85.6604 292.526 85.7937 293.112 86.0604 293.614C86.327 294.104 86.6844 294.483 87.1324 294.75C87.5804 295.006 88.0764 295.134 88.6204 295.134C89.1644 295.134 89.6604 295.006 90.1084 294.75C90.567 294.483 90.9297 294.104 91.1964 293.614C91.463 293.112 91.5964 292.531 91.5964 291.87ZM99.8009 287.342C100.868 287.342 101.732 287.667 102.393 288.318C103.054 288.958 103.385 289.886 103.385 291.102V296.27H101.945V291.31C101.945 290.435 101.726 289.768 101.289 289.31C100.852 288.84 100.254 288.606 99.4969 288.606C98.7289 288.606 98.1155 288.846 97.6569 289.326C97.2089 289.806 96.9849 290.504 96.9849 291.422V296.27H95.5289V287.502H96.9849V288.75C97.2729 288.302 97.6622 287.955 98.1529 287.71C98.6542 287.464 99.2035 287.342 99.8009 287.342Z" fill="#3B3E44"/>
<path d="M188.536 285.118V286.302H183.688V290.062H187.624V291.246H183.688V296.27H182.232V285.118H188.536ZM198.295 291.55C198.295 291.827 198.279 292.12 198.247 292.43H191.239C191.292 293.294 191.585 293.971 192.119 294.462C192.663 294.942 193.319 295.182 194.087 295.182C194.716 295.182 195.239 295.038 195.655 294.75C196.081 294.451 196.38 294.056 196.551 293.566H198.119C197.884 294.408 197.415 295.096 196.711 295.63C196.007 296.152 195.132 296.414 194.087 296.414C193.255 296.414 192.508 296.227 191.847 295.854C191.196 295.48 190.684 294.952 190.311 294.27C189.937 293.576 189.751 292.776 189.751 291.87C189.751 290.963 189.932 290.168 190.295 289.486C190.657 288.803 191.164 288.28 191.815 287.918C192.476 287.544 193.233 287.358 194.087 287.358C194.919 287.358 195.655 287.539 196.295 287.902C196.935 288.264 197.425 288.766 197.767 289.406C198.119 290.035 198.295 290.75 198.295 291.55ZM196.791 291.246C196.791 290.691 196.668 290.216 196.423 289.822C196.177 289.416 195.841 289.112 195.415 288.91C194.999 288.696 194.535 288.59 194.023 288.59C193.287 288.59 192.657 288.824 192.135 289.294C191.623 289.763 191.329 290.414 191.255 291.246H196.791ZM201.672 289.134C201.971 288.611 202.408 288.184 202.984 287.854C203.56 287.523 204.216 287.358 204.952 287.358C205.742 287.358 206.451 287.544 207.08 287.918C207.71 288.291 208.206 288.819 208.568 289.502C208.931 290.174 209.112 290.958 209.112 291.854C209.112 292.739 208.931 293.528 208.568 294.222C208.206 294.915 207.704 295.454 207.064 295.838C206.435 296.222 205.731 296.414 204.952 296.414C204.195 296.414 203.528 296.248 202.952 295.918C202.387 295.587 201.96 295.166 201.672 294.654V296.27H200.216V284.43H201.672V289.134ZM207.624 291.854C207.624 291.192 207.491 290.616 207.224 290.126C206.958 289.635 206.595 289.262 206.136 289.006C205.688 288.75 205.192 288.622 204.648 288.622C204.115 288.622 203.619 288.755 203.16 289.022C202.712 289.278 202.35 289.656 202.072 290.158C201.806 290.648 201.672 291.219 201.672 291.87C201.672 292.531 201.806 293.112 202.072 293.614C202.35 294.104 202.712 294.483 203.16 294.75C203.619 295.006 204.115 295.134 204.648 295.134C205.192 295.134 205.688 295.006 206.136 294.75C206.595 294.483 206.958 294.104 207.224 293.614C207.491 293.112 207.624 292.526 207.624 291.854Z" fill="#3B3E44"/>
<path d="M298.544 285.198V296.27H297.088V288.014L293.408 296.27H292.384L288.688 287.998V296.27H287.232V285.198H288.8L292.896 294.35L296.992 285.198H298.544ZM300.469 291.854C300.469 290.958 300.651 290.174 301.013 289.502C301.376 288.819 301.872 288.291 302.501 287.918C303.141 287.544 303.851 287.358 304.629 287.358C305.397 287.358 306.064 287.523 306.629 287.854C307.195 288.184 307.616 288.6 307.893 289.102V287.502H309.365V296.27H307.893V294.638C307.605 295.15 307.173 295.576 306.597 295.918C306.032 296.248 305.371 296.414 304.613 296.414C303.835 296.414 303.131 296.222 302.501 295.838C301.872 295.454 301.376 294.915 301.013 294.222C300.651 293.528 300.469 292.739 300.469 291.854ZM307.893 291.87C307.893 291.208 307.76 290.632 307.493 290.142C307.227 289.651 306.864 289.278 306.405 289.022C305.957 288.755 305.461 288.622 304.917 288.622C304.373 288.622 303.877 288.75 303.429 289.006C302.981 289.262 302.624 289.635 302.357 290.126C302.091 290.616 301.957 291.192 301.957 291.854C301.957 292.526 302.091 293.112 302.357 293.614C302.624 294.104 302.981 294.483 303.429 294.75C303.877 295.006 304.373 295.134 304.917 295.134C305.461 295.134 305.957 295.006 306.405 294.75C306.864 294.483 307.227 294.104 307.493 293.614C307.76 293.112 307.893 292.531 307.893 291.87ZM313.282 288.926C313.538 288.424 313.9 288.035 314.37 287.758C314.85 287.48 315.431 287.342 316.114 287.342V288.846H315.73C314.098 288.846 313.282 289.731 313.282 291.502V296.27H311.826V287.502H313.282V288.926Z" fill="#3B3E44"/>
<path d="M400.824 293.79H395.96L395.064 296.27H393.528L397.56 285.182H399.24L403.256 296.27H401.72L400.824 293.79ZM400.408 292.606L398.392 286.974L396.376 292.606H400.408ZM406.469 289.118C406.757 288.616 407.184 288.2 407.749 287.87C408.325 287.528 408.992 287.358 409.749 287.358C410.528 287.358 411.232 287.544 411.861 287.918C412.501 288.291 413.003 288.819 413.365 289.502C413.728 290.174 413.909 290.958 413.909 291.854C413.909 292.739 413.728 293.528 413.365 294.222C413.003 294.915 412.501 295.454 411.861 295.838C411.232 296.222 410.528 296.414 409.749 296.414C409.003 296.414 408.341 296.248 407.765 295.918C407.2 295.576 406.768 295.155 406.469 294.654V300.43H405.013V287.502H406.469V289.118ZM412.421 291.854C412.421 291.192 412.288 290.616 412.021 290.126C411.755 289.635 411.392 289.262 410.933 289.006C410.485 288.75 409.989 288.622 409.445 288.622C408.912 288.622 408.416 288.755 407.957 289.022C407.509 289.278 407.147 289.656 406.869 290.158C406.603 290.648 406.469 291.219 406.469 291.87C406.469 292.531 406.603 293.112 406.869 293.614C407.147 294.104 407.509 294.483 407.957 294.75C408.416 295.006 408.912 295.134 409.445 295.134C409.989 295.134 410.485 295.006 410.933 294.75C411.392 294.483 411.755 294.104 412.021 293.614C412.288 293.112 412.421 292.526 412.421 291.854ZM417.282 288.926C417.538 288.424 417.9 288.035 418.37 287.758C418.85 287.48 419.431 287.342 420.114 287.342V288.846H419.73C418.098 288.846 417.282 289.731 417.282 291.502V296.27H415.826V287.502H417.282V288.926Z" fill="#3B3E44"/>
<path d="M509.544 285.198V296.27H508.088V288.014L504.408 296.27H503.384L499.688 287.998V296.27H498.232V285.198H499.8L503.896 294.35L507.992 285.198H509.544ZM511.469 291.854C511.469 290.958 511.651 290.174 512.013 289.502C512.376 288.819 512.872 288.291 513.501 287.918C514.141 287.544 514.851 287.358 515.629 287.358C516.397 287.358 517.064 287.523 517.629 287.854C518.195 288.184 518.616 288.6 518.893 289.102V287.502H520.365V296.27H518.893V294.638C518.605 295.15 518.173 295.576 517.597 295.918C517.032 296.248 516.371 296.414 515.613 296.414C514.835 296.414 514.131 296.222 513.501 295.838C512.872 295.454 512.376 294.915 512.013 294.222C511.651 293.528 511.469 292.739 511.469 291.854ZM518.893 291.87C518.893 291.208 518.76 290.632 518.493 290.142C518.227 289.651 517.864 289.278 517.405 289.022C516.957 288.755 516.461 288.622 515.917 288.622C515.373 288.622 514.877 288.75 514.429 289.006C513.981 289.262 513.624 289.635 513.357 290.126C513.091 290.616 512.957 291.192 512.957 291.854C512.957 292.526 513.091 293.112 513.357 293.614C513.624 294.104 513.981 294.483 514.429 294.75C514.877 295.006 515.373 295.134 515.917 295.134C516.461 295.134 516.957 295.006 517.405 294.75C517.864 294.483 518.227 294.104 518.493 293.614C518.76 293.112 518.893 292.531 518.893 291.87ZM530.378 287.502L525.098 300.398H523.594L525.322 296.174L521.786 287.502H523.402L526.154 294.606L528.874 287.502H530.378Z" fill="#3B3E44"/>
<path d="M613.848 285.118V293.358C613.848 294.275 613.565 295.011 613 295.566C612.435 296.11 611.688 296.382 610.76 296.382C609.821 296.382 609.069 296.104 608.504 295.55C607.939 294.984 607.656 294.216 607.656 293.246H609.112C609.123 293.79 609.261 294.232 609.528 294.574C609.805 294.915 610.216 295.086 610.76 295.086C611.304 295.086 611.709 294.926 611.976 294.606C612.243 294.275 612.376 293.859 612.376 293.358V285.118H613.848ZM624.492 287.502V296.27H623.036V294.974C622.759 295.422 622.37 295.774 621.868 296.03C621.378 296.275 620.834 296.398 620.236 296.398C619.554 296.398 618.94 296.259 618.396 295.982C617.852 295.694 617.42 295.267 617.1 294.702C616.791 294.136 616.636 293.448 616.636 292.638V287.502H618.076V292.446C618.076 293.31 618.295 293.976 618.732 294.446C619.17 294.904 619.767 295.134 620.524 295.134C621.303 295.134 621.916 294.894 622.364 294.414C622.812 293.934 623.036 293.235 623.036 292.318V287.502H624.492ZM631.223 287.342C632.289 287.342 633.153 287.667 633.815 288.318C634.476 288.958 634.807 289.886 634.807 291.102V296.27H633.367V291.31C633.367 290.435 633.148 289.768 632.711 289.31C632.273 288.84 631.676 288.606 630.919 288.606C630.151 288.606 629.537 288.846 629.079 289.326C628.631 289.806 628.407 290.504 628.407 291.422V296.27H626.951V287.502H628.407V288.75C628.695 288.302 629.084 287.955 629.575 287.71C630.076 287.464 630.625 287.342 631.223 287.342Z" fill="#3B3E44"/>
<path d="M88 3.26953L88 198.27" stroke="#E6E9EE" stroke-linecap="round" stroke-dasharray="12 12"/>
<path d="M196 4.26953L196 128.27" stroke="#E6E9EE" stroke-linecap="round" stroke-dasharray="12 12"/>
<path d="M302 4.26953V152.27" stroke="#E6E9EE" stroke-linecap="round" stroke-dasharray="12 12"/>
<path d="M406 4.26953V163.27" stroke="#E6E9EE" stroke-linecap="round" stroke-dasharray="12 12"/>
<path d="M514 4.26953V62.2695" stroke="#E6E9EE" stroke-linecap="round" stroke-dasharray="12 12"/>
<path d="M624 1.26953L624 69.2695" stroke="#E6E9EE" stroke-linecap="round" stroke-dasharray="12 12"/>
<path d="M226.534 122.403C151.474 131.54 115.203 184.236 88 197.903V271.903L624 266.403V69.403C616.947 64.903 612.917 60.403 572.617 50.4029C493.686 30.8175 438.617 151.903 386.226 175.903C333.835 199.903 279.932 115.903 226.534 122.403Z" fill="url(#paint0_linear_2850_279)"/>
<path d="M88 197.903C115.203 184.236 151.474 131.54 226.534 122.403C279.932 115.903 333.835 199.903 386.226 175.903C438.617 151.903 492.758 34.9619 572.617 50.4031C611.406 57.9033 609.895 63.4033 622.489 68.4033" stroke="#422369" stroke-width="2" stroke-linecap="round"/>
<g filter="url(#filter0_d_2850_279)">
<rect x="231" y="86.2695" width="70" height="31" rx="6" fill="white" shape-rendering="crispEdges"/>
<path d="M256.116 103.498C256.116 103.964 255.999 104.403 255.766 104.814C255.542 105.224 255.206 105.57 254.758 105.85C254.319 106.13 253.797 106.298 253.19 106.354V107.488H252.28V106.354C251.403 106.27 250.693 105.994 250.152 105.528C249.611 105.061 249.34 104.445 249.34 103.68H251.048C251.076 104.044 251.193 104.347 251.398 104.59C251.603 104.823 251.897 104.972 252.28 105.038V101.958C251.655 101.799 251.146 101.64 250.754 101.482C250.362 101.314 250.026 101.052 249.746 100.698C249.475 100.343 249.34 99.8575 249.34 99.2415C249.34 98.4669 249.611 97.8275 250.152 97.3235C250.693 96.8102 251.403 96.5115 252.28 96.4275V95.2935H253.19V96.4275C254.011 96.5022 254.669 96.7635 255.164 97.2115C255.668 97.6502 255.953 98.2569 256.018 99.0315H254.31C254.282 98.7422 254.17 98.4855 253.974 98.2615C253.778 98.0282 253.517 97.8695 253.19 97.7855V100.81C253.815 100.959 254.324 101.118 254.716 101.286C255.108 101.444 255.439 101.701 255.71 102.056C255.981 102.401 256.116 102.882 256.116 103.498ZM250.964 99.1575C250.964 99.5402 251.076 99.8389 251.3 100.054C251.533 100.268 251.86 100.441 252.28 100.572V97.7435C251.879 97.7902 251.557 97.9349 251.314 98.1775C251.081 98.4202 250.964 98.7469 250.964 99.1575ZM253.19 105.038C253.601 104.972 253.923 104.809 254.156 104.548C254.389 104.277 254.506 103.955 254.506 103.582C254.506 103.208 254.389 102.919 254.156 102.714C253.932 102.499 253.61 102.326 253.19 102.196V105.038ZM265.025 97.4355H260.335V100.222C260.531 99.9602 260.821 99.7409 261.203 99.5635C261.595 99.3862 262.011 99.2975 262.449 99.2975C263.233 99.2975 263.868 99.4655 264.353 99.8015C264.848 100.138 265.198 100.562 265.403 101.076C265.618 101.589 265.725 102.13 265.725 102.7C265.725 103.39 265.59 104.006 265.319 104.548C265.058 105.08 264.661 105.5 264.129 105.808C263.607 106.116 262.963 106.27 262.197 106.27C261.18 106.27 260.363 106.018 259.747 105.514C259.131 105.01 258.763 104.342 258.641 103.512H260.195C260.298 103.95 260.527 104.3 260.881 104.562C261.236 104.814 261.679 104.94 262.211 104.94C262.874 104.94 263.369 104.739 263.695 104.338C264.031 103.936 264.199 103.404 264.199 102.742C264.199 102.07 264.031 101.556 263.695 101.202C263.359 100.838 262.865 100.656 262.211 100.656C261.754 100.656 261.367 100.772 261.049 101.006C260.741 101.23 260.517 101.538 260.377 101.93H258.865V96.0355H265.025V97.4355ZM268.269 104.1C269.165 103.325 269.87 102.69 270.383 102.196C270.906 101.692 271.34 101.169 271.685 100.628C272.03 100.086 272.203 99.5449 272.203 99.0035C272.203 98.4435 272.068 98.0049 271.797 97.6875C271.536 97.3702 271.12 97.2115 270.551 97.2115C270 97.2115 269.571 97.3889 269.263 97.7435C268.964 98.0889 268.806 98.5555 268.787 99.1435H267.247C267.275 98.0795 267.592 97.2675 268.199 96.7075C268.815 96.1382 269.594 95.8535 270.537 95.8535C271.554 95.8535 272.348 96.1335 272.917 96.6935C273.496 97.2535 273.785 98.0002 273.785 98.9335C273.785 99.6055 273.612 100.254 273.267 100.88C272.931 101.496 272.525 102.051 272.049 102.546C271.582 103.031 270.985 103.596 270.257 104.24L269.627 104.8H274.065V106.13H267.261V104.968L268.269 104.1ZM281.039 106.27L277.273 101.916V106.27H275.677V96.5395H277.273V100.978L281.053 96.5395H283.055L278.827 101.412L283.125 106.27H281.039Z" fill="#AFAFAF"/>
</g>
<path d="M7.94531 11.6758L7.58594 12.9102H0.335938L0.695312 11.6758H7.94531ZM4.69531 20.2695L0.5625 15.4414L0.554688 14.4727H2.46094C3.01302 14.4727 3.46875 14.3815 3.82812 14.1992C4.19271 14.0117 4.46615 13.7591 4.64844 13.4414C4.83073 13.1237 4.92188 12.7669 4.92188 12.3711C4.92188 11.9284 4.83594 11.5404 4.66406 11.207C4.49219 10.8685 4.22135 10.6055 3.85156 10.418C3.48698 10.2253 3.00781 10.1289 2.41406 10.1289H0.351562L0.71875 8.89453H2.41406C3.32031 8.89453 4.06771 9.03255 4.65625 9.30859C5.25 9.57943 5.69271 9.97526 5.98438 10.4961C6.27604 11.0169 6.42188 11.6471 6.42188 12.3867C6.42188 13.0221 6.29948 13.5924 6.05469 14.0977C5.8151 14.5977 5.41667 14.9909 4.85938 15.2773C4.30729 15.5638 3.5625 15.707 2.625 15.707L6.46875 20.1758V20.2695H4.69531ZM7.94531 8.89453L7.58594 10.1289H1.74219L2.10156 8.89453H7.94531ZM8.88925 10.0295V8.70153H11.8973V20.2695H10.4253V10.0295H8.88925ZM14.3983 14.3655C14.3983 12.5309 14.6969 11.1015 15.2943 10.0775C15.8916 9.04286 16.9369 8.52553 18.4303 8.52553C19.9129 8.52553 20.9529 9.04286 21.5503 10.0775C22.1476 11.1015 22.4462 12.5309 22.4462 14.3655C22.4462 16.2322 22.1476 17.6829 21.5503 18.7175C20.9529 19.7522 19.9129 20.2695 18.4303 20.2695C16.9369 20.2695 15.8916 19.7522 15.2943 18.7175C14.6969 17.6829 14.3983 16.2322 14.3983 14.3655ZM21.0063 14.3655C21.0063 13.4375 20.9423 12.6535 20.8143 12.0135C20.6969 11.3629 20.4463 10.8402 20.0623 10.4455C19.6889 10.0509 19.1449 9.85353 18.4303 9.85353C17.7049 9.85353 17.1503 10.0509 16.7663 10.4455C16.3929 10.8402 16.1423 11.3629 16.0143 12.0135C15.8969 12.6535 15.8383 13.4375 15.8383 14.3655C15.8383 15.3255 15.8969 16.1309 16.0143 16.7815C16.1423 17.4322 16.3929 17.9549 16.7663 18.3495C17.1503 18.7442 17.7049 18.9415 18.4303 18.9415C19.1449 18.9415 19.6889 18.7442 20.0623 18.3495C20.4463 17.9549 20.6969 17.4322 20.8143 16.7815C20.9423 16.1309 21.0063 15.3255 21.0063 14.3655ZM24.4451 14.3655C24.4451 12.5309 24.7438 11.1015 25.3411 10.0775C25.9385 9.04286 26.9838 8.52553 28.4771 8.52553C29.9598 8.52553 30.9998 9.04286 31.5971 10.0775C32.1945 11.1015 32.4931 12.5309 32.4931 14.3655C32.4931 16.2322 32.1945 17.6829 31.5971 18.7175C30.9998 19.7522 29.9598 20.2695 28.4771 20.2695C26.9838 20.2695 25.9385 19.7522 25.3411 18.7175C24.7438 17.6829 24.4451 16.2322 24.4451 14.3655ZM31.0531 14.3655C31.0531 13.4375 30.9891 12.6535 30.8611 12.0135C30.7438 11.3629 30.4931 10.8402 30.1091 10.4455C29.7358 10.0509 29.1918 9.85353 28.4771 9.85353C27.7518 9.85353 27.1971 10.0509 26.8131 10.4455C26.4398 10.8402 26.1891 11.3629 26.0611 12.0135C25.9438 12.6535 25.8851 13.4375 25.8851 14.3655C25.8851 15.3255 25.9438 16.1309 26.0611 16.7815C26.1891 17.4322 26.4398 17.9549 26.8131 18.3495C27.1971 18.7442 27.7518 18.9415 28.4771 18.9415C29.1918 18.9415 29.7358 18.7442 30.1091 18.3495C30.4931 17.9549 30.7438 17.4322 30.8611 16.7815C30.9891 16.1309 31.0531 15.3255 31.0531 14.3655ZM40.78 20.2695L36.188 15.1815V20.2695H34.732V9.11753H36.188V14.2855L40.796 9.11753H42.636L37.58 14.7015L42.684 20.2695H40.78Z" fill="#3B3E44"/>
<path d="M7.94531 149.676L7.58594 150.91H0.335938L0.695312 149.676H7.94531ZM4.69531 158.27L0.5625 153.441L0.554688 152.473H2.46094C3.01302 152.473 3.46875 152.382 3.82812 152.199C4.19271 152.012 4.46615 151.759 4.64844 151.441C4.83073 151.124 4.92188 150.767 4.92188 150.371C4.92188 149.928 4.83594 149.54 4.66406 149.207C4.49219 148.868 4.22135 148.605 3.85156 148.418C3.48698 148.225 3.00781 148.129 2.41406 148.129H0.351562L0.71875 146.895H2.41406C3.32031 146.895 4.06771 147.033 4.65625 147.309C5.25 147.579 5.69271 147.975 5.98438 148.496C6.27604 149.017 6.42188 149.647 6.42188 150.387C6.42188 151.022 6.29948 151.592 6.05469 152.098C5.8151 152.598 5.41667 152.991 4.85938 153.277C4.30729 153.564 3.5625 153.707 2.625 153.707L6.46875 158.176V158.27H4.69531ZM7.94531 146.895L7.58594 148.129H1.74219L2.10156 146.895H7.94531ZM16.6493 147.966H11.0333V151.614C11.2786 151.272 11.6413 150.995 12.1213 150.782C12.6013 150.558 13.1186 150.446 13.6733 150.446C14.5586 150.446 15.2786 150.632 15.8333 151.006C16.3879 151.368 16.7826 151.843 17.0173 152.43C17.2626 153.006 17.3853 153.619 17.3853 154.27C17.3853 155.038 17.2413 155.726 16.9533 156.334C16.6653 156.942 16.2226 157.422 15.6253 157.774C15.0386 158.126 14.3079 158.302 13.4333 158.302C12.3133 158.302 11.4066 158.014 10.7133 157.438C10.0199 156.862 9.59858 156.094 9.44925 155.134H10.8733C11.0119 155.742 11.3053 156.216 11.7533 156.558C12.2013 156.899 12.7666 157.07 13.4493 157.07C14.2919 157.07 14.9266 156.819 15.3533 156.318C15.7799 155.806 15.9933 155.134 15.9933 154.302C15.9933 153.47 15.7799 152.83 15.3533 152.382C14.9266 151.923 14.2973 151.694 13.4653 151.694C12.8999 151.694 12.4039 151.832 11.9773 152.11C11.5613 152.376 11.2573 152.744 11.0653 153.214H9.68925V146.686H16.6493V147.966ZM19.3201 152.366C19.3201 150.531 19.6188 149.102 20.2161 148.078C20.8135 147.043 21.8588 146.526 23.3521 146.526C24.8348 146.526 25.8748 147.043 26.4721 148.078C27.0695 149.102 27.3681 150.531 27.3681 152.366C27.3681 154.232 27.0695 155.683 26.4721 156.718C25.8748 157.752 24.8348 158.27 23.3521 158.27C21.8588 158.27 20.8135 157.752 20.2161 156.718C19.6188 155.683 19.3201 154.232 19.3201 152.366ZM25.9281 152.366C25.9281 151.438 25.8641 150.654 25.7361 150.014C25.6188 149.363 25.3681 148.84 24.9841 148.446C24.6108 148.051 24.0668 147.854 23.3521 147.854C22.6268 147.854 22.0721 148.051 21.6881 148.446C21.3148 148.84 21.0641 149.363 20.9361 150.014C20.8188 150.654 20.7601 151.438 20.7601 152.366C20.7601 153.326 20.8188 154.131 20.9361 154.782C21.0641 155.432 21.3148 155.955 21.6881 156.35C22.0721 156.744 22.6268 156.942 23.3521 156.942C24.0668 156.942 24.6108 156.744 24.9841 156.35C25.3681 155.955 25.6188 155.432 25.7361 154.782C25.8641 154.131 25.9281 153.326 25.9281 152.366ZM35.655 158.27L31.063 153.182V158.27H29.607V147.118H31.063V152.286L35.671 147.118H37.511L32.455 152.702L37.559 158.27H35.655Z" fill="#3B3E44"/>
<path d="M7.94531 80.6758L7.58594 81.9102H0.335938L0.695312 80.6758H7.94531ZM4.69531 89.2695L0.5625 84.4414L0.554688 83.4727H2.46094C3.01302 83.4727 3.46875 83.3815 3.82812 83.1992C4.19271 83.0117 4.46615 82.7591 4.64844 82.4414C4.83073 82.1237 4.92188 81.7669 4.92188 81.3711C4.92188 80.9284 4.83594 80.5404 4.66406 80.207C4.49219 79.8685 4.22135 79.6055 3.85156 79.418C3.48698 79.2253 3.00781 79.1289 2.41406 79.1289H0.351562L0.71875 77.8945H2.41406C3.32031 77.8945 4.06771 78.0326 4.65625 78.3086C5.25 78.5794 5.69271 78.9753 5.98438 79.4961C6.27604 80.0169 6.42188 80.6471 6.42188 81.3867C6.42188 82.0221 6.29948 82.5924 6.05469 83.0977C5.8151 83.5977 5.41667 83.9909 4.85938 84.2773C4.30729 84.5638 3.5625 84.707 2.625 84.707L6.46875 89.1758V89.2695H4.69531ZM7.94531 77.8945L7.58594 79.1289H1.74219L2.10156 77.8945H7.94531ZM16.3933 78.8375L11.9453 89.2695H10.4733L14.9853 78.9815H8.80925V77.7335H16.3933V78.8375ZM25.3836 78.9655H19.7676V82.6135C20.013 82.2722 20.3756 81.9949 20.8556 81.7815C21.3356 81.5575 21.853 81.4455 22.4076 81.4455C23.293 81.4455 24.013 81.6322 24.5676 82.0055C25.1223 82.3682 25.517 82.8429 25.7516 83.4295C25.997 84.0055 26.1196 84.6189 26.1196 85.2695C26.1196 86.0375 25.9756 86.7255 25.6876 87.3335C25.3996 87.9415 24.957 88.4215 24.3596 88.7735C23.773 89.1255 23.0423 89.3015 22.1676 89.3015C21.0476 89.3015 20.141 89.0135 19.4476 88.4375C18.7543 87.8615 18.333 87.0935 18.1836 86.1335H19.6076C19.7463 86.7415 20.0396 87.2162 20.4876 87.5575C20.9356 87.8989 21.501 88.0695 22.1836 88.0695C23.0263 88.0695 23.661 87.8189 24.0876 87.3175C24.5143 86.8055 24.7276 86.1335 24.7276 85.3015C24.7276 84.4695 24.5143 83.8295 24.0876 83.3815C23.661 82.9229 23.0316 82.6935 22.1996 82.6935C21.6343 82.6935 21.1383 82.8322 20.7116 83.1095C20.2956 83.3762 19.9916 83.7442 19.7996 84.2135H18.4236V77.6855H25.3836V78.9655ZM34.3425 89.2695L29.7505 84.1815V89.2695H28.2945V78.1175H29.7505V83.2855L34.3585 78.1175H36.1985L31.1425 83.7015L36.2465 89.2695H34.3425Z" fill="#3B3E44"/>
<path d="M7.94531 218.676L7.58594 219.91H0.335938L0.695312 218.676H7.94531ZM4.69531 227.27L0.5625 222.441L0.554688 221.473H2.46094C3.01302 221.473 3.46875 221.382 3.82812 221.199C4.19271 221.012 4.46615 220.759 4.64844 220.441C4.83073 220.124 4.92188 219.767 4.92188 219.371C4.92188 218.928 4.83594 218.54 4.66406 218.207C4.49219 217.868 4.22135 217.605 3.85156 217.418C3.48698 217.225 3.00781 217.129 2.41406 217.129H0.351562L0.71875 215.895H2.41406C3.32031 215.895 4.06771 216.033 4.65625 216.309C5.25 216.579 5.69271 216.975 5.98438 217.496C6.27604 218.017 6.42188 218.647 6.42188 219.387C6.42188 220.022 6.29948 220.592 6.05469 221.098C5.8151 221.598 5.41667 221.991 4.85938 222.277C4.30729 222.564 3.5625 222.707 2.625 222.707L6.46875 227.176V227.27H4.69531ZM7.94531 215.895L7.58594 217.129H1.74219L2.10156 215.895H7.94531ZM9.09725 226.102C10.4519 225.014 11.5133 224.123 12.2812 223.43C13.0493 222.726 13.6946 221.995 14.2173 221.238C14.7506 220.47 15.0173 219.718 15.0173 218.982C15.0173 218.288 14.8466 217.744 14.5053 217.35C14.1746 216.944 13.6359 216.742 12.8893 216.742C12.1639 216.742 11.5986 216.971 11.1933 217.43C10.7986 217.878 10.5853 218.48 10.5533 219.238H9.14525C9.18792 218.043 9.55058 217.12 10.2333 216.47C10.9159 215.819 11.7959 215.494 12.8733 215.494C13.9719 215.494 14.8413 215.798 15.4813 216.406C16.1319 217.014 16.4573 217.851 16.4573 218.918C16.4573 219.803 16.1906 220.667 15.6573 221.51C15.1346 222.342 14.5373 223.078 13.8653 223.718C13.1933 224.347 12.3346 225.083 11.2893 225.926H16.7933V227.142H9.09725V226.102ZM25.8524 216.966H20.2364V220.614C20.4817 220.272 20.8444 219.995 21.3244 219.782C21.8044 219.558 22.3217 219.446 22.8764 219.446C23.7617 219.446 24.4817 219.632 25.0364 220.006C25.591 220.368 25.9857 220.843 26.2204 221.43C26.4657 222.006 26.5884 222.619 26.5884 223.27C26.5884 224.038 26.4444 224.726 26.1564 225.334C25.8684 225.942 25.4257 226.422 24.8284 226.774C24.2417 227.126 23.511 227.302 22.6364 227.302C21.5164 227.302 20.6097 227.014 19.9164 226.438C19.223 225.862 18.8017 225.094 18.6524 224.134H20.0764C20.215 224.742 20.5084 225.216 20.9564 225.558C21.4044 225.899 21.9697 226.07 22.6524 226.07C23.495 226.07 24.1297 225.819 24.5564 225.318C24.983 224.806 25.1964 224.134 25.1964 223.302C25.1964 222.47 24.983 221.83 24.5564 221.382C24.1297 220.923 23.5004 220.694 22.6684 220.694C22.103 220.694 21.607 220.832 21.1804 221.11C20.7644 221.376 20.4604 221.744 20.2684 222.214H18.8924V215.686H25.8524V216.966ZM34.8113 227.27L30.2193 222.182V227.27H28.7633V216.118H30.2193V221.286L34.8273 216.118H36.6673L31.6113 221.702L36.7153 227.27H34.8113Z" fill="#3B3E44"/>
<path d="M7.94531 287.676L7.58594 288.91H0.335938L0.695312 287.676H7.94531ZM4.69531 296.27L0.5625 291.441L0.554688 290.473H2.46094C3.01302 290.473 3.46875 290.382 3.82812 290.199C4.19271 290.012 4.46615 289.759 4.64844 289.441C4.83073 289.124 4.92188 288.767 4.92188 288.371C4.92188 287.928 4.83594 287.54 4.66406 287.207C4.49219 286.868 4.22135 286.605 3.85156 286.418C3.48698 286.225 3.00781 286.129 2.41406 286.129H0.351562L0.71875 284.895H2.41406C3.32031 284.895 4.06771 285.033 4.65625 285.309C5.25 285.579 5.69271 285.975 5.98438 286.496C6.27604 287.017 6.42188 287.647 6.42188 288.387C6.42188 289.022 6.29948 289.592 6.05469 290.098C5.8151 290.598 5.41667 290.991 4.85938 291.277C4.30729 291.564 3.5625 291.707 2.625 291.707L6.46875 296.176V296.27H4.69531ZM7.94531 284.895L7.58594 286.129H1.74219L2.10156 284.895H7.94531ZM9.27325 290.366C9.27325 288.531 9.57192 287.102 10.1693 286.078C10.7666 285.043 11.8119 284.526 13.3053 284.526C14.7879 284.526 15.8279 285.043 16.4253 286.078C17.0226 287.102 17.3212 288.531 17.3212 290.366C17.3212 292.232 17.0226 293.683 16.4253 294.718C15.8279 295.752 14.7879 296.27 13.3053 296.27C11.8119 296.27 10.7666 295.752 10.1693 294.718C9.57192 293.683 9.27325 292.232 9.27325 290.366ZM15.8813 290.366C15.8813 289.438 15.8173 288.654 15.6893 288.014C15.5719 287.363 15.3213 286.84 14.9373 286.446C14.5639 286.051 14.0199 285.854 13.3053 285.854C12.5799 285.854 12.0253 286.051 11.6413 286.446C11.2679 286.84 11.0173 287.363 10.8893 288.014C10.7719 288.654 10.7133 289.438 10.7133 290.366C10.7133 291.326 10.7719 292.131 10.8893 292.782C11.0173 293.432 11.2679 293.955 11.6413 294.35C12.0253 294.744 12.5799 294.942 13.3053 294.942C14.0199 294.942 14.5639 294.744 14.9373 294.35C15.3213 293.955 15.5719 293.432 15.6893 292.782C15.8173 292.131 15.8813 291.326 15.8813 290.366ZM24.4561 296.27L21.0161 292.398V296.27H19.5601V284.43H21.0161V291.39L24.3921 287.502H26.4241L22.2961 291.87L26.4401 296.27H24.4561Z" fill="#3B3E44"/>
<defs>
<filter id="filter0_d_2850_279" x="223" y="78.2695" width="94" height="55" filterUnits="userSpaceOnUse" color-interpolation-filters="sRGB">
<feFlood flood-opacity="0" result="BackgroundImageFix"/>
<feColorMatrix in="SourceAlpha" type="matrix" values="0 0 0 0 0 0 0 0 0 0 0 0 0 0 0 0 0 0 127 0" result="hardAlpha"/>
<feOffset dx="4" dy="4"/>
<feGaussianBlur stdDeviation="6"/>
<feComposite in2="hardAlpha" operator="out"/>
<feColorMatrix type="matrix" values="0 0 0 0 0.686275 0 0 0 0 0.686275 0 0 0 0 0.686275 0 0 0 0.58 0"/>
<feBlend mode="normal" in2="BackgroundImageFix" result="effect1_dropShadow_2850_279"/>
<feBlend mode="normal" in="SourceGraphic" in2="effect1_dropShadow_2850_279" result="shape"/>
</filter>
<linearGradient id="paint0_linear_2850_279" x1="366.075" y1="-133.597" x2="376.001" y2="231.407" gradientUnits="userSpaceOnUse">
<stop stop-color="#482D71"/>
<stop offset="1" stop-color="#482D71" stop-opacity="0"/>
</linearGradient>
</defs>
</svg>
