<svg width="32" height="32" viewBox="0 0 32 32" fill="none" xmlns="http://www.w3.org/2000/svg">
<path d="M16 13.3334V21.3334" stroke="#03346E" stroke-width="2" stroke-linecap="round" stroke-linejoin="round"/>
<path d="M12 17.3334H20" stroke="#03346E" stroke-width="2" stroke-linecap="round" stroke-linejoin="round"/>
<path d="M26.666 26.6667C27.3733 26.6667 28.0515 26.3857 28.5516 25.8856C29.0517 25.3855 29.3327 24.7072 29.3327 24V10.6667C29.3327 9.95942 29.0517 9.28115 28.5516 8.78105C28.0515 8.28095 27.3733 8 26.666 8H16.1327C15.6867 8.00437 15.2467 7.89682 14.8531 7.68717C14.4594 7.47753 14.1246 7.1725 13.8794 6.8L12.7994 5.2C12.5565 4.83129 12.226 4.52864 11.8373 4.3192C11.4487 4.10975 11.0142 4.00007 10.5727 4H5.33268C4.62544 4 3.94716 4.28095 3.44706 4.78105C2.94697 5.28115 2.66602 5.95942 2.66602 6.66667V24C2.66602 24.7072 2.94697 25.3855 3.44706 25.8856C3.94716 26.3857 4.62544 26.6667 5.33268 26.6667H26.666Z" stroke="#03346E" stroke-width="2" stroke-linecap="round" stroke-linejoin="round"/>
</svg>
