<svg xmlns="http://www.w3.org/2000/svg" width="120" height="40" viewBox="0 0 120 40" fill="none">
<path d="M0.171875 3.91645C0.171875 1.75346 1.92533 0 4.08832 0H115.258C117.42 0 119.174 1.75345 119.174 3.91645V36.0835C119.174 38.2465 117.42 40 115.258 40H4.08832C1.92533 40 0.171875 38.2465 0.171875 36.0835V3.91645Z" fill="white"/>
<path d="M33.1889 22.6619L31.1868 21.5137C31.2408 21.0163 31.2692 20.5114 31.2692 20C31.2692 19.4886 31.2408 18.9836 31.1868 18.4863L33.1889 17.3381C33.6168 17.0927 33.9228 16.6964 34.0507 16.2222C34.1785 15.748 34.1128 15.2527 33.8658 14.8278L30.0141 8.20087C29.6845 7.63382 29.0699 7.2816 28.41 7.2816C28.087 7.2816 27.768 7.36688 27.4869 7.52818L25.4791 8.67957C24.6631 8.08521 23.7807 7.57554 22.8453 7.1639V4.86648C22.8452 3.85323 22.015 3.02881 20.9951 3.02881H13.2912C12.2711 3.02881 11.4412 3.85323 11.4412 4.86648V7.164C10.5057 7.57565 9.62336 8.08521 8.80723 8.67977L6.7994 7.52829C6.5183 7.36708 6.19913 7.28181 5.87637 7.28181C5.21641 7.28181 4.60192 7.63393 4.27214 8.20098L0.420633 14.8279C0.173493 15.2528 0.107817 15.7482 0.235655 16.2223C0.363593 16.6965 0.66958 17.0928 1.09748 17.3382L3.0996 18.4864C3.04558 18.9837 3.01715 19.4887 3.01715 20.0001C3.01715 20.5115 3.04558 21.0163 3.0996 21.5138L1.09748 22.662C0.66958 22.9073 0.363593 23.3037 0.235655 23.7779C0.107817 24.2521 0.173493 24.7474 0.420633 25.1723L4.27214 31.7992C4.60182 32.3662 5.21631 32.7184 5.87637 32.7184C6.19924 32.7184 6.5184 32.6332 6.7994 32.4719L8.80723 31.3205C9.62336 31.915 10.5057 32.4246 11.4412 32.8363V35.1339C11.4412 35.6247 11.6336 36.0861 11.9831 36.4331C12.3327 36.7801 12.7971 36.9714 13.2911 36.9714H20.995C22.0149 36.9714 22.8451 36.1469 22.8451 35.1338V32.8361C23.7805 32.4245 24.6629 31.9149 25.4789 31.3204L27.4867 32.4718C27.7678 32.6331 28.0869 32.7183 28.4098 32.7183C29.0697 32.7183 29.6841 32.3661 30.0139 31.7991L33.8656 25.1722C34.1126 24.7472 34.1782 24.2519 34.0505 23.7778C33.9227 23.3036 33.6167 22.9073 33.1889 22.6619ZM17.1431 29.975C11.5968 29.975 7.10086 25.5089 7.10086 20.0001C7.10086 14.4913 11.5968 10.0252 17.1431 10.0252C22.6894 10.0252 27.1853 14.4913 27.1853 20.0001C27.1853 25.5089 22.6895 29.975 17.1431 29.975Z" fill="#202938"/>
<path d="M24.0667 14.7786C24.0074 14.7637 23.9444 14.7808 23.9012 14.8239L22.0877 16.6308C21.979 16.5869 21.7047 16.4374 21.1972 15.9349C20.6898 15.4325 20.5384 15.1606 20.4939 15.0526L22.3072 13.2459C22.3505 13.2028 22.3676 13.1401 22.3523 13.0813C22.3371 13.0223 22.2916 12.9758 22.2327 12.9588C21.9712 12.8834 21.7003 12.8452 21.4274 12.8452C20.6567 12.8452 19.9325 13.1438 19.3886 13.6858C18.8455 14.2269 18.5471 14.9456 18.548 15.7096C18.5486 16.1033 18.6294 16.4844 18.7814 16.8356L16.5835 19.0188L14.3324 16.7829C14.3304 16.7791 14.329 16.775 14.3268 16.7712L13.2973 15.0189C13.2796 14.9887 13.2555 14.9628 13.2264 14.9427L11.4907 13.7464C11.3947 13.6802 11.2648 13.6919 11.1824 13.7738L10.4088 14.542C10.3262 14.624 10.3146 14.753 10.3812 14.8483L11.5855 16.5725C11.6056 16.6012 11.6319 16.6253 11.6623 16.643L13.4268 17.6652C13.4302 17.6671 13.4339 17.6678 13.4373 17.6695L15.6896 19.9066L13.9957 21.5892C13.641 21.4378 13.2559 21.3576 12.8584 21.3576C12.0876 21.3576 11.3634 21.6561 10.8193 22.1983C10.0764 22.9382 9.79922 24.0216 10.0961 25.0255C10.1133 25.0838 10.1604 25.1289 10.2198 25.1439C10.2792 25.1589 10.3421 25.1418 10.3854 25.0985L12.1986 23.2918C12.3074 23.3356 12.5816 23.4852 13.0891 23.9876C13.5966 24.4901 13.7478 24.7619 13.7921 24.8699L11.9789 26.6767C11.9356 26.7198 11.9184 26.7824 11.9338 26.8413C11.9491 26.9003 11.9946 26.9468 12.0534 26.9638C12.3148 27.0391 12.5858 27.0773 12.8586 27.0773C13.6294 27.0773 14.3535 26.7787 14.8977 26.2366C15.4407 25.6956 15.7391 24.9769 15.738 24.2129C15.7374 23.8192 15.6567 23.438 15.5047 23.0869L17.1981 21.4048L17.9157 22.1176L17.4264 22.6035C17.3197 22.7093 17.261 22.8497 17.261 22.9992C17.2609 23.1487 17.3197 23.2892 17.4262 23.3949L20.882 26.8274C20.9882 26.9332 21.1295 26.9913 21.28 26.9913C21.4305 26.9913 21.5722 26.9332 21.6787 26.8274L23.5507 24.9676C23.6571 24.862 23.7158 24.7214 23.7159 24.5719C23.7159 24.4223 23.6572 24.2819 23.5508 24.1763L20.0953 20.744C19.9889 20.6384 19.8475 20.5801 19.697 20.5801C19.5464 20.5801 19.4049 20.6384 19.2986 20.7442L18.8096 21.2299L18.092 20.5172L20.2903 18.3335C20.6451 18.485 21.0301 18.5651 21.4276 18.5652H21.4278C22.1985 18.5652 22.9226 18.2666 23.4666 17.7243C24.2095 16.9847 24.4867 15.9014 24.1903 14.8972C24.1732 14.8387 24.1262 14.7936 24.0667 14.7786ZM19.6587 21.9652C19.7818 21.8427 19.9816 21.8427 20.1049 21.9652L22.3216 24.1672C22.4449 24.2895 22.4449 24.4878 22.3216 24.6102C22.1983 24.7324 21.999 24.7324 21.8758 24.6102L19.6587 22.4081C19.5361 22.2856 19.5361 22.0874 19.6587 21.9652ZM18.6552 22.9614C18.7787 22.8393 18.9786 22.8393 19.1019 22.9616L21.3187 25.1637C21.4417 25.2859 21.4418 25.4843 21.3187 25.6065C21.1952 25.7289 20.9954 25.7289 20.8726 25.6065L18.6552 23.4043C18.5324 23.2822 18.5324 23.084 18.6552 22.9614Z" fill="#03346e "/>
<path d="M103.167 28.3554C103.167 28.5429 103.319 28.6948 103.506 28.6948H108.057C108.245 28.6948 108.397 28.5429 108.397 28.3554V20.2421L114.877 28.5639C114.941 28.6465 115.04 28.6948 115.145 28.6948H119.174C119.361 28.6948 119.513 28.5429 119.513 28.3554V11.7637C119.513 11.5763 119.361 11.4243 119.174 11.4243H114.623C114.435 11.4243 114.283 11.5763 114.283 11.7637V19.5449L108.065 11.5552C108 11.4726 107.901 11.4243 107.797 11.4243H103.506C103.319 11.4243 103.167 11.5763 103.167 11.7637V28.3554Z" fill="#03346e " stroke="white" stroke-linejoin="round"/>
<path d="M95.5078 28.3554C95.5078 28.5429 95.6598 28.6948 95.8472 28.6948H100.469C100.657 28.6948 100.809 28.5429 100.809 28.3554V11.7637C100.809 11.5763 100.657 11.4243 100.469 11.4243H95.8472C95.6598 11.4243 95.5078 11.5763 95.5078 11.7637V28.3554Z" fill="#03346e " stroke="white" stroke-linejoin="round"/>
<path d="M74.8354 28.3554C74.8354 28.5429 74.9874 28.6948 75.1749 28.6948H79.6783C79.8657 28.6948 80.0177 28.5429 80.0177 28.3554V20.013L83.6135 25.5073C83.6762 25.6032 83.7827 25.6609 83.8971 25.6609H83.9921C84.107 25.6609 84.2135 25.6031 84.2762 25.5071L87.8955 19.9672V28.3554C87.8955 28.5429 88.0475 28.6948 88.2349 28.6948H92.8093C92.9968 28.6948 93.1488 28.5429 93.1488 28.3554V11.7637C93.1488 11.5763 92.9968 11.4243 92.8093 11.4243H87.9503C87.8328 11.4243 87.7232 11.4854 87.6616 11.5857L83.9921 17.5401L80.3227 11.5857C80.261 11.4854 80.1514 11.4243 80.0339 11.4243H75.1749C74.9874 11.4243 74.8354 11.5763 74.8354 11.7637V28.3554Z" fill="#03346e " stroke="white" stroke-linejoin="round"/>
<path d="M56.7109 28.3554C56.7109 28.5429 56.8629 28.6948 57.0504 28.6948H63.3553C66.4091 28.6948 68.8613 27.785 70.5538 26.2291C72.2478 24.6715 73.1522 22.4918 73.1522 20.0121V19.9647C73.1522 17.4859 72.2603 15.3405 70.5814 13.8174C68.9057 12.2968 66.4775 11.4243 63.4504 11.4243H57.0504C56.8629 11.4243 56.7109 11.5763 56.7109 11.7637V28.3554ZM63.5214 23.9391H61.9882V16.18H63.5214C64.8347 16.18 65.8901 16.5476 66.6133 17.1955C67.3313 17.8391 67.7564 18.7907 67.7564 20.0359V20.0833C67.7564 21.341 67.3308 22.2919 66.6138 22.9321C65.8916 23.5768 64.8363 23.9391 63.5214 23.9391Z" fill="#03346e " stroke="white" stroke-linejoin="round"/>
<path d="M36.5693 28.2231C36.525 28.3279 36.5361 28.448 36.599 28.5428C36.6619 28.6377 36.7681 28.6947 36.8819 28.6947H41.7172C41.856 28.6947 41.9808 28.6102 42.0324 28.4813L43.1321 25.7319H49.0738L50.1965 28.4835C50.2486 28.6112 50.3728 28.6947 50.5108 28.6947H55.4407C55.5545 28.6947 55.661 28.6377 55.7237 28.5428C55.7869 28.448 55.7978 28.3279 55.7535 28.2231L48.6902 11.5129C48.6371 11.3873 48.5139 11.3057 48.3776 11.3057H43.9452C43.8088 11.3057 43.6857 11.3873 43.6326 11.5129L36.5693 28.2231ZM44.7533 21.474L46.1239 18.0216L47.477 21.474H44.7533Z" fill="#03346e " stroke="white" stroke-linejoin="round"/>
</svg>