<svg width="138" height="80" viewBox="0 0 138 80" fill="none" xmlns="http://www.w3.org/2000/svg">
<rect width="137.143" height="80" rx="12" fill="url(#paint0_linear_1533_26104)"/>
<mask id="mask0_1533_26104" style="mask-type:alpha" maskUnits="userSpaceOnUse" x="0" y="0" width="138" height="80">
<rect width="137.143" height="80" rx="18.9385" fill="#ED713C"/>
</mask>
<g mask="url(#mask0_1533_26104)">
<ellipse opacity="0.1" cx="15.4665" cy="134.464" rx="101.321" ry="71.3352" fill="black"/>
<ellipse opacity="0.08" cx="183.388" cy="-18.3073" rx="101.321" ry="71.3352" fill="black"/>
</g>
<path d="M94.3584 62.5927C93.8625 62.5906 93.4389 62.4599 93.0873 62.2004C92.7358 61.941 92.467 61.5633 92.2807 61.0674C92.0945 60.5716 92.0014 59.9742 92.0014 59.2754C92.0014 58.5786 92.0945 57.9833 92.2807 57.4896C92.4691 56.9958 92.739 56.6191 93.0905 56.3597C93.4441 56.1002 93.8667 55.9705 94.3584 55.9705C94.8501 55.9705 95.2717 56.1013 95.6232 56.3628C95.9748 56.6223 96.2436 56.9989 96.4298 57.4927C96.6181 57.9844 96.7123 58.5786 96.7123 59.2754C96.7123 59.9763 96.6192 60.5747 96.433 61.0706C96.2468 61.5644 95.9779 61.942 95.6264 62.2036C95.2749 62.463 94.8522 62.5927 94.3584 62.5927ZM94.3584 61.7548C94.7936 61.7548 95.1336 61.5424 95.3784 61.1176C95.6253 60.6929 95.7488 60.0788 95.7488 59.2754C95.7488 58.7418 95.6923 58.2909 95.5793 57.9227C95.4684 57.5523 95.3083 57.272 95.0991 57.0816C94.892 56.8891 94.6451 56.7928 94.3584 56.7928C93.9253 56.7928 93.5853 57.0062 93.3384 57.4331C93.0915 57.8599 92.967 58.474 92.9649 59.2754C92.9649 59.811 93.0204 60.264 93.1313 60.6343C93.2443 61.0026 93.4043 61.2819 93.6115 61.4723C93.8186 61.6606 94.0676 61.7548 94.3584 61.7548ZM100.279 55.9705C100.565 55.9726 100.848 56.0249 101.126 56.1274C101.404 56.23 101.655 56.3974 101.879 56.6296C102.105 56.8619 102.285 57.1757 102.419 57.5712C102.555 57.9645 102.624 58.4541 102.626 59.04C102.626 59.6028 102.57 60.1039 102.457 60.5433C102.344 60.9806 102.182 61.3499 101.97 61.6512C101.761 61.9525 101.507 62.1816 101.208 62.3385C100.908 62.4954 100.572 62.5739 100.197 62.5739C99.8141 62.5739 99.4741 62.4986 99.177 62.3479C98.8799 62.1973 98.6382 61.9891 98.452 61.7234C98.2658 61.4556 98.1497 61.148 98.1037 60.8007H99.0609C99.1237 61.0768 99.2513 61.3007 99.4438 61.4723C99.6384 61.6418 99.8895 61.7265 100.197 61.7265C100.668 61.7265 101.035 61.5215 101.299 61.1114C101.562 60.6992 101.695 60.1238 101.697 59.3852H101.647C101.538 59.5651 101.402 59.72 101.239 59.8497C101.078 59.9794 100.897 60.0799 100.696 60.151C100.495 60.2221 100.281 60.2577 100.053 60.2577C99.6823 60.2577 99.3455 60.1667 99.0421 59.9847C98.7387 59.8026 98.497 59.5526 98.3171 59.2346C98.1371 58.9165 98.0472 58.5535 98.0472 58.1455C98.0472 57.7396 98.1392 57.3713 98.3234 57.0407C98.5096 56.7102 98.769 56.4486 99.1017 56.2561C99.4365 56.0615 99.8288 55.9663 100.279 55.9705ZM100.282 56.7865C100.037 56.7865 99.8162 56.8472 99.6195 56.9686C99.425 57.0878 99.2712 57.25 99.1582 57.455C99.0452 57.658 98.9887 57.884 98.9887 58.1329C98.9887 58.3819 99.0431 58.6079 99.1519 58.8109C99.2628 59.0117 99.4135 59.1718 99.6039 59.291C99.7963 59.4082 100.016 59.4668 100.263 59.4668C100.447 59.4668 100.619 59.4312 100.778 59.3601C100.937 59.289 101.076 59.1906 101.195 59.0651C101.314 58.9374 101.407 58.7931 101.474 58.632C101.541 58.4709 101.575 58.3014 101.575 58.1235C101.575 57.8871 101.518 57.6674 101.405 57.4644C101.294 57.2615 101.142 57.0983 100.947 56.9748C100.753 56.8493 100.531 56.7865 100.282 56.7865ZM106.536 55.7571L104.465 63.4527H103.627L105.698 55.7571H106.536ZM107.636 62.486V61.783L109.811 59.5296C110.044 59.2848 110.235 59.0703 110.386 58.8862C110.539 58.7 110.653 58.5232 110.728 58.3558C110.803 58.1884 110.841 58.0105 110.841 57.8222C110.841 57.6088 110.791 57.4247 110.69 57.2699C110.59 57.1129 110.453 56.9926 110.279 56.9089C110.105 56.8231 109.91 56.7803 109.692 56.7803C109.462 56.7803 109.261 56.8273 109.09 56.9215C108.918 57.0156 108.786 57.1485 108.694 57.3201C108.602 57.4916 108.556 57.6925 108.556 57.9227H107.63C107.63 57.5314 107.72 57.1893 107.9 56.8964C108.08 56.6035 108.327 56.3764 108.641 56.2153C108.955 56.0521 109.311 55.9705 109.711 55.9705C110.115 55.9705 110.471 56.0511 110.778 56.2122C111.088 56.3712 111.329 56.5888 111.503 56.865C111.677 57.1391 111.764 57.4488 111.764 57.794C111.764 58.0325 111.719 58.2658 111.629 58.4939C111.541 58.7219 111.387 58.9762 111.167 59.2565C110.948 59.5348 110.642 59.8727 110.251 60.2703L108.973 61.6073V61.6543H111.867V62.486H107.636ZM115.494 62.5739C115.101 62.5739 114.747 62.4986 114.433 62.3479C114.121 62.1952 113.872 61.986 113.686 61.7202C113.5 61.4545 113.401 61.1511 113.388 60.8101H114.33C114.353 61.0863 114.475 61.3133 114.697 61.4911C114.919 61.669 115.184 61.7579 115.494 61.7579C115.741 61.7579 115.959 61.7014 116.15 61.5884C116.342 61.4733 116.493 61.3154 116.602 61.1145C116.713 60.9136 116.768 60.6845 116.768 60.4272C116.768 60.1656 116.712 59.9323 116.599 59.7273C116.486 59.5222 116.33 59.3611 116.131 59.244C115.934 59.1268 115.708 59.0672 115.453 59.0651C115.259 59.0651 115.063 59.0986 114.866 59.1655C114.67 59.2325 114.511 59.3203 114.389 59.4291L113.501 59.2973L113.862 56.0584H117.396V56.8901H114.668L114.464 58.6885H114.502C114.628 58.5671 114.794 58.4656 115.001 58.384C115.21 58.3024 115.434 58.2616 115.673 58.2616C116.064 58.2616 116.412 58.3547 116.718 58.5409C117.026 58.7272 117.267 58.9814 117.443 59.3036C117.621 59.6237 117.709 59.992 117.707 60.4083C117.709 60.8247 117.614 61.1961 117.424 61.5225C117.236 61.8489 116.974 62.1063 116.639 62.2946C116.307 62.4808 115.925 62.5739 115.494 62.5739Z" fill="white"/>
<path opacity="0.9" d="M21.7201 42.1008C21.4193 42.1008 21.1446 42.0275 20.896 41.8808C20.6475 41.7317 20.4486 41.5328 20.2994 41.2842C20.1528 41.0356 20.0795 40.761 20.0795 40.4602C20.0795 40.1569 20.1528 39.8822 20.2994 39.6361C20.4486 39.3876 20.6475 39.1899 20.896 39.0433C21.1446 38.8941 21.4193 38.8196 21.7201 38.8196C22.0233 38.8196 22.298 38.8941 22.5441 39.0433C22.7927 39.1899 22.9903 39.3876 23.137 39.6361C23.2861 39.8822 23.3607 40.1569 23.3607 40.4602C23.3607 40.761 23.2861 41.0356 23.137 41.2842C22.9903 41.5328 22.7927 41.7317 22.5441 41.8808C22.298 42.0275 22.0233 42.1008 21.7201 42.1008ZM27.5933 42.1008C27.2926 42.1008 27.0179 42.0275 26.7693 41.8808C26.5207 41.7317 26.3219 41.5328 26.1727 41.2842C26.026 41.0356 25.9527 40.761 25.9527 40.4602C25.9527 40.1569 26.026 39.8822 26.1727 39.6361C26.3219 39.3876 26.5207 39.1899 26.7693 39.0433C27.0179 38.8941 27.2926 38.8196 27.5933 38.8196C27.8966 38.8196 28.1713 38.8941 28.4174 39.0433C28.666 39.1899 28.8636 39.3876 29.0102 39.6361C29.1594 39.8822 29.234 40.1569 29.234 40.4602C29.234 40.761 29.1594 41.0356 29.0102 41.2842C28.8636 41.5328 28.666 41.7317 28.4174 41.8808C28.1713 42.0275 27.8966 42.1008 27.5933 42.1008ZM33.4666 42.1008C33.1658 42.1008 32.8911 42.0275 32.6426 41.8808C32.394 41.7317 32.1951 41.5328 32.046 41.2842C31.8993 41.0356 31.826 40.761 31.826 40.4602C31.826 40.1569 31.8993 39.8822 32.046 39.6361C32.1951 39.3876 32.394 39.1899 32.6426 39.0433C32.8911 38.8941 33.1658 38.8196 33.4666 38.8196C33.7699 38.8196 34.0445 38.8941 34.2906 39.0433C34.5392 39.1899 34.7368 39.3876 34.8835 39.6361C35.0327 39.8822 35.1072 40.1569 35.1072 40.4602C35.1072 40.761 35.0327 41.0356 34.8835 41.2842C34.7368 41.5328 34.5392 41.7317 34.2906 41.8808C34.0445 42.0275 33.7699 42.1008 33.4666 42.1008ZM39.3399 42.1008C39.0391 42.1008 38.7644 42.0275 38.5158 41.8808C38.2672 41.7317 38.0684 41.5328 37.9192 41.2842C37.7726 41.0356 37.6992 40.761 37.6992 40.4602C37.6992 40.1569 37.7726 39.8822 37.9192 39.6361C38.0684 39.3876 38.2672 39.1899 38.5158 39.0433C38.7644 38.8941 39.0391 38.8196 39.3399 38.8196C39.6431 38.8196 39.9178 38.8941 40.1639 39.0433C40.4125 39.1899 40.6101 39.3876 40.7568 39.6361C40.9059 39.8822 40.9805 40.1569 40.9805 40.4602C40.9805 40.761 40.9059 41.0356 40.7568 41.2842C40.6101 41.5328 40.4125 41.7317 40.1639 41.8808C39.9178 42.0275 39.6431 42.1008 39.3399 42.1008ZM48.3076 42.1008C48.0068 42.1008 47.7321 42.0275 47.4835 41.8808C47.235 41.7317 47.0361 41.5328 46.8869 41.2842C46.7403 41.0356 46.6669 40.761 46.6669 40.4602C46.6669 40.1569 46.7403 39.8822 46.8869 39.6361C47.0361 39.3876 47.235 39.1899 47.4835 39.0433C47.7321 38.8941 48.0068 38.8196 48.3076 38.8196C48.6108 38.8196 48.8855 38.8941 49.1316 39.0433C49.3802 39.1899 49.5778 39.3876 49.7245 39.6361C49.8736 39.8822 49.9482 40.1569 49.9482 40.4602C49.9482 40.761 49.8736 41.0356 49.7245 41.2842C49.5778 41.5328 49.3802 41.7317 49.1316 41.8808C48.8855 42.0275 48.6108 42.1008 48.3076 42.1008ZM54.1808 42.1008C53.8801 42.1008 53.6054 42.0275 53.3568 41.8808C53.1082 41.7317 52.9093 41.5328 52.7602 41.2842C52.6135 41.0356 52.5402 40.761 52.5402 40.4602C52.5402 40.1569 52.6135 39.8822 52.7602 39.6361C52.9093 39.3876 53.1082 39.1899 53.3568 39.0433C53.6054 38.8941 53.8801 38.8196 54.1808 38.8196C54.4841 38.8196 54.7588 38.8941 55.0049 39.0433C55.2535 39.1899 55.4511 39.3876 55.5977 39.6361C55.7469 39.8822 55.8215 40.1569 55.8215 40.4602C55.8215 40.761 55.7469 41.0356 55.5977 41.2842C55.4511 41.5328 55.2535 41.7317 55.0049 41.8808C54.7588 42.0275 54.4841 42.1008 54.1808 42.1008ZM60.0541 42.1008C59.7533 42.1008 59.4786 42.0275 59.23 41.8808C58.9815 41.7317 58.7826 41.5328 58.6335 41.2842C58.4868 41.0356 58.4135 40.761 58.4135 40.4602C58.4135 40.1569 58.4868 39.8822 58.6335 39.6361C58.7826 39.3876 58.9815 39.1899 59.23 39.0433C59.4786 38.8941 59.7533 38.8196 60.0541 38.8196C60.3574 38.8196 60.632 38.8941 60.8781 39.0433C61.1267 39.1899 61.3243 39.3876 61.471 39.6361C61.6201 39.8822 61.6947 40.1569 61.6947 40.4602C61.6947 40.761 61.6201 41.0356 61.471 41.2842C61.3243 41.5328 61.1267 41.7317 60.8781 41.8808C60.632 42.0275 60.3574 42.1008 60.0541 42.1008ZM65.9273 42.1008C65.6266 42.1008 65.3519 42.0275 65.1033 41.8808C64.8547 41.7317 64.6559 41.5328 64.5067 41.2842C64.3601 41.0356 64.2867 40.761 64.2867 40.4602C64.2867 40.1569 64.3601 39.8822 64.5067 39.6361C64.6559 39.3876 64.8547 39.1899 65.1033 39.0433C65.3519 38.8941 65.6266 38.8196 65.9273 38.8196C66.2306 38.8196 66.5053 38.8941 66.7514 39.0433C67 39.1899 67.1976 39.3876 67.3443 39.6361C67.4934 39.8822 67.568 40.1569 67.568 40.4602C67.568 40.761 67.4934 41.0356 67.3443 41.2842C67.1976 41.5328 67 41.7317 66.7514 41.8808C66.5053 42.0275 66.2306 42.1008 65.9273 42.1008ZM74.8951 42.1008C74.5943 42.1008 74.3196 42.0275 74.071 41.8808C73.8224 41.7317 73.6236 41.5328 73.4744 41.2842C73.3278 41.0356 73.2544 40.761 73.2544 40.4602C73.2544 40.1569 73.3278 39.8822 73.4744 39.6361C73.6236 39.3876 73.8224 39.1899 74.071 39.0433C74.3196 38.8941 74.5943 38.8196 74.8951 38.8196C75.1983 38.8196 75.473 38.8941 75.7191 39.0433C75.9677 39.1899 76.1653 39.3876 76.312 39.6361C76.4611 39.8822 76.5357 40.1569 76.5357 40.4602C76.5357 40.761 76.4611 41.0356 76.312 41.2842C76.1653 41.5328 75.9677 41.7317 75.7191 41.8808C75.473 42.0275 75.1983 42.1008 74.8951 42.1008ZM80.7683 42.1008C80.4675 42.1008 80.1929 42.0275 79.9443 41.8808C79.6957 41.7317 79.4968 41.5328 79.3477 41.2842C79.201 41.0356 79.1277 40.761 79.1277 40.4602C79.1277 40.1569 79.201 39.8822 79.3477 39.6361C79.4968 39.3876 79.6957 39.1899 79.9443 39.0433C80.1929 38.8941 80.4675 38.8196 80.7683 38.8196C81.0716 38.8196 81.3463 38.8941 81.5924 39.0433C81.8409 39.1899 82.0386 39.3876 82.1852 39.6361C82.3344 39.8822 82.4089 40.1569 82.4089 40.4602C82.4089 40.761 82.3344 41.0356 82.1852 41.2842C82.0386 41.5328 81.8409 41.7317 81.5924 41.8808C81.3463 42.0275 81.0716 42.1008 80.7683 42.1008ZM86.6416 42.1008C86.3408 42.1008 86.0661 42.0275 85.8175 41.8808C85.569 41.7317 85.3701 41.5328 85.221 41.2842C85.0743 41.0356 85.001 40.761 85.001 40.4602C85.001 40.1569 85.0743 39.8822 85.221 39.6361C85.3701 39.3876 85.569 39.1899 85.8175 39.0433C86.0661 38.8941 86.3408 38.8196 86.6416 38.8196C86.9449 38.8196 87.2195 38.8941 87.4656 39.0433C87.7142 39.1899 87.9118 39.3876 88.0585 39.6361C88.2076 39.8822 88.2822 40.1569 88.2822 40.4602C88.2822 40.761 88.2076 41.0356 88.0585 41.2842C87.9118 41.5328 87.7142 41.7317 87.4656 41.8808C87.2195 42.0275 86.9449 42.1008 86.6416 42.1008ZM92.5148 42.1008C92.2141 42.1008 91.9394 42.0275 91.6908 41.8808C91.4422 41.7317 91.2434 41.5328 91.0942 41.2842C90.9475 41.0356 90.8742 40.761 90.8742 40.4602C90.8742 40.1569 90.9475 39.8822 91.0942 39.6361C91.2434 39.3876 91.4422 39.1899 91.6908 39.0433C91.9394 38.8941 92.2141 38.8196 92.5148 38.8196C92.8181 38.8196 93.0928 38.8941 93.3389 39.0433C93.5875 39.1899 93.7851 39.3876 93.9317 39.6361C94.0809 39.8822 94.1555 40.1569 94.1555 40.4602C94.1555 40.761 94.0809 41.0356 93.9317 41.2842C93.7851 41.5328 93.5875 41.7317 93.3389 41.8808C93.0928 42.0275 92.8181 42.1008 92.5148 42.1008ZM101.483 41.3252C101.182 41.3252 100.907 41.2519 100.659 41.1052C100.41 40.9561 100.211 40.7572 100.062 40.5087C99.9153 40.2601 99.8419 39.9854 99.8419 39.6846C99.8419 39.3813 99.9153 39.1067 100.062 38.8606C100.211 38.612 100.41 38.4144 100.659 38.2677C100.907 38.1186 101.182 38.044 101.483 38.044C101.786 38.044 102.06 38.1186 102.307 38.2677C102.555 38.4144 102.753 38.612 102.899 38.8606C103.049 39.1067 103.123 39.3813 103.123 39.6846C103.123 39.9854 103.049 40.2601 102.899 40.5087C102.753 40.7572 102.555 40.9561 102.307 41.1052C102.06 41.2519 101.786 41.3252 101.483 41.3252ZM105.309 43.5028V42.6676L107.893 39.9904C108.169 39.6995 108.396 39.4447 108.575 39.226C108.757 39.0047 108.892 38.7947 108.982 38.5958C109.071 38.397 109.116 38.1857 109.116 37.962C109.116 37.7084 109.056 37.4897 108.937 37.3057C108.817 37.1193 108.655 36.9763 108.448 36.8769C108.242 36.775 108.01 36.724 107.751 36.724C107.478 36.724 107.239 36.78 107.035 36.8918C106.831 37.0037 106.675 37.1615 106.565 37.3654C106.456 37.5692 106.401 37.8078 106.401 38.0813H105.301C105.301 37.6164 105.408 37.21 105.622 36.862C105.836 36.514 106.129 36.2443 106.502 36.0529C106.875 35.859 107.299 35.762 107.773 35.762C108.253 35.762 108.676 35.8577 109.041 36.0491C109.409 36.2381 109.696 36.4966 109.903 36.8247C110.109 37.1503 110.212 37.5182 110.212 37.9284C110.212 38.2118 110.159 38.4889 110.052 38.7599C109.947 39.0308 109.765 39.3329 109.504 39.666C109.243 39.9966 108.88 40.398 108.415 40.8703L106.897 42.4588V42.5147H110.335V43.5028H105.309ZM114.644 43.6072C114.11 43.6072 113.637 43.5152 113.227 43.3313C112.82 43.1473 112.5 42.8938 112.269 42.5706C112.038 42.2475 111.923 41.8796 111.926 41.4669C111.923 41.1438 111.989 40.8467 112.124 40.5758C112.26 40.3023 112.445 40.0749 112.679 39.8934C112.913 39.7095 113.174 39.5926 113.462 39.5429V39.4982C113.082 39.4062 112.777 39.2024 112.549 38.8867C112.32 38.571 112.207 38.208 112.209 37.7979C112.207 37.4076 112.31 37.0596 112.519 36.7539C112.73 36.4456 113.02 36.2033 113.388 36.0268C113.755 35.8503 114.174 35.762 114.644 35.762C115.109 35.762 115.524 35.8515 115.889 36.0305C116.257 36.207 116.547 36.4493 116.758 36.7576C116.97 37.0633 117.076 37.4101 117.079 37.7979C117.076 38.208 116.96 38.571 116.728 38.8867C116.497 39.2024 116.196 39.4062 115.826 39.4982V39.5429C116.112 39.5926 116.369 39.7095 116.598 39.8934C116.829 40.0749 117.013 40.3023 117.15 40.5758C117.289 40.8467 117.36 41.1438 117.362 41.4669C117.36 41.8796 117.243 42.2475 117.012 42.5706C116.781 42.8938 116.46 43.1473 116.05 43.3313C115.642 43.5152 115.174 43.6072 114.644 43.6072ZM114.644 42.6638C114.96 42.6638 115.233 42.6116 115.464 42.5072C115.696 42.4003 115.875 42.2524 116.001 42.0635C116.128 41.8721 116.193 41.6484 116.195 41.3924C116.193 41.1264 116.123 40.8915 115.986 40.6876C115.852 40.4838 115.669 40.3235 115.438 40.2066C115.207 40.0898 114.942 40.0314 114.644 40.0314C114.343 40.0314 114.076 40.0898 113.842 40.2066C113.609 40.3235 113.425 40.4838 113.291 40.6876C113.156 40.8915 113.09 41.1264 113.093 41.3924C113.09 41.6484 113.151 41.8721 113.276 42.0635C113.402 42.2524 113.583 42.4003 113.816 42.5072C114.05 42.6116 114.326 42.6638 114.644 42.6638ZM114.644 39.1104C114.898 39.1104 115.123 39.0594 115.319 38.9575C115.515 38.8556 115.669 38.7139 115.781 38.5324C115.896 38.351 115.954 38.1384 115.957 37.8948C115.954 37.6562 115.897 37.4474 115.785 37.2684C115.676 37.0894 115.523 36.9515 115.326 36.8545C115.13 36.7551 114.903 36.7054 114.644 36.7054C114.381 36.7054 114.149 36.7551 113.951 36.8545C113.754 36.9515 113.601 37.0894 113.492 37.2684C113.383 37.4474 113.329 37.6562 113.332 37.8948C113.329 38.1384 113.384 38.351 113.496 38.5324C113.608 38.7139 113.762 38.8556 113.958 38.9575C114.157 39.0594 114.386 39.1104 114.644 39.1104ZM121.553 35.762C121.894 35.7645 122.229 35.8267 122.56 35.9485C122.89 36.0703 123.189 36.2691 123.455 36.5451C123.723 36.821 123.937 37.1938 124.096 37.6637C124.258 38.131 124.34 38.7127 124.342 39.4087C124.342 40.0774 124.275 40.6727 124.141 41.1947C124.006 41.7143 123.814 42.153 123.563 42.511C123.314 42.8689 123.012 43.1411 122.657 43.3275C122.301 43.514 121.901 43.6072 121.456 43.6072C121.001 43.6072 120.597 43.5177 120.244 43.3387C119.891 43.1598 119.604 42.9124 119.383 42.5967C119.162 42.2785 119.024 41.9131 118.969 41.5005H120.106C120.181 41.8286 120.332 42.0946 120.561 42.2984C120.792 42.4998 121.091 42.6004 121.456 42.6004C122.015 42.6004 122.452 42.3568 122.765 41.8696C123.078 41.3799 123.236 40.6963 123.238 39.8188H123.179C123.049 40.0326 122.888 40.2166 122.694 40.3707C122.503 40.5248 122.288 40.6441 122.049 40.7286C121.81 40.8132 121.555 40.8554 121.285 40.8554C120.845 40.8554 120.444 40.7473 120.084 40.531C119.723 40.3148 119.436 40.0177 119.223 39.6399C119.009 39.262 118.902 38.8307 118.902 38.346C118.902 37.8638 119.011 37.4263 119.23 37.0335C119.451 36.6408 119.76 36.33 120.155 36.1013C120.552 35.8702 121.019 35.7571 121.553 35.762ZM121.557 36.7315C121.266 36.7315 121.004 36.8036 120.77 36.9477C120.539 37.0894 120.356 37.2821 120.222 37.5257C120.088 37.7668 120.021 38.0353 120.021 38.3311C120.021 38.6269 120.085 38.8954 120.214 39.1365C120.346 39.3751 120.525 39.5653 120.751 39.707C120.98 39.8462 121.241 39.9158 121.534 39.9158C121.753 39.9158 121.957 39.8735 122.146 39.789C122.335 39.7045 122.5 39.5877 122.642 39.4385C122.783 39.2869 122.894 39.1154 122.974 38.924C123.053 38.7326 123.093 38.5312 123.093 38.3199C123.093 38.039 123.026 37.778 122.892 37.5369C122.76 37.2958 122.578 37.1019 122.347 36.9552C122.116 36.8061 121.853 36.7315 121.557 36.7315Z" fill="white"/>
<path d="M111.637 12.1627H116.934V21.6681H111.637V12.1627Z" fill="#FF5F00"/>
<path d="M108.055 26.4526V25.445C108.055 25.0586 107.82 24.8068 107.416 24.8068C107.214 24.8068 106.996 24.874 106.844 25.0923C106.727 24.9075 106.558 24.8068 106.306 24.8068C106.138 24.8068 105.97 24.8571 105.835 25.0419V24.8404H105.482V26.4526H105.835V25.5625C105.835 25.277 105.987 25.1426 106.222 25.1426C106.458 25.1426 106.575 25.2938 106.575 25.5625V26.4526H106.928V25.5625C106.928 25.277 107.097 25.1426 107.315 25.1426C107.551 25.1426 107.668 25.2938 107.668 25.5625V26.4526H108.055ZM113.285 24.8404H112.713V24.3534H112.36V24.8404H112.041V25.1594H112.36V25.8984C112.36 26.2679 112.512 26.4862 112.915 26.4862C113.067 26.4862 113.235 26.4358 113.353 26.3687L113.252 26.0663C113.151 26.1335 113.033 26.1503 112.949 26.1503C112.781 26.1503 112.713 26.0496 112.713 25.8816V25.1594H113.285V24.8404ZM116.279 24.8067C116.077 24.8067 115.942 24.9075 115.858 25.0419V24.8404H115.505V26.4526H115.858V25.5457C115.858 25.277 115.976 25.1259 116.195 25.1259C116.262 25.1259 116.346 25.1427 116.413 25.1595L116.514 24.8236C116.447 24.8068 116.346 24.8068 116.279 24.8068V24.8067ZM111.755 24.9747C111.587 24.8571 111.351 24.8068 111.099 24.8068C110.695 24.8068 110.426 25.0083 110.426 25.3274C110.426 25.5961 110.628 25.7472 110.981 25.7976L111.149 25.8145C111.334 25.848 111.435 25.8984 111.435 25.9824C111.435 26.0999 111.301 26.1839 111.065 26.1839C110.83 26.1839 110.645 26.0999 110.527 26.016L110.359 26.2847C110.544 26.419 110.796 26.4862 111.049 26.4862C111.519 26.4862 111.789 26.2679 111.789 25.9656C111.789 25.6801 111.57 25.5289 111.234 25.4786L111.065 25.4617C110.914 25.4449 110.796 25.4114 110.796 25.3106C110.796 25.193 110.914 25.1259 111.099 25.1259C111.301 25.1259 111.503 25.2098 111.604 25.2602L111.755 24.9747ZM121.139 24.8068C120.937 24.8068 120.802 24.9075 120.718 25.0419V24.8404H120.365V26.4526H120.718V25.5457C120.718 25.277 120.836 25.1259 121.055 25.1259C121.122 25.1259 121.206 25.1427 121.273 25.1595L121.374 24.8236C121.307 24.8068 121.206 24.8068 121.139 24.8068ZM116.632 25.6465C116.632 26.1335 116.968 26.4862 117.489 26.4862C117.725 26.4862 117.893 26.4358 118.061 26.3015L117.893 26.016C117.759 26.1167 117.624 26.1671 117.473 26.1671C117.187 26.1671 116.985 25.9656 116.985 25.6465C116.985 25.3442 117.187 25.1426 117.473 25.1259C117.624 25.1259 117.759 25.1762 117.893 25.277L118.061 24.9915C117.893 24.8571 117.725 24.8068 117.489 24.8068C116.968 24.8068 116.632 25.1595 116.632 25.6465ZM119.894 25.6465V24.8404H119.541V25.0419C119.423 24.8908 119.255 24.8068 119.037 24.8068C118.583 24.8068 118.229 25.1595 118.229 25.6465C118.229 26.1335 118.583 26.4862 119.037 26.4862C119.272 26.4862 119.44 26.4022 119.541 26.2511V26.4526H119.894V25.6465ZM118.599 25.6465C118.599 25.361 118.784 25.1259 119.087 25.1259C119.373 25.1259 119.575 25.3442 119.575 25.6465C119.575 25.932 119.373 26.1671 119.087 26.1671C118.784 26.1502 118.599 25.932 118.599 25.6465ZM114.378 24.8068C113.907 24.8068 113.571 25.1426 113.571 25.6465C113.571 26.1503 113.907 26.4862 114.395 26.4862C114.631 26.4862 114.866 26.419 115.051 26.2679L114.883 26.016C114.748 26.1167 114.58 26.1839 114.412 26.1839C114.193 26.1839 113.975 26.0831 113.924 25.7976H115.118V25.6633C115.135 25.1426 114.832 24.8068 114.378 24.8068H114.378ZM114.378 25.109C114.597 25.109 114.748 25.2435 114.782 25.4954H113.941C113.975 25.277 114.126 25.109 114.378 25.109ZM123.14 25.6465V24.2022H122.787V25.0419C122.669 24.8908 122.501 24.8068 122.282 24.8068C121.828 24.8068 121.475 25.1595 121.475 25.6465C121.475 26.1335 121.828 26.4862 122.282 26.4862C122.518 26.4862 122.686 26.4022 122.787 26.2511V26.4526H123.14V25.6465ZM121.845 25.6465C121.845 25.361 122.03 25.1259 122.333 25.1259C122.619 25.1259 122.82 25.3442 122.82 25.6465C122.82 25.932 122.619 26.1671 122.333 26.1671C122.03 26.1502 121.845 25.932 121.845 25.6465ZM110.04 25.6465V24.8404H109.686V25.0419C109.569 24.8908 109.401 24.8068 109.182 24.8068C108.728 24.8068 108.375 25.1595 108.375 25.6465C108.375 26.1335 108.728 26.4862 109.182 26.4862C109.417 26.4862 109.586 26.4022 109.686 26.2511V26.4526H110.04V25.6465ZM108.728 25.6465C108.728 25.361 108.913 25.1259 109.215 25.1259C109.501 25.1259 109.703 25.3442 109.703 25.6465C109.703 25.932 109.501 26.1671 109.215 26.1671C108.913 26.1502 108.728 25.932 108.728 25.6465Z" fill="white"/>
<path d="M111.973 16.9154C111.973 14.9841 112.881 13.2711 114.277 12.1627C113.251 11.3566 111.957 10.8696 110.544 10.8696C107.197 10.8696 104.49 13.5734 104.49 16.9154C104.49 20.2574 107.197 22.9613 110.544 22.9613C111.956 22.9613 113.251 22.4743 114.277 21.6681C112.881 20.5765 111.973 18.8467 111.973 16.9154Z" fill="#EB001B"/>
<path d="M124.081 16.9154C124.081 20.2574 121.374 22.9613 118.027 22.9613C116.615 22.9613 115.32 22.4743 114.294 21.6681C115.707 20.5598 116.598 18.8467 116.598 16.9154C116.598 14.9841 115.69 13.2711 114.294 12.1627C115.32 11.3566 116.615 10.8696 118.027 10.8696C121.374 10.8696 124.081 13.5902 124.081 16.9154H124.081Z" fill="#F79E1B"/>
<rect x="18.9385" y="17.676" width="20.8324" height="13.8883" rx="3.15642" fill="url(#paint1_radial_1533_26104)"/>
<path fill-rule="evenodd" clip-rule="evenodd" d="M29.3545 17.8142L27.0398 21.4436C27.0398 21.4436 27.9657 24.6194 27.0398 27.3415L29.3545 31.4247L31.6692 27.3415C31.6692 27.3415 30.7433 25.0731 31.6692 21.4436C31.6692 21.4436 29.3545 17.8142 29.3545 17.8142Z" stroke="#C7C7B6" stroke-width="0.82067" stroke-linejoin="bevel"/>
<path d="M18.9385 21.6104H27.04" stroke="#C7C7B6" stroke-width="0.82067" stroke-linejoin="bevel"/>
<path d="M31.4377 21.6104H39.7707" stroke="#C7C7B6" stroke-width="0.82067" stroke-linejoin="bevel"/>
<path d="M18.9385 27.1655H27.04" stroke="#C7C7B6" stroke-width="0.82067" stroke-linejoin="bevel"/>
<path d="M31.4377 27.1655H39.7707" stroke="#C7C7B6" stroke-width="0.82067" stroke-linejoin="bevel"/>
<g clip-path="url(#clip0_1533_26104)">
<path d="M24.8137 56.0584V62.486H24.0605L20.5579 57.4393H20.4952V62.486H19.7168V56.0584H20.4701L23.9852 61.1176H24.0479V56.0584H24.8137ZM26.2708 62.486V57.6653H27.0115V62.486H26.2708ZM26.6474 56.8619C26.503 56.8619 26.3785 56.8127 26.2739 56.7143C26.1714 56.616 26.1201 56.4978 26.1201 56.3597C26.1201 56.2216 26.1714 56.1034 26.2739 56.005C26.3785 55.9067 26.503 55.8575 26.6474 55.8575C26.7918 55.8575 26.9152 55.9067 27.0177 56.005C27.1224 56.1034 27.1747 56.2216 27.1747 56.3597C27.1747 56.4978 27.1224 56.616 27.0177 56.7143C26.9152 56.8127 26.7918 56.8619 26.6474 56.8619ZM30.3265 62.5865C29.8745 62.5865 29.4854 62.4797 29.159 62.2663C28.8326 62.0529 28.5815 61.7589 28.4057 61.3844C28.23 61.0099 28.1421 60.582 28.1421 60.1008C28.1421 59.6112 28.2321 59.1791 28.412 58.8046C28.594 58.428 28.8472 58.134 29.1715 57.9227C29.4979 57.7092 29.8787 57.6025 30.3139 57.6025C30.6529 57.6025 30.9584 57.6653 31.2304 57.7908C31.5024 57.9164 31.7252 58.0921 31.8989 58.3181C32.0725 58.5441 32.1803 58.8077 32.2221 59.109H31.4815C31.425 58.8893 31.2994 58.6947 31.1048 58.5253C30.9123 58.3537 30.6529 58.2679 30.3265 58.2679C30.0377 58.2679 29.7846 58.3432 29.567 58.4939C29.3515 58.6424 29.183 58.8527 29.0617 59.1247C28.9424 59.3946 28.8828 59.7116 28.8828 60.0757C28.8828 60.4481 28.9414 60.7724 29.0585 61.0486C29.1778 61.3248 29.3452 61.5392 29.5607 61.692C29.7783 61.8447 30.0336 61.9211 30.3265 61.9211C30.519 61.9211 30.6937 61.8876 30.8506 61.8207C31.0075 61.7537 31.1404 61.6575 31.2492 61.5319C31.358 61.4064 31.4354 61.2557 31.4815 61.08H32.2221C32.1803 61.3645 32.0767 61.6208 31.9114 61.8489C31.7482 62.0749 31.5317 62.2548 31.2618 62.3887C30.9939 62.5206 30.6822 62.5865 30.3265 62.5865ZM35.2633 62.5865C34.8281 62.5865 34.4463 62.4829 34.1178 62.2757C33.7914 62.0686 33.5361 61.7788 33.352 61.4064C33.17 61.034 33.0789 60.5987 33.0789 60.1008C33.0789 59.5986 33.17 59.1603 33.352 58.7857C33.5361 58.4112 33.7914 58.1204 34.1178 57.9132C34.4463 57.7061 34.8281 57.6025 35.2633 57.6025C35.6985 57.6025 36.0793 57.7061 36.4057 57.9132C36.7342 58.1204 36.9895 58.4112 37.1715 58.7857C37.3557 59.1603 37.4477 59.5986 37.4477 60.1008C37.4477 60.5987 37.3557 61.034 37.1715 61.4064C36.9895 61.7788 36.7342 62.0686 36.4057 62.2757C36.0793 62.4829 35.6985 62.5865 35.2633 62.5865ZM35.2633 61.9211C35.5939 61.9211 35.8659 61.8364 36.0793 61.6669C36.2928 61.4974 36.4507 61.2746 36.5533 60.9984C36.6558 60.7222 36.707 60.423 36.707 60.1008C36.707 59.7786 36.6558 59.4783 36.5533 59.2C36.4507 58.9217 36.2928 58.6968 36.0793 58.5253C35.8659 58.3537 35.5939 58.2679 35.2633 58.2679C34.9327 58.2679 34.6607 58.3537 34.4473 58.5253C34.2339 58.6968 34.0759 58.9217 33.9734 59.2C33.8709 59.4783 33.8196 59.7786 33.8196 60.1008C33.8196 60.423 33.8709 60.7222 33.9734 60.9984C34.0759 61.2746 34.2339 61.4974 34.4473 61.6669C34.6607 61.8364 34.9327 61.9211 35.2633 61.9211ZM41.1645 62.486V56.0584H43.3363C43.8385 56.0584 44.2507 56.1442 44.5729 56.3158C44.8951 56.4852 45.1336 56.7185 45.2885 57.0156C45.4433 57.3127 45.5207 57.6507 45.5207 58.0294C45.5207 58.4081 45.4433 58.7439 45.2885 59.0368C45.1336 59.3298 44.8961 59.5599 44.576 59.7273C44.2559 59.8926 43.8468 59.9752 43.3489 59.9752H41.5913V59.2722H43.3238C43.6669 59.2722 43.9431 59.222 44.1523 59.1216C44.3636 59.0211 44.5164 58.8789 44.6105 58.6947C44.7068 58.5085 44.7549 58.2867 44.7549 58.0294C44.7549 57.772 44.7068 57.5471 44.6105 57.3546C44.5143 57.1621 44.3605 57.0135 44.1492 56.9089C43.9379 56.8022 43.6585 56.7489 43.3112 56.7489H41.9428V62.486H41.1645ZM44.19 59.5986L45.7718 62.486H44.8679L43.3112 59.5986H44.19ZM48.6239 62.5865C48.1887 62.5865 47.8068 62.4829 47.4783 62.2757C47.1519 62.0686 46.8967 61.7788 46.7125 61.4064C46.5305 61.034 46.4395 60.5987 46.4395 60.1008C46.4395 59.5986 46.5305 59.1603 46.7125 58.7857C46.8967 58.4112 47.1519 58.1204 47.4783 57.9132C47.8068 57.7061 48.1887 57.6025 48.6239 57.6025C49.0591 57.6025 49.4399 57.7061 49.7663 57.9132C50.0948 58.1204 50.3501 58.4112 50.5321 58.7857C50.7162 59.1603 50.8083 59.5986 50.8083 60.1008C50.8083 60.5987 50.7162 61.034 50.5321 61.4064C50.3501 61.7788 50.0948 62.0686 49.7663 62.2757C49.4399 62.4829 49.0591 62.5865 48.6239 62.5865ZM48.6239 61.9211C48.9545 61.9211 49.2265 61.8364 49.4399 61.6669C49.6533 61.4974 49.8113 61.2746 49.9138 60.9984C50.0163 60.7222 50.0676 60.423 50.0676 60.1008C50.0676 59.7786 50.0163 59.4783 49.9138 59.2C49.8113 58.9217 49.6533 58.6968 49.4399 58.5253C49.2265 58.3537 48.9545 58.2679 48.6239 58.2679C48.2933 58.2679 48.0213 58.3537 47.8079 58.5253C47.5945 58.6968 47.4365 58.9217 47.334 59.2C47.2314 59.4783 47.1802 59.7786 47.1802 60.1008C47.1802 60.423 47.2314 60.7222 47.334 60.9984C47.4365 61.2746 47.5945 61.4974 47.8079 61.6669C48.0213 61.8364 48.2933 61.9211 48.6239 61.9211ZM52.0394 62.486V56.0584H52.78V58.4311H52.8428C52.8972 58.3474 52.9725 58.2407 53.0688 58.111C53.1671 57.9792 53.3073 57.862 53.4893 57.7595C53.6735 57.6548 53.9224 57.6025 54.2363 57.6025C54.6422 57.6025 55 57.704 55.3097 57.907C55.6193 58.1099 55.861 58.3976 56.0346 58.7701C56.2083 59.1425 56.2951 59.5819 56.2951 60.0882C56.2951 60.5987 56.2083 61.0413 56.0346 61.4158C55.861 61.7882 55.6204 62.077 55.3128 62.282C55.0052 62.485 54.6506 62.5865 54.2488 62.5865C53.9392 62.5865 53.6912 62.5352 53.505 62.4327C53.3188 62.3281 53.1755 62.2098 53.0751 62.078C52.9746 61.9441 52.8972 61.8332 52.8428 61.7453H52.7549V62.486H52.0394ZM52.7675 60.0757C52.7675 60.4397 52.8208 60.7609 52.9275 61.0392C53.0343 61.3154 53.1901 61.5319 53.3952 61.6889C53.6002 61.8437 53.8513 61.9211 54.1484 61.9211C54.4581 61.9211 54.7165 61.8395 54.9236 61.6763C55.1329 61.511 55.2898 61.2892 55.3944 61.0109C55.5011 60.7306 55.5545 60.4188 55.5545 60.0757C55.5545 59.7367 55.5022 59.4312 55.3975 59.1592C55.295 58.8851 55.1391 58.6686 54.9299 58.5096C54.7228 58.3485 54.4623 58.2679 54.1484 58.2679C53.8471 58.2679 53.5939 58.3443 53.3889 58.497C53.1839 58.6477 53.029 58.859 52.9244 59.131C52.8198 59.4009 52.7675 59.7158 52.7675 60.0757ZM57.4281 62.486V57.6653H58.1688V62.486H57.4281ZM57.8048 56.8619C57.6604 56.8619 57.5359 56.8127 57.4313 56.7143C57.3288 56.616 57.2775 56.4978 57.2775 56.3597C57.2775 56.2216 57.3288 56.1034 57.4313 56.005C57.5359 55.9067 57.6604 55.8575 57.8048 55.8575C57.9491 55.8575 58.0726 55.9067 58.1751 56.005C58.2797 56.1034 58.332 56.2216 58.332 56.3597C58.332 56.4978 58.2797 56.616 58.1751 56.7143C58.0726 56.8127 57.9491 56.8619 57.8048 56.8619ZM60.2661 59.5861V62.486H59.5254V57.6653H60.241V58.4185H60.3038C60.4168 58.1737 60.5883 57.9771 60.8185 57.8285C61.0486 57.6779 61.3458 57.6025 61.7098 57.6025C62.0362 57.6025 62.3218 57.6695 62.5666 57.8034C62.8114 57.9352 63.0018 58.1361 63.1378 58.406C63.2738 58.6738 63.3418 59.0128 63.3418 59.4229V62.486H62.6012V59.4731C62.6012 59.0944 62.5028 58.7993 62.3061 58.588C62.1095 58.3746 61.8395 58.2679 61.4964 58.2679C61.26 58.2679 61.0486 58.3192 60.8624 58.4217C60.6783 58.5242 60.5329 58.6738 60.4262 58.8705C60.3195 59.0672 60.2661 59.3057 60.2661 59.5861Z" fill="white"/>
<path opacity="0.501883" d="M24.039 47.8603H23.3718C23.3324 47.6684 23.2633 47.4998 23.1647 47.3546C23.0678 47.2093 22.9495 47.0874 22.8096 46.9887C22.6715 46.8883 22.5181 46.813 22.3496 46.7628C22.181 46.7125 22.0052 46.6874 21.8223 46.6874C21.4887 46.6874 21.1865 46.7717 20.9157 46.9403C20.6467 47.1089 20.4324 47.3573 20.2728 47.6855C20.115 48.0137 20.0361 48.4163 20.0361 48.8933C20.0361 49.3704 20.115 49.773 20.2728 50.1012C20.4324 50.4294 20.6467 50.6778 20.9157 50.8464C21.1865 51.015 21.4887 51.0992 21.8223 51.0992C22.0052 51.0992 22.181 51.0741 22.3496 51.0239C22.5181 50.9737 22.6715 50.8993 22.8096 50.8006C22.9495 50.7002 23.0678 50.5774 23.1647 50.4321C23.2633 50.285 23.3324 50.1165 23.3718 49.9264H24.039C23.9888 50.2079 23.8973 50.4599 23.7646 50.6823C23.6319 50.9047 23.4669 51.0939 23.2696 51.2499C23.0723 51.4041 22.8508 51.5216 22.6051 51.6023C22.3612 51.683 22.1003 51.7234 21.8223 51.7234C21.3524 51.7234 20.9346 51.6086 20.5687 51.379C20.2028 51.1495 19.915 50.8231 19.7052 50.3998C19.4953 49.9766 19.3904 49.4744 19.3904 48.8933C19.3904 48.3123 19.4953 47.8101 19.7052 47.3869C19.915 46.9636 20.2028 46.6372 20.5687 46.4077C20.9346 46.1781 21.3524 46.0633 21.8223 46.0633C22.1003 46.0633 22.3612 46.1037 22.6051 46.1844C22.8508 46.2651 23.0723 46.3834 23.2696 46.5395C23.4669 46.6937 23.6319 46.882 23.7646 47.1044C23.8973 47.325 23.9888 47.577 24.039 47.8603ZM26.2469 51.7449C25.9851 51.7449 25.7474 51.6956 25.534 51.5969C25.3206 51.4965 25.1511 51.3521 25.0256 51.1638C24.9 50.9737 24.8373 50.7442 24.8373 50.4751C24.8373 50.2384 24.8839 50.0465 24.9772 49.8994C25.0704 49.7506 25.1951 49.634 25.3511 49.5497C25.5071 49.4654 25.6793 49.4027 25.8676 49.3614C26.0577 49.3184 26.2487 49.2843 26.4406 49.2592C26.6917 49.2269 26.8952 49.2027 27.0512 49.1866C27.2091 49.1686 27.3238 49.139 27.3956 49.0978C27.4691 49.0565 27.5059 48.9848 27.5059 48.8826V48.8611C27.5059 48.5956 27.4332 48.3894 27.288 48.2423C27.1445 48.0953 26.9266 48.0217 26.6343 48.0217C26.3312 48.0217 26.0936 48.0881 25.9214 48.2208C25.7492 48.3535 25.6282 48.4952 25.5582 48.6458L24.9556 48.4306C25.0632 48.1796 25.2067 47.9841 25.3861 47.8442C25.5672 47.7025 25.7645 47.6039 25.9779 47.5483C26.1931 47.4909 26.4047 47.4622 26.6128 47.4622C26.7455 47.4622 26.8979 47.4783 27.0701 47.5106C27.244 47.5411 27.4117 47.6048 27.5731 47.7016C27.7363 47.7985 27.8717 47.9446 27.9793 48.1401C28.087 48.3356 28.1408 48.5974 28.1408 48.9256V51.648H27.5059V51.0885H27.4736C27.4306 51.1782 27.3588 51.2741 27.2584 51.3763C27.158 51.4786 27.0243 51.5655 26.8576 51.6373C26.6908 51.709 26.4872 51.7449 26.2469 51.7449ZM26.3437 51.1746C26.5948 51.1746 26.8064 51.1253 26.9786 51.0266C27.1526 50.928 27.2835 50.8006 27.3714 50.6446C27.461 50.4886 27.5059 50.3245 27.5059 50.1523V49.5713C27.479 49.6035 27.4198 49.6331 27.3283 49.66C27.2387 49.6851 27.1346 49.7076 27.0163 49.7273C26.8997 49.7452 26.7858 49.7614 26.6746 49.7757C26.5652 49.7883 26.4765 49.799 26.4083 49.808C26.2433 49.8295 26.0891 49.8645 25.9456 49.9129C25.8039 49.9595 25.6891 50.0304 25.6013 50.1254C25.5152 50.2187 25.4721 50.346 25.4721 50.5074C25.4721 50.728 25.5537 50.8948 25.7169 51.0078C25.8819 51.119 26.0909 51.1746 26.3437 51.1746ZM29.2995 51.648V47.516H29.9129V48.1401H29.9559C30.0312 47.9357 30.1675 47.7698 30.3648 47.6424C30.5621 47.5151 30.7845 47.4514 31.032 47.4514C31.0786 47.4514 31.1369 47.4523 31.2068 47.4541C31.2768 47.4559 31.3297 47.4586 31.3656 47.4622V48.1078C31.344 48.1024 31.2947 48.0944 31.2176 48.0836C31.1423 48.0711 31.0625 48.0648 30.9782 48.0648C30.7773 48.0648 30.598 48.1069 30.4401 48.1912C30.2841 48.2737 30.1604 48.3885 30.0689 48.5356C29.9792 48.6808 29.9344 48.8467 29.9344 49.0332V51.648H29.2995ZM33.5526 51.7341C33.2083 51.7341 32.9043 51.6471 32.6407 51.4732C32.377 51.2974 32.1708 51.0499 32.0219 50.7307C31.8731 50.4097 31.7987 50.0304 31.7987 49.5928C31.7987 49.1588 31.8731 48.7821 32.0219 48.4629C32.1708 48.1437 32.3779 47.8971 32.6434 47.7231C32.9088 47.5492 33.2155 47.4622 33.5634 47.4622C33.8324 47.4622 34.0449 47.507 34.201 47.5967C34.3588 47.6846 34.4789 47.785 34.5614 47.898C34.6457 48.0092 34.7112 48.1006 34.7578 48.1724H34.8116V46.1386H35.4465V51.648H34.8331V51.0132H34.7578C34.7112 51.0885 34.6448 51.1835 34.5587 51.2983C34.4727 51.4113 34.3498 51.5126 34.1902 51.6023C34.0306 51.6902 33.8181 51.7341 33.5526 51.7341ZM33.6387 51.1638C33.8934 51.1638 34.1086 51.0975 34.2843 50.9647C34.4601 50.8302 34.5937 50.6446 34.6852 50.4079C34.7766 50.1694 34.8224 49.8941 34.8224 49.582C34.8224 49.2735 34.7775 49.0036 34.6879 48.7723C34.5982 48.5391 34.4655 48.358 34.2897 48.2289C34.114 48.098 33.897 48.0325 33.6387 48.0325C33.3697 48.0325 33.1455 48.1015 32.9662 48.2396C32.7886 48.3759 32.655 48.5616 32.5654 48.7965C32.4775 49.0296 32.4335 49.2915 32.4335 49.582C32.4335 49.8761 32.4784 50.1434 32.568 50.3837C32.6595 50.6222 32.794 50.8123 32.9716 50.954C33.1509 51.0939 33.3733 51.1638 33.6387 51.1638ZM38.9141 51.648V46.1386H39.5812V48.592H42.5188V46.1386H43.186V51.648H42.5188V49.1839H39.5812V51.648H38.9141ZM46.1142 51.7341C45.7412 51.7341 45.4139 51.6453 45.1323 51.4678C44.8525 51.2902 44.6337 51.0419 44.4759 50.7226C44.3199 50.4034 44.2419 50.0304 44.2419 49.6035C44.2419 49.1731 44.3199 48.7974 44.4759 48.4764C44.6337 48.1553 44.8525 47.9061 45.1323 47.7285C45.4139 47.551 45.7412 47.4622 46.1142 47.4622C46.4872 47.4622 46.8136 47.551 47.0934 47.7285C47.375 47.9061 47.5938 48.1553 47.7498 48.4764C47.9076 48.7974 47.9865 49.1731 47.9865 49.6035C47.9865 50.0304 47.9076 50.4034 47.7498 50.7226C47.5938 51.0419 47.375 51.2902 47.0934 51.4678C46.8136 51.6453 46.4872 51.7341 46.1142 51.7341ZM46.1142 51.1638C46.3976 51.1638 46.6307 51.0912 46.8136 50.9459C46.9966 50.8006 47.132 50.6096 47.2199 50.3729C47.3077 50.1362 47.3517 49.8797 47.3517 49.6035C47.3517 49.3273 47.3077 49.07 47.2199 48.8315C47.132 48.5929 46.9966 48.4001 46.8136 48.2531C46.6307 48.106 46.3976 48.0325 46.1142 48.0325C45.8309 48.0325 45.5977 48.106 45.4148 48.2531C45.2319 48.4001 45.0964 48.5929 45.0086 48.8315C44.9207 49.07 44.8768 49.3273 44.8768 49.6035C44.8768 49.8797 44.9207 50.1362 45.0086 50.3729C45.0964 50.6096 45.2319 50.8006 45.4148 50.9459C45.5977 51.0912 45.8309 51.1638 46.1142 51.1638ZM49.5905 46.1386V51.648H48.9557V46.1386H49.5905ZM52.3136 51.7341C51.9693 51.7341 51.6653 51.6471 51.4017 51.4732C51.138 51.2974 50.9318 51.0499 50.7829 50.7307C50.6341 50.4097 50.5597 50.0304 50.5597 49.5928C50.5597 49.1588 50.6341 48.7821 50.7829 48.4629C50.9318 48.1437 51.1389 47.8971 51.4044 47.7231C51.6698 47.5492 51.9765 47.4622 52.3244 47.4622C52.5934 47.4622 52.8059 47.507 52.962 47.5967C53.1198 47.6846 53.2399 47.785 53.3224 47.898C53.4067 48.0092 53.4722 48.1006 53.5188 48.1724H53.5726V46.1386H54.2075V51.648H53.5941V51.0132H53.5188C53.4722 51.0885 53.4058 51.1835 53.3197 51.2983C53.2337 51.4113 53.1108 51.5126 52.9512 51.6023C52.7916 51.6902 52.5791 51.7341 52.3136 51.7341ZM52.3997 51.1638C52.6544 51.1638 52.8696 51.0975 53.0453 50.9647C53.2211 50.8302 53.3547 50.6446 53.4462 50.4079C53.5376 50.1694 53.5834 49.8941 53.5834 49.582C53.5834 49.2735 53.5385 49.0036 53.4489 48.7723C53.3592 48.5391 53.2265 48.358 53.0507 48.2289C52.875 48.098 52.658 48.0325 52.3997 48.0325C52.1307 48.0325 51.9065 48.1015 51.7272 48.2396C51.5496 48.3759 51.416 48.5616 51.3263 48.7965C51.2385 49.0296 51.1945 49.2915 51.1945 49.582C51.1945 49.8761 51.2394 50.1434 51.329 50.3837C51.4205 50.6222 51.555 50.8123 51.7326 50.954C51.9119 51.0939 52.1343 51.1638 52.3997 51.1638ZM57.1908 51.7341C56.7927 51.7341 56.4493 51.6462 56.1605 51.4705C55.8736 51.2929 55.6521 51.0454 55.4961 50.728C55.3418 50.4088 55.2647 50.0375 55.2647 49.6143C55.2647 49.191 55.3418 48.818 55.4961 48.4952C55.6521 48.1706 55.8691 47.9177 56.1471 47.7366C56.4268 47.5537 56.7532 47.4622 57.1263 47.4622C57.3415 47.4622 57.554 47.4981 57.7638 47.5698C57.9737 47.6415 58.1647 47.7581 58.3368 47.9195C58.509 48.0791 58.6462 48.2907 58.7484 48.5544C58.8507 48.818 58.9018 49.1426 58.9018 49.5282V49.7972H55.7166V49.2484H58.2561C58.2561 49.0153 58.2095 48.8073 58.1162 48.6243C58.0248 48.4414 57.8939 48.297 57.7235 48.1912C57.5549 48.0854 57.3558 48.0325 57.1263 48.0325C56.8734 48.0325 56.6546 48.0953 56.4699 48.2208C56.287 48.3446 56.1462 48.506 56.0475 48.705C55.9489 48.9041 55.8996 49.1175 55.8996 49.3453V49.7111C55.8996 50.0232 55.9534 50.2877 56.061 50.5047C56.1704 50.7199 56.3219 50.884 56.5156 50.997C56.7093 51.1082 56.9344 51.1638 57.1908 51.1638C57.3576 51.1638 57.5083 51.1405 57.6428 51.0939C57.7791 51.0454 57.8966 50.9737 57.9952 50.8787C58.0938 50.7818 58.1701 50.6617 58.2239 50.5182L58.8372 50.6903C58.7726 50.8984 58.6641 51.0813 58.5117 51.2391C58.3593 51.3952 58.1709 51.5171 57.9468 51.605C57.7226 51.6911 57.4706 51.7341 57.1908 51.7341ZM59.8675 51.648V47.516H60.4809V48.1401H60.5239C60.5992 47.9357 60.7355 47.7698 60.9328 47.6424C61.1301 47.5151 61.3525 47.4514 61.6 47.4514C61.6466 47.4514 61.7049 47.4523 61.7748 47.4541C61.8448 47.4559 61.8977 47.4586 61.9335 47.4622V48.1078C61.912 48.1024 61.8627 48.0944 61.7856 48.0836C61.7103 48.0711 61.6305 48.0648 61.5462 48.0648C61.3453 48.0648 61.166 48.1069 61.0081 48.1912C60.8521 48.2737 60.7284 48.3885 60.6369 48.5356C60.5472 48.6808 60.5024 48.8467 60.5024 49.0332V51.648H59.8675Z" fill="white"/>
</g>
<defs>
<linearGradient id="paint0_linear_1533_26104" x1="69.0443" y1="-13.2632" x2="71.959" y2="90.0157" gradientUnits="userSpaceOnUse">
<stop stop-color="#9C2CF3"/>
<stop offset="1" stop-color="#3A49F9"/>
</linearGradient>
<radialGradient id="paint1_radial_1533_26104" cx="0" cy="0" r="1" gradientUnits="userSpaceOnUse" gradientTransform="translate(30.9015 22.735) rotate(141.302) scale(14.1218 14.0147)">
<stop stop-color="white"/>
<stop offset="1" stop-color="#DDDCDA"/>
</radialGradient>
<clipPath id="clip0_1533_26104">
<rect width="65.0223" height="22.7263" fill="white" transform="translate(18.9385 42.1229)"/>
</clipPath>
</defs>
</svg>
