<svg width="136" height="80" viewBox="0 0 136 80" fill="none" xmlns="http://www.w3.org/2000/svg">
<rect width="135.385" height="80" rx="12" fill="url(#paint0_linear_1533_26052)"/>
<mask id="mask0_1533_26052" style="mask-type:alpha" maskUnits="userSpaceOnUse" x="0" y="0" width="136" height="80">
<rect width="135.385" height="80" rx="18.7632" fill="#ED713C"/>
</mask>
<g mask="url(#mask0_1533_26052)">
<ellipse opacity="0.1" cx="15.3233" cy="133.218" rx="100.383" ry="70.6746" fill="black"/>
<ellipse opacity="0.08" cx="181.69" cy="-18.1377" rx="100.383" ry="70.6746" fill="black"/>
</g>
<path d="M92.7151 62.4162C92.2238 62.4142 91.8041 62.2846 91.4558 62.0276C91.1075 61.7705 90.8412 61.3963 90.6567 60.905C90.4722 60.4138 90.3799 59.8219 90.3799 59.1296C90.3799 58.4393 90.4722 57.8495 90.6567 57.3603C90.8432 56.8711 91.1107 56.498 91.4589 56.2409C91.8092 55.9839 92.228 55.8553 92.7151 55.8553C93.2023 55.8553 93.62 55.9849 93.9682 56.244C94.3165 56.5011 94.5828 56.8742 94.7673 57.3634C94.9539 57.8506 95.0472 58.4393 95.0472 59.1296C95.0472 59.824 94.9549 60.4169 94.7704 60.9082C94.586 61.3974 94.3196 61.7715 93.9713 62.0307C93.6231 62.2877 93.2043 62.4162 92.7151 62.4162ZM92.7151 61.586C93.1463 61.586 93.4831 61.3756 93.7257 60.9548C93.9703 60.534 94.0926 59.9256 94.0926 59.1296C94.0926 58.601 94.0366 58.1542 93.9247 57.7894C93.8148 57.4225 93.6562 57.1447 93.4489 56.9561C93.2437 56.7654 92.9991 56.67 92.7151 56.67C92.286 56.67 91.9492 56.8815 91.7046 57.3043C91.4599 57.7272 91.3366 58.3356 91.3345 59.1296C91.3345 59.6602 91.3895 60.109 91.4993 60.4759C91.6113 60.8408 91.7698 61.1175 91.9751 61.3062C92.1803 61.4927 92.427 61.586 92.7151 61.586ZM98.5805 55.8553C98.8645 55.8574 99.1443 55.9092 99.42 56.0108C99.6957 56.1124 99.9445 56.2782 100.166 56.5083C100.39 56.7384 100.568 57.0494 100.701 57.4411C100.836 57.8309 100.904 58.3159 100.906 58.8964C100.906 59.454 100.85 59.9505 100.738 60.3858C100.626 60.819 100.466 61.1849 100.256 61.4834C100.049 61.7819 99.7973 62.0089 99.5009 62.1644C99.2044 62.3198 98.8707 62.3976 98.4996 62.3976C98.1203 62.3976 97.7834 62.3229 97.4891 62.1737C97.1947 62.0244 96.9553 61.8182 96.7708 61.5549C96.5863 61.2896 96.4713 60.9849 96.4257 60.6407H97.374C97.4362 60.9144 97.5627 61.1362 97.7534 61.3062C97.9462 61.4741 98.1949 61.558 98.4996 61.558C98.9661 61.558 99.3299 61.3549 99.5911 60.9486C99.8522 60.5402 99.9839 59.9701 99.986 59.2384H99.9362C99.8284 59.4167 99.6937 59.5701 99.532 59.6986C99.3724 59.8271 99.193 59.9266 98.994 59.9971C98.795 60.0676 98.5826 60.1028 98.3566 60.1028C97.9897 60.1028 97.656 60.0126 97.3554 59.8323C97.0548 59.652 96.8154 59.4042 96.6371 59.0891C96.4588 58.7741 96.3697 58.4144 96.3697 58.0102C96.3697 57.608 96.4609 57.2432 96.6433 56.9157C96.8278 56.5881 97.0849 56.329 97.4145 56.1383C97.7461 55.9455 98.1348 55.8512 98.5805 55.8553ZM98.5836 56.6638C98.3411 56.6638 98.1224 56.7239 97.9275 56.8441C97.7347 56.9623 97.5824 57.123 97.4704 57.3261C97.3585 57.5272 97.3025 57.7511 97.3025 57.9977C97.3025 58.2444 97.3564 58.4683 97.4642 58.6694C97.5741 58.8684 97.7233 59.027 97.912 59.1451C98.1027 59.2612 98.3203 59.3192 98.5649 59.3192C98.7474 59.3192 98.9173 59.284 99.0749 59.2135C99.2324 59.143 99.3703 59.0456 99.4884 58.9212C99.6066 58.7948 99.6988 58.6518 99.7652 58.4921C99.8315 58.3325 99.8647 58.1646 99.8647 57.9884C99.8647 57.7542 99.8087 57.5365 99.6968 57.3354C99.5869 57.1344 99.4356 56.9727 99.2428 56.8504C99.05 56.726 98.8303 56.6638 98.5836 56.6638ZM104.78 55.6439L102.728 63.2682H101.898L103.95 55.6439H104.78ZM105.87 62.3105V61.614L108.025 59.3814C108.255 59.1389 108.445 58.9264 108.594 58.744C108.745 58.5595 108.858 58.3843 108.933 58.2185C109.008 58.0527 109.045 57.8765 109.045 57.6899C109.045 57.4785 108.995 57.296 108.896 57.1426C108.796 56.9872 108.66 56.868 108.488 56.7851C108.316 56.7001 108.122 56.6576 107.907 56.6576C107.679 56.6576 107.48 56.7042 107.31 56.7975C107.14 56.8908 107.009 57.0224 106.918 57.1924C106.827 57.3624 106.781 57.5614 106.781 57.7894H105.864C105.864 57.4018 105.953 57.0628 106.131 56.7726C106.31 56.4824 106.554 56.2575 106.865 56.0979C107.176 55.9362 107.53 55.8553 107.926 55.8553C108.326 55.8553 108.678 55.9352 108.983 56.0948C109.29 56.2523 109.529 56.4679 109.701 56.7415C109.873 57.0131 109.959 57.3199 109.959 57.6619C109.959 57.8982 109.915 58.1294 109.825 58.3553C109.738 58.5813 109.586 58.8331 109.368 59.1109C109.151 59.3866 108.848 59.7214 108.46 60.1153L107.195 61.4399V61.4865H110.062V62.3105H105.87ZM113.655 62.3976C113.265 62.3976 112.915 62.3229 112.604 62.1737C112.295 62.0224 112.048 61.8151 111.864 61.5518C111.679 61.2885 111.581 60.988 111.568 60.6501H112.501C112.524 60.9237 112.645 61.1486 112.865 61.3248C113.085 61.501 113.348 61.5891 113.655 61.5891C113.899 61.5891 114.116 61.5332 114.305 61.4212C114.495 61.3072 114.645 61.1507 114.752 60.9517C114.862 60.7527 114.917 60.5257 114.917 60.2707C114.917 60.0116 114.861 59.7805 114.749 59.5773C114.637 59.3742 114.483 59.2146 114.286 59.0985C114.091 58.9824 113.867 58.9233 113.614 58.9212C113.422 58.9212 113.228 58.9544 113.033 59.0207C112.838 59.0871 112.681 59.1741 112.56 59.2819L111.68 59.1513L112.038 55.9424H115.539V56.7664H112.837L112.635 58.5481H112.672C112.797 58.4279 112.961 58.3273 113.167 58.2465C113.374 58.1656 113.596 58.1252 113.832 58.1252C114.22 58.1252 114.565 58.2175 114.868 58.402C115.172 58.5865 115.412 58.8383 115.586 59.1576C115.762 59.4747 115.849 59.8396 115.847 60.2521C115.849 60.6646 115.756 61.0325 115.567 61.3559C115.381 61.6793 115.121 61.9343 114.79 62.1208C114.46 62.3053 114.082 62.3976 113.655 62.3976Z" fill="white"/>
<path opacity="0.9" d="M21.5448 42.6331C21.244 42.6331 20.9693 42.5598 20.7207 42.4131C20.4722 42.2639 20.2733 42.0651 20.1242 41.8165C19.9775 41.5679 19.9042 41.2932 19.9042 40.9925C19.9042 40.6892 19.9775 40.4145 20.1242 40.1684C20.2733 39.9198 20.4722 39.7222 20.7207 39.5756C20.9693 39.4264 21.244 39.3518 21.5448 39.3518C21.8481 39.3518 22.1227 39.4264 22.3688 39.5756C22.6174 39.7222 22.815 39.9198 22.9617 40.1684C23.1108 40.4145 23.1854 40.6892 23.1854 40.9925C23.1854 41.2932 23.1108 41.5679 22.9617 41.8165C22.815 42.0651 22.6174 42.2639 22.3688 42.4131C22.1227 42.5598 21.8481 42.6331 21.5448 42.6331ZM27.4151 42.6331C27.1143 42.6331 26.8397 42.5598 26.5911 42.4131C26.3425 42.2639 26.1436 42.0651 25.9945 41.8165C25.8478 41.5679 25.7745 41.2932 25.7745 40.9925C25.7745 40.6892 25.8478 40.4145 25.9945 40.1684C26.1436 39.9198 26.3425 39.7222 26.5911 39.5756C26.8397 39.4264 27.1143 39.3518 27.4151 39.3518C27.7184 39.3518 27.9931 39.4264 28.2392 39.5756C28.4877 39.7222 28.6854 39.9198 28.832 40.1684C28.9812 40.4145 29.0558 40.6892 29.0558 40.9925C29.0558 41.2932 28.9812 41.5679 28.832 41.8165C28.6854 42.0651 28.4877 42.2639 28.2392 42.4131C27.9931 42.5598 27.7184 42.6331 27.4151 42.6331ZM33.2855 42.6331C32.9847 42.6331 32.71 42.5598 32.4614 42.4131C32.2128 42.2639 32.014 42.0651 31.8648 41.8165C31.7182 41.5679 31.6448 41.2932 31.6448 40.9925C31.6448 40.6892 31.7182 40.4145 31.8648 40.1684C32.014 39.9198 32.2128 39.7222 32.4614 39.5756C32.71 39.4264 32.9847 39.3518 33.2855 39.3518C33.5887 39.3518 33.8634 39.4264 34.1095 39.5756C34.3581 39.7222 34.5557 39.9198 34.7024 40.1684C34.8515 40.4145 34.9261 40.6892 34.9261 40.9925C34.9261 41.2932 34.8515 41.5679 34.7024 41.8165C34.5557 42.0651 34.3581 42.2639 34.1095 42.4131C33.8634 42.5598 33.5887 42.6331 33.2855 42.6331ZM39.1558 42.6331C38.855 42.6331 38.5803 42.5598 38.3318 42.4131C38.0832 42.2639 37.8843 42.0651 37.7352 41.8165C37.5885 41.5679 37.5152 41.2932 37.5152 40.9925C37.5152 40.6892 37.5885 40.4145 37.7352 40.1684C37.8843 39.9198 38.0832 39.7222 38.3318 39.5756C38.5803 39.4264 38.855 39.3518 39.1558 39.3518C39.4591 39.3518 39.7337 39.4264 39.9798 39.5756C40.2284 39.7222 40.426 39.9198 40.5727 40.1684C40.7218 40.4145 40.7964 40.6892 40.7964 40.9925C40.7964 41.2932 40.7218 41.5679 40.5727 41.8165C40.426 42.0651 40.2284 42.2639 39.9798 42.4131C39.7337 42.5598 39.4591 42.6331 39.1558 42.6331ZM48.1177 42.6331C47.8169 42.6331 47.5422 42.5598 47.2936 42.4131C47.045 42.2639 46.8462 42.0651 46.697 41.8165C46.5504 41.5679 46.477 41.2932 46.477 40.9925C46.477 40.6892 46.5504 40.4145 46.697 40.1684C46.8462 39.9198 47.045 39.7222 47.2936 39.5756C47.5422 39.4264 47.8169 39.3518 48.1177 39.3518C48.4209 39.3518 48.6956 39.4264 48.9417 39.5756C49.1903 39.7222 49.3879 39.9198 49.5346 40.1684C49.6837 40.4145 49.7583 40.6892 49.7583 40.9925C49.7583 41.2932 49.6837 41.5679 49.5346 41.8165C49.3879 42.0651 49.1903 42.2639 48.9417 42.4131C48.6956 42.5598 48.4209 42.6331 48.1177 42.6331ZM53.988 42.6331C53.6872 42.6331 53.4125 42.5598 53.164 42.4131C52.9154 42.2639 52.7165 42.0651 52.5674 41.8165C52.4207 41.5679 52.3474 41.2932 52.3474 40.9925C52.3474 40.6892 52.4207 40.4145 52.5674 40.1684C52.7165 39.9198 52.9154 39.7222 53.164 39.5756C53.4125 39.4264 53.6872 39.3518 53.988 39.3518C54.2913 39.3518 54.5659 39.4264 54.812 39.5756C55.0606 39.7222 55.2582 39.9198 55.4049 40.1684C55.5541 40.4145 55.6286 40.6892 55.6286 40.9925C55.6286 41.2932 55.5541 41.5679 55.4049 41.8165C55.2582 42.0651 55.0606 42.2639 54.812 42.4131C54.5659 42.5598 54.2913 42.6331 53.988 42.6331ZM59.8583 42.6331C59.5576 42.6331 59.2829 42.5598 59.0343 42.4131C58.7857 42.2639 58.5868 42.0651 58.4377 41.8165C58.291 41.5679 58.2177 41.2932 58.2177 40.9925C58.2177 40.6892 58.291 40.4145 58.4377 40.1684C58.5868 39.9198 58.7857 39.7222 59.0343 39.5756C59.2829 39.4264 59.5576 39.3518 59.8583 39.3518C60.1616 39.3518 60.4363 39.4264 60.6824 39.5756C60.931 39.7222 61.1286 39.9198 61.2752 40.1684C61.4244 40.4145 61.499 40.6892 61.499 40.9925C61.499 41.2932 61.4244 41.5679 61.2752 41.8165C61.1286 42.0651 60.931 42.2639 60.6824 42.4131C60.4363 42.5598 60.1616 42.6331 59.8583 42.6331ZM65.7287 42.6331C65.4279 42.6331 65.1532 42.5598 64.9046 42.4131C64.6561 42.2639 64.4572 42.0651 64.308 41.8165C64.1614 41.5679 64.088 41.2932 64.088 40.9925C64.088 40.6892 64.1614 40.4145 64.308 40.1684C64.4572 39.9198 64.6561 39.7222 64.9046 39.5756C65.1532 39.4264 65.4279 39.3518 65.7287 39.3518C66.0319 39.3518 66.3066 39.4264 66.5527 39.5756C66.8013 39.7222 66.9989 39.9198 67.1456 40.1684C67.2947 40.4145 67.3693 40.6892 67.3693 40.9925C67.3693 41.2932 67.2947 41.5679 67.1456 41.8165C66.9989 42.0651 66.8013 42.2639 66.5527 42.4131C66.3066 42.5598 66.0319 42.6331 65.7287 42.6331ZM74.6905 42.6331C74.3898 42.6331 74.1151 42.5598 73.8665 42.4131C73.6179 42.2639 73.4191 42.0651 73.2699 41.8165C73.1232 41.5679 73.0499 41.2932 73.0499 40.9925C73.0499 40.6892 73.1232 40.4145 73.2699 40.1684C73.4191 39.9198 73.6179 39.7222 73.8665 39.5756C74.1151 39.4264 74.3898 39.3518 74.6905 39.3518C74.9938 39.3518 75.2685 39.4264 75.5146 39.5756C75.7632 39.7222 75.9608 39.9198 76.1074 40.1684C76.2566 40.4145 76.3312 40.6892 76.3312 40.9925C76.3312 41.2932 76.2566 41.5679 76.1074 41.8165C75.9608 42.0651 75.7632 42.2639 75.5146 42.4131C75.2685 42.5598 74.9938 42.6331 74.6905 42.6331ZM80.5609 42.6331C80.2601 42.6331 79.9854 42.5598 79.7368 42.4131C79.4883 42.2639 79.2894 42.0651 79.1402 41.8165C78.9936 41.5679 78.9202 41.2932 78.9202 40.9925C78.9202 40.6892 78.9936 40.4145 79.1402 40.1684C79.2894 39.9198 79.4883 39.7222 79.7368 39.5756C79.9854 39.4264 80.2601 39.3518 80.5609 39.3518C80.8641 39.3518 81.1388 39.4264 81.3849 39.5756C81.6335 39.7222 81.8311 39.9198 81.9778 40.1684C82.1269 40.4145 82.2015 40.6892 82.2015 40.9925C82.2015 41.2932 82.1269 41.5679 81.9778 41.8165C81.8311 42.0651 81.6335 42.2639 81.3849 42.4131C81.1388 42.5598 80.8641 42.6331 80.5609 42.6331ZM86.4312 42.6331C86.1304 42.6331 85.8557 42.5598 85.6072 42.4131C85.3586 42.2639 85.1597 42.0651 85.0106 41.8165C84.8639 41.5679 84.7906 41.2932 84.7906 40.9925C84.7906 40.6892 84.8639 40.4145 85.0106 40.1684C85.1597 39.9198 85.3586 39.7222 85.6072 39.5756C85.8557 39.4264 86.1304 39.3518 86.4312 39.3518C86.7345 39.3518 87.0092 39.4264 87.2553 39.5756C87.5038 39.7222 87.7015 39.9198 87.8481 40.1684C87.9973 40.4145 88.0718 40.6892 88.0718 40.9925C88.0718 41.2932 87.9973 41.5679 87.8481 41.8165C87.7015 42.0651 87.5038 42.2639 87.2553 42.4131C87.0092 42.5598 86.7345 42.6331 86.4312 42.6331ZM92.3015 42.6331C92.0008 42.6331 91.7261 42.5598 91.4775 42.4131C91.2289 42.2639 91.0301 42.0651 90.8809 41.8165C90.7343 41.5679 90.6609 41.2932 90.6609 40.9925C90.6609 40.6892 90.7343 40.4145 90.8809 40.1684C91.0301 39.9198 91.2289 39.7222 91.4775 39.5756C91.7261 39.4264 92.0008 39.3518 92.3015 39.3518C92.6048 39.3518 92.8795 39.4264 93.1256 39.5756C93.3742 39.7222 93.5718 39.9198 93.7185 40.1684C93.8676 40.4145 93.9422 40.6892 93.9422 40.9925C93.9422 41.2932 93.8676 41.5679 93.7185 41.8165C93.5718 42.0651 93.3742 42.2639 93.1256 42.4131C92.8795 42.5598 92.6048 42.6331 92.3015 42.6331ZM101.263 41.8575C100.963 41.8575 100.688 41.7842 100.439 41.6375C100.191 41.4884 99.9919 41.2895 99.8428 41.0409C99.6961 40.7924 99.6228 40.5177 99.6228 40.2169C99.6228 39.9136 99.6961 39.6389 99.8428 39.3928C99.9919 39.1443 100.191 38.9466 100.439 38.8C100.688 38.6508 100.963 38.5763 101.263 38.5763C101.567 38.5763 101.841 38.6508 102.087 38.8C102.336 38.9466 102.534 39.1443 102.68 39.3928C102.829 39.6389 102.904 39.9136 102.904 40.2169C102.904 40.5177 102.829 40.7924 102.68 41.0409C102.534 41.2895 102.336 41.4884 102.087 41.6375C101.841 41.7842 101.567 41.8575 101.263 41.8575ZM105.087 44.0351V43.1998L107.671 40.5226C107.947 40.2318 108.174 39.977 108.353 39.7583C108.534 39.537 108.67 39.327 108.759 39.1281C108.849 38.9292 108.894 38.718 108.894 38.4942C108.894 38.2407 108.834 38.0219 108.715 37.838C108.595 37.6515 108.433 37.5086 108.226 37.4092C108.02 37.3073 107.788 37.2563 107.529 37.2563C107.256 37.2563 107.017 37.3122 106.813 37.4241C106.609 37.536 106.453 37.6938 106.343 37.8976C106.234 38.1015 106.179 38.3401 106.179 38.6136H105.079C105.079 38.1487 105.186 37.7423 105.4 37.3943C105.614 37.0463 105.907 36.7765 106.28 36.5851C106.653 36.3913 107.077 36.2943 107.551 36.2943C108.031 36.2943 108.454 36.39 108.819 36.5814C109.187 36.7703 109.474 37.0289 109.68 37.357C109.887 37.6826 109.99 38.0505 109.99 38.4607C109.99 38.7441 109.936 39.0212 109.83 39.2922C109.725 39.5631 109.542 39.8652 109.281 40.1982C109.02 40.5289 108.658 40.9303 108.193 41.4026L106.675 42.991V43.047H110.113V44.0351H105.087ZM114.419 44.1395C113.885 44.1395 113.412 44.0475 113.002 43.8636C112.595 43.6796 112.275 43.4261 112.044 43.1029C111.813 42.7797 111.698 42.4118 111.701 41.9992C111.698 41.6761 111.764 41.379 111.899 41.108C112.035 40.8346 112.22 40.6072 112.454 40.4257C112.688 40.2417 112.949 40.1249 113.237 40.0752V40.0305C112.857 39.9385 112.552 39.7346 112.324 39.419C112.095 39.1033 111.982 38.7403 111.984 38.3302C111.982 37.9399 112.085 37.5919 112.294 37.2861C112.505 36.9779 112.795 36.7355 113.163 36.559C113.53 36.3826 113.949 36.2943 114.419 36.2943C114.884 36.2943 115.299 36.3838 115.665 36.5628C116.032 36.7393 116.322 36.9816 116.533 37.2899C116.745 37.5956 116.851 37.9424 116.854 38.3302C116.851 38.7403 116.735 39.1033 116.503 39.419C116.272 39.7346 115.972 39.9385 115.601 40.0305V40.0752C115.887 40.1249 116.144 40.2417 116.373 40.4257C116.604 40.6072 116.788 40.8346 116.925 41.108C117.064 41.379 117.135 41.6761 117.137 41.9992C117.135 42.4118 117.018 42.7797 116.787 43.1029C116.556 43.4261 116.235 43.6796 115.825 43.8636C115.417 44.0475 114.949 44.1395 114.419 44.1395ZM114.419 43.1961C114.735 43.1961 115.008 43.1439 115.239 43.0395C115.471 42.9326 115.65 42.7847 115.776 42.5958C115.903 42.4044 115.968 42.1807 115.97 41.9246C115.968 41.6587 115.898 41.4237 115.761 41.2199C115.627 41.0161 115.445 40.8557 115.213 40.7389C114.982 40.6221 114.717 40.5637 114.419 40.5637C114.118 40.5637 113.851 40.6221 113.617 40.7389C113.384 40.8557 113.2 41.0161 113.066 41.2199C112.931 41.4237 112.866 41.6587 112.868 41.9246C112.866 42.1807 112.926 42.4044 113.051 42.5958C113.177 42.7847 113.358 42.9326 113.591 43.0395C113.825 43.1439 114.101 43.1961 114.419 43.1961ZM114.419 39.6427C114.673 39.6427 114.898 39.5917 115.094 39.4898C115.29 39.3879 115.445 39.2462 115.556 39.0647C115.671 38.8833 115.729 38.6707 115.732 38.4271C115.729 38.1885 115.672 37.9797 115.56 37.8007C115.451 37.6217 115.298 37.4838 115.101 37.3868C114.905 37.2874 114.678 37.2377 114.419 37.2377C114.156 37.2377 113.924 37.2874 113.726 37.3868C113.529 37.4838 113.376 37.6217 113.267 37.8007C113.158 37.9797 113.104 38.1885 113.107 38.4271C113.104 38.6707 113.159 38.8833 113.271 39.0647C113.383 39.2462 113.537 39.3879 113.733 39.4898C113.932 39.5917 114.161 39.6427 114.419 39.6427ZM121.325 36.2943C121.666 36.2968 122.001 36.3589 122.332 36.4807C122.662 36.6025 122.961 36.8014 123.227 37.0773C123.495 37.3533 123.709 37.7261 123.868 38.1959C124.03 38.6633 124.112 39.2449 124.114 39.941C124.114 40.6096 124.047 41.205 123.913 41.727C123.779 42.2465 123.586 42.6853 123.335 43.0432C123.086 43.4012 122.784 43.6734 122.429 43.8598C122.073 44.0463 121.673 44.1395 121.228 44.1395C120.773 44.1395 120.369 44.05 120.016 43.871C119.663 43.692 119.376 43.4447 119.155 43.129C118.934 42.8108 118.796 42.4454 118.741 42.0328H119.878C119.953 42.3609 120.105 42.6269 120.333 42.8307C120.564 43.0321 120.863 43.1327 121.228 43.1327C121.787 43.1327 122.224 42.8891 122.537 42.4019C122.85 41.9122 123.008 41.2286 123.01 40.3511H122.951C122.822 40.5649 122.66 40.7489 122.466 40.903C122.275 41.0571 122.06 41.1764 121.821 41.2609C121.582 41.3454 121.328 41.3877 121.057 41.3877C120.617 41.3877 120.216 41.2796 119.856 41.0633C119.496 40.847 119.208 40.55 118.995 40.1721C118.781 39.7943 118.674 39.363 118.674 38.8783C118.674 38.396 118.783 37.9585 119.002 37.5658C119.223 37.173 119.532 36.8623 119.927 36.6336C120.325 36.4024 120.791 36.2893 121.325 36.2943ZM121.329 37.2638C121.038 37.2638 120.776 37.3359 120.542 37.48C120.311 37.6217 120.128 37.8144 119.994 38.058C119.86 38.2991 119.793 38.5676 119.793 38.8634C119.793 39.1592 119.857 39.4277 119.986 39.6688C120.118 39.9074 120.297 40.0976 120.523 40.2393C120.752 40.3785 121.013 40.4481 121.306 40.4481C121.525 40.4481 121.729 40.4058 121.918 40.3213C122.107 40.2368 122.272 40.1199 122.414 39.9708C122.556 39.8192 122.666 39.6476 122.746 39.4562C122.825 39.2648 122.865 39.0635 122.865 38.8522C122.865 38.5713 122.798 38.3103 122.664 38.0692C122.532 37.828 122.35 37.6341 122.119 37.4875C121.888 37.3383 121.625 37.2638 121.329 37.2638Z" fill="white"/>
<path d="M110.206 12.1627H115.435V21.6681H110.206V12.1627Z" fill="#FF5F00"/>
<path d="M106.67 26.4526V25.445C106.67 25.0586 106.437 24.8068 106.039 24.8068C105.84 24.8068 105.624 24.8739 105.475 25.0923C105.358 24.9075 105.192 24.8068 104.943 24.8068C104.777 24.8068 104.611 24.8571 104.479 25.0419V24.8404H104.13V26.4526H104.479V25.5625C104.479 25.277 104.628 25.1426 104.86 25.1426C105.093 25.1426 105.209 25.2938 105.209 25.5625V26.4526H105.558V25.5625C105.558 25.277 105.724 25.1426 105.939 25.1426C106.172 25.1426 106.288 25.2938 106.288 25.5625V26.4526H106.67ZM111.833 24.8404H111.268V24.3534H110.92V24.8404H110.604V25.1594H110.92V25.8984C110.92 26.2679 111.069 26.4861 111.468 26.4861C111.617 26.4861 111.783 26.4358 111.899 26.3686L111.8 26.0663C111.7 26.1335 111.584 26.1503 111.501 26.1503C111.335 26.1503 111.268 26.0495 111.268 25.8816V25.1594H111.833V24.8404ZM114.788 24.8067C114.589 24.8067 114.456 24.9075 114.373 25.0419V24.8404H114.024V26.4526H114.373V25.5457C114.373 25.277 114.489 25.1259 114.705 25.1259C114.771 25.1259 114.854 25.1427 114.921 25.1595L115.02 24.8236C114.954 24.8068 114.854 24.8068 114.788 24.8068V24.8067ZM110.322 24.9747C110.156 24.8571 109.924 24.8068 109.675 24.8068C109.276 24.8068 109.011 25.0083 109.011 25.3274C109.011 25.5961 109.21 25.7472 109.559 25.7976L109.725 25.8145C109.907 25.848 110.007 25.8984 110.007 25.9824C110.007 26.0999 109.874 26.1839 109.642 26.1839C109.409 26.1839 109.226 26.0999 109.11 26.016L108.944 26.2846C109.127 26.419 109.376 26.4861 109.625 26.4861C110.09 26.4861 110.355 26.2679 110.355 25.9656C110.355 25.68 110.14 25.5289 109.808 25.4785L109.642 25.4617C109.492 25.4449 109.376 25.4114 109.376 25.3106C109.376 25.193 109.492 25.1259 109.675 25.1259C109.874 25.1259 110.073 25.2098 110.173 25.2602L110.322 24.9747ZM119.586 24.8068C119.386 24.8068 119.254 24.9075 119.171 25.0419V24.8404H118.822V26.4526H119.171V25.5457C119.171 25.277 119.287 25.1259 119.503 25.1259C119.569 25.1259 119.652 25.1427 119.719 25.1595L119.818 24.8236C119.752 24.8068 119.652 24.8068 119.586 24.8068ZM115.137 25.6465C115.137 26.1335 115.469 26.4861 115.983 26.4861C116.216 26.4861 116.382 26.4358 116.548 26.3015L116.382 26.016C116.249 26.1167 116.116 26.1671 115.967 26.1671C115.684 26.1671 115.485 25.9656 115.485 25.6465C115.485 25.3442 115.684 25.1426 115.967 25.1259C116.116 25.1259 116.249 25.1762 116.382 25.277L116.548 24.9915C116.382 24.8571 116.216 24.8068 115.983 24.8068C115.469 24.8068 115.137 25.1595 115.137 25.6465ZM118.357 25.6465V24.8404H118.009V25.0419C117.892 24.8908 117.726 24.8068 117.511 24.8068C117.062 24.8068 116.714 25.1595 116.714 25.6465C116.714 26.1335 117.062 26.4861 117.511 26.4861C117.743 26.4861 117.909 26.4022 118.009 26.2511V26.4526H118.357V25.6465ZM117.079 25.6465C117.079 25.361 117.262 25.1259 117.56 25.1259C117.843 25.1259 118.042 25.3442 118.042 25.6465C118.042 25.932 117.843 26.1671 117.56 26.1671C117.262 26.1502 117.079 25.932 117.079 25.6465ZM112.912 24.8068C112.447 24.8068 112.115 25.1426 112.115 25.6465C112.115 26.1503 112.447 26.4861 112.929 26.4861C113.161 26.4861 113.393 26.419 113.576 26.2679L113.41 26.016C113.277 26.1167 113.111 26.1839 112.945 26.1839C112.729 26.1839 112.514 26.0831 112.464 25.7976H113.642V25.6633C113.659 25.1426 113.36 24.8068 112.912 24.8068H112.912ZM112.912 25.109C113.128 25.109 113.277 25.2434 113.31 25.4954H112.48C112.514 25.277 112.663 25.109 112.912 25.109ZM121.561 25.6465V24.2022H121.213V25.0419C121.096 24.8908 120.93 24.8068 120.715 24.8068C120.266 24.8068 119.918 25.1595 119.918 25.6465C119.918 26.1335 120.266 26.4861 120.715 26.4861C120.947 26.4861 121.113 26.4022 121.213 26.2511V26.4526H121.561V25.6465ZM120.283 25.6465C120.283 25.361 120.466 25.1259 120.764 25.1259C121.047 25.1259 121.246 25.3442 121.246 25.6465C121.246 25.932 121.047 26.1671 120.764 26.1671C120.466 26.1502 120.283 25.932 120.283 25.6465ZM108.629 25.6465V24.8404H108.28V25.0419C108.164 24.8908 107.998 24.8068 107.782 24.8068C107.334 24.8068 106.985 25.1595 106.985 25.6465C106.985 26.1335 107.334 26.4861 107.782 26.4861C108.015 26.4861 108.181 26.4022 108.28 26.2511V26.4526H108.629V25.6465ZM107.334 25.6465C107.334 25.361 107.517 25.1259 107.815 25.1259C108.098 25.1259 108.297 25.3442 108.297 25.6465C108.297 25.932 108.098 26.1671 107.815 26.1671C107.517 26.1502 107.334 25.932 107.334 25.6465Z" fill="white"/>
<path d="M110.538 16.9154C110.538 14.9841 111.434 13.2711 112.812 12.1627C111.799 11.3566 110.521 10.8695 109.127 10.8695C105.823 10.8695 103.15 13.5733 103.15 16.9154C103.15 20.2574 105.823 22.9613 109.127 22.9613C110.521 22.9613 111.799 22.4743 112.812 21.6681C111.434 20.5765 110.538 18.8467 110.538 16.9154Z" fill="#EB001B"/>
<path d="M122.491 16.9154C122.491 20.2574 119.818 22.9613 116.514 22.9613C115.12 22.9613 113.841 22.4743 112.829 21.6681C114.223 20.5597 115.103 18.8467 115.103 16.9154C115.103 14.9841 114.206 13.2711 112.829 12.1627C113.841 11.3566 115.12 10.8695 116.514 10.8695C119.818 10.8695 122.491 13.5902 122.491 16.9154H122.491Z" fill="#F79E1B"/>
<rect x="18.7632" y="17.5123" width="20.6395" height="13.7596" rx="3.12719" fill="url(#paint1_radial_1533_26052)"/>
<path fill-rule="evenodd" clip-rule="evenodd" d="M29.0828 17.6492L26.7896 21.245C26.7896 21.245 27.7069 24.3914 26.7896 27.0883L29.0828 31.1336L31.3761 27.0883C31.3761 27.0883 30.4588 24.8409 31.3761 21.245C31.3761 21.245 29.0828 17.6492 29.0828 17.6492Z" stroke="#C7C7B6" stroke-width="0.81307" stroke-linejoin="bevel"/>
<path d="M18.7632 21.4102H26.7896" stroke="#C7C7B6" stroke-width="0.81307" stroke-linejoin="bevel"/>
<path d="M31.1467 21.4102H39.4025" stroke="#C7C7B6" stroke-width="0.81307" stroke-linejoin="bevel"/>
<path d="M18.7632 26.9138H26.7896" stroke="#C7C7B6" stroke-width="0.81307" stroke-linejoin="bevel"/>
<path d="M31.1467 26.9138H39.4025" stroke="#C7C7B6" stroke-width="0.81307" stroke-linejoin="bevel"/>
<g clip-path="url(#clip0_1533_26052)">
<path d="M19.5343 62.3105V55.9424H21.686C22.1836 55.9424 22.5919 56.0274 22.9112 56.1974C23.2304 56.3653 23.4667 56.5964 23.6201 56.8908C23.7735 57.1851 23.8502 57.5199 23.8502 57.8951C23.8502 58.2703 23.7735 58.603 23.6201 58.8933C23.4667 59.1835 23.2314 59.4115 22.9143 59.5773C22.5971 59.7411 22.1918 59.823 21.6985 59.823H19.9572V59.1265H21.6736C22.0136 59.1265 22.2872 59.0767 22.4945 58.9772C22.7039 58.8777 22.8552 58.7367 22.9485 58.5543C23.0438 58.3698 23.0915 58.1501 23.0915 57.8951C23.0915 57.6402 23.0438 57.4173 22.9485 57.2266C22.8531 57.0359 22.7008 56.8887 22.4914 56.7851C22.282 56.6793 22.0053 56.6265 21.6612 56.6265H20.3055V62.3105H19.5343ZM22.5318 59.4498L24.099 62.3105H23.2034L21.6612 59.4498H22.5318ZM26.9246 62.41C26.4935 62.41 26.1152 62.3074 25.7897 62.1022C25.4663 61.897 25.2134 61.6099 25.031 61.2409C24.8507 60.8719 24.7605 60.4407 24.7605 59.9473C24.7605 59.4498 24.8507 59.0156 25.031 58.6445C25.2134 58.2734 25.4663 57.9853 25.7897 57.7801C26.1152 57.5749 26.4935 57.4722 26.9246 57.4722C27.3558 57.4722 27.7331 57.5749 28.0565 57.7801C28.3819 57.9853 28.6348 58.2734 28.8152 58.6445C28.9976 59.0156 29.0888 59.4498 29.0888 59.9473C29.0888 60.4407 28.9976 60.8719 28.8152 61.2409C28.6348 61.6099 28.3819 61.897 28.0565 62.1022C27.7331 62.3074 27.3558 62.41 26.9246 62.41ZM26.9246 61.7508C27.2522 61.7508 27.5217 61.6669 27.7331 61.4989C27.9445 61.331 28.101 61.1103 28.2026 60.8366C28.3042 60.563 28.355 60.2666 28.355 59.9473C28.355 59.6281 28.3042 59.3306 28.2026 59.0549C28.101 58.7792 27.9445 58.5564 27.7331 58.3864C27.5217 58.2164 27.2522 58.1314 26.9246 58.1314C26.5971 58.1314 26.3276 58.2164 26.1162 58.3864C25.9048 58.5564 25.7482 58.7792 25.6467 59.0549C25.5451 59.3306 25.4943 59.6281 25.4943 59.9473C25.4943 60.2666 25.5451 60.563 25.6467 60.8366C25.7482 61.1103 25.9048 61.331 26.1162 61.4989C26.3276 61.6669 26.5971 61.7508 26.9246 61.7508ZM30.209 62.3105V57.5344H30.9179V58.2558H30.9677C31.0547 58.0195 31.2123 57.8278 31.4403 57.6806C31.6683 57.5334 31.9254 57.4598 32.2114 57.4598C32.2653 57.4598 32.3327 57.4608 32.4136 57.4629C32.4944 57.465 32.5556 57.4681 32.597 57.4722V58.2185C32.5721 58.2123 32.5151 58.203 32.426 58.1905C32.3389 58.176 32.2467 58.1688 32.1493 58.1688C31.9171 58.1688 31.7098 58.2175 31.5274 58.3149C31.347 58.4103 31.204 58.5429 31.0983 58.7129C30.9946 58.8808 30.9428 59.0726 30.9428 59.2881V62.3105H30.209ZM35.2618 62.41C34.8306 62.41 34.4523 62.3074 34.1269 62.1022C33.8035 61.897 33.5506 61.6099 33.3682 61.2409C33.1878 60.8719 33.0976 60.4407 33.0976 59.9473C33.0976 59.4498 33.1878 59.0156 33.3682 58.6445C33.5506 58.2734 33.8035 57.9853 34.1269 57.7801C34.4523 57.5749 34.8306 57.4722 35.2618 57.4722C35.693 57.4722 36.0702 57.5749 36.3936 57.7801C36.7191 57.9853 36.972 58.2734 37.1523 58.6445C37.3347 59.0156 37.426 59.4498 37.426 59.9473C37.426 60.4407 37.3347 60.8719 37.1523 61.2409C36.972 61.6099 36.7191 61.897 36.3936 62.1022C36.0702 62.3074 35.693 62.41 35.2618 62.41ZM35.2618 61.7508C35.5893 61.7508 35.8588 61.6669 36.0702 61.4989C36.2817 61.331 36.4382 61.1103 36.5398 60.8366C36.6413 60.563 36.6921 60.2666 36.6921 59.9473C36.6921 59.6281 36.6413 59.3306 36.5398 59.0549C36.4382 58.7792 36.2817 58.5564 36.0702 58.3864C35.8588 58.2164 35.5893 58.1314 35.2618 58.1314C34.9343 58.1314 34.6648 58.2164 34.4533 58.3864C34.2419 58.5564 34.0854 58.7792 33.9838 59.0549C33.8822 59.3306 33.8315 59.6281 33.8315 59.9473C33.8315 60.2666 33.8822 60.563 33.9838 60.8366C34.0854 61.1103 34.2419 61.331 34.4533 61.4989C34.6648 61.6669 34.9343 61.7508 35.2618 61.7508ZM39.2799 59.4374V62.3105H38.5461V57.5344H39.2551V58.2807H39.3173C39.4292 58.0382 39.5992 57.8433 39.8272 57.6961C40.0552 57.5469 40.3496 57.4722 40.7103 57.4722C41.0337 57.4722 41.3166 57.5386 41.5592 57.6712C41.8017 57.8018 41.9903 58.0008 42.1251 58.2683C42.2598 58.5336 42.3272 58.8694 42.3272 59.2757V62.3105H41.5934V59.3255C41.5934 58.9503 41.4959 58.658 41.3011 58.4486C41.1062 58.2372 40.8388 58.1314 40.4988 58.1314C40.2646 58.1314 40.0552 58.1822 39.8707 58.2838C39.6883 58.3854 39.5442 58.5336 39.4385 58.7285C39.3328 58.9233 39.2799 59.1596 39.2799 59.4374ZM45.6084 62.41C45.1772 62.41 44.7989 62.3074 44.4735 62.1022C44.1501 61.897 43.8972 61.6099 43.7148 61.2409C43.5344 60.8719 43.4442 60.4407 43.4442 59.9473C43.4442 59.4498 43.5344 59.0156 43.7148 58.6445C43.8972 58.2734 44.1501 57.9853 44.4735 57.7801C44.7989 57.5749 45.1772 57.4722 45.6084 57.4722C46.0396 57.4722 46.4169 57.5749 46.7402 57.7801C47.0657 57.9853 47.3186 58.2734 47.4989 58.6445C47.6814 59.0156 47.7726 59.4498 47.7726 59.9473C47.7726 60.4407 47.6814 60.8719 47.4989 61.2409C47.3186 61.6099 47.0657 61.897 46.7402 62.1022C46.4169 62.3074 46.0396 62.41 45.6084 62.41ZM45.6084 61.7508C45.9359 61.7508 46.2054 61.6669 46.4169 61.4989C46.6283 61.331 46.7848 61.1103 46.8864 60.8366C46.988 60.563 47.0387 60.2666 47.0387 59.9473C47.0387 59.6281 46.988 59.3306 46.8864 59.0549C46.7848 58.7792 46.6283 58.5564 46.4169 58.3864C46.2054 58.2164 45.9359 58.1314 45.6084 58.1314C45.2809 58.1314 45.0114 58.2164 44.8 58.3864C44.5885 58.5564 44.432 58.7792 44.3304 59.0549C44.2289 59.3306 44.1781 59.6281 44.1781 59.9473C44.1781 60.2666 44.2289 60.563 44.3304 60.8366C44.432 61.1103 44.5885 61.331 44.8 61.4989C45.0114 61.6669 45.2809 61.7508 45.6084 61.7508ZM50.2982 62.4224C49.9955 62.4224 49.7209 62.3654 49.4742 62.2514C49.2275 62.1353 49.0316 61.9685 48.8865 61.7508C48.7414 61.5311 48.6689 61.2657 48.6689 60.9548C48.6689 60.6812 48.7228 60.4594 48.8305 60.2894C48.9383 60.1173 49.0824 59.9826 49.2628 59.8852C49.4431 59.7877 49.6421 59.7152 49.8598 59.6675C50.0795 59.6177 50.3003 59.5784 50.5221 59.5493C50.8123 59.512 51.0476 59.484 51.2279 59.4654C51.4103 59.4447 51.543 59.4105 51.6259 59.3628C51.7109 59.3151 51.7534 59.2322 51.7534 59.114V59.0891C51.7534 58.7823 51.6695 58.544 51.5015 58.374C51.3357 58.204 51.0838 58.119 50.746 58.119C50.3956 58.119 50.121 58.1957 49.922 58.3491C49.723 58.5025 49.583 58.6663 49.5022 58.8404L48.8057 58.5916C48.93 58.3014 49.0959 58.0755 49.3032 57.9138C49.5125 57.75 49.7406 57.636 49.9873 57.5717C50.236 57.5054 50.4806 57.4722 50.7211 57.4722C50.8745 57.4722 51.0507 57.4909 51.2497 57.5282C51.4508 57.5635 51.6446 57.637 51.8311 57.749C52.0198 57.8609 52.1763 58.0299 52.3007 58.2558C52.425 58.4818 52.4872 58.7844 52.4872 59.1638V62.3105H51.7534V61.6637H51.7161C51.6663 61.7674 51.5834 61.8783 51.4673 61.9965C51.3513 62.1146 51.1968 62.2152 51.004 62.2981C50.8112 62.381 50.576 62.4224 50.2982 62.4224ZM50.4101 61.7632C50.7003 61.7632 50.945 61.7062 51.144 61.5922C51.345 61.4782 51.4964 61.331 51.5979 61.1507C51.7016 60.9703 51.7534 60.7807 51.7534 60.5817V59.91C51.7223 59.9473 51.6539 59.9815 51.5482 60.0126C51.4445 60.0417 51.3243 60.0676 51.1875 60.0904C51.0527 60.1111 50.9211 60.1298 50.7926 60.1463C50.6661 60.1609 50.5635 60.1733 50.4848 60.1837C50.294 60.2085 50.1158 60.249 49.9499 60.3049C49.7862 60.3588 49.6535 60.4407 49.5519 60.5506C49.4524 60.6584 49.4027 60.8055 49.4027 60.9921C49.4027 61.2471 49.497 61.4399 49.6856 61.5705C49.8763 61.699 50.1178 61.7632 50.4101 61.7632ZM56.1773 62.3105V61.7508L59.6101 56.6265H56.14V55.9424H60.5305V56.5021L57.0977 61.6264H60.5678V62.3105H56.1773ZM63.7021 62.41C63.271 62.41 62.8927 62.3074 62.5672 62.1022C62.2438 61.897 61.9909 61.6099 61.8085 61.2409C61.6282 60.8719 61.538 60.4407 61.538 59.9473C61.538 59.4498 61.6282 59.0156 61.8085 58.6445C61.9909 58.2734 62.2438 57.9853 62.5672 57.7801C62.8927 57.5749 63.271 57.4722 63.7021 57.4722C64.1333 57.4722 64.5106 57.5749 64.834 57.7801C65.1594 57.9853 65.4123 58.2734 65.5927 58.6445C65.7751 59.0156 65.8663 59.4498 65.8663 59.9473C65.8663 60.4407 65.7751 60.8719 65.5927 61.2409C65.4123 61.6099 65.1594 61.897 64.834 62.1022C64.5106 62.3074 64.1333 62.41 63.7021 62.41ZM63.7021 61.7508C64.0297 61.7508 64.2992 61.6669 64.5106 61.4989C64.722 61.331 64.8785 61.1103 64.9801 60.8366C65.0817 60.563 65.1325 60.2666 65.1325 59.9473C65.1325 59.6281 65.0817 59.3306 64.9801 59.0549C64.8785 58.7792 64.722 58.5564 64.5106 58.3864C64.2992 58.2164 64.0297 58.1314 63.7021 58.1314C63.3746 58.1314 63.1051 58.2164 62.8937 58.3864C62.6823 58.5564 62.5257 58.7792 62.4242 59.0549C62.3226 59.3306 62.2718 59.6281 62.2718 59.9473C62.2718 60.2666 62.3226 60.563 62.4242 60.8366C62.5257 61.1103 62.6823 61.331 62.8937 61.4989C63.1051 61.6669 63.3746 61.7508 63.7021 61.7508ZM66.9865 62.3105V57.5344H67.6954V58.2558H67.7452C67.8322 58.0195 67.9898 57.8278 68.2178 57.6806C68.4458 57.5334 68.7029 57.4598 68.9889 57.4598C69.0428 57.4598 69.1102 57.4608 69.1911 57.4629C69.2719 57.465 69.3331 57.4681 69.3745 57.4722V58.2185C69.3496 58.2123 69.2926 58.203 69.2035 58.1905C69.1164 58.176 69.0242 58.1688 68.9268 58.1688C68.6946 58.1688 68.4873 58.2175 68.3049 58.3149C68.1245 58.4103 67.9815 58.5429 67.8758 58.7129C67.7721 58.8808 67.7203 59.0726 67.7203 59.2881V62.3105H66.9865ZM72.0393 62.41C71.6081 62.41 71.2298 62.3074 70.9044 62.1022C70.581 61.897 70.3281 61.6099 70.1457 61.2409C69.9653 60.8719 69.8751 60.4407 69.8751 59.9473C69.8751 59.4498 69.9653 59.0156 70.1457 58.6445C70.3281 58.2734 70.581 57.9853 70.9044 57.7801C71.2298 57.5749 71.6081 57.4722 72.0393 57.4722C72.4705 57.4722 72.8477 57.5749 73.1711 57.7801C73.4966 57.9853 73.7495 58.2734 73.9298 58.6445C74.1122 59.0156 74.2035 59.4498 74.2035 59.9473C74.2035 60.4407 74.1122 60.8719 73.9298 61.2409C73.7495 61.6099 73.4966 61.897 73.1711 62.1022C72.8477 62.3074 72.4705 62.41 72.0393 62.41ZM72.0393 61.7508C72.3668 61.7508 72.6363 61.6669 72.8477 61.4989C73.0592 61.331 73.2157 61.1103 73.3173 60.8366C73.4188 60.563 73.4696 60.2666 73.4696 59.9473C73.4696 59.6281 73.4188 59.3306 73.3173 59.0549C73.2157 58.7792 73.0592 58.5564 72.8477 58.3864C72.6363 58.2164 72.3668 58.1314 72.0393 58.1314C71.7118 58.1314 71.4423 58.2164 71.2308 58.3864C71.0194 58.5564 70.8629 58.7792 70.7613 59.0549C70.6597 59.3306 70.609 59.6281 70.609 59.9473C70.609 60.2666 70.6597 60.563 70.7613 60.8366C70.8629 61.1103 71.0194 61.331 71.2308 61.4989C71.4423 61.6669 71.7118 61.7508 72.0393 61.7508Z" fill="white"/>
<path opacity="0.501883" d="M23.8164 47.8017H23.1555C23.1164 47.6116 23.048 47.4446 22.9502 47.3007C22.8543 47.1568 22.737 47.0359 22.5984 46.9382C22.4616 46.8387 22.3097 46.7641 22.1427 46.7143C21.9757 46.6646 21.8015 46.6397 21.6203 46.6397C21.2898 46.6397 20.9904 46.7232 20.7221 46.8902C20.4556 47.0572 20.2433 47.3033 20.0851 47.6285C19.9288 47.9537 19.8506 48.3525 19.8506 48.8252C19.8506 49.2978 19.9288 49.6967 20.0851 50.0219C20.2433 50.347 20.4556 50.5931 20.7221 50.7601C20.9904 50.9272 21.2898 51.0107 21.6203 51.0107C21.8015 51.0107 21.9757 50.9858 22.1427 50.936C22.3097 50.8863 22.4616 50.8125 22.5984 50.7148C22.737 50.6153 22.8543 50.4936 22.9502 50.3497C23.048 50.204 23.1164 50.037 23.1555 49.8486H23.8164C23.7667 50.1276 23.6761 50.3772 23.5446 50.5976C23.4131 50.8179 23.2496 51.0053 23.0542 51.1599C22.8587 51.3127 22.6393 51.4291 22.3959 51.5091C22.1542 51.589 21.8957 51.629 21.6203 51.629C21.1548 51.629 20.7408 51.5153 20.3783 51.2878C20.0158 51.0604 19.7307 50.737 19.5228 50.3177C19.3149 49.8984 19.2109 49.4009 19.2109 48.8252C19.2109 48.2495 19.3149 47.752 19.5228 47.3327C19.7307 46.9133 20.0158 46.5899 20.3783 46.3625C20.7408 46.1351 21.1548 46.0214 21.6203 46.0214C21.8957 46.0214 22.1542 46.0613 22.3959 46.1413C22.6393 46.2213 22.8587 46.3385 23.0542 46.4931C23.2496 46.6459 23.4131 46.8325 23.5446 47.0528C23.6761 47.2714 23.7667 47.521 23.8164 47.8017ZM26.0039 51.6503C25.7445 51.6503 25.5091 51.6015 25.2976 51.5037C25.0862 51.4042 24.9183 51.2612 24.7939 51.0746C24.6695 50.8863 24.6073 50.6589 24.6073 50.3923C24.6073 50.1578 24.6535 49.9677 24.7459 49.822C24.8383 49.6745 24.9618 49.559 25.1164 49.4755C25.271 49.392 25.4416 49.3298 25.6281 49.2889C25.8165 49.2463 26.0057 49.2125 26.1958 49.1877C26.4446 49.1557 26.6462 49.1317 26.8008 49.1157C26.9572 49.0979 27.0709 49.0686 27.142 49.0277C27.2148 48.9869 27.2512 48.9158 27.2512 48.8145V48.7932C27.2512 48.5302 27.1793 48.3259 27.0354 48.1802C26.8932 48.0345 26.6773 47.9616 26.3877 47.9616C26.0874 47.9616 25.852 48.0274 25.6814 48.1589C25.5109 48.2904 25.3909 48.4307 25.3216 48.58L24.7246 48.3668C24.8312 48.118 24.9734 47.9243 25.1511 47.7857C25.3305 47.6454 25.526 47.5477 25.7374 47.4926C25.9506 47.4357 26.1603 47.4073 26.3664 47.4073C26.4979 47.4073 26.6489 47.4233 26.8195 47.4553C26.9918 47.4855 27.158 47.5485 27.3179 47.6445C27.4796 47.7404 27.6137 47.8852 27.7203 48.0789C27.8269 48.2726 27.8802 48.532 27.8802 48.8572V51.5544H27.2512V51H27.2193C27.1766 51.0888 27.1055 51.1839 27.006 51.2852C26.9065 51.3865 26.7742 51.4726 26.6089 51.5437C26.4437 51.6148 26.242 51.6503 26.0039 51.6503ZM26.0999 51.0853C26.3486 51.0853 26.5583 51.0364 26.7289 50.9387C26.9012 50.841 27.0309 50.7148 27.118 50.5602C27.2068 50.4057 27.2512 50.2431 27.2512 50.0725V49.4968C27.2246 49.5288 27.166 49.5581 27.0753 49.5848C26.9865 49.6096 26.8834 49.6319 26.7662 49.6514C26.6507 49.6692 26.5379 49.6852 26.4277 49.6994C26.3193 49.7118 26.2314 49.7225 26.1638 49.7314C26.0004 49.7527 25.8476 49.7873 25.7054 49.8353C25.5651 49.8815 25.4513 49.9517 25.3643 50.0459C25.279 50.1382 25.2363 50.2644 25.2363 50.4243C25.2363 50.6429 25.3172 50.8081 25.4789 50.92C25.6423 51.0302 25.8493 51.0853 26.0999 51.0853ZM29.0283 51.5544V47.4606H29.636V48.0789H29.6786C29.7532 47.8764 29.8883 47.712 30.0837 47.5859C30.2792 47.4597 30.4995 47.3966 30.7447 47.3966C30.7909 47.3966 30.8486 47.3975 30.9179 47.3993C30.9872 47.4011 31.0396 47.4037 31.0752 47.4073V48.0469C31.0539 48.0416 31.005 48.0336 30.9286 48.0229C30.854 48.0105 30.7749 48.0043 30.6914 48.0043C30.4924 48.0043 30.3147 48.046 30.1583 48.1296C30.0038 48.2113 29.8812 48.325 29.7905 48.4707C29.7017 48.6146 29.6573 48.779 29.6573 48.9638V51.5544H29.0283ZM33.242 51.6397C32.9009 51.6397 32.5997 51.5535 32.3385 51.3811C32.0773 51.207 31.873 50.9618 31.7255 50.6455C31.578 50.3275 31.5043 49.9517 31.5043 49.5181C31.5043 49.0881 31.578 48.715 31.7255 48.3987C31.873 48.0825 32.0782 47.8382 32.3412 47.6658C32.6041 47.4935 32.908 47.4073 33.2527 47.4073C33.5192 47.4073 33.7297 47.4517 33.8843 47.5405C34.0407 47.6276 34.1597 47.7271 34.2415 47.839C34.325 47.9492 34.3898 48.0398 34.436 48.1109H34.4893V46.096H35.1183V51.5544H34.5106V50.9254H34.436C34.3898 51 34.3241 51.0942 34.2388 51.2079C34.1535 51.3198 34.0318 51.4202 33.8737 51.5091C33.7155 51.5961 33.505 51.6397 33.242 51.6397ZM33.3273 51.0746C33.5796 51.0746 33.7928 51.0089 33.9669 50.8774C34.1411 50.7441 34.2734 50.5602 34.3641 50.3257C34.4547 50.0894 34.5 49.8166 34.5 49.5075C34.5 49.2019 34.4556 48.9345 34.3667 48.7052C34.2779 48.4743 34.1464 48.2948 33.9723 48.1669C33.7981 48.0372 33.5831 47.9723 33.3273 47.9723C33.0608 47.9723 32.8387 48.0407 32.661 48.1775C32.4851 48.3126 32.3527 48.4965 32.2639 48.7292C32.1768 48.9602 32.1333 49.2196 32.1333 49.5075C32.1333 49.7989 32.1777 50.0636 32.2665 50.3017C32.3571 50.538 32.4904 50.7264 32.6663 50.8667C32.844 51.0053 33.0643 51.0746 33.3273 51.0746ZM38.5538 51.5544V46.096H39.2148V48.5267H42.1252V46.096H42.7862V51.5544H42.1252V49.113H39.2148V51.5544H38.5538ZM45.6873 51.6397C45.3177 51.6397 44.9934 51.5517 44.7144 51.3758C44.4373 51.1999 44.2205 50.9538 44.0641 50.6375C43.9095 50.3213 43.8323 49.9517 43.8323 49.5288C43.8323 49.1024 43.9095 48.7301 44.0641 48.4121C44.2205 48.094 44.4373 47.847 44.7144 47.6711C44.9934 47.4952 45.3177 47.4073 45.6873 47.4073C46.0568 47.4073 46.3802 47.4952 46.6574 47.6711C46.9364 47.847 47.1531 48.094 47.3077 48.4121C47.4641 48.7301 47.5422 49.1024 47.5422 49.5288C47.5422 49.9517 47.4641 50.3213 47.3077 50.6375C47.1531 50.9538 46.9364 51.1999 46.6574 51.3758C46.3802 51.5517 46.0568 51.6397 45.6873 51.6397ZM45.6873 51.0746C45.968 51.0746 46.199 51.0027 46.3802 50.8587C46.5614 50.7148 46.6956 50.5256 46.7827 50.2911C46.8697 50.0565 46.9133 49.8024 46.9133 49.5288C46.9133 49.2552 46.8697 49.0002 46.7827 48.7639C46.6956 48.5276 46.5614 48.3366 46.3802 48.1909C46.199 48.0452 45.968 47.9723 45.6873 47.9723C45.4065 47.9723 45.1755 48.0452 44.9943 48.1909C44.8131 48.3366 44.6789 48.5276 44.5918 48.7639C44.5048 49.0002 44.4612 49.2552 44.4612 49.5288C44.4612 49.8024 44.5048 50.0565 44.5918 50.2911C44.6789 50.5256 44.8131 50.7148 44.9943 50.8587C45.1755 51.0027 45.4065 51.0746 45.6873 51.0746ZM49.1314 46.096V51.5544H48.5024V46.096H49.1314ZM51.8293 51.6397C51.4881 51.6397 51.1869 51.5535 50.9257 51.3811C50.6646 51.207 50.4602 50.9618 50.3127 50.6455C50.1653 50.3275 50.0915 49.9517 50.0915 49.5181C50.0915 49.0881 50.1653 48.715 50.3127 48.3987C50.4602 48.0825 50.6654 47.8382 50.9284 47.6658C51.1914 47.4935 51.4952 47.4073 51.8399 47.4073C52.1064 47.4073 52.317 47.4517 52.4716 47.5405C52.6279 47.6276 52.747 47.7271 52.8287 47.839C52.9122 47.9492 52.9771 48.0398 53.0233 48.1109H53.0766V46.096H53.7056V51.5544H53.0979V50.9254H53.0233C52.9771 51 52.9113 51.0942 52.826 51.2079C52.7408 51.3198 52.619 51.4202 52.4609 51.5091C52.3028 51.5961 52.0922 51.6397 51.8293 51.6397ZM51.9145 51.0746C52.1668 51.0746 52.3801 51.0089 52.5542 50.8774C52.7283 50.7441 52.8607 50.5602 52.9513 50.3257C53.0419 50.0894 53.0872 49.8166 53.0872 49.5075C53.0872 49.2019 53.0428 48.9345 52.954 48.7052C52.8651 48.4743 52.7337 48.2948 52.5595 48.1669C52.3854 48.0372 52.1704 47.9723 51.9145 47.9723C51.648 47.9723 51.4259 48.0407 51.2482 48.1775C51.0723 48.3126 50.94 48.4965 50.8511 48.7292C50.7641 48.9602 50.7205 49.2196 50.7205 49.5075C50.7205 49.7989 50.7649 50.0636 50.8538 50.3017C50.9444 50.538 51.0777 50.7264 51.2536 50.8667C51.4312 51.0053 51.6516 51.0746 51.9145 51.0746ZM56.6613 51.6397C56.2668 51.6397 55.9266 51.5526 55.6405 51.3785C55.3562 51.2026 55.1368 50.9574 54.9822 50.6429C54.8294 50.3266 54.753 49.9588 54.753 49.5395C54.753 49.1201 54.8294 48.7506 54.9822 48.4307C55.1368 48.1091 55.3518 47.8586 55.6272 47.6791C55.9044 47.4979 56.2278 47.4073 56.5973 47.4073C56.8106 47.4073 57.0211 47.4428 57.229 47.5139C57.4369 47.585 57.6261 47.7005 57.7967 47.8604C57.9673 48.0185 58.1032 48.2282 58.2045 48.4894C58.3057 48.7506 58.3564 49.0722 58.3564 49.4542V49.7207H55.2008V49.177H57.7167C57.7167 48.946 57.6705 48.7399 57.5781 48.5587C57.4875 48.3774 57.3578 48.2344 57.189 48.1296C57.022 48.0247 56.8248 47.9723 56.5973 47.9723C56.3468 47.9723 56.13 48.0345 55.947 48.1589C55.7658 48.2815 55.6263 48.4414 55.5286 48.6386C55.4309 48.8358 55.382 49.0473 55.382 49.2729V49.6354C55.382 49.9446 55.4353 50.2067 55.5419 50.4216C55.6503 50.6349 55.8004 50.7974 55.9923 50.9094C56.1842 51.0195 56.4072 51.0746 56.6613 51.0746C56.8265 51.0746 56.9758 51.0515 57.1091 51.0053C57.2441 50.9574 57.3605 50.8863 57.4582 50.7921C57.5559 50.6962 57.6314 50.5771 57.6847 50.435L58.2924 50.6055C58.2285 50.8117 58.121 50.9929 57.9699 51.1493C57.8189 51.3038 57.6323 51.4247 57.4102 51.5117C57.1881 51.597 56.9385 51.6397 56.6613 51.6397ZM59.3132 51.5544V47.4606H59.9209V48.0789H59.9635C60.0381 47.8764 60.1732 47.712 60.3686 47.5859C60.5641 47.4597 60.7844 47.3966 61.0296 47.3966C61.0758 47.3966 61.1335 47.3975 61.2028 47.3993C61.2721 47.4011 61.3245 47.4037 61.3601 47.4073V48.0469C61.3388 48.0416 61.2899 48.0336 61.2135 48.0229C61.1389 48.0105 61.0598 48.0043 60.9763 48.0043C60.7773 48.0043 60.5996 48.046 60.4432 48.1296C60.2887 48.2113 60.1661 48.325 60.0754 48.4707C59.9866 48.6146 59.9422 48.779 59.9422 48.9638V51.5544H59.3132Z" fill="white"/>
</g>
<defs>
<linearGradient id="paint0_linear_1533_26052" x1="68.1591" y1="-13.2632" x2="71.1116" y2="90.0135" gradientUnits="userSpaceOnUse">
<stop stop-color="#66EC84"/>
<stop offset="1" stop-color="#00AE3B"/>
</linearGradient>
<radialGradient id="paint1_radial_1533_26052" cx="0" cy="0" r="1" gradientUnits="userSpaceOnUse" gradientTransform="translate(30.6155 22.5244) rotate(141.302) scale(13.991 13.8849)">
<stop stop-color="white"/>
<stop offset="1" stop-color="#DDDCDA"/>
</radialGradient>
<clipPath id="clip0_1533_26052">
<rect width="73.1763" height="22.5158" fill="white" transform="translate(18.7632 42.0526)"/>
</clipPath>
</defs>
</svg>
