<svg width="32" height="32" viewBox="0 0 32 32" fill="none" xmlns="http://www.w3.org/2000/svg">
<path d="M9.94702 25.7866H7.38696C3.46696 25.5066 1.70703 22.4933 1.70703 19.8133C1.70703 17.1333 3.46698 14.1066 7.32031 13.84C7.86698 13.7866 8.34696 14.2133 8.38696 14.7733C8.42696 15.32 8.01369 15.8 7.45369 15.84C4.86703 16.0266 3.70703 17.9733 3.70703 19.8266C3.70703 21.6799 4.86703 23.6266 7.45369 23.8133H9.94702C10.4937 23.8133 10.947 24.2666 10.947 24.8133C10.947 25.36 10.4937 25.7866 9.94702 25.7866Z" fill="#B1B2B4"/>
<path d="M22.2262 25.7865C22.1995 25.7865 22.1862 25.7865 22.1596 25.7865C21.6129 25.7865 21.1062 25.3332 21.1062 24.7865C21.1062 24.2132 21.5329 23.7865 22.0929 23.7865C23.7329 23.7865 25.1996 23.2132 26.3462 22.1865C28.4262 20.3732 28.5596 17.7598 27.9996 15.9198C27.4396 14.0932 25.8796 11.9998 23.1596 11.6665C22.7196 11.6132 22.3729 11.2798 22.2929 10.8398C21.7595 7.63985 20.0396 5.42651 17.4262 4.62651C14.7329 3.78651 11.5862 4.61317 9.62619 6.66651C7.71952 8.65317 7.27953 11.4398 8.3862 14.5065C8.57286 15.0265 8.30626 15.5998 7.78626 15.7865C7.26626 15.9732 6.6929 15.7065 6.50623 15.1865C5.15957 11.4265 5.77291 7.82651 8.18625 5.29317C10.6529 2.70651 14.6129 1.67983 18.0129 2.71983C21.1329 3.67983 23.3329 6.25317 24.1329 9.8265C26.8529 10.4398 29.0395 12.5065 29.9062 15.3598C30.8529 18.4665 29.9996 21.6665 27.6662 23.6932C26.1862 25.0265 24.2529 25.7865 22.2262 25.7865Z" fill="#B1B2B4"/>
<path d="M15.9997 29.7069C13.3197 29.7069 10.813 28.2802 9.4397 25.9735C9.29303 25.7469 9.14637 25.4802 9.02637 25.1869C8.57303 24.2402 8.33301 23.1602 8.33301 22.0402C8.33301 17.8135 11.773 14.3735 15.9997 14.3735C20.2263 14.3735 23.6663 17.8135 23.6663 22.0402C23.6663 23.1735 23.4264 24.2402 22.9464 25.2269C22.8397 25.4802 22.693 25.7469 22.533 26.0002C21.1864 28.2802 18.6797 29.7069 15.9997 29.7069ZM15.9997 16.3735C12.8797 16.3735 10.333 18.9202 10.333 22.0402C10.333 22.8669 10.5063 23.6402 10.8397 24.3469C10.9463 24.5735 11.0397 24.7602 11.1463 24.9335C12.1597 26.6535 14.013 27.7069 15.9863 27.7069C17.9597 27.7069 19.813 26.6535 20.813 24.9602C20.933 24.7602 21.0397 24.5735 21.1197 24.3869C21.4797 23.6535 21.653 22.8802 21.653 22.0535C21.6663 18.9202 19.1197 16.3735 15.9997 16.3735Z" fill="#B1B2B4"/>
<path d="M15.2395 24.36C14.9862 24.36 14.7329 24.2666 14.5329 24.0666L13.2129 22.7466C12.8262 22.3599 12.8262 21.72 13.2129 21.3333C13.5995 20.9466 14.2395 20.9466 14.6262 21.3333L15.2662 21.9733L17.3995 20C17.8129 19.6266 18.4395 19.6533 18.8129 20.0533C19.1862 20.4533 19.1596 21.0933 18.7596 21.4666L15.9196 24.0933C15.7196 24.2666 15.4795 24.36 15.2395 24.36Z" fill="#B1B2B4"/>
</svg>
