<svg width="34" height="22" viewBox="0 0 34 22" fill="none" xmlns="http://www.w3.org/2000/svg">
<path d="M2 3.125C2 2.504 2.60632 2 3.38075 2H30.935C31.1162 1.99971 31.2957 2.02859 31.4632 2.08499C31.6307 2.1414 31.783 2.22422 31.9112 2.32871C32.0395 2.43321 32.1412 2.55732 32.2106 2.69396C32.2801 2.8306 32.3158 2.97708 32.3158 3.125V18.875C32.3158 19.496 31.7095 20 30.935 20H3.38075C3.19955 20.0003 3.02007 19.9714 2.85257 19.915C2.68506 19.8586 2.53283 19.7758 2.40458 19.6713C2.27633 19.5668 2.17458 19.4427 2.10516 19.306C2.03573 19.1694 2 19.0229 2 18.875V3.125ZM2 6.5H32.3158V8.75H2V6.5ZM7.51196 14.375H10.2679V14.9375H7.51196V14.375ZM14.4019 14.375H22.6699V14.9375H14.4019V14.375Z" stroke="#979797" stroke-width="2.5"/>
</svg>
