<svg width="176" height="174" viewBox="0 0 176 174" fill="none" xmlns="http://www.w3.org/2000/svg">
<g filter="url(#filter0_d_1121_15615)">
<path fill-rule="evenodd" clip-rule="evenodd" d="M52.8636 34.0801H101.067L141.859 75.9805V157.35C141.859 167.541 133.501 175.817 123.145 175.817H52.8636C42.5605 175.817 34.1499 167.541 34.1499 157.35V52.4955C34.1497 42.3567 42.5605 34.0801 52.8636 34.0801Z" fill="#0263D1"/>
</g>
<path opacity="0.302" fill-rule="evenodd" clip-rule="evenodd" d="M101.022 34.0801V75.6184H141.866L101.022 34.0801Z" fill="white"/>
<path d="M69.0845 110.579V98.6753H73.3834C74.2431 98.6753 75.0436 98.8013 75.7848 99.034C76.526 99.2763 77.198 99.6253 77.8009 100.091C78.4037 100.556 78.8781 101.176 79.224 101.952C79.5698 102.727 79.7478 103.619 79.7478 104.627C79.7478 105.636 79.5698 106.527 79.224 107.303C78.8781 108.078 78.4037 108.699 77.8009 109.164C77.1981 109.629 76.526 109.978 75.7848 110.221C75.0436 110.453 74.2432 110.579 73.3834 110.579H69.0845ZM72.1184 107.991H73.0177C73.5019 107.991 73.9565 107.933 74.3617 107.826C74.7767 107.71 75.1522 107.526 75.508 107.284C75.8637 107.041 76.1404 106.692 76.3381 106.237C76.5456 105.791 76.6444 105.248 76.6444 104.627C76.6444 104.007 76.5455 103.464 76.3381 103.008C76.1404 102.563 75.8637 102.214 75.508 101.971C75.1522 101.719 74.7767 101.545 74.3617 101.428C73.9565 101.322 73.5019 101.264 73.0177 101.264H72.1184V107.991ZM87.1101 110.715C85.2819 110.715 83.7699 110.134 82.5741 108.98C81.3783 107.826 80.7853 106.372 80.7853 104.627C80.7853 102.883 81.3783 101.428 82.5741 100.275C83.7699 99.1213 85.2819 98.5397 87.1101 98.5397C88.9087 98.5397 90.4009 99.1214 91.5967 100.275C92.7826 101.429 93.3756 102.883 93.3756 104.627C93.3756 106.372 92.7826 107.826 91.5967 108.98C90.4009 110.134 88.9087 110.715 87.1101 110.715ZM84.7778 107.138C85.3806 107.797 86.1514 108.127 87.0903 108.127C88.0291 108.127 88.79 107.797 89.3929 107.138C89.9957 106.469 90.2922 105.636 90.2922 104.627C90.2922 103.619 89.9957 102.786 89.3929 102.117C88.7901 101.457 88.0291 101.128 87.0903 101.128C86.1514 101.128 85.3806 101.457 84.7778 102.117C84.175 102.786 83.8686 103.619 83.8686 104.627C83.8686 105.636 84.175 106.469 84.7778 107.138ZM100.59 110.715C98.8208 110.715 97.3482 110.172 96.1822 109.106C95.0061 108.03 94.4232 106.537 94.4232 104.627C94.4232 102.727 95.0161 101.234 96.202 100.158C97.3978 99.0824 98.8505 98.5396 100.59 98.5396C102.161 98.5396 103.446 98.9176 104.464 99.6835C105.472 100.44 106.055 101.448 106.203 102.708L103.139 103.319C103.011 102.659 102.705 102.126 102.23 101.729C101.756 101.331 101.203 101.128 100.57 101.128C99.7003 101.128 98.9789 101.428 98.3958 102.039C97.8127 102.659 97.5163 103.512 97.5163 104.627C97.5163 105.742 97.8127 106.595 98.3859 107.206C98.969 107.826 99.6904 108.127 100.57 108.127C101.202 108.127 101.746 107.952 102.191 107.603C102.635 107.254 102.912 106.789 103.031 106.207L106.163 106.905C105.877 108.108 105.244 109.038 104.256 109.707C103.278 110.376 102.052 110.715 100.59 110.715Z" fill="white"/>
<defs>
<filter id="filter0_d_1121_15615" x="0.149902" y="0.0800781" width="175.709" height="209.737" filterUnits="userSpaceOnUse" color-interpolation-filters="sRGB">
<feFlood flood-opacity="0" result="BackgroundImageFix"/>
<feColorMatrix in="SourceAlpha" type="matrix" values="0 0 0 0 0 0 0 0 0 0 0 0 0 0 0 0 0 0 127 0" result="hardAlpha"/>
<feOffset/>
<feGaussianBlur stdDeviation="17"/>
<feComposite in2="hardAlpha" operator="out"/>
<feColorMatrix type="matrix" values="0 0 0 0 0 0 0 0 0 0 0 0 0 0 0 0 0 0 0.16 0"/>
<feBlend mode="normal" in2="BackgroundImageFix" result="effect1_dropShadow_1121_15615"/>
<feBlend mode="normal" in="SourceGraphic" in2="effect1_dropShadow_1121_15615" result="shape"/>
</filter>
</defs>
</svg>
