<svg width="32" height="32" viewBox="0 0 32 32" fill="none" xmlns="http://www.w3.org/2000/svg">
<path d="M24.0006 6.66675L20.782 3.44808C20.282 2.94795 19.6038 2.6669 18.8967 2.66675H8.00065C7.29341 2.66675 6.61513 2.9477 6.11503 3.4478C5.61494 3.94789 5.33398 4.62617 5.33398 5.33342V26.6668C5.33398 27.374 5.61494 28.0523 6.11503 28.5524C6.61513 29.0525 7.29341 29.3334 8.00065 29.3334H24.0006C24.7079 29.3334 25.3862 29.0525 25.8863 28.5524C26.3864 28.0523 26.6673 27.374 26.6673 26.6668" stroke="#03346E" stroke-width="2" stroke-linecap="round" stroke-linejoin="round"/>
<path d="M28.5033 16.8346C29.0345 16.3035 29.3328 15.5831 29.3328 14.832C29.3328 14.0808 29.0345 13.3604 28.5033 12.8293C27.9722 12.2981 27.2518 11.9998 26.5007 11.9998C25.7495 11.9998 25.0291 12.2981 24.498 12.8293L19.1513 18.1786C18.8343 18.4954 18.6023 18.8871 18.4767 19.3173L17.3607 23.144C17.3272 23.2587 17.3252 23.3803 17.3548 23.4961C17.3845 23.6118 17.4447 23.7175 17.5292 23.802C17.6138 23.8865 17.7194 23.9468 17.8352 23.9764C17.951 24.0061 18.0726 24.0041 18.1873 23.9706L22.014 22.8546C22.4442 22.729 22.8358 22.497 23.1527 22.18L28.5033 16.8346Z" stroke="#03346E" stroke-width="2" stroke-linecap="round" stroke-linejoin="round"/>
</svg>
