<svg width="2321" height="855" viewBox="0 0 2321 855" fill="none" xmlns="http://www.w3.org/2000/svg">
<path d="M7 75C7 37.4447 37.4446 7 75 7H2246C2283.56 7 2314 37.4446 2314 75V780C2314 817.555 2283.56 848 2246 848H75C37.4446 848 7 817.555 7 780V75Z" fill="white"/>
<path d="M7 75C7 37.4447 37.4446 7 75 7H2246C2283.56 7 2314 37.4446 2314 75V780C2314 817.555 2283.56 848 2246 848H75C37.4446 848 7 817.555 7 780V75Z" stroke="#676767" stroke-width="14"/>
<rect x="139" y="102" width="650" height="650" rx="43" fill="#01083E"/>
<path fill-rule="evenodd" clip-rule="evenodd" d="M431.651 658.696C451.244 662.068 479.978 661.654 498.989 658.01C503.791 657.089 508.719 652.531 509.984 647.842L521.443 605.374C522.709 600.684 527.173 594.902 531.409 592.475L577.457 566.083C581.693 563.656 588.963 562.704 593.694 563.96L634.9 574.924C639.624 576.181 646.013 574.175 649.157 570.461C652.144 566.918 660.042 555.751 667.029 543.741C674.425 531.013 680.484 517.887 682.284 512.815C683.911 508.234 682.426 501.726 678.967 498.293L651.226 470.747H560.471C543.683 507.149 506.66 532.465 463.732 532.465C405.039 532.465 357.396 485.151 357.396 426.881C357.396 368.604 405.039 321.29 463.732 321.29C502.7 321.29 536.802 342.151 555.319 373.23H659.551L678.512 354.409C681.97 350.975 683.439 344.475 681.797 339.894C675.392 322.086 661.339 297.559 648.701 282.701C645.55 278.995 639.152 277.005 634.429 278.261L591.053 289.803C586.33 291.059 579.052 290.107 574.816 287.68L528.768 261.28C524.54 258.853 520.068 253.071 518.803 248.381L507.179 205.313C505.913 200.623 500.978 196.12 496.168 195.262C477.974 192.015 450.678 191.992 432.955 194.957C428.13 195.769 423.186 200.232 421.921 204.922L410.195 248.381C408.929 253.071 404.458 258.853 400.221 261.28L354.182 287.68C349.945 290.107 342.644 291.137 337.897 289.982L291.496 278.667C286.741 277.504 280.335 279.588 277.2 283.31C274.213 286.845 266.314 298.012 259.328 310.022C252.49 321.774 246.8 333.885 245.291 337.951C243.601 342.508 245.031 348.993 248.49 352.427L281.003 384.703C284.462 388.136 287.267 394.871 287.267 399.725V452.516C287.267 457.378 284.517 464.167 281.137 467.671L248.521 501.437C245.141 504.949 243.766 511.488 245.456 516.046C251.767 533.066 265.536 556.804 277.655 571.054C280.807 574.76 287.204 576.758 291.928 575.502L335.303 563.96C340.027 562.704 347.305 563.656 351.541 566.083L397.588 592.475C401.825 594.902 406.367 600.661 407.735 605.327L420.443 648.747C421.811 653.413 426.825 657.869 431.651 658.696Z" fill="white"/>
<g filter="url(#filter0_d_1087_11758)">
<path d="M1734.03 540.482V102H1921.95C2032.83 102 2104.24 159.003 2104.24 256.095V257.348C2104.24 360.704 2024.68 415.201 1915.69 415.201H1855.55V540.482H1734.03ZM1855.55 319.988H1913.18C1956.41 319.988 1982.71 297.438 1982.71 262.986V261.733C1982.71 224.149 1956.41 204.104 1912.56 204.104H1855.55V319.988Z" fill="#0504A7"/>
<path d="M1283.8 540.482V102H1491.14C1558.17 102 1604.52 119.539 1633.96 149.607C1659.65 174.663 1672.8 208.488 1672.8 251.71V252.963C1672.8 319.988 1637.1 364.463 1582.6 387.64L1687.21 540.482H1546.89L1458.57 407.685H1457.32H1405.33V540.482H1283.8ZM1405.33 312.471H1485.51C1526.85 312.471 1550.65 292.426 1550.65 260.48V259.227C1550.65 224.775 1525.6 207.236 1484.88 207.236H1405.33V312.471Z" fill="#0504A7"/>
<path d="M866 540.482V102H1218.66V205.356H986.269V271.755H1196.74V367.595H986.269V437.125H1221.8V540.482H866Z" fill="#0504A7"/>
</g>
<path d="M2145.03 717.5C2145.26 719.992 2145.86 722.217 2146.81 724.175C2147.76 726.074 2148.97 727.705 2150.46 729.07C2151.94 730.375 2153.6 731.384 2155.44 732.096C2157.28 732.749 2159.21 733.075 2161.22 733.075C2164.43 733.075 2167.16 732.482 2169.41 731.295C2171.73 730.108 2173.83 728.536 2175.73 726.578L2180 730.405C2177.69 733.016 2175.05 735.122 2172.08 736.724C2169.12 738.267 2165.44 739.038 2161.05 739.038C2157.9 739.038 2154.94 738.474 2152.15 737.347C2149.36 736.16 2146.93 734.529 2144.85 732.452C2142.77 730.316 2141.11 727.765 2139.86 724.798C2138.68 721.831 2138.08 718.568 2138.08 715.008C2138.08 711.685 2138.62 708.57 2139.69 705.663C2140.81 702.696 2142.36 700.145 2144.31 698.009C2146.27 695.814 2148.59 694.093 2151.26 692.847C2153.99 691.601 2156.95 690.978 2160.16 690.978C2163.54 690.978 2166.56 691.631 2169.23 692.936C2171.9 694.182 2174.16 695.903 2176 698.098C2177.84 700.293 2179.23 702.874 2180.18 705.841C2181.13 708.808 2181.61 711.982 2181.61 715.364C2181.61 715.661 2181.61 715.987 2181.61 716.343C2181.61 716.699 2181.58 717.085 2181.52 717.5H2145.03ZM2145.03 712.427H2174.66C2174.49 710.35 2174.04 708.363 2173.33 706.464C2172.68 704.565 2171.73 702.904 2170.48 701.48C2169.29 700.056 2167.81 698.929 2166.03 698.098C2164.31 697.208 2162.29 696.763 2159.98 696.763C2157.96 696.763 2156.09 697.178 2154.37 698.009C2152.65 698.78 2151.14 699.878 2149.83 701.302C2148.53 702.667 2147.46 704.298 2146.63 706.197C2145.8 708.096 2145.26 710.172 2145.03 712.427Z" fill="#4B4B4B"/>
<path d="M2130.91 730.138C2128.59 732.749 2125.95 734.885 2122.99 736.546C2120.08 738.207 2116.46 739.038 2112.13 739.038C2108.75 739.038 2105.6 738.415 2102.69 737.169C2099.85 735.864 2097.35 734.143 2095.22 732.007C2093.14 729.812 2091.51 727.26 2090.32 724.353C2089.14 721.446 2088.54 718.36 2088.54 715.097C2088.54 711.834 2089.14 708.748 2090.32 705.841C2091.51 702.874 2093.14 700.293 2095.22 698.098C2097.35 695.903 2099.85 694.182 2102.69 692.936C2105.6 691.631 2108.75 690.978 2112.13 690.978C2114.32 690.978 2116.31 691.186 2118.09 691.601C2119.87 692.016 2121.5 692.61 2122.99 693.381C2124.47 694.093 2125.83 694.953 2127.08 695.962C2128.33 696.971 2129.48 698.039 2130.55 699.166L2126.01 703.972C2124.17 702.073 2122.16 700.442 2119.96 699.077C2117.82 697.712 2115.18 697.03 2112.04 697.03C2109.73 697.03 2107.56 697.505 2105.54 698.454C2103.53 699.344 2101.78 700.62 2100.29 702.281C2098.81 703.883 2097.65 705.782 2096.82 707.977C2095.99 710.113 2095.57 712.427 2095.57 714.919C2095.57 717.411 2095.99 719.755 2096.82 721.95C2097.71 724.145 2098.9 726.074 2100.38 727.735C2101.92 729.337 2103.7 730.613 2105.72 731.562C2107.8 732.452 2110.05 732.897 2112.48 732.897C2115.45 732.897 2118.06 732.244 2120.32 730.939C2122.63 729.634 2124.71 728.002 2126.55 726.044L2130.91 730.138Z" fill="#4B4B4B"/>
<path d="M2076.02 681.9H2068.19V674.335H2076.02V681.9ZM2075.49 737.97H2068.63V691.957H2075.49V737.97Z" fill="#4B4B4B"/>
<path d="M2034.29 730.138L2049.86 691.957H2057.25L2037.23 738.326H2031.17L2011.24 691.957H2018.8L2034.29 730.138Z" fill="#4B4B4B"/>
<path d="M1986.56 719.636V737.97H1979.71V691.957H1986.56V703.972C1987.39 702.073 1988.43 700.323 1989.67 698.721C1990.92 697.119 1992.35 695.754 1993.95 694.627C1995.55 693.44 1997.3 692.55 1999.2 691.957C2001.1 691.364 2003.14 691.097 2005.34 691.156V698.543H2004.8C2002.31 698.543 1999.94 698.988 1997.68 699.878C1995.49 700.768 1993.56 702.103 1991.9 703.883C1990.24 705.663 1988.93 707.888 1987.98 710.558C1987.03 713.169 1986.56 716.195 1986.56 719.636Z" fill="#4B4B4B"/>
<path d="M1931.13 717.5C1931.37 719.992 1931.96 722.217 1932.91 724.175C1933.86 726.074 1935.08 727.705 1936.56 729.07C1938.04 730.375 1939.71 731.384 1941.54 732.096C1943.38 732.749 1945.31 733.075 1947.33 733.075C1950.53 733.075 1953.26 732.482 1955.52 731.295C1957.83 730.108 1959.94 728.536 1961.84 726.578L1966.11 730.405C1963.79 733.016 1961.15 735.122 1958.19 736.724C1955.22 738.267 1951.54 739.038 1947.15 739.038C1944.01 739.038 1941.04 738.474 1938.25 737.347C1935.46 736.16 1933.03 734.529 1930.95 732.452C1928.88 730.316 1927.22 727.765 1925.97 724.798C1924.78 721.831 1924.19 718.568 1924.19 715.008C1924.19 711.685 1924.72 708.57 1925.79 705.663C1926.92 702.696 1928.46 700.145 1930.42 698.009C1932.38 695.814 1934.69 694.093 1937.36 692.847C1940.09 691.601 1943.06 690.978 1946.26 690.978C1949.64 690.978 1952.67 691.631 1955.34 692.936C1958.01 694.182 1960.26 695.903 1962.1 698.098C1963.94 700.293 1965.34 702.874 1966.29 705.841C1967.24 708.808 1967.71 711.982 1967.71 715.364C1967.71 715.661 1967.71 715.987 1967.71 716.343C1967.71 716.699 1967.68 717.085 1967.62 717.5H1931.13ZM1931.13 712.427H1960.77C1960.59 710.35 1960.15 708.363 1959.43 706.464C1958.78 704.565 1957.83 702.904 1956.59 701.48C1955.4 700.056 1953.92 698.929 1952.14 698.098C1950.41 697.208 1948.4 696.763 1946.08 696.763C1944.07 696.763 1942.2 697.178 1940.48 698.009C1938.76 698.78 1937.24 699.878 1935.94 701.302C1934.63 702.667 1933.56 704.298 1932.73 706.197C1931.9 708.096 1931.37 710.172 1931.13 712.427Z" fill="#4B4B4B"/>
<path d="M1876.69 691.245C1876.69 692.728 1876.93 694.063 1877.41 695.25C1877.88 696.437 1878.74 697.534 1879.99 698.543C1881.23 699.492 1882.95 700.382 1885.15 701.213C1887.35 701.984 1890.16 702.726 1893.6 703.438C1900.55 704.981 1905.65 707.117 1908.91 709.846C1912.24 712.575 1913.9 716.343 1913.9 721.149C1913.9 723.819 1913.36 726.252 1912.29 728.447C1911.23 730.642 1909.74 732.511 1907.84 734.054C1906.01 735.597 1903.78 736.783 1901.17 737.614C1898.56 738.445 1895.71 738.86 1892.63 738.86C1887.64 738.86 1883.07 738.059 1878.92 736.457C1874.83 734.796 1870.91 732.274 1867.17 728.892L1871.53 723.73C1874.8 726.697 1878.09 728.922 1881.41 730.405C1884.73 731.829 1888.56 732.541 1892.89 732.541C1897.11 732.541 1900.46 731.562 1902.95 729.604C1905.5 727.646 1906.78 725.065 1906.78 721.861C1906.78 720.378 1906.54 719.072 1906.06 717.945C1905.59 716.758 1904.76 715.69 1903.57 714.741C1902.39 713.792 1900.72 712.931 1898.59 712.16C1896.51 711.389 1893.84 710.647 1890.58 709.935C1887.02 709.164 1883.9 708.274 1881.23 707.265C1878.62 706.256 1876.46 705.04 1874.74 703.616C1873.02 702.192 1871.74 700.531 1870.91 698.632C1870.08 696.733 1869.66 694.479 1869.66 691.868C1869.66 689.376 1870.17 687.092 1871.18 685.015C1872.19 682.938 1873.61 681.158 1875.45 679.675C1877.29 678.132 1879.45 676.946 1881.95 676.115C1884.44 675.225 1887.17 674.78 1890.13 674.78C1894.7 674.78 1898.68 675.433 1902.06 676.738C1905.5 677.984 1908.82 679.883 1912.03 682.434L1907.93 687.863C1905.03 685.49 1902.09 683.769 1899.12 682.701C1896.22 681.633 1893.16 681.099 1889.96 681.099C1887.94 681.099 1886.1 681.366 1884.44 681.9C1882.84 682.434 1881.44 683.146 1880.25 684.036C1879.13 684.926 1878.24 685.994 1877.58 687.24C1876.99 688.486 1876.69 689.821 1876.69 691.245Z" fill="#4B4B4B"/>
<path d="M1832.58 691.957L1813.27 739.483C1811.31 744.23 1809.12 747.582 1806.68 749.54C1804.31 751.498 1801.4 752.477 1797.96 752.477C1796.06 752.477 1794.34 752.269 1792.8 751.854C1791.26 751.498 1789.72 750.934 1788.17 750.163L1790.49 744.734C1791.61 745.327 1792.71 745.743 1793.78 745.98C1794.91 746.277 1796.21 746.425 1797.7 746.425C1799.77 746.425 1801.52 745.802 1802.95 744.556C1804.37 743.31 1805.77 741.055 1807.13 737.792L1786.21 691.957H1793.78L1810.51 730.316L1825.29 691.957H1832.58Z" fill="#4B4B4B"/>
<path d="M1779.95 730.138C1777.63 732.749 1774.99 734.885 1772.03 736.546C1769.12 738.207 1765.5 739.038 1761.17 739.038C1757.79 739.038 1754.64 738.415 1751.74 737.169C1748.89 735.864 1746.4 734.143 1744.26 732.007C1742.18 729.812 1740.55 727.26 1739.36 724.353C1738.18 721.446 1737.58 718.36 1737.58 715.097C1737.58 711.834 1738.18 708.748 1739.36 705.841C1740.55 702.874 1742.18 700.293 1744.26 698.098C1746.4 695.903 1748.89 694.182 1751.74 692.936C1754.64 691.631 1757.79 690.978 1761.17 690.978C1763.37 690.978 1765.35 691.186 1767.13 691.601C1768.91 692.016 1770.54 692.61 1772.03 693.381C1773.51 694.093 1774.88 694.953 1776.12 695.962C1777.37 696.971 1778.52 698.039 1779.59 699.166L1775.05 703.972C1773.21 702.073 1771.2 700.442 1769 699.077C1766.87 697.712 1764.23 697.03 1761.08 697.03C1758.77 697.03 1756.6 697.505 1754.58 698.454C1752.57 699.344 1750.82 700.62 1749.33 702.281C1747.85 703.883 1746.69 705.782 1745.86 707.977C1745.03 710.113 1744.62 712.427 1744.62 714.919C1744.62 717.411 1745.03 719.755 1745.86 721.95C1746.75 724.145 1747.94 726.074 1749.42 727.735C1750.96 729.337 1752.74 730.613 1754.76 731.562C1756.84 732.452 1759.09 732.897 1761.53 732.897C1764.49 732.897 1767.1 732.244 1769.36 730.939C1771.67 729.634 1773.75 728.002 1775.59 726.044L1779.95 730.138Z" fill="#4B4B4B"/>
<path d="M1692.44 711.626V737.97H1685.59V691.957H1692.44V699.967C1693.99 697.475 1696 695.369 1698.49 693.648C1700.99 691.868 1704.22 690.978 1708.2 690.978C1710.98 690.978 1713.45 691.423 1715.58 692.313C1717.78 693.203 1719.62 694.479 1721.1 696.14C1722.64 697.742 1723.8 699.67 1724.57 701.925C1725.4 704.18 1725.82 706.672 1725.82 709.401V737.97H1718.96V711.092C1718.96 706.82 1717.87 703.438 1715.67 700.946C1713.48 698.454 1710.33 697.208 1706.24 697.208C1704.28 697.208 1702.44 697.564 1700.72 698.276C1699.06 698.929 1697.6 699.908 1696.36 701.213C1695.11 702.459 1694.13 703.972 1693.42 705.752C1692.77 707.532 1692.44 709.49 1692.44 711.626Z" fill="#4B4B4B"/>
<path d="M1650.69 697.386C1647.96 697.386 1645.47 697.712 1643.22 698.365C1641.02 698.958 1638.86 699.759 1636.72 700.768L1634.67 695.161C1637.22 693.974 1639.81 693.055 1642.42 692.402C1645.03 691.69 1648.02 691.334 1651.41 691.334C1657.69 691.334 1662.53 692.906 1665.91 696.051C1669.29 699.136 1670.99 703.735 1670.99 709.846V737.97H1664.4V731.028C1662.8 733.105 1660.63 734.944 1657.9 736.546C1655.23 738.148 1651.85 738.949 1647.76 738.949C1645.62 738.949 1643.51 738.652 1641.44 738.059C1639.42 737.466 1637.58 736.576 1635.92 735.389C1634.32 734.143 1633.01 732.63 1632 730.85C1631.05 729.07 1630.58 726.964 1630.58 724.531C1630.58 722.098 1631.05 719.962 1632 718.123C1632.95 716.224 1634.29 714.652 1636.01 713.406C1637.79 712.16 1639.86 711.211 1642.24 710.558C1644.67 709.905 1647.34 709.579 1650.25 709.579C1653.21 709.579 1655.8 709.757 1657.99 710.113C1660.19 710.469 1662.32 710.944 1664.4 711.537V709.935C1664.4 705.782 1663.18 702.667 1660.75 700.59C1658.38 698.454 1655.02 697.386 1650.69 697.386ZM1650.96 714.652C1646.63 714.652 1643.31 715.512 1640.99 717.233C1638.68 718.954 1637.52 721.297 1637.52 724.264C1637.52 725.747 1637.82 727.053 1638.41 728.18C1639.06 729.307 1639.92 730.286 1640.99 731.117C1642.06 731.888 1643.28 732.482 1644.64 732.897C1646.07 733.312 1647.55 733.52 1649.09 733.52C1651.23 733.52 1653.21 733.223 1655.05 732.63C1656.95 731.977 1658.58 731.117 1659.95 730.049C1661.37 728.922 1662.47 727.616 1663.24 726.133C1664.07 724.59 1664.49 722.899 1664.49 721.06V716.61C1662.77 716.135 1660.78 715.69 1658.53 715.275C1656.33 714.86 1653.81 714.652 1650.96 714.652Z" fill="#4B4B4B"/>
<path d="M1607.32 698.009V724.887C1607.32 727.735 1608.04 729.723 1609.46 730.85C1610.88 731.977 1612.75 732.541 1615.07 732.541C1616.25 732.541 1617.35 732.422 1618.36 732.185C1619.43 731.948 1620.55 731.532 1621.74 730.939V736.813C1620.55 737.466 1619.28 737.94 1617.91 738.237C1616.61 738.593 1615.13 738.771 1613.46 738.771C1611.63 738.771 1609.9 738.534 1608.3 738.059C1606.7 737.584 1605.31 736.843 1604.12 735.834C1602.99 734.766 1602.1 733.401 1601.45 731.74C1600.8 730.079 1600.47 728.091 1600.47 725.777V698.009H1594.06V691.957H1600.47V678.073H1607.32V691.957H1621.92V698.009H1607.32Z" fill="#4B4B4B"/>
<path d="M1582.16 737.97H1575.31V673H1582.16V737.97Z" fill="#4B4B4B"/>
<path d="M1552.51 718.301V691.957H1559.27V737.97H1552.51V729.96C1550.97 732.452 1548.95 734.588 1546.46 736.368C1543.96 738.089 1540.73 738.949 1536.75 738.949C1533.97 738.949 1531.47 738.504 1529.28 737.614C1527.14 736.724 1525.3 735.478 1523.76 733.876C1522.28 732.215 1521.12 730.257 1520.29 728.002C1519.52 725.747 1519.13 723.255 1519.13 720.526V691.957H1525.99V718.835C1525.99 723.107 1527.08 726.489 1529.28 728.981C1531.47 731.473 1534.62 732.719 1538.71 732.719C1540.67 732.719 1542.48 732.393 1544.14 731.74C1545.86 731.028 1547.32 730.049 1548.5 728.803C1549.75 727.498 1550.73 725.955 1551.44 724.175C1552.15 722.395 1552.51 720.437 1552.51 718.301Z" fill="#4B4B4B"/>
<path d="M1507.11 725.065C1507.11 727.26 1506.67 729.218 1505.78 730.939C1504.95 732.6 1503.79 734.024 1502.31 735.211C1500.88 736.398 1499.16 737.317 1497.15 737.97C1495.19 738.563 1493.05 738.86 1490.74 738.86C1487.41 738.86 1484.06 738.267 1480.68 737.08C1477.3 735.834 1474.3 734.173 1471.69 732.096L1475.16 727.201C1477.65 729.1 1480.24 730.553 1482.91 731.562C1485.63 732.571 1488.36 733.075 1491.09 733.075C1493.88 733.075 1496.17 732.422 1497.95 731.117C1499.73 729.812 1500.62 728.032 1500.62 725.777V725.599C1500.62 724.472 1500.29 723.493 1499.64 722.662C1499.04 721.831 1498.21 721.119 1497.15 720.526C1496.08 719.873 1494.83 719.31 1493.41 718.835C1492.04 718.36 1490.62 717.915 1489.14 717.5C1487.36 716.966 1485.55 716.402 1483.71 715.809C1481.93 715.156 1480.29 714.355 1478.81 713.406C1477.39 712.457 1476.2 711.27 1475.25 709.846C1474.36 708.422 1473.92 706.642 1473.92 704.506V704.328C1473.92 702.37 1474.3 700.59 1475.07 698.988C1475.84 697.327 1476.91 695.932 1478.28 694.805C1479.7 693.618 1481.36 692.728 1483.26 692.135C1485.22 691.482 1487.33 691.156 1489.58 691.156C1492.43 691.156 1495.31 691.631 1498.21 692.58C1501.12 693.47 1503.76 694.686 1506.13 696.229L1503.02 701.391C1500.88 700.026 1498.63 698.958 1496.26 698.187C1493.94 697.356 1491.66 696.941 1489.4 696.941C1486.67 696.941 1484.51 697.594 1482.91 698.899C1481.3 700.145 1480.5 701.717 1480.5 703.616V703.794C1480.5 704.862 1480.83 705.811 1481.48 706.642C1482.13 707.413 1482.99 708.096 1484.06 708.689C1485.19 709.282 1486.47 709.816 1487.89 710.291C1489.31 710.766 1490.8 711.24 1492.34 711.715C1494.12 712.249 1495.87 712.842 1497.59 713.495C1499.37 714.148 1500.97 714.978 1502.4 715.987C1503.82 716.996 1504.95 718.212 1505.78 719.636C1506.67 721.06 1507.11 722.81 1507.11 724.887V725.065Z" fill="#4B4B4B"/>
<path d="M1427.53 711.626V737.97H1420.68V691.957H1427.53V699.967C1429.07 697.475 1431.09 695.369 1433.58 693.648C1436.07 691.868 1439.31 690.978 1443.28 690.978C1446.07 690.978 1448.53 691.423 1450.67 692.313C1452.86 693.203 1454.7 694.479 1456.19 696.14C1457.73 697.742 1458.89 699.67 1459.66 701.925C1460.49 704.18 1460.9 706.672 1460.9 709.401V737.97H1454.05V711.092C1454.05 706.82 1452.95 703.438 1450.76 700.946C1448.56 698.454 1445.42 697.208 1441.32 697.208C1439.37 697.208 1437.53 697.564 1435.81 698.276C1434.14 698.929 1432.69 699.908 1431.44 701.213C1430.2 702.459 1429.22 703.972 1428.51 705.752C1427.86 707.532 1427.53 709.49 1427.53 711.626Z" fill="#4B4B4B"/>
<path d="M1408.26 714.919C1408.26 718.182 1407.64 721.297 1406.39 724.264C1405.21 727.171 1403.55 729.723 1401.41 731.918C1399.27 734.113 1396.72 735.864 1393.76 737.169C1390.79 738.415 1387.58 739.038 1384.14 739.038C1380.7 739.038 1377.53 738.415 1374.62 737.169C1371.71 735.864 1369.19 734.143 1367.06 732.007C1364.92 729.812 1363.26 727.26 1362.07 724.353C1360.88 721.446 1360.29 718.36 1360.29 715.097C1360.29 711.834 1360.88 708.748 1362.07 705.841C1363.26 702.874 1364.92 700.293 1367.06 698.098C1369.19 695.903 1371.71 694.182 1374.62 692.936C1377.59 691.631 1380.82 690.978 1384.32 690.978C1387.76 690.978 1390.94 691.631 1393.84 692.936C1396.81 694.182 1399.36 695.903 1401.5 698.098C1403.63 700.234 1405.3 702.756 1406.48 705.663C1407.67 708.57 1408.26 711.656 1408.26 714.919ZM1401.23 715.097C1401.23 712.605 1400.79 710.261 1399.9 708.066C1399.07 705.871 1397.88 703.972 1396.34 702.37C1394.79 700.709 1392.98 699.403 1390.91 698.454C1388.83 697.505 1386.58 697.03 1384.14 697.03C1381.65 697.03 1379.37 697.505 1377.29 698.454C1375.21 699.344 1373.43 700.62 1371.95 702.281C1370.53 703.883 1369.4 705.782 1368.57 707.977C1367.74 710.113 1367.32 712.427 1367.32 714.919C1367.32 717.411 1367.74 719.755 1368.57 721.95C1369.46 724.145 1370.64 726.044 1372.13 727.646C1373.67 729.248 1375.48 730.524 1377.56 731.473C1379.63 732.422 1381.89 732.897 1384.32 732.897C1386.81 732.897 1389.1 732.452 1391.17 731.562C1393.25 730.613 1395.03 729.337 1396.51 727.735C1398 726.133 1399.15 724.264 1399.99 722.128C1400.82 719.933 1401.23 717.589 1401.23 715.097Z" fill="#4B4B4B"/>
<path d="M1352.86 728.091C1351.26 729.752 1349.57 731.265 1347.79 732.63C1346.06 733.935 1344.2 735.063 1342.18 736.012C1340.16 736.961 1338 737.703 1335.68 738.237C1333.37 738.771 1330.79 739.038 1327.94 739.038C1323.43 739.038 1319.28 738.207 1315.48 736.546C1311.68 734.885 1308.39 732.63 1305.6 729.782C1302.81 726.875 1300.62 723.463 1299.01 719.547C1297.47 715.631 1296.7 711.418 1296.7 706.909C1296.7 702.459 1297.47 698.276 1299.01 694.36C1300.62 690.444 1302.81 687.032 1305.6 684.125C1308.39 681.158 1311.71 678.844 1315.57 677.183C1319.42 675.462 1323.64 674.602 1328.21 674.602C1331.05 674.602 1333.6 674.839 1335.86 675.314C1338.17 675.789 1340.31 676.471 1342.27 677.361C1344.23 678.192 1346.03 679.23 1347.7 680.476C1349.36 681.663 1350.96 682.998 1352.5 684.481L1347.7 689.643C1345.03 687.151 1342.15 685.104 1339.06 683.502C1336.04 681.9 1332.39 681.099 1328.12 681.099C1324.67 681.099 1321.47 681.752 1318.5 683.057C1315.6 684.362 1313.05 686.172 1310.85 688.486C1308.71 690.8 1307.02 693.529 1305.78 696.674C1304.59 699.759 1304 703.112 1304 706.731C1304 710.35 1304.59 713.732 1305.78 716.877C1307.02 720.022 1308.71 722.751 1310.85 725.065C1313.05 727.379 1315.6 729.218 1318.5 730.583C1321.47 731.888 1324.67 732.541 1328.12 732.541C1332.39 732.541 1336.07 731.77 1339.15 730.227C1342.24 728.625 1345.26 726.4 1348.23 723.552L1352.86 728.091Z" fill="#4B4B4B"/>
<path d="M1255.71 737.97H1248.86V673H1255.71V737.97Z" fill="#4B4B4B"/>
<path d="M1235.82 714.919C1235.82 718.182 1235.2 721.297 1233.96 724.264C1232.77 727.171 1231.11 729.723 1228.97 731.918C1226.84 734.113 1224.28 735.864 1221.32 737.169C1218.35 738.415 1215.15 739.038 1211.71 739.038C1208.26 739.038 1205.09 738.415 1202.18 737.169C1199.28 735.864 1196.75 734.143 1194.62 732.007C1192.48 729.812 1190.82 727.26 1189.63 724.353C1188.45 721.446 1187.85 718.36 1187.85 715.097C1187.85 711.834 1188.45 708.748 1189.63 705.841C1190.82 702.874 1192.48 700.293 1194.62 698.098C1196.75 695.903 1199.28 694.182 1202.18 692.936C1205.15 691.631 1208.38 690.978 1211.88 690.978C1215.32 690.978 1218.5 691.631 1221.41 692.936C1224.37 694.182 1226.92 695.903 1229.06 698.098C1231.2 700.234 1232.86 702.756 1234.04 705.663C1235.23 708.57 1235.82 711.656 1235.82 714.919ZM1228.79 715.097C1228.79 712.605 1228.35 710.261 1227.46 708.066C1226.63 705.871 1225.44 703.972 1223.9 702.37C1222.36 700.709 1220.55 699.403 1218.47 698.454C1216.39 697.505 1214.14 697.03 1211.71 697.03C1209.21 697.03 1206.93 697.505 1204.85 698.454C1202.78 699.344 1201 700.62 1199.51 702.281C1198.09 703.883 1196.96 705.782 1196.13 707.977C1195.3 710.113 1194.88 712.427 1194.88 714.919C1194.88 717.411 1195.3 719.755 1196.13 721.95C1197.02 724.145 1198.21 726.044 1199.69 727.646C1201.23 729.248 1203.04 730.524 1205.12 731.473C1207.2 732.422 1209.45 732.897 1211.88 732.897C1214.38 732.897 1216.66 732.452 1218.74 731.562C1220.81 730.613 1222.59 729.337 1224.08 727.735C1225.56 726.133 1226.72 724.264 1227.55 722.128C1228.38 719.933 1228.79 717.589 1228.79 715.097Z" fill="#4B4B4B"/>
<path d="M1178.29 714.919C1178.29 718.182 1177.66 721.297 1176.42 724.264C1175.23 727.171 1173.57 729.723 1171.43 731.918C1169.3 734.113 1166.75 735.864 1163.78 737.169C1160.81 738.415 1157.61 739.038 1154.17 739.038C1150.73 739.038 1147.55 738.415 1144.65 737.169C1141.74 735.864 1139.22 734.143 1137.08 732.007C1134.94 729.812 1133.28 727.26 1132.1 724.353C1130.91 721.446 1130.32 718.36 1130.32 715.097C1130.32 711.834 1130.91 708.748 1132.1 705.841C1133.28 702.874 1134.94 700.293 1137.08 698.098C1139.22 695.903 1141.74 694.182 1144.65 692.936C1147.61 691.631 1150.85 690.978 1154.35 690.978C1157.79 690.978 1160.96 691.631 1163.87 692.936C1166.84 694.182 1169.39 695.903 1171.52 698.098C1173.66 700.234 1175.32 702.756 1176.51 705.663C1177.69 708.57 1178.29 711.656 1178.29 714.919ZM1171.26 715.097C1171.26 712.605 1170.81 710.261 1169.92 708.066C1169.09 705.871 1167.9 703.972 1166.36 702.37C1164.82 700.709 1163.01 699.403 1160.93 698.454C1158.86 697.505 1156.6 697.03 1154.17 697.03C1151.68 697.03 1149.39 697.505 1147.32 698.454C1145.24 699.344 1143.46 700.62 1141.98 702.281C1140.55 703.883 1139.42 705.782 1138.59 707.977C1137.76 710.113 1137.35 712.427 1137.35 714.919C1137.35 717.411 1137.76 719.755 1138.59 721.95C1139.48 724.145 1140.67 726.044 1142.15 727.646C1143.7 729.248 1145.51 730.524 1147.58 731.473C1149.66 732.422 1151.91 732.897 1154.35 732.897C1156.84 732.897 1159.12 732.452 1161.2 731.562C1163.28 730.613 1165.06 729.337 1166.54 727.735C1168.02 726.133 1169.18 724.264 1170.01 722.128C1170.84 719.933 1171.26 717.589 1171.26 715.097Z" fill="#4B4B4B"/>
<path d="M1120.52 714.919C1120.52 718.716 1119.9 722.098 1118.65 725.065C1117.41 728.032 1115.74 730.553 1113.67 732.63C1111.65 734.647 1109.31 736.22 1106.64 737.347C1104.03 738.415 1101.33 738.949 1098.54 738.949C1096.4 738.949 1094.44 738.682 1092.66 738.148C1090.88 737.614 1089.28 736.902 1087.86 736.012C1086.43 735.122 1085.13 734.084 1083.94 732.897C1082.81 731.71 1081.81 730.464 1080.92 729.159V752.21H1074.06V691.957H1080.92V701.213C1081.86 699.848 1082.9 698.543 1084.03 697.297C1085.22 696.051 1086.52 694.983 1087.95 694.093C1089.37 693.144 1090.94 692.402 1092.66 691.868C1094.44 691.275 1096.4 690.978 1098.54 690.978C1101.27 690.978 1103.94 691.512 1106.55 692.58C1109.22 693.648 1111.59 695.22 1113.67 697.297C1115.74 699.314 1117.41 701.806 1118.65 704.773C1119.9 707.74 1120.52 711.122 1120.52 714.919ZM1113.49 715.008C1113.49 712.279 1113.04 709.816 1112.15 707.621C1111.32 705.426 1110.17 703.557 1108.68 702.014C1107.2 700.412 1105.48 699.196 1103.52 698.365C1101.56 697.534 1099.49 697.119 1097.29 697.119C1095.16 697.119 1093.08 697.564 1091.06 698.454C1089.1 699.285 1087.32 700.471 1085.72 702.014C1084.18 703.557 1082.93 705.426 1081.98 707.621C1081.09 709.816 1080.65 712.249 1080.65 714.919C1080.65 717.589 1081.09 720.051 1081.98 722.306C1082.93 724.501 1084.18 726.37 1085.72 727.913C1087.32 729.456 1089.1 730.672 1091.06 731.562C1093.08 732.393 1095.16 732.808 1097.29 732.808C1099.49 732.808 1101.56 732.422 1103.52 731.651C1105.54 730.82 1107.26 729.663 1108.68 728.18C1110.17 726.637 1111.32 724.768 1112.15 722.573C1113.04 720.318 1113.49 717.797 1113.49 715.008Z" fill="#4B4B4B"/>
<path d="M1026.07 711.626V737.97H1019.22V673H1026.07V699.967C1027.62 697.475 1029.63 695.369 1032.12 693.648C1034.62 691.868 1037.85 690.978 1041.83 690.978C1044.61 690.978 1047.08 691.423 1049.21 692.313C1051.41 693.203 1053.25 694.479 1054.73 696.14C1056.27 697.742 1057.43 699.67 1058.2 701.925C1059.03 704.18 1059.45 706.672 1059.45 709.401V737.97H1052.59V711.092C1052.59 706.82 1051.5 703.438 1049.3 700.946C1047.11 698.454 1043.96 697.208 1039.87 697.208C1037.91 697.208 1036.07 697.564 1034.35 698.276C1032.69 698.929 1031.23 699.908 1029.99 701.213C1028.74 702.459 1027.76 703.972 1027.05 705.752C1026.4 707.532 1026.07 709.49 1026.07 711.626Z" fill="#4B4B4B"/>
<path d="M1007.89 730.138C1005.58 732.749 1002.94 734.885 999.97 736.546C997.063 738.207 993.444 739.038 989.112 739.038C985.73 739.038 982.586 738.415 979.678 737.169C976.83 735.864 974.338 734.143 972.202 732.007C970.126 729.812 968.494 727.26 967.307 724.353C966.121 721.446 965.527 718.36 965.527 715.097C965.527 711.834 966.121 708.748 967.307 705.841C968.494 702.874 970.126 700.293 972.202 698.098C974.338 695.903 976.83 694.182 979.678 692.936C982.586 691.631 985.73 690.978 989.112 690.978C991.308 690.978 993.295 691.186 995.075 691.601C996.855 692.016 998.487 692.61 999.97 693.381C1001.45 694.093 1002.82 694.953 1004.06 695.962C1005.31 696.971 1006.47 698.039 1007.54 699.166L1003 703.972C1001.16 702.073 999.14 700.442 996.944 699.077C994.808 697.712 992.168 697.03 989.023 697.03C986.709 697.03 984.544 697.505 982.526 698.454C980.509 699.344 978.759 700.62 977.275 702.281C975.792 703.883 974.635 705.782 973.804 707.977C972.974 710.113 972.558 712.427 972.558 714.919C972.558 717.411 972.974 719.755 973.804 721.95C974.694 724.145 975.881 726.074 977.364 727.735C978.907 729.337 980.687 730.613 982.704 731.562C984.781 732.452 987.036 732.897 989.468 732.897C992.435 732.897 995.046 732.244 997.3 730.939C999.614 729.634 1001.69 728.002 1003.53 726.044L1007.89 730.138Z" fill="#4B4B4B"/>
<path d="M919.799 717.5C920.037 719.992 920.63 722.217 921.579 724.175C922.529 726.074 923.745 727.705 925.228 729.07C926.712 730.375 928.373 731.384 930.212 732.096C932.052 732.749 933.98 733.075 935.997 733.075C939.201 733.075 941.931 732.482 944.185 731.295C946.499 730.108 948.606 728.536 950.504 726.578L954.776 730.405C952.462 733.016 949.822 735.122 946.855 736.724C943.889 738.267 940.21 739.038 935.819 739.038C932.675 739.038 929.708 738.474 926.919 737.347C924.131 736.16 921.698 734.529 919.621 732.452C917.545 730.316 915.883 727.765 914.637 724.798C913.451 721.831 912.857 718.568 912.857 715.008C912.857 711.685 913.391 708.57 914.459 705.663C915.587 702.696 917.129 700.145 919.087 698.009C921.045 695.814 923.359 694.093 926.029 692.847C928.759 691.601 931.725 690.978 934.929 690.978C938.311 690.978 941.337 691.631 944.007 692.936C946.677 694.182 948.932 695.903 950.771 698.098C952.611 700.293 954.005 702.874 954.954 705.841C955.904 708.808 956.378 711.982 956.378 715.364C956.378 715.661 956.378 715.987 956.378 716.343C956.378 716.699 956.349 717.085 956.289 717.5H919.799ZM919.799 712.427H949.436C949.258 710.35 948.813 708.363 948.101 706.464C947.449 704.565 946.499 702.904 945.253 701.48C944.067 700.056 942.583 698.929 940.803 698.098C939.083 697.208 937.065 696.763 934.751 696.763C932.734 696.763 930.865 697.178 929.144 698.009C927.424 698.78 925.911 699.878 924.605 701.302C923.3 702.667 922.232 704.298 921.401 706.197C920.571 708.096 920.037 710.172 919.799 712.427Z" fill="#4B4B4B"/>
<path d="M894.035 682.167V737.97H886.915V682.167H866V675.67H914.95V682.167H894.035Z" fill="#4B4B4B"/>
<defs>
<filter id="filter0_d_1087_11758" x="859.1" y="95.1" width="1266.04" height="466.282" filterUnits="userSpaceOnUse" color-interpolation-filters="sRGB">
<feFlood flood-opacity="0" result="BackgroundImageFix"/>
<feColorMatrix in="SourceAlpha" type="matrix" values="0 0 0 0 0 0 0 0 0 0 0 0 0 0 0 0 0 0 127 0" result="hardAlpha"/>
<feOffset dx="7" dy="7"/>
<feGaussianBlur stdDeviation="6.95"/>
<feComposite in2="hardAlpha" operator="out"/>
<feColorMatrix type="matrix" values="0 0 0 0 0 0 0 0 0 0 0 0 0 0 0 0 0 0 0.65 0"/>
<feBlend mode="normal" in2="BackgroundImageFix" result="effect1_dropShadow_1087_11758"/>
<feBlend mode="normal" in="SourceGraphic" in2="effect1_dropShadow_1087_11758" result="shape"/>
</filter>
</defs>
</svg>
