<svg width="113" height="36" viewBox="0 0 113 36" fill="none" xmlns="http://www.w3.org/2000/svg">
<path d="M33.311 0.120361H2.51945C1.22292 0.120361 0.171875 1.17252 0.171875 2.47041V33.2943C0.171875 34.5922 1.22292 35.6444 2.51945 35.6444H33.311C34.6075 35.6444 35.6585 34.5922 35.6585 33.2943V2.47041C35.6585 1.17252 34.6075 0.120361 33.311 0.120361Z" fill="#01083E"/>
<path d="M88.7334 26.9001V18.0366H85.2251V15.1936H95.4824V18.0366H91.9741V26.9001H88.7334Z" fill="#0504A7"/>
<path d="M77.2466 26.9001V15.1936H80.4873V24.0571H86.151V26.9001H77.2466Z" fill="#0504A7"/>
<path d="M69.8486 27.1175C66.5238 27.1175 64.4355 25.4285 64.4355 21.766V15.1936H67.7271V21.6991C67.7271 23.3882 68.5788 24.1909 69.8819 24.1909C71.1851 24.1909 72.0368 23.4216 72.0368 21.7827V15.1936H75.3283V21.6824C75.3283 25.4619 73.1729 27.1175 69.8486 27.1175Z" fill="#0504A7"/>
<path d="M50.8276 26.9L55.8061 15.1099H58.9301L63.9086 26.9H60.4336L59.5819 24.8096H55.0713L54.236 26.9H50.8276ZM56.0234 22.2843H58.6462L57.343 18.9563L56.0234 22.2843Z" fill="#0504A7"/>
<path d="M44.5433 26.9838L39.7988 15.1936H43.424L46.0803 22.6022L48.7368 15.1936H52.2947L47.5504 26.9838H44.5433Z" fill="#0504A7"/>
<path d="M67.3276 11.7065V0H76.7332V2.7594H70.5351V4.5321H76.1485V7.09082H70.5351V8.94714H76.8168V11.7065H67.3276Z" fill="#0504A7"/>
<path d="M57.0327 11.7065V0H60.274V8.86352H65.9371V11.7065H57.0327Z" fill="#0504A7"/>
<path d="M51.6348 11.7065V0H54.8924V11.7065H51.6348Z" fill="#0504A7"/>
<path d="M40.7344 11.7065V0H50.0896V2.84302H43.9753V4.83313H49.5049V7.52563H43.9753V11.7065H40.7344Z" fill="#0504A7"/>
<path d="M110.475 34.0884C110.488 34.2246 110.52 34.3462 110.572 34.4532C110.624 34.557 110.69 34.6461 110.772 34.7207C110.852 34.7921 110.943 34.8472 111.043 34.8861C111.144 34.9218 111.249 34.9396 111.36 34.9396C111.534 34.9396 111.683 34.9072 111.806 34.8423C111.933 34.7775 112.047 34.6915 112.151 34.5845L112.384 34.7937C112.258 34.9364 112.114 35.0515 111.952 35.139C111.79 35.2234 111.589 35.2655 111.35 35.2655C111.178 35.2655 111.016 35.2347 110.864 35.1731C110.711 35.1082 110.579 35.0191 110.465 34.9056C110.352 34.7888 110.261 34.6494 110.193 34.4873C110.128 34.3251 110.096 34.1468 110.096 33.9522C110.096 33.7706 110.125 33.6004 110.184 33.4415C110.245 33.2793 110.329 33.1399 110.436 33.0232C110.543 32.9032 110.669 32.8092 110.815 32.7411C110.964 32.673 111.126 32.6389 111.301 32.6389C111.486 32.6389 111.651 32.6746 111.797 32.7459C111.943 32.814 112.065 32.9081 112.166 33.028C112.266 33.148 112.342 33.2891 112.394 33.4512C112.446 33.6134 112.472 33.7868 112.472 33.9717C112.472 33.9879 112.472 34.0057 112.472 34.0252C112.472 34.0446 112.471 34.0657 112.467 34.0884H110.475ZM110.475 33.8112H112.093C112.083 33.6976 112.059 33.589 112.02 33.4853C111.985 33.3815 111.933 33.2907 111.865 33.2129C111.8 33.1351 111.719 33.0735 111.622 33.028C111.528 32.9794 111.417 32.9551 111.291 32.9551C111.181 32.9551 111.079 32.9778 110.985 33.0232C110.891 33.0653 110.809 33.1253 110.737 33.2031C110.666 33.2777 110.608 33.3669 110.562 33.4707C110.517 33.5745 110.488 33.6879 110.475 33.8112Z" fill="#4B4B4B"/>
<path d="M109.704 34.7791C109.577 34.9218 109.433 35.0385 109.271 35.1293C109.113 35.2201 108.915 35.2655 108.679 35.2655C108.494 35.2655 108.322 35.2315 108.164 35.1634C108.008 35.092 107.872 34.998 107.755 34.8812C107.642 34.7613 107.553 34.6218 107.488 34.4629C107.423 34.3041 107.391 34.1354 107.391 33.9571C107.391 33.7787 107.423 33.6101 107.488 33.4512C107.553 33.2891 107.642 33.148 107.755 33.028C107.872 32.9081 108.008 32.814 108.164 32.7459C108.322 32.6746 108.494 32.6389 108.679 32.6389C108.798 32.6389 108.907 32.6503 109.004 32.673C109.101 32.6956 109.19 32.7281 109.271 32.7702C109.352 32.8092 109.427 32.8562 109.495 32.9113C109.563 32.9664 109.626 33.0248 109.684 33.0864L109.436 33.3491C109.336 33.2453 109.226 33.1561 109.106 33.0815C108.99 33.0069 108.845 32.9697 108.674 32.9697C108.547 32.9697 108.429 32.9956 108.319 33.0475C108.209 33.0961 108.113 33.1659 108.032 33.2567C107.951 33.3442 107.888 33.448 107.843 33.5679C107.797 33.6847 107.775 33.8112 107.775 33.9473C107.775 34.0835 107.797 34.2116 107.843 34.3316C107.891 34.4516 107.956 34.557 108.037 34.6478C108.121 34.7353 108.218 34.8051 108.329 34.8569C108.442 34.9056 108.565 34.9299 108.698 34.9299C108.86 34.9299 109.002 34.8942 109.126 34.8229C109.252 34.7516 109.365 34.6624 109.466 34.5554L109.704 34.7791Z" fill="#4B4B4B"/>
<path d="M106.707 32.1427H106.28V31.7292H106.707V32.1427ZM106.678 35.2071H106.304V32.6923H106.678V35.2071Z" fill="#4B4B4B"/>
<path d="M104.429 34.7791L105.279 32.6924H105.682L104.589 35.2266H104.258L103.17 32.6924H103.583L104.429 34.7791Z" fill="#4B4B4B"/>
<path d="M101.824 34.2051V35.2071H101.45V32.6924H101.824V33.3491C101.869 33.2453 101.926 33.1496 101.994 33.0621C102.062 32.9745 102.14 32.8999 102.227 32.8383C102.314 32.7735 102.41 32.7248 102.514 32.6924C102.617 32.66 102.729 32.6454 102.849 32.6486V33.0523H102.82C102.684 33.0523 102.554 33.0767 102.431 33.1253C102.311 33.1739 102.206 33.2469 102.115 33.3442C102.025 33.4415 101.953 33.5631 101.901 33.709C101.85 33.8517 101.824 34.0171 101.824 34.2051Z" fill="#4B4B4B"/>
<path d="M98.7978 34.0884C98.8109 34.2246 98.8431 34.3462 98.895 34.4532C98.9469 34.557 99.0135 34.6461 99.0943 34.7207C99.1751 34.7921 99.2663 34.8472 99.3662 34.8861C99.4666 34.9218 99.572 34.9396 99.6823 34.9396C99.857 34.9396 100.006 34.9072 100.129 34.8423C100.256 34.7775 100.371 34.6915 100.474 34.5845L100.708 34.7937C100.581 34.9364 100.437 35.0515 100.275 35.139C100.113 35.2234 99.9121 35.2655 99.6724 35.2655C99.501 35.2655 99.3389 35.2347 99.1865 35.1731C99.0342 35.1082 98.9016 35.0191 98.788 34.9056C98.675 34.7888 98.5844 34.6494 98.5161 34.4873C98.4512 34.3251 98.4189 34.1468 98.4189 33.9522C98.4189 33.7706 98.4479 33.6004 98.5063 33.4415C98.568 33.2793 98.6521 33.1399 98.7591 33.0232C98.8661 32.9032 98.9922 32.8092 99.138 32.7411C99.287 32.673 99.4491 32.6389 99.6239 32.6389C99.8084 32.6389 99.9738 32.6746 100.12 32.7459C100.265 32.814 100.388 32.9081 100.489 33.028C100.589 33.148 100.666 33.2891 100.717 33.4512C100.769 33.6134 100.795 33.7868 100.795 33.9717C100.795 33.9879 100.795 34.0057 100.795 34.0252C100.795 34.0446 100.793 34.0657 100.79 34.0884H98.7978ZM98.7978 33.8112H100.416C100.406 33.6976 100.382 33.589 100.343 33.4853C100.307 33.3815 100.256 33.2907 100.188 33.2129C100.123 33.1351 100.042 33.0735 99.9449 33.028C99.851 32.9794 99.7407 32.9551 99.614 32.9551C99.5043 32.9551 99.4022 32.9778 99.3083 33.0232C99.2144 33.0653 99.1314 33.1253 99.0604 33.2031C98.9889 33.2777 98.9305 33.3669 98.8852 33.4707C98.8399 33.5745 98.8109 33.6879 98.7978 33.8112Z" fill="#4B4B4B"/>
<path d="M95.8255 32.6535C95.8255 32.7346 95.838 32.8075 95.8642 32.8724C95.8899 32.9373 95.9368 32.9972 96.0051 33.0524C96.0728 33.1042 96.1667 33.1529 96.2868 33.1983C96.4069 33.2404 96.5603 33.281 96.7487 33.3199C97.1275 33.4042 97.406 33.521 97.584 33.6701C97.7658 33.8192 97.8564 34.0252 97.8564 34.2878C97.8564 34.4338 97.8269 34.5667 97.769 34.6867C97.7106 34.8067 97.6293 34.9088 97.5261 34.9931C97.4256 35.0775 97.3039 35.1423 97.1614 35.1877C97.0189 35.2331 96.8633 35.2558 96.6952 35.2558C96.4227 35.2558 96.1732 35.212 95.9467 35.1245C95.7234 35.0337 95.5094 34.8958 95.3052 34.711L95.5432 34.4289C95.7217 34.591 95.9014 34.7127 96.0826 34.7937C96.2639 34.8715 96.473 34.9104 96.7094 34.9104C96.9397 34.9104 97.1226 34.8569 97.2586 34.7499C97.3978 34.6429 97.4677 34.5019 97.4677 34.3267C97.4677 34.2457 97.4546 34.1743 97.4289 34.1127C97.4027 34.0479 97.3574 33.9895 97.2924 33.9376C97.228 33.8858 97.1374 33.8387 97.0205 33.7966C96.907 33.7544 96.7612 33.7139 96.5832 33.675C96.3889 33.6328 96.2185 33.5842 96.0728 33.529C95.9303 33.4739 95.8124 33.4074 95.7185 33.3296C95.6246 33.2518 95.5547 33.161 95.5094 33.0572C95.464 32.9534 95.4411 32.8303 95.4411 32.6876C95.4411 32.5514 95.469 32.4265 95.5241 32.313C95.5792 32.1995 95.6568 32.1022 95.7572 32.0212C95.8577 31.9369 95.9756 31.872 96.1121 31.8266C96.248 31.778 96.3971 31.7537 96.5587 31.7537C96.8082 31.7537 97.0255 31.7894 97.21 31.8607C97.3978 31.9288 97.5791 32.0326 97.7543 32.172L97.5305 32.4687C97.3721 32.339 97.2116 32.2449 97.0495 32.1866C96.8912 32.1282 96.7241 32.099 96.5494 32.099C96.4391 32.099 96.3387 32.1136 96.248 32.1428C96.1607 32.172 96.0842 32.2109 96.0198 32.2595C95.9581 32.3082 95.9095 32.3665 95.874 32.4346C95.8413 32.5027 95.8255 32.5757 95.8255 32.6535Z" fill="#4B4B4B"/>
<path d="M93.4168 32.6924L92.3625 35.2898C92.2555 35.5492 92.136 35.7324 92.0033 35.8394C91.8734 35.9464 91.715 35.9999 91.5267 35.9999C91.4235 35.9999 91.3291 35.9886 91.245 35.9659C91.1609 35.9464 91.0768 35.9156 90.9922 35.8735L91.1189 35.5768C91.18 35.6092 91.2401 35.6319 91.2985 35.6449C91.3602 35.6611 91.4312 35.6692 91.5125 35.6692C91.6255 35.6692 91.721 35.6351 91.7991 35.567C91.8766 35.4989 91.9531 35.3757 92.0273 35.1974L90.8857 32.6924H91.2985L92.2119 34.7888L93.0188 32.6924H93.4168Z" fill="#4B4B4B"/>
<path d="M90.5436 34.7791C90.4175 34.9218 90.2728 35.0385 90.1112 35.1293C89.9523 35.2201 89.7547 35.2655 89.5183 35.2655C89.3338 35.2655 89.1618 35.2315 89.0035 35.1634C88.8479 35.092 88.7119 34.998 88.5951 34.8812C88.4815 34.7613 88.3926 34.6218 88.3281 34.4629C88.2632 34.3041 88.231 34.1354 88.231 33.9571C88.231 33.7787 88.2632 33.6101 88.3281 33.4512C88.3926 33.2891 88.4815 33.148 88.5951 33.028C88.7119 32.9081 88.8479 32.814 89.0035 32.7459C89.1618 32.6746 89.3338 32.6389 89.5183 32.6389C89.6384 32.6389 89.7465 32.6503 89.8437 32.673C89.9409 32.6956 90.0299 32.7281 90.1112 32.7702C90.192 32.8092 90.2668 32.8562 90.3345 32.9113C90.4027 32.9664 90.4661 33.0248 90.5239 33.0864L90.2761 33.3491C90.1756 33.2453 90.0659 33.1561 89.9458 33.0815C89.8295 33.0069 89.6854 32.9697 89.5134 32.9697C89.3873 32.9697 89.2688 32.9956 89.1585 33.0475C89.0488 33.0961 88.9532 33.1659 88.8719 33.2567C88.7911 33.3442 88.7278 33.448 88.6825 33.5679C88.6371 33.6847 88.6148 33.8112 88.6148 33.9473C88.6148 34.0835 88.6371 34.2116 88.6825 34.3316C88.731 34.4516 88.796 34.557 88.8768 34.6478C88.9609 34.7353 89.0581 34.8051 89.1684 34.8569C89.2819 34.9056 89.4047 34.9299 89.538 34.9299C89.6996 34.9299 89.8421 34.8942 89.9654 34.8229C90.0916 34.7516 90.2051 34.6624 90.3056 34.5554L90.5436 34.7791Z" fill="#4B4B4B"/>
<path d="M85.7661 33.7674V35.2071H85.3921V32.6924H85.7661V33.1302C85.8507 32.994 85.9604 32.8789 86.0969 32.7848C86.2329 32.6876 86.4092 32.6389 86.6265 32.6389C86.7788 32.6389 86.9131 32.6632 87.0294 32.7119C87.1495 32.7605 87.25 32.8303 87.3308 32.921C87.4148 33.0086 87.4782 33.114 87.5202 33.2372C87.5655 33.3604 87.5884 33.4966 87.5884 33.6458V35.2071H87.2145V33.7382C87.2145 33.5047 87.1544 33.3199 87.0343 33.1837C86.9147 33.0475 86.7428 32.9794 86.5195 32.9794C86.4125 32.9794 86.312 32.9989 86.2181 33.0378C86.1275 33.0735 86.0483 33.127 85.9801 33.1983C85.9118 33.2664 85.8583 33.3491 85.8196 33.4463C85.7841 33.5436 85.7661 33.6506 85.7661 33.7674Z" fill="#4B4B4B"/>
<path d="M83.4866 32.9892C83.3375 32.9892 83.2016 33.007 83.0788 33.0427C82.9586 33.0751 82.8407 33.1189 82.7239 33.174L82.612 32.8676C82.7512 32.8027 82.8926 32.7525 83.0351 32.7168C83.1776 32.6779 83.3408 32.6584 83.5259 32.6584C83.8687 32.6584 84.133 32.7444 84.3175 32.9162C84.502 33.0848 84.5949 33.3362 84.5949 33.6702V35.2072H84.2351V34.8278C84.1477 34.9413 84.0293 35.0418 83.8802 35.1294C83.7344 35.2169 83.5499 35.2607 83.3266 35.2607C83.2098 35.2607 83.0946 35.2445 82.9816 35.2121C82.8713 35.1797 82.7708 35.131 82.6802 35.0662C82.5929 34.9981 82.5213 34.9154 82.4662 34.8181C82.4143 34.7208 82.3887 34.6057 82.3887 34.4727C82.3887 34.3398 82.4143 34.223 82.4662 34.1225C82.5181 34.0187 82.5912 33.9328 82.6851 33.8647C82.7823 33.7966 82.8959 33.7448 83.0252 33.7091C83.1579 33.6734 83.3037 33.6556 83.4626 33.6556C83.6247 33.6556 83.7656 33.6653 83.8851 33.6848C84.0052 33.7042 84.1215 33.7302 84.2351 33.7626V33.675C84.2351 33.4481 84.1685 33.2778 84.0358 33.1643C83.9064 33.0476 83.723 32.9892 83.4866 32.9892ZM83.5013 33.9328C83.2649 33.9328 83.0837 33.9798 82.957 34.0739C82.8309 34.1679 82.7676 34.296 82.7676 34.4581C82.7676 34.5392 82.7839 34.6106 82.8162 34.6722C82.8516 34.7338 82.8986 34.7873 82.957 34.8327C83.0154 34.8748 83.082 34.9073 83.1563 34.93C83.2343 34.9526 83.3151 34.964 83.3992 34.964C83.5161 34.964 83.6247 34.9478 83.7246 34.9154C83.8283 34.8797 83.9173 34.8327 83.9921 34.7743C84.0697 34.7127 84.1297 34.6413 84.1717 34.5603C84.2171 34.476 84.24 34.3835 84.24 34.283V34.0398C84.1461 34.0139 84.0374 33.9896 83.9146 33.9669C83.7945 33.9442 83.6569 33.9328 83.5013 33.9328Z" fill="#4B4B4B"/>
<path d="M81.1189 33.0231V34.4921C81.1189 34.6477 81.1583 34.7564 81.2358 34.818C81.3133 34.8796 81.4154 34.9104 81.5421 34.9104C81.6065 34.9104 81.6665 34.9039 81.7217 34.8909C81.7801 34.878 81.8418 34.8553 81.9062 34.8228V35.1439C81.8418 35.1796 81.7719 35.2055 81.6977 35.2217C81.6261 35.2412 81.5453 35.2509 81.4547 35.2509C81.3542 35.2509 81.2603 35.2379 81.1724 35.212C81.0851 35.186 81.0092 35.1455 80.9442 35.0904C80.8825 35.032 80.834 34.9574 80.7985 34.8666C80.763 34.7758 80.745 34.6672 80.745 34.5407V33.0231H80.395V32.6924H80.745V31.9336H81.1189V32.6924H81.916V33.0231H81.1189Z" fill="#4B4B4B"/>
<path d="M79.7446 35.2073H79.3706V31.6565H79.7446V35.2073Z" fill="#4B4B4B"/>
<path d="M78.1261 34.1321V32.6924H78.4952V35.2071H78.1261V34.7693C78.042 34.9055 77.9317 35.0223 77.7958 35.1195C77.6593 35.2136 77.483 35.2606 77.2662 35.2606C77.1139 35.2606 76.9774 35.2363 76.8579 35.1876C76.741 35.139 76.6406 35.0709 76.5565 34.9834C76.4757 34.8926 76.4124 34.7856 76.367 34.6623C76.325 34.5391 76.3037 34.4029 76.3037 34.2537V32.6924H76.6782V34.1613C76.6782 34.3948 76.7377 34.5796 76.8579 34.7158C76.9774 34.852 77.1494 34.9201 77.3727 34.9201C77.4797 34.9201 77.5785 34.9023 77.6691 34.8666C77.763 34.8277 77.8427 34.7742 77.9072 34.7061C77.9754 34.6348 78.0289 34.5505 78.0677 34.4532C78.1064 34.3559 78.1261 34.2489 78.1261 34.1321Z" fill="#4B4B4B"/>
<path d="M75.6471 34.5019C75.6471 34.6219 75.6231 34.7289 75.5745 34.8229C75.5292 34.9137 75.4659 34.9915 75.3851 35.0564C75.307 35.1213 75.2131 35.1715 75.1034 35.2072C74.9964 35.2396 74.8795 35.2558 74.7534 35.2558C74.5722 35.2558 74.3887 35.2234 74.2042 35.1585C74.0197 35.0904 73.8559 34.9997 73.7134 34.8861L73.9028 34.6186C74.0393 34.7224 74.1802 34.8018 74.3259 34.857C74.475 34.9121 74.6235 34.9397 74.7725 34.9397C74.9248 34.9397 75.0499 34.904 75.147 34.8326C75.2442 34.7613 75.2928 34.664 75.2928 34.5408V34.5311C75.2928 34.4695 75.2748 34.416 75.2393 34.3706C75.2065 34.3251 75.1612 34.2862 75.1034 34.2538C75.0449 34.2181 74.9767 34.1874 74.8992 34.1614C74.8244 34.1354 74.7469 34.1111 74.6661 34.0884C74.5689 34.0593 74.4701 34.0284 74.3696 33.996C74.2724 33.9603 74.1834 33.9166 74.1021 33.8647C74.0246 33.8128 73.9596 33.748 73.9077 33.6701C73.8591 33.5923 73.8351 33.495 73.8351 33.3783V33.3686C73.8351 33.2616 73.8559 33.1643 73.8979 33.0767C73.9405 32.9859 73.9984 32.9097 74.0732 32.8481C74.1507 32.7832 74.2413 32.7346 74.345 32.7022C74.452 32.6665 74.5672 32.6487 74.6901 32.6487C74.8457 32.6487 75.0029 32.6746 75.1612 32.7265C75.3201 32.7751 75.4642 32.8416 75.5942 32.9259L75.4238 33.208C75.307 33.1334 75.1842 33.0751 75.0548 33.0329C74.9281 32.9875 74.8036 32.9648 74.6803 32.9648C74.5312 32.9648 74.4133 33.0005 74.3259 33.0719C74.238 33.14 74.1944 33.2259 74.1944 33.3297V33.3394C74.1944 33.3977 74.2124 33.4496 74.2479 33.495C74.2833 33.5372 74.3308 33.5745 74.3887 33.6069C74.4504 33.6393 74.5203 33.6685 74.5978 33.6945C74.6753 33.7204 74.7567 33.7463 74.8408 33.7723C74.9379 33.8015 75.0335 33.8339 75.1274 33.8696C75.2246 33.9052 75.3119 33.9506 75.39 34.0058C75.4675 34.0609 75.5292 34.1274 75.5745 34.2052C75.6231 34.283 75.6471 34.3786 75.6471 34.4922V34.5019Z" fill="#4B4B4B"/>
<path d="M71.3027 33.7674V35.2071H70.9287V32.6924H71.3027V33.1302C71.3868 32.994 71.497 32.8789 71.633 32.7848C71.7689 32.6876 71.9458 32.6389 72.1626 32.6389C72.3149 32.6389 72.4492 32.6632 72.566 32.7119C72.6856 32.7605 72.786 32.8303 72.8674 32.921C72.9515 33.0086 73.0148 33.114 73.0568 33.2372C73.1021 33.3604 73.1245 33.4966 73.1245 33.6458V35.2071H72.7505V33.7382C72.7505 33.5047 72.6905 33.3199 72.5709 33.1837C72.4508 33.0475 72.2794 32.9794 72.0555 32.9794C71.9491 32.9794 71.8486 32.9989 71.7547 33.0378C71.6641 33.0735 71.5844 33.127 71.5167 33.1983C71.4485 33.2664 71.3949 33.3491 71.3562 33.4463C71.3207 33.5436 71.3027 33.6506 71.3027 33.7674Z" fill="#4B4B4B"/>
<path d="M70.2512 33.9473C70.2512 34.1257 70.2174 34.2959 70.1491 34.4581C70.0847 34.6169 69.9941 34.7564 69.8773 34.8764C69.7604 34.9963 69.6212 35.092 69.4596 35.1634C69.2975 35.2315 69.1222 35.2655 68.9344 35.2655C68.7466 35.2655 68.5735 35.2315 68.4147 35.1634C68.2558 35.092 68.1182 34.998 68.0019 34.8812C67.8851 34.7613 67.7945 34.6218 67.7295 34.4629C67.6645 34.3041 67.6323 34.1354 67.6323 33.9571C67.6323 33.7787 67.6645 33.6101 67.7295 33.4512C67.7945 33.2891 67.8851 33.148 68.0019 33.028C68.1182 32.9081 68.2558 32.814 68.4147 32.7459C68.5768 32.6746 68.7532 32.6389 68.9442 32.6389C69.132 32.6389 69.3057 32.6746 69.464 32.7459C69.6261 32.814 69.7653 32.9081 69.8822 33.028C69.9985 33.1448 70.0896 33.2826 70.1541 33.4415C70.219 33.6004 70.2512 33.769 70.2512 33.9473ZM69.8674 33.9571C69.8674 33.8209 69.8434 33.6928 69.7948 33.5728C69.7495 33.4529 69.6845 33.3491 69.6005 33.2615C69.5158 33.1707 69.417 33.0994 69.304 33.0475C69.1905 32.9956 69.0676 32.9697 68.9344 32.9697C68.7985 32.9697 68.674 32.9956 68.5604 33.0475C68.4469 33.0961 68.3497 33.1659 68.2689 33.2567C68.1914 33.3442 68.1297 33.448 68.0844 33.5679C68.0391 33.6847 68.0161 33.8112 68.0161 33.9473C68.0161 34.0835 68.0391 34.2116 68.0844 34.3316C68.133 34.4516 68.1979 34.5554 68.2787 34.6429C68.3628 34.7305 68.4616 34.8002 68.5752 34.8521C68.6882 34.9039 68.8116 34.9299 68.9442 34.9299C69.0802 34.9299 69.2052 34.9056 69.3182 34.8569C69.4318 34.8051 69.5289 34.7353 69.6097 34.6478C69.6911 34.5602 69.7539 34.4581 69.7997 34.3413C69.8451 34.2214 69.8674 34.0933 69.8674 33.9571Z" fill="#4B4B4B"/>
<path d="M67.2267 34.6674C67.1393 34.7582 67.0471 34.8409 66.9499 34.9155C66.8554 34.9868 66.7539 35.0485 66.6436 35.1003C66.5333 35.1522 66.4154 35.1928 66.2888 35.2219C66.1626 35.2511 66.0218 35.2657 65.8662 35.2657C65.62 35.2657 65.3934 35.2203 65.1859 35.1295C64.9785 35.0388 64.7989 34.9155 64.6465 34.7599C64.4942 34.601 64.3747 34.4145 64.2868 34.2005C64.2027 33.9865 64.1606 33.7562 64.1606 33.5098C64.1606 33.2666 64.2027 33.038 64.2868 32.824C64.3747 32.6099 64.4942 32.4235 64.6465 32.2646C64.7989 32.1024 64.9801 31.976 65.1908 31.8852C65.401 31.7911 65.6314 31.7441 65.8809 31.7441C66.036 31.7441 66.1752 31.7571 66.2986 31.7831C66.4247 31.809 66.5415 31.8463 66.6485 31.8949C66.7555 31.9403 66.8544 31.9971 66.945 32.0652C67.0356 32.13 67.123 32.203 67.207 32.2841L66.945 32.5662C66.7992 32.43 66.642 32.3181 66.4733 32.2305C66.3084 32.143 66.1091 32.0992 65.876 32.0992C65.6882 32.0992 65.513 32.1349 65.3508 32.2062C65.1925 32.2775 65.0533 32.3765 64.9332 32.5029C64.8163 32.6294 64.7241 32.7785 64.6564 32.9504C64.5914 33.119 64.5592 33.3023 64.5592 33.5001C64.5592 33.6979 64.5914 33.8827 64.6564 34.0546C64.7241 34.2265 64.8163 34.3756 64.9332 34.5021C65.0533 34.6285 65.1925 34.729 65.3508 34.8036C65.513 34.875 65.6882 34.9106 65.876 34.9106C66.1091 34.9106 66.31 34.8685 66.4782 34.7842C66.6469 34.6966 66.8118 34.575 66.9739 34.4194L67.2267 34.6674Z" fill="#4B4B4B"/>
<path d="M61.9233 35.2073H61.5488V31.6565H61.9233V35.2073Z" fill="#4B4B4B"/>
<path d="M60.8367 33.9473C60.8367 34.1257 60.8028 34.2959 60.7351 34.4581C60.6702 34.6169 60.5795 34.7564 60.4627 34.8764C60.3464 34.9963 60.2067 35.092 60.0451 35.1634C59.8829 35.2315 59.7082 35.2655 59.5204 35.2655C59.3321 35.2655 59.159 35.2315 59.0001 35.1634C58.8418 35.092 58.7037 34.998 58.5874 34.8812C58.4705 34.7613 58.3799 34.6218 58.315 34.4629C58.2505 34.3041 58.2178 34.1354 58.2178 33.9571C58.2178 33.7787 58.2505 33.6101 58.315 33.4512C58.3799 33.2891 58.4705 33.148 58.5874 33.028C58.7037 32.9081 58.8418 32.814 59.0001 32.7459C59.1623 32.6746 59.3386 32.6389 59.5297 32.6389C59.718 32.6389 59.8911 32.6746 60.05 32.7459C60.2116 32.814 60.3508 32.9081 60.4676 33.028C60.5845 33.1448 60.6751 33.2826 60.7395 33.4415C60.8045 33.6004 60.8367 33.769 60.8367 33.9473ZM60.4529 33.9571C60.4529 33.8209 60.4289 33.6928 60.3803 33.5728C60.335 33.4529 60.27 33.3491 60.1859 33.2615C60.1018 33.1707 60.003 33.0994 59.8895 33.0475C59.7759 32.9956 59.6531 32.9697 59.5204 32.9697C59.3839 32.9697 59.2594 32.9956 59.1459 33.0475C59.0329 33.0961 58.9357 33.1659 58.8544 33.2567C58.7768 33.3442 58.7151 33.448 58.6698 33.5679C58.6245 33.6847 58.6016 33.8112 58.6016 33.9473C58.6016 34.0835 58.6245 34.2116 58.6698 34.3316C58.7184 34.4516 58.7834 34.5554 58.8642 34.6429C58.9483 34.7305 59.0471 34.8002 59.1606 34.8521C59.2742 34.9039 59.397 34.9299 59.5297 34.9299C59.6662 34.9299 59.7907 34.9056 59.9042 34.8569C60.0172 34.8051 60.1144 34.7353 60.1957 34.6478C60.2765 34.5602 60.3399 34.4581 60.3852 34.3413C60.4305 34.2214 60.4529 34.0933 60.4529 33.9571Z" fill="#4B4B4B"/>
<path d="M57.6966 33.9473C57.6966 34.1257 57.6622 34.2959 57.5945 34.4581C57.5295 34.6169 57.4389 34.7564 57.322 34.8764C57.2057 34.9963 57.0665 35.092 56.9044 35.1634C56.7422 35.2315 56.5675 35.2655 56.3797 35.2655C56.1919 35.2655 56.0183 35.2315 55.86 35.1634C55.7011 35.092 55.5635 34.998 55.4467 34.8812C55.3299 34.7613 55.2392 34.6218 55.1748 34.4629C55.1098 34.3041 55.0776 34.1354 55.0776 33.9571C55.0776 33.7787 55.1098 33.6101 55.1748 33.4512C55.2392 33.2891 55.3299 33.148 55.4467 33.028C55.5635 32.9081 55.7011 32.814 55.86 32.7459C56.0216 32.6746 56.1985 32.6389 56.3895 32.6389C56.5774 32.6389 56.7504 32.6746 56.9093 32.7459C57.0714 32.814 57.2107 32.9081 57.3269 33.028C57.4438 33.1448 57.5344 33.2826 57.5994 33.4415C57.6638 33.6004 57.6966 33.769 57.6966 33.9473ZM57.3127 33.9571C57.3127 33.8209 57.2882 33.6928 57.2396 33.5728C57.1943 33.4529 57.1293 33.3491 57.0452 33.2615C56.9612 33.1707 56.8623 33.0994 56.7488 33.0475C56.6358 32.9956 56.5124 32.9697 56.3797 32.9697C56.2438 32.9697 56.1188 32.9956 56.0057 33.0475C55.8922 33.0961 55.795 33.1659 55.7142 33.2567C55.6361 33.3442 55.5744 33.448 55.5291 33.5679C55.4838 33.6847 55.4614 33.8112 55.4614 33.9473C55.4614 34.0835 55.4838 34.2116 55.5291 34.3316C55.5777 34.4516 55.6427 34.5554 55.7235 34.6429C55.8081 34.7305 55.9069 34.8002 56.0199 34.8521C56.1335 34.9039 56.2563 34.9299 56.3895 34.9299C56.5255 34.9299 56.65 34.9056 56.7635 34.8569C56.8771 34.8051 56.9743 34.7353 57.0551 34.6478C57.1359 34.5602 57.1992 34.4581 57.2445 34.3413C57.2898 34.2214 57.3127 34.0933 57.3127 33.9571Z" fill="#4B4B4B"/>
<path d="M54.5423 33.9473C54.5423 34.1549 54.5085 34.3397 54.4402 34.5018C54.3725 34.664 54.2819 34.8018 54.1684 34.9153C54.0581 35.0255 53.9303 35.1115 53.7846 35.1731C53.6421 35.2315 53.4947 35.2606 53.3423 35.2606C53.2255 35.2606 53.1185 35.2461 53.0213 35.2169C52.9241 35.1877 52.8368 35.1488 52.7593 35.1001C52.6812 35.0515 52.6102 34.9948 52.5453 34.9299C52.4841 34.865 52.429 34.7969 52.3804 34.7256V35.9854H52.0059V32.6924H52.3804V33.1983C52.4322 33.1237 52.4885 33.0524 52.5502 32.9843C52.6151 32.9162 52.6861 32.8578 52.7642 32.8092C52.8417 32.7573 52.9274 32.7167 53.0213 32.6876C53.1185 32.6551 53.2255 32.6389 53.3423 32.6389C53.4914 32.6389 53.6372 32.6681 53.7796 32.7265C53.9254 32.7848 54.0548 32.8707 54.1684 32.9843C54.2819 33.0945 54.3725 33.2307 54.4402 33.3928C54.5085 33.555 54.5423 33.7398 54.5423 33.9473ZM54.1585 33.9522C54.1585 33.8031 54.1345 33.6685 54.0859 33.5485C54.0401 33.4285 53.9773 33.3264 53.8959 33.2421C53.8151 33.1545 53.7212 33.088 53.6142 33.0426C53.5072 32.9972 53.3942 32.9745 53.2741 32.9745C53.1578 32.9745 53.0443 32.9989 52.934 33.0475C52.827 33.0929 52.7298 33.1577 52.6424 33.2421C52.5584 33.3264 52.4901 33.4285 52.4382 33.5485C52.3897 33.6685 52.3656 33.8014 52.3656 33.9473C52.3656 34.0933 52.3897 34.2278 52.4382 34.3511C52.4901 34.471 52.5584 34.5732 52.6424 34.6575C52.7298 34.7418 52.827 34.8083 52.934 34.8569C53.0443 34.9023 53.1578 34.925 53.2741 34.925C53.3942 34.925 53.5072 34.9039 53.6142 34.8618C53.7245 34.8164 53.8184 34.7531 53.8959 34.6721C53.9773 34.5878 54.0401 34.4856 54.0859 34.3657C54.1345 34.2424 54.1585 34.1046 54.1585 33.9522Z" fill="#4B4B4B"/>
<path d="M49.3857 33.7675V35.2073H49.0117V31.6565H49.3857V33.1303C49.4703 32.9941 49.5801 32.879 49.7165 32.785C49.8525 32.6877 50.0288 32.639 50.2461 32.639C50.3984 32.639 50.5327 32.6634 50.649 32.712C50.7691 32.7606 50.8696 32.8304 50.9504 32.9212C51.0345 33.0087 51.0978 33.1141 51.1398 33.2373C51.1851 33.3606 51.2081 33.4967 51.2081 33.6459V35.2073H50.8341V33.7383C50.8341 33.5048 50.774 33.32 50.6539 33.1838C50.5344 33.0476 50.3624 32.9795 50.1391 32.9795C50.0321 32.9795 49.9316 32.999 49.8377 33.0379C49.7471 33.0736 49.6679 33.1271 49.5997 33.1984C49.5315 33.2665 49.478 33.3492 49.4392 33.4465C49.4037 33.5437 49.3857 33.6508 49.3857 33.7675Z" fill="#4B4B4B"/>
<path d="M48.3933 34.7791C48.2672 34.9218 48.1231 35.0385 47.9609 35.1293C47.8021 35.2201 47.6044 35.2655 47.3682 35.2655C47.1835 35.2655 47.0118 35.2315 46.8531 35.1634C46.6977 35.092 46.5616 34.998 46.445 34.8812C46.3316 34.7613 46.2425 34.6218 46.1777 34.4629C46.1129 34.3041 46.0806 34.1354 46.0806 33.9571C46.0806 33.7787 46.1129 33.6101 46.1777 33.4512C46.2425 33.2891 46.3316 33.148 46.445 33.028C46.5616 32.9081 46.6977 32.814 46.8531 32.7459C47.0118 32.6746 47.1835 32.6389 47.3682 32.6389C47.488 32.6389 47.5968 32.6503 47.694 32.673C47.7911 32.6956 47.8801 32.7281 47.9609 32.7702C48.0417 32.8092 48.1165 32.8562 48.1842 32.9113C48.2525 32.9664 48.3158 33.0248 48.3742 33.0864L48.1263 33.3491C48.0259 33.2453 47.9156 33.1561 47.7955 33.0815C47.6792 33.0069 47.535 32.9697 47.3633 32.9697C47.237 32.9697 47.1187 32.9956 47.0086 33.0475C46.8985 33.0961 46.8029 33.1659 46.7219 33.2567C46.6409 33.3442 46.5778 33.448 46.5324 33.5679C46.4871 33.6847 46.4644 33.8112 46.4644 33.9473C46.4644 34.0835 46.4871 34.2116 46.5324 34.3316C46.581 34.4516 46.6458 34.557 46.7268 34.6478C46.811 34.7353 46.9082 34.8051 47.0183 34.8569C47.1317 34.9056 47.2548 34.9299 47.3876 34.9299C47.5495 34.9299 47.6923 34.8942 47.8152 34.8229C47.9413 34.7516 48.0548 34.6624 48.1553 34.5554L48.3933 34.7791Z" fill="#4B4B4B"/>
<path d="M43.5836 34.0884C43.5965 34.2246 43.6289 34.3462 43.6808 34.4532C43.7326 34.557 43.799 34.6461 43.88 34.7207C43.9609 34.7921 44.0516 34.8472 44.1521 34.8861C44.2525 34.9218 44.3577 34.9396 44.4679 34.9396C44.6428 34.9396 44.7918 34.9072 44.9149 34.8423C45.0413 34.7775 45.1562 34.6915 45.2599 34.5845L45.4932 34.7937C45.3668 34.9364 45.2226 35.0515 45.0607 35.139C44.8987 35.2234 44.6979 35.2655 44.4582 35.2655C44.2865 35.2655 44.1245 35.2347 43.9723 35.1731C43.82 35.1082 43.6872 35.0191 43.5739 34.9056C43.4605 34.7888 43.3698 34.6494 43.3018 34.4873C43.237 34.3251 43.2046 34.1468 43.2046 33.9522C43.2046 33.7706 43.2337 33.6004 43.2921 33.4415C43.3536 33.2793 43.4378 33.1399 43.5447 33.0232C43.6516 32.9032 43.7779 32.8092 43.9237 32.7411C44.0727 32.673 44.2347 32.6389 44.4096 32.6389C44.5942 32.6389 44.7594 32.6746 44.9052 32.7459C45.051 32.814 45.174 32.9081 45.2745 33.028C45.3749 33.148 45.451 33.2891 45.5029 33.4512C45.5547 33.6134 45.5806 33.7868 45.5806 33.9717C45.5806 33.9879 45.5806 34.0057 45.5806 34.0252C45.5806 34.0446 45.579 34.0657 45.5758 34.0884H43.5836ZM43.5836 33.8112H45.2016C45.1919 33.6976 45.1676 33.589 45.1287 33.4853C45.0931 33.3815 45.0413 33.2907 44.9732 33.2129C44.9084 33.1351 44.8275 33.0735 44.7303 33.028C44.6363 32.9794 44.5262 32.9551 44.3999 32.9551C44.2897 32.9551 44.1877 32.9778 44.0938 33.0232C43.9998 33.0653 43.9172 33.1253 43.846 33.2031C43.7747 33.2777 43.7164 33.3669 43.671 33.4707C43.6257 33.5745 43.5965 33.6879 43.5836 33.8112Z" fill="#4B4B4B"/>
<path d="M42.1775 32.1573V35.2071H41.7888V32.1573H40.647V31.8022H43.3194V32.1573H42.1775Z" fill="#4B4B4B"/>
<mask id="mask0_1443_2944" style="mask-type:luminance" maskUnits="userSpaceOnUse" x="6" y="6" width="24" height="24">
<path d="M29.38 6.33984H6.4502V29.2938H29.38V6.33984Z" fill="white"/>
</mask>
<g mask="url(#mask0_1443_2944)">
<path fill-rule="evenodd" clip-rule="evenodd" d="M6.47323 14.8283L12.8346 7.46436C12.8507 7.44616 12.8733 7.43501 12.8975 7.43332C12.9217 7.43168 12.9456 7.43955 12.9641 7.4554L22.3872 15.6122C22.4053 15.6286 22.4165 15.6514 22.4181 15.6758C22.4198 15.7003 22.4119 15.7244 22.3961 15.7431L16.0349 23.107C16.0186 23.1252 15.9958 23.1364 15.9714 23.1381C15.947 23.1398 15.9229 23.1319 15.9042 23.1161L6.4824 14.9592C6.47312 14.9512 6.46547 14.9415 6.46001 14.9306C6.4545 14.9197 6.45128 14.9078 6.4504 14.8956C6.44959 14.8834 6.45117 14.8712 6.45515 14.8596C6.45908 14.8481 6.46531 14.8375 6.47339 14.8283H6.47323Z" fill="#B2C4F0"/>
<path fill-rule="evenodd" clip-rule="evenodd" d="M10.6944 11.3615L15.1353 9.33447L22.3871 15.6121C22.4052 15.6285 22.4163 15.6513 22.418 15.6757C22.4197 15.7002 22.4118 15.7243 22.396 15.743L16.0348 23.1069C16.0185 23.1251 15.9957 23.1363 15.9713 23.138C15.9469 23.1397 15.9228 23.1318 15.904 23.116L15.4531 22.7247L10.5062 11.8654C10.4646 11.7736 10.461 11.6689 10.4962 11.5745C10.5315 11.4801 10.6027 11.4035 10.6943 11.3615H10.6944Z" fill="#6688E2"/>
<path fill-rule="evenodd" clip-rule="evenodd" d="M10.8137 11.6233L19.6629 7.58467C19.6851 7.57477 19.7103 7.57401 19.7331 7.58259C19.7558 7.59117 19.7743 7.60839 19.7844 7.63052L24.9523 18.9768C24.9575 18.9878 24.9605 18.9997 24.9611 19.0119C24.9617 19.0241 24.9599 19.0362 24.9557 19.0477C24.9516 19.0591 24.9452 19.0696 24.937 19.0785C24.9288 19.0875 24.9189 19.0948 24.9078 19.0999L16.0586 23.1383C16.0362 23.1481 16.0109 23.1488 15.9879 23.1403C15.965 23.1317 15.9463 23.1146 15.9357 23.0925L10.7679 11.7465C10.7579 11.7241 10.7571 11.6986 10.7656 11.6756C10.7742 11.6525 10.7915 11.6339 10.8137 11.6235V11.6233Z" fill="#809CE7"/>
<path fill-rule="evenodd" clip-rule="evenodd" d="M16.0661 10.2336H20.97L24.9519 18.977C24.9572 18.988 24.9602 18.9999 24.9608 19.012C24.9614 19.0242 24.9595 19.0363 24.9554 19.0478C24.9513 19.0592 24.9449 19.0697 24.9367 19.0787C24.9285 19.0877 24.9185 19.0949 24.9075 19.1L16.0583 23.1384C16.0359 23.1482 16.0105 23.1489 15.9876 23.1404C15.9646 23.1319 15.946 23.1147 15.9354 23.0926L15.687 22.5457V10.6144C15.6869 10.5645 15.6966 10.515 15.7156 10.4689C15.7346 10.4227 15.7625 10.3808 15.7977 10.3454C15.8329 10.31 15.8748 10.282 15.9208 10.2628C15.9669 10.2436 16.0162 10.2337 16.0661 10.2336Z" fill="#99B0EB"/>
<path fill-rule="evenodd" clip-rule="evenodd" d="M16.0661 10.5215H23.3086L25.884 13.0996V23.0837C25.8839 23.1083 25.8741 23.1319 25.8567 23.1492C25.8394 23.1667 25.8158 23.1765 25.7912 23.1766H16.0661C16.054 23.1765 16.042 23.1741 16.0308 23.1694C16.0197 23.1647 16.0096 23.1578 16.0011 23.1491C15.9926 23.1405 15.9859 23.1303 15.9813 23.119C15.9768 23.1078 15.9745 23.0958 15.9746 23.0837V10.6143C15.9745 10.6023 15.9768 10.5902 15.9813 10.579C15.9859 10.5678 15.9926 10.5576 16.0011 10.5489C16.0096 10.5403 16.0197 10.5334 16.0308 10.5287C16.042 10.524 16.054 10.5215 16.0661 10.5215Z" fill="#EAF6FF"/>
<path fill-rule="evenodd" clip-rule="evenodd" d="M23.3086 10.5215V12.521C23.3089 12.6742 23.3698 12.8212 23.4781 12.9296C23.5864 13.038 23.7332 13.099 23.8863 13.0993H25.8837L23.3086 10.5215Z" fill="#BEC7CF"/>
<path fill-rule="evenodd" clip-rule="evenodd" d="M18.2938 19.3132H25.8933C26.2784 19.3143 26.6475 19.4681 26.9199 19.7407C27.1922 20.0134 27.3458 20.3828 27.3469 20.7684V26.7452C27.346 27.1309 27.1926 27.5005 26.9201 27.7732C26.6477 28.0459 26.2785 28.1995 25.8933 28.2005H12.4201C12.0349 28.1993 11.6658 28.0456 11.3934 27.773C11.121 27.5003 10.9675 27.1308 10.9663 26.7452V17.8579C10.9672 17.541 11.0934 17.2374 11.3173 17.0135C11.5412 16.7896 11.8447 16.6636 12.1612 16.6631H14.6987C15.1197 16.6631 15.406 16.9222 15.7066 17.2153L17.2859 18.7609C17.5865 19.0553 17.8728 19.3132 18.2938 19.3132Z" fill="#3361D8"/>
<path d="M17.5578 13.0642C17.4728 13.0632 17.3917 13.0287 17.3319 12.9682C17.2722 12.9077 17.2386 12.826 17.2386 12.741C17.2386 12.6559 17.2722 12.5742 17.3319 12.5137C17.3917 12.4532 17.4728 12.4187 17.5578 12.4177H21.8275C21.9125 12.4187 21.9936 12.4532 22.0533 12.5137C22.1131 12.5742 22.1466 12.6559 22.1466 12.741C22.1466 12.826 22.1131 12.9077 22.0533 12.9682C21.9936 13.0287 21.9125 13.0632 21.8275 13.0642H17.5578ZM17.5578 17.7805C17.4721 17.7805 17.39 17.7465 17.3295 17.6859C17.2689 17.6253 17.2349 17.543 17.2349 17.4573C17.2349 17.3716 17.2689 17.2894 17.3295 17.2288C17.39 17.1682 17.4721 17.1341 17.5578 17.1341H24.3009C24.3865 17.1341 24.4687 17.1682 24.5292 17.2288C24.5898 17.2894 24.6238 17.3716 24.6238 17.4573C24.6238 17.543 24.5898 17.6253 24.5292 17.6859C24.4687 17.7465 24.3865 17.7805 24.3009 17.7805H17.5578ZM17.5578 16.2088C17.4728 16.2078 17.3917 16.1733 17.3319 16.1128C17.2722 16.0523 17.2386 15.9707 17.2386 15.8856C17.2386 15.8005 17.2722 15.7188 17.3319 15.6583C17.3917 15.5978 17.4728 15.5633 17.5578 15.5623H24.3009C24.3436 15.5618 24.386 15.5698 24.4257 15.5858C24.4653 15.6018 24.5013 15.6255 24.5317 15.6557C24.5621 15.6857 24.5862 15.7215 24.6027 15.761C24.6191 15.8004 24.6277 15.8428 24.6277 15.8856C24.6277 15.9284 24.6191 15.9707 24.6027 16.0102C24.5862 16.0496 24.5621 16.0854 24.5317 16.1155C24.5013 16.1456 24.4653 16.1693 24.4257 16.1853C24.386 16.2014 24.3436 16.2093 24.3009 16.2088H17.5578ZM17.5578 14.637C17.5154 14.637 17.4734 14.6287 17.4342 14.6125C17.395 14.5962 17.3594 14.5724 17.3295 14.5424C17.2995 14.5124 17.2757 14.4768 17.2595 14.4375C17.2432 14.3983 17.2349 14.3563 17.2349 14.3138C17.2349 14.2714 17.2432 14.2293 17.2595 14.1902C17.2757 14.1509 17.2995 14.1153 17.3295 14.0853C17.3594 14.0553 17.395 14.0314 17.4342 14.0152C17.4734 13.999 17.5154 13.9906 17.5578 13.9906H24.3009C24.3433 13.9906 24.3853 13.999 24.4245 14.0152C24.4637 14.0314 24.4993 14.0553 24.5292 14.0853C24.5592 14.1153 24.583 14.1509 24.5992 14.1902C24.6154 14.2293 24.6238 14.2714 24.6238 14.3138C24.6238 14.3563 24.6154 14.3983 24.5992 14.4375C24.583 14.4768 24.5592 14.5124 24.5292 14.5424C24.4993 14.5724 24.4637 14.5962 24.4245 14.6125C24.3853 14.6287 24.3433 14.637 24.3009 14.637H17.5578Z" fill="#BEC7CF"/>
<path d="M13.0177 24.2981C12.9321 24.2981 12.8499 24.264 12.7894 24.2034C12.7288 24.1428 12.6948 24.0606 12.6948 23.9749C12.6948 23.8891 12.7288 23.8069 12.7894 23.7463C12.8499 23.6857 12.9321 23.6516 13.0177 23.6516H16.1671C16.2527 23.6516 16.3348 23.6857 16.3954 23.7463C16.4559 23.8069 16.4899 23.8891 16.4899 23.9749C16.4899 24.0606 16.4559 24.1428 16.3954 24.2034C16.3348 24.264 16.2527 24.2981 16.1671 24.2981H13.0177ZM13.0177 26.5058C12.9321 26.5058 12.8499 26.4718 12.7894 26.4112C12.7288 26.3506 12.6948 26.2684 12.6948 26.1826C12.6948 26.0969 12.7288 26.0147 12.7894 25.9541C12.8499 25.8935 12.9321 25.8594 13.0177 25.8594H25.296C25.3816 25.8594 25.4637 25.8935 25.5243 25.9541C25.5848 26.0147 25.6188 26.0969 25.6188 26.1826C25.6188 26.2684 25.5848 26.3506 25.5243 26.4112C25.4637 26.4718 25.3816 26.5058 25.296 26.5058H13.0177Z" fill="#99B0EB"/>
<path fill-rule="evenodd" clip-rule="evenodd" d="M25.8844 19.5579C26.0839 19.6906 26.2475 19.8704 26.3609 20.0816C26.4742 20.2927 26.5337 20.5286 26.5342 20.7684V26.7452C26.5332 27.1309 26.3798 27.5005 26.1073 27.7732C25.8349 28.0459 25.4657 28.1995 25.0804 28.2005H25.8936C26.2789 28.1995 26.648 28.0459 26.9205 27.7732C27.1929 27.5005 27.3464 27.1309 27.3473 26.7452V20.7685C27.3476 20.5775 27.3098 20.3884 27.2362 20.2123C27.1256 19.9468 26.9393 19.7198 26.7004 19.5599C26.4616 19.4 26.1809 19.3142 25.8936 19.3132H25.0804C25.3667 19.3132 25.6466 19.3983 25.8844 19.5579ZM17.2862 18.7609L15.975 17.4784L15.707 17.2153C15.4063 16.9222 15.12 16.6631 14.699 16.6631H13.8872C14.3069 16.6631 14.5932 16.9222 14.8938 17.2153L15.975 18.2728L16.4744 18.7609C16.7737 19.0554 17.06 19.3132 17.481 19.3132H18.2942C17.8732 19.3132 17.5869 19.0554 17.2862 18.7609Z" fill="#4C75DD"/>
<path fill-rule="evenodd" clip-rule="evenodd" d="M26.6279 23.6097C27.1722 23.6097 27.7042 23.4481 28.1568 23.1454C28.6093 22.8428 28.962 22.4125 29.1703 21.9091C29.3786 21.4057 29.4331 20.8518 29.3269 20.3175C29.2208 19.7831 28.9586 19.2922 28.5738 18.907C28.1889 18.5217 27.6986 18.2593 27.1648 18.153C26.6309 18.0467 26.0776 18.1013 25.5748 18.3098C25.0719 18.5183 24.6422 18.8714 24.3398 19.3244C24.0374 19.7775 23.876 20.3101 23.876 20.8549C23.8773 21.5851 24.1677 22.285 24.6835 22.8013C25.1993 23.3177 25.8984 23.6083 26.6279 23.6097Z" fill="#25C73B"/>
<path d="M24.9836 21.2292C24.9528 21.1994 24.9283 21.1637 24.9114 21.1243C24.8945 21.0849 24.8856 21.0425 24.8853 20.9996C24.8849 20.9568 24.893 20.9143 24.9092 20.8746C24.9254 20.8349 24.9493 20.7988 24.9796 20.7685C25.0098 20.7381 25.0458 20.714 25.0854 20.6977C25.125 20.6815 25.1675 20.6732 25.2103 20.6734C25.2531 20.6737 25.2955 20.6825 25.3349 20.6993C25.3743 20.7161 25.41 20.7405 25.4398 20.7713L26.0595 21.3916L27.815 19.6342C27.8755 19.5736 27.9576 19.5396 28.0432 19.5396C28.1287 19.5396 28.2108 19.5736 28.2713 19.6342C28.3318 19.6947 28.3658 19.7769 28.3658 19.8625C28.3658 19.9481 28.3318 20.0303 28.2714 20.0909L26.2869 22.0772C26.2263 22.1376 26.1443 22.1714 26.0588 22.1714C25.9733 22.1714 25.8913 22.1376 25.8307 22.0772L24.9836 21.2292Z" fill="#EAF6FF"/>
<path fill-rule="evenodd" clip-rule="evenodd" d="M26.3941 18.1092C27.0693 18.1666 27.6996 18.4711 28.1644 18.9648C28.6292 19.4583 28.8958 20.1062 28.9131 20.7843C28.9305 21.4624 28.6973 22.1231 28.2583 22.6398C27.8194 23.1565 27.2054 23.493 26.534 23.5848C26.4882 23.5913 26.4412 23.5966 26.3941 23.6005C26.4412 23.6044 26.4869 23.607 26.534 23.6083C26.5654 23.6097 26.5967 23.6097 26.628 23.6097C26.8709 23.6101 27.1127 23.578 27.3471 23.5141C27.9909 23.3396 28.5496 22.937 28.9191 22.3811C29.2886 21.8251 29.4438 21.1538 29.3559 20.4919C29.268 19.83 28.943 19.2225 28.4412 18.7826C27.9394 18.3426 27.2951 18.1001 26.628 18.1001C26.5496 18.1001 26.4713 18.1027 26.394 18.1091L26.3941 18.1092Z" fill="#21B335"/>
<path fill-rule="evenodd" clip-rule="evenodd" d="M25.2959 13.0996V18.443C25.482 18.3401 25.6794 18.2592 25.8842 18.2022V13.0996H25.2959Z" fill="#D3DDE6"/>
</g>
</svg>
