<svg xmlns="http://www.w3.org/2000/svg" width="109" height="36" viewBox="0 0 109 36" fill="none">
<g clip-path="url(#clip0_4129_20193)">
<path d="M50.1566 14.9816C52.2058 14.9816 53.9966 15.397 55.5289 16.2278C57.0797 17.0401 58.2704 18.1847 59.1012 19.6616C59.932 21.1386 60.3473 22.8278 60.3473 24.7293C60.3473 26.6124 59.9225 28.2924 59.0735 29.7693C58.2427 31.2463 57.052 32.4093 55.5012 33.2585C53.9689 34.0893 52.1874 34.5047 50.1566 34.5047H42.4304V14.9816H50.1566ZM49.7412 29.7139C51.3289 29.7139 52.5751 29.2801 53.4797 28.4124C54.3842 27.5447 54.8366 26.317 54.8366 24.7293C54.8366 23.1232 54.3842 21.8863 53.4797 21.0185C52.5751 20.1324 51.3289 19.6893 49.7412 19.6893H47.8581V29.7139H49.7412ZM87.8004 14.9816V34.5047H82.3727V23.7324L78.6896 34.5047H74.1481L70.4373 23.6493V34.5047H65.0096V14.9816H71.5727L76.4742 27.6647L81.265 14.9816H87.8004ZM100.471 34.6985C98.2005 34.6985 96.3357 34.1631 94.8774 33.0924C93.4192 32.0031 92.6344 30.4524 92.5236 28.4401H98.3113C98.3667 29.1231 98.5699 29.6216 98.9205 29.9355C99.2711 30.2493 99.7236 30.4062 100.277 30.4062C100.776 30.4062 101.182 30.2862 101.496 30.0462C101.828 29.7878 101.994 29.437 101.994 28.9939C101.994 28.4216 101.727 27.9786 101.191 27.6647C100.656 27.3508 99.7884 27.0001 98.5882 26.6124C97.3144 26.1878 96.2803 25.7816 95.4867 25.3939C94.7113 24.9878 94.0284 24.4063 93.4374 23.6493C92.8653 22.8739 92.579 21.8678 92.579 20.6308C92.579 19.3754 92.893 18.3047 93.5205 17.4185C94.148 16.5139 95.0159 15.8308 96.1236 15.3693C97.2313 14.9078 98.4869 14.677 99.8897 14.677C102.161 14.677 103.97 15.2124 105.317 16.2832C106.684 17.3355 107.413 18.8216 107.505 20.7416H101.607C101.588 20.1508 101.403 19.7078 101.053 19.4124C100.721 19.117 100.287 18.9693 99.7513 18.9693C99.3453 18.9693 99.013 19.0893 98.7544 19.3293C98.4957 19.5693 98.3667 19.9108 98.3667 20.3539C98.3667 20.7232 98.5051 21.0462 98.7821 21.3232C99.0773 21.5816 99.4373 21.8124 99.862 22.0155C100.287 22.2001 100.914 22.4401 101.745 22.7355C102.982 23.1601 103.998 23.5847 104.791 24.0093C105.604 24.4154 106.296 24.997 106.868 25.7539C107.459 26.4924 107.754 27.4339 107.754 28.5785C107.754 29.7416 107.459 30.7847 106.868 31.7078C106.296 32.6309 105.456 33.3601 104.348 33.8955C103.259 34.4309 101.967 34.6985 100.471 34.6985Z" fill="#0504A7"/>
<path d="M48.2503 1.3728V3.29952H44.7674V4.83102H47.3364V6.67128H44.7674V10.0801H42.3467V1.3728H48.2503ZM51.6906 1.3728V10.0801H49.2699V1.3728H51.6906ZM55.4899 8.22748H58.1945V10.0801H53.0692V1.3728H55.4899V8.22748ZM61.5569 3.31187V4.73221H64.3356V6.57248H61.5569V8.14102H64.7061V10.0801H59.1361V1.3728H64.7061V3.31187H61.5569ZM76.739 1.3728L73.7377 10.0801H70.6378L67.6243 1.3728H70.218L72.1941 7.65934L74.1575 1.3728H76.739ZM83.0019 8.65976H79.9142L79.4445 10.0801H76.9007L80.0748 1.3728H82.8656L86.0275 10.0801H83.471L83.0019 8.65976ZM82.3965 6.80714L81.4577 3.99117L80.5317 6.80714H82.3965ZM89.1878 1.3728V6.42427C89.1878 6.8936 89.2952 7.25587 89.509 7.51114C89.7317 7.7664 90.0651 7.89401 90.5098 7.89401C90.954 7.89401 91.2874 7.7664 91.5101 7.51114C91.7405 7.24767 91.8557 6.88534 91.8557 6.42427V1.3728H94.2765V6.42427C94.2765 7.22297 94.1076 7.90636 93.7703 8.47449C93.4325 9.03438 92.9717 9.45846 92.3868 9.74662C91.8108 10.0266 91.1683 10.1666 90.46 10.1666C89.7521 10.1666 89.118 10.0266 88.5581 9.74662C88.0064 9.45846 87.57 9.03438 87.2488 8.47449C86.9358 7.91461 86.7797 7.23117 86.7797 6.42427V1.3728H89.1878ZM98.0299 8.22748H100.735V10.0801H95.6096V1.3728H98.0299V8.22748ZM108.235 1.3728V3.29952H105.912V10.0801H103.492V3.29952H101.195V1.3728H108.235Z" fill="#0504A7"/>
<path d="M33.7903 0H2.55341C1.23813 0 0.171875 1.06625 0.171875 2.38154V33.6185C0.171875 34.9337 1.23813 36 2.55341 36H33.7903C35.1056 36 36.1719 34.9337 36.1719 33.6185V2.38154C36.1719 1.06625 35.1056 0 33.7903 0Z" fill="#01083E"/>
<mask id="mask0_4129_20193" style="mask-type:luminance" maskUnits="userSpaceOnUse" x="6" y="6" width="24" height="24">
<path d="M29.8026 6.30273H6.54102V29.5643H29.8026V6.30273Z" fill="white"/>
</mask>
<g mask="url(#mask0_4129_20193)">
<path fill-rule="evenodd" clip-rule="evenodd" d="M6.56438 14.9049L13.0177 7.44226C13.0341 7.42388 13.057 7.41258 13.0815 7.41086C13.1061 7.4092 13.1303 7.41717 13.1491 7.43318L22.7085 15.6993C22.7269 15.716 22.7382 15.739 22.7399 15.7638C22.7416 15.7886 22.7336 15.813 22.7176 15.832L16.2644 23.2945C16.2478 23.313 16.2247 23.3243 16.1999 23.3261C16.1752 23.3278 16.1507 23.3198 16.1317 23.3038L6.57363 15.0375C6.56421 15.0295 6.55651 15.0197 6.55092 15.0086C6.54538 14.9976 6.54206 14.9855 6.54123 14.9731C6.5404 14.9608 6.542 14.9484 6.54599 14.9367C6.55003 14.9249 6.55629 14.9141 6.56455 14.9049H6.56438Z" fill="#B2C4F0"/>
<path fill-rule="evenodd" clip-rule="evenodd" d="M10.8468 11.3918L15.352 9.33765L22.7086 15.6994C22.727 15.716 22.7383 15.7391 22.7399 15.7639C22.7417 15.7886 22.7337 15.8131 22.7177 15.832L16.2644 23.2946C16.2479 23.3131 16.2248 23.3244 16.2 23.3261C16.1753 23.3279 16.1508 23.3199 16.1318 23.3039L15.6743 22.9073L10.6558 11.9025C10.6136 11.8094 10.61 11.7034 10.6458 11.6077C10.6815 11.512 10.7538 11.4344 10.8466 11.3918H10.8468Z" fill="#6688E2"/>
<path fill-rule="evenodd" clip-rule="evenodd" d="M10.9673 11.657L19.9445 7.56429C19.967 7.55421 19.9926 7.55349 20.0157 7.56218C20.0388 7.57088 20.0575 7.58832 20.0679 7.6107L25.3104 19.1091C25.3157 19.1202 25.3188 19.1323 25.3194 19.1446C25.32 19.1569 25.3181 19.1692 25.314 19.1809C25.3098 19.1925 25.3033 19.2031 25.295 19.2122C25.2866 19.2213 25.2765 19.2286 25.2653 19.2338L16.2881 23.3263C16.2654 23.3362 16.2396 23.3369 16.2164 23.3283C16.1931 23.3196 16.1742 23.3023 16.1635 23.2799L10.9209 11.7818C10.9107 11.7591 10.9099 11.7333 10.9186 11.71C10.9273 11.6867 10.9448 11.6677 10.9673 11.6572V11.657Z" fill="#809CE7"/>
<path fill-rule="evenodd" clip-rule="evenodd" d="M16.2962 10.2485H21.2711L25.3106 19.1091C25.3159 19.1202 25.3189 19.1323 25.3195 19.1446C25.3201 19.1569 25.3183 19.1692 25.3141 19.1808C25.3099 19.1924 25.3035 19.2031 25.2951 19.2121C25.2867 19.2212 25.2767 19.2286 25.2655 19.2337L16.2883 23.3263C16.2655 23.3362 16.2398 23.3369 16.2166 23.3283C16.1933 23.3196 16.1743 23.3022 16.1636 23.2798L15.9116 22.7256V10.6345C15.9115 10.5839 15.9214 10.5338 15.9407 10.487C15.96 10.4402 15.9883 10.3976 16.0239 10.3618C16.0597 10.326 16.1021 10.2976 16.1488 10.2781C16.1955 10.2587 16.2456 10.2486 16.2962 10.2485Z" fill="#99B0EB"/>
<path fill-rule="evenodd" clip-rule="evenodd" d="M16.2962 10.5403H23.6435L26.2561 13.1529V23.2708C26.256 23.2957 26.2461 23.3197 26.2284 23.3373C26.2108 23.355 26.1869 23.3649 26.162 23.365H16.2962C16.2839 23.3649 16.2718 23.3624 16.2605 23.3577C16.2491 23.3528 16.2389 23.3459 16.2302 23.3372C16.2217 23.3284 16.2148 23.3181 16.2102 23.3067C16.2056 23.2953 16.2033 23.2831 16.2034 23.2708V10.6344C16.2033 10.6221 16.2056 10.61 16.2102 10.5986C16.2148 10.5872 16.2217 10.5769 16.2302 10.5681C16.2389 10.5594 16.2491 10.5524 16.2605 10.5476C16.2718 10.5429 16.2839 10.5404 16.2962 10.5403Z" fill="#EAF6FF"/>
<path fill-rule="evenodd" clip-rule="evenodd" d="M23.6436 10.5403V12.5666C23.6438 12.7219 23.7057 12.8709 23.8155 12.9807C23.9254 13.0905 24.0743 13.1524 24.2296 13.1527H26.2559L23.6436 10.5403Z" fill="#BEC7CF"/>
<path fill-rule="evenodd" clip-rule="evenodd" d="M18.556 19.4498H26.2654C26.6562 19.451 27.0306 19.6067 27.3069 19.883C27.5832 20.1593 27.7389 20.5338 27.7402 20.9245V26.9814C27.7392 27.3723 27.5835 27.7468 27.3072 28.0232C27.0308 28.2996 26.6562 28.4552 26.2654 28.4562H12.5973C12.2065 28.455 11.8321 28.2992 11.5558 28.0229C11.2795 27.7466 11.1237 27.3722 11.1226 26.9814V17.975C11.1234 17.6539 11.2514 17.3463 11.4786 17.1193C11.7058 16.8924 12.0136 16.7647 12.3347 16.7642H14.9089C15.3359 16.7642 15.6264 17.0268 15.9314 17.3239L17.5335 18.8901C17.8386 19.1885 18.129 19.4498 18.556 19.4498Z" fill="#3361D8"/>
<path d="M17.8092 13.1171C17.7231 13.1161 17.6407 13.0811 17.5801 13.0198C17.5195 12.9585 17.4855 12.8757 17.4855 12.7895C17.4855 12.7033 17.5195 12.6205 17.5801 12.5592C17.6407 12.4979 17.7231 12.463 17.8092 12.4619H22.1407C22.2269 12.463 22.3093 12.4979 22.3699 12.5592C22.4305 12.6205 22.4645 12.7033 22.4645 12.7895C22.4645 12.8757 22.4305 12.9585 22.3699 13.0198C22.3093 13.0811 22.2269 13.1161 22.1407 13.1171H17.8092ZM17.8092 17.8966C17.7224 17.8966 17.639 17.8621 17.5776 17.8007C17.5162 17.7392 17.4817 17.6559 17.4817 17.569C17.4817 17.4822 17.5162 17.3988 17.5776 17.3374C17.639 17.276 17.7224 17.2415 17.8092 17.2415H24.6499C24.7368 17.2415 24.8201 17.276 24.8816 17.3374C24.943 17.3988 24.9775 17.4822 24.9775 17.569C24.9775 17.6559 24.943 17.7392 24.8816 17.8007C24.8201 17.8621 24.7368 17.8966 24.6499 17.8966H17.8092ZM17.8092 16.3038C17.7231 16.3028 17.6407 16.2679 17.5801 16.2066C17.5195 16.1452 17.4855 16.0625 17.4855 15.9762C17.4855 15.8901 17.5195 15.8073 17.5801 15.7459C17.6407 15.6846 17.7231 15.6497 17.8092 15.6487H24.6499C24.6933 15.6481 24.7363 15.6563 24.7765 15.6725C24.8167 15.6887 24.8532 15.7128 24.8841 15.7432C24.9149 15.7737 24.9394 15.81 24.9561 15.85C24.9728 15.89 24.9814 15.9329 24.9814 15.9762C24.9814 16.0196 24.9728 16.0625 24.9561 16.1025C24.9394 16.1425 24.9149 16.1788 24.8841 16.2093C24.8532 16.2398 24.8167 16.2638 24.7765 16.28C24.7363 16.2962 24.6933 16.3044 24.6499 16.3038H17.8092ZM17.8092 14.711C17.7663 14.711 17.7237 14.7026 17.6839 14.6861C17.6441 14.6697 17.608 14.6455 17.5776 14.6151C17.5472 14.5846 17.5231 14.5485 17.5066 14.5088C17.4902 14.4691 17.4817 14.4265 17.4817 14.3835C17.4817 14.3404 17.4902 14.2979 17.5066 14.2581C17.5231 14.2184 17.5472 14.1823 17.5776 14.1518C17.608 14.1214 17.6441 14.0973 17.6839 14.0808C17.7237 14.0644 17.7663 14.0559 17.8092 14.0559H24.6499C24.6929 14.0559 24.7355 14.0644 24.7753 14.0808C24.815 14.0973 24.8511 14.1214 24.8816 14.1518C24.912 14.1823 24.9361 14.2184 24.9526 14.2581C24.969 14.2979 24.9775 14.3404 24.9775 14.3835C24.9775 14.4265 24.969 14.4691 24.9526 14.5088C24.9361 14.5485 24.912 14.5846 24.8816 14.6151C24.8511 14.6455 24.815 14.6697 24.7753 14.6861C24.7355 14.7026 24.6929 14.711 24.6499 14.711H17.8092Z" fill="#BEC7CF"/>
<path d="M13.2033 24.5016C13.1164 24.5016 13.0331 24.4671 12.9717 24.4057C12.9102 24.3442 12.8757 24.2609 12.8757 24.174C12.8757 24.0871 12.9102 24.0038 12.9717 23.9424C13.0331 23.8809 13.1164 23.8464 13.2033 23.8464H16.3982C16.485 23.8464 16.5683 23.8809 16.6298 23.9424C16.6912 24.0038 16.7257 24.0871 16.7257 24.174C16.7257 24.2609 16.6912 24.3442 16.6298 24.4057C16.5683 24.4671 16.485 24.5016 16.3982 24.5016H13.2033ZM13.2033 26.7389C13.1164 26.7389 13.0331 26.7044 12.9717 26.643C12.9102 26.5815 12.8757 26.4982 12.8757 26.4114C12.8757 26.3245 12.9102 26.2412 12.9717 26.1797C13.0331 26.1183 13.1164 26.0838 13.2033 26.0838H25.6592C25.7461 26.0838 25.8294 26.1183 25.8908 26.1797C25.9522 26.2412 25.9867 26.3245 25.9867 26.4114C25.9867 26.4982 25.9522 26.5815 25.8908 26.643C25.8294 26.7044 25.7461 26.7389 25.6592 26.7389H13.2033Z" fill="#99B0EB"/>
<path fill-rule="evenodd" clip-rule="evenodd" d="M26.2562 19.698C26.4585 19.8324 26.6245 20.0147 26.7395 20.2287C26.8545 20.4427 26.9149 20.6818 26.9153 20.9247V26.9816C26.9144 27.3724 26.7587 27.747 26.4823 28.0234C26.206 28.2997 25.8314 28.4554 25.4406 28.4564H26.2655C26.6563 28.4554 27.0309 28.2997 27.3073 28.0234C27.5836 27.747 27.7393 27.3724 27.7402 26.9816V20.9248C27.7405 20.7313 27.7022 20.5396 27.6275 20.3611C27.5153 20.0921 27.3262 19.8621 27.084 19.7001C26.8417 19.538 26.557 19.451 26.2655 19.45H25.4406C25.731 19.45 26.0149 19.5363 26.2562 19.698ZM17.5336 18.8903L16.2034 17.5906L15.9315 17.3241C15.6265 17.027 15.336 16.7644 14.909 16.7644H14.0854C14.5111 16.7644 14.8016 17.027 15.1066 17.3241L16.2034 18.3956L16.71 18.8903C17.0137 19.1888 17.3042 19.45 17.7313 19.45H18.5561C18.129 19.45 17.8386 19.1888 17.5336 18.8903Z" fill="#4C75DD"/>
<path fill-rule="evenodd" clip-rule="evenodd" d="M27.0107 23.8039C27.5629 23.8039 28.1026 23.6402 28.5617 23.3334C29.0208 23.0266 29.3786 22.5906 29.5899 22.0805C29.8012 21.5704 29.8565 21.0091 29.7488 20.4675C29.6411 19.926 29.3752 19.4285 28.9847 19.0381C28.5943 18.6477 28.0969 18.3818 27.5554 18.2741C27.0138 18.1664 26.4525 18.2217 25.9424 18.433C25.4322 18.6442 24.9963 19.0021 24.6895 19.4612C24.3828 19.9203 24.219 20.46 24.219 21.0122C24.2204 21.7522 24.515 22.4614 25.0382 22.9847C25.5615 23.5079 26.2707 23.8025 27.0107 23.8039Z" fill="#25C73B"/>
<path d="M25.3422 21.3915C25.311 21.3612 25.2861 21.3251 25.269 21.2852C25.2519 21.2453 25.2428 21.2023 25.2424 21.1589C25.2421 21.1154 25.2504 21.0723 25.2668 21.0321C25.2832 20.9919 25.3075 20.9553 25.3381 20.9245C25.3688 20.8938 25.4053 20.8694 25.4455 20.8529C25.4857 20.8363 25.5288 20.828 25.5722 20.8283C25.6157 20.8285 25.6586 20.8374 25.6986 20.8545C25.7386 20.8715 25.7748 20.8963 25.8051 20.9274L26.4337 21.556L28.2147 19.7751C28.276 19.7137 28.3593 19.6792 28.4461 19.6792C28.5328 19.6792 28.6161 19.7136 28.6775 19.775C28.7389 19.8364 28.7734 19.9197 28.7734 20.0065C28.7734 20.0933 28.7389 20.1765 28.6775 20.2379L26.6644 22.2509C26.603 22.312 26.5197 22.3464 26.433 22.3464C26.3463 22.3464 26.2631 22.312 26.2016 22.2509L25.3422 21.3915Z" fill="#EAF6FF"/>
<path fill-rule="evenodd" clip-rule="evenodd" d="M26.7734 18.2298C27.4584 18.2878 28.0978 18.5965 28.5694 19.0967C29.0409 19.5969 29.3114 20.2535 29.3289 20.9407C29.3465 21.6278 29.11 22.2974 28.6647 22.821C28.2193 23.3447 27.5965 23.6856 26.9154 23.7787C26.869 23.7853 26.8212 23.7906 26.7734 23.7946C26.8212 23.7986 26.8676 23.8012 26.9154 23.8026C26.9472 23.8039 26.979 23.8039 27.0108 23.8039C27.2572 23.8043 27.5025 23.7718 27.7402 23.7071C28.3934 23.5302 28.9601 23.1222 29.335 22.5588C29.7098 21.9955 29.8673 21.3151 29.7782 20.6444C29.689 19.9735 29.3592 19.358 28.8501 18.9122C28.3412 18.4663 27.6875 18.2205 27.0108 18.2205C26.9312 18.2205 26.8518 18.2231 26.7734 18.2295V18.2298Z" fill="#21B335"/>
<path fill-rule="evenodd" clip-rule="evenodd" d="M25.6592 13.1531V18.5681C25.8479 18.4637 26.0483 18.3819 26.256 18.3241V13.1531H25.6592Z" fill="#D3DDE6"/>
</g>
</g>
<defs>
<clipPath id="clip0_4129_20193">
<rect width="108.609" height="36" fill="white" transform="translate(0.171875)"/>
</clipPath>
</defs>
</svg>