<svg width="2321" height="855" viewBox="0 0 2321 855" fill="none" xmlns="http://www.w3.org/2000/svg">
<rect x="7" y="7" width="2307" height="841" rx="68" fill="white"/>
<rect x="7" y="7" width="2307" height="841" rx="68" stroke="#676767" stroke-width="14"/>
<rect x="132" y="100.2" width="650" height="650" rx="43" fill="#01083E"/>
<path d="M499.5 457C516.896 457 531 442.673 531 425C531 407.328 516.896 393 499.5 393C482.104 393 468 407.328 468 425C468 442.673 482.104 457 499.5 457Z" fill="white"/>
<path d="M246 335.219C246 291.468 281.425 256 325.125 256H588.875C632.575 256 668 291.468 668 335.219V514.781C668 558.533 632.575 594 588.875 594H325.125C281.425 594 246 558.533 246 514.781V335.219ZM325.125 319.375C316.385 319.375 309.3 326.469 309.3 335.219V514.781C309.3 523.531 316.385 530.625 325.125 530.625C333.865 530.625 340.95 523.531 340.95 514.781V335.219C340.95 326.469 333.865 319.375 325.125 319.375ZM441.814 345.141C435.634 338.953 425.616 338.953 419.436 345.141C413.255 351.328 413.255 361.36 419.436 367.547L444.665 392.806C439.095 402.242 435.9 413.246 435.9 425C435.9 436.754 439.095 447.758 444.665 457.195L419.436 482.454C413.255 488.641 413.255 498.671 419.436 504.859C425.616 511.046 435.634 511.046 441.814 504.859L467.044 479.6C476.469 485.177 487.46 488.375 499.2 488.375C510.94 488.375 521.931 485.177 531.356 479.6L556.586 504.859C562.766 511.046 572.784 511.046 578.964 504.859C585.145 498.671 585.145 488.641 578.964 482.454L553.735 457.195C559.305 447.758 562.5 436.754 562.5 425C562.5 413.246 559.305 402.242 553.735 392.806L578.964 367.547C585.145 361.36 585.145 351.328 578.964 345.141C572.784 338.953 562.766 338.953 556.586 345.141L531.356 370.4C521.931 364.825 510.94 361.625 499.2 361.625C487.46 361.625 476.469 364.825 467.044 370.4L441.814 345.141Z" fill="white"/>
<path d="M1754.16 590.2V428.02H1689.9V376H1877.78V428.02H1813.52V590.2H1754.16Z" fill="#0504A7"/>
<path d="M1543.75 590.2V376H1603.11V538.18H1706.85V590.2H1543.75Z" fill="#0504A7"/>
<path d="M1408.25 594.178C1347.35 594.178 1309.1 563.272 1309.1 496.258V376H1369.39V495.034C1369.39 525.94 1384.99 540.628 1408.86 540.628C1432.73 540.628 1448.33 526.552 1448.33 496.564V376H1508.62V494.728C1508.62 563.884 1469.14 594.178 1408.25 594.178Z" fill="#0504A7"/>
<path d="M1059.84 590.2L1151.03 374.47H1208.25L1299.44 590.2H1235.79L1220.19 551.95H1137.57L1122.27 590.2H1059.84ZM1155.01 505.744H1203.05L1179.18 444.85L1155.01 505.744Z" fill="#0504A7"/>
<path d="M944.74 591.73L857.836 376H924.238L972.892 511.558L1021.55 376H1086.72L999.82 591.73H944.74Z" fill="#0504A7"/>
<path d="M1362.06 312.2V98.0002H1534.34V148.49H1420.81V180.926H1523.63V227.744H1420.81V261.71H1535.87V312.2H1362.06Z" fill="#0504A7"/>
<path d="M1173.5 312.2V98.0002H1232.86V260.18H1336.6V312.2H1173.5Z" fill="#0504A7"/>
<path d="M1074.62 312.2V98.0002H1134.29V312.2H1074.62Z" fill="#0504A7"/>
<path d="M874.972 312.2V98.0002H1046.33V150.02H934.336V186.434H1035.62V235.7H934.336V312.2H874.972Z" fill="#0504A7"/>
<path d="M2152.39 721.73C2152.63 724.222 2153.22 726.447 2154.17 728.405C2155.12 730.304 2156.33 731.936 2157.82 733.3C2159.3 734.606 2160.96 735.614 2162.8 736.326C2164.64 736.979 2166.57 737.305 2168.59 737.305C2171.79 737.305 2174.52 736.712 2176.77 735.525C2179.09 734.339 2181.19 732.766 2183.09 730.808L2187.37 734.635C2185.05 737.246 2182.41 739.352 2179.44 740.954C2176.48 742.497 2172.8 743.268 2168.41 743.268C2165.26 743.268 2162.3 742.705 2159.51 741.577C2156.72 740.391 2154.29 738.759 2152.21 736.682C2150.13 734.546 2148.47 731.995 2147.23 729.028C2146.04 726.062 2145.45 722.798 2145.45 719.238C2145.45 715.916 2145.98 712.801 2147.05 709.893C2148.18 706.927 2149.72 704.375 2151.68 702.239C2153.63 700.044 2155.95 698.323 2158.62 697.077C2161.35 695.831 2164.31 695.208 2167.52 695.208C2170.9 695.208 2173.93 695.861 2176.6 697.166C2179.27 698.412 2181.52 700.133 2183.36 702.328C2185.2 704.524 2186.59 707.105 2187.54 710.071C2188.49 713.038 2188.97 716.212 2188.97 719.594C2188.97 719.891 2188.97 720.217 2188.97 720.573C2188.97 720.929 2188.94 721.315 2188.88 721.73H2152.39ZM2152.39 716.657H2182.03C2181.85 714.581 2181.4 712.593 2180.69 710.694C2180.04 708.796 2179.09 707.134 2177.84 705.71C2176.66 704.286 2175.17 703.159 2173.39 702.328C2171.67 701.438 2169.65 700.993 2167.34 700.993C2165.32 700.993 2163.45 701.409 2161.73 702.239C2160.01 703.011 2158.5 704.108 2157.19 705.532C2155.89 706.897 2154.82 708.529 2153.99 710.427C2153.16 712.326 2152.63 714.403 2152.39 716.657Z" fill="#4B4B4B"/>
<path d="M2138.27 734.368C2135.96 736.979 2133.31 739.115 2130.35 740.776C2127.44 742.438 2123.82 743.268 2119.49 743.268C2116.11 743.268 2112.96 742.645 2110.06 741.399C2107.21 740.094 2104.72 738.373 2102.58 736.237C2100.5 734.042 2098.87 731.491 2097.69 728.583C2096.5 725.676 2095.91 722.591 2095.91 719.327C2095.91 716.064 2096.5 712.979 2097.69 710.071C2098.87 707.105 2100.5 704.524 2102.58 702.328C2104.72 700.133 2107.21 698.412 2110.06 697.166C2112.96 695.861 2116.11 695.208 2119.49 695.208C2121.69 695.208 2123.67 695.416 2125.45 695.831C2127.23 696.247 2128.86 696.84 2130.35 697.611C2131.83 698.323 2133.2 699.184 2134.44 700.192C2135.69 701.201 2136.85 702.269 2137.91 703.396L2133.37 708.202C2131.53 706.304 2129.52 704.672 2127.32 703.307C2125.19 701.943 2122.55 701.26 2119.4 701.26C2117.09 701.26 2114.92 701.735 2112.9 702.684C2110.89 703.574 2109.14 704.85 2107.65 706.511C2106.17 708.113 2105.01 710.012 2104.18 712.207C2103.35 714.343 2102.94 716.657 2102.94 719.149C2102.94 721.641 2103.35 723.985 2104.18 726.18C2105.07 728.376 2106.26 730.304 2107.74 731.965C2109.28 733.567 2111.06 734.843 2113.08 735.792C2115.16 736.682 2117.41 737.127 2119.85 737.127C2122.81 737.127 2125.42 736.475 2127.68 735.169C2129.99 733.864 2132.07 732.232 2133.91 730.274L2138.27 734.368Z" fill="#4B4B4B"/>
<path d="M2083.38 686.13H2075.55V678.565H2083.38V686.13ZM2082.85 742.2H2076V696.187H2082.85V742.2Z" fill="#4B4B4B"/>
<path d="M2041.65 734.368L2057.22 696.187H2064.61L2044.59 742.556H2038.53L2018.6 696.187H2026.16L2041.65 734.368Z" fill="#4B4B4B"/>
<path d="M1993.92 723.866V742.2H1987.07V696.187H1993.92V708.202C1994.75 706.304 1995.79 704.553 1997.04 702.951C1998.28 701.349 1999.71 699.985 2001.31 698.857C2002.91 697.671 2004.66 696.781 2006.56 696.187C2008.46 695.594 2010.5 695.327 2012.7 695.386V702.773H2012.17C2009.67 702.773 2007.3 703.218 2005.05 704.108C2002.85 704.998 2000.92 706.333 1999.26 708.113C1997.6 709.893 1996.29 712.118 1995.35 714.788C1994.4 717.399 1993.92 720.425 1993.92 723.866Z" fill="#4B4B4B"/>
<path d="M1938.49 721.73C1938.73 724.222 1939.32 726.447 1940.27 728.405C1941.22 730.304 1942.44 731.936 1943.92 733.3C1945.41 734.606 1947.07 735.614 1948.91 736.326C1950.75 736.979 1952.67 737.305 1954.69 737.305C1957.89 737.305 1960.62 736.712 1962.88 735.525C1965.19 734.339 1967.3 732.766 1969.2 730.808L1973.47 734.635C1971.16 737.246 1968.52 739.352 1965.55 740.954C1962.58 742.497 1958.9 743.268 1954.51 743.268C1951.37 743.268 1948.4 742.705 1945.61 741.577C1942.82 740.391 1940.39 738.759 1938.31 736.682C1936.24 734.546 1934.58 731.995 1933.33 729.028C1932.14 726.062 1931.55 722.798 1931.55 719.238C1931.55 715.916 1932.08 712.801 1933.15 709.893C1934.28 706.927 1935.82 704.375 1937.78 702.239C1939.74 700.044 1942.05 698.323 1944.72 697.077C1947.45 695.831 1950.42 695.208 1953.62 695.208C1957 695.208 1960.03 695.861 1962.7 697.166C1965.37 698.412 1967.63 700.133 1969.46 702.328C1971.3 704.524 1972.7 707.105 1973.65 710.071C1974.6 713.038 1975.07 716.212 1975.07 719.594C1975.07 719.891 1975.07 720.217 1975.07 720.573C1975.07 720.929 1975.04 721.315 1974.98 721.73H1938.49ZM1938.49 716.657H1968.13C1967.95 714.581 1967.51 712.593 1966.79 710.694C1966.14 708.796 1965.19 707.134 1963.95 705.71C1962.76 704.286 1961.28 703.159 1959.5 702.328C1957.78 701.438 1955.76 700.993 1953.44 700.993C1951.43 700.993 1949.56 701.409 1947.84 702.239C1946.12 703.011 1944.6 704.108 1943.3 705.532C1941.99 706.897 1940.93 708.529 1940.09 710.427C1939.26 712.326 1938.73 714.403 1938.49 716.657Z" fill="#4B4B4B"/>
<path d="M1884.06 695.475C1884.06 696.959 1884.29 698.294 1884.77 699.48C1885.24 700.667 1886.1 701.765 1887.35 702.773C1888.6 703.723 1890.32 704.613 1892.51 705.443C1894.71 706.215 1897.52 706.956 1900.97 707.668C1907.91 709.211 1913.01 711.347 1916.27 714.076C1919.6 716.806 1921.26 720.573 1921.26 725.379C1921.26 728.049 1920.72 730.482 1919.66 732.677C1918.59 734.873 1917.1 736.742 1915.21 738.284C1913.37 739.827 1911.14 741.014 1908.53 741.844C1905.92 742.675 1903.07 743.09 1899.99 743.09C1895 743.09 1890.43 742.289 1886.28 740.687C1882.19 739.026 1878.27 736.504 1874.53 733.122L1878.89 727.96C1882.16 730.927 1885.45 733.152 1888.77 734.635C1892.1 736.059 1895.92 736.771 1900.25 736.771C1904.47 736.771 1907.82 735.792 1910.31 733.834C1912.86 731.876 1914.14 729.295 1914.14 726.091C1914.14 724.608 1913.9 723.303 1913.43 722.175C1912.95 720.989 1912.12 719.921 1910.93 718.971C1909.75 718.022 1908.09 717.162 1905.95 716.39C1903.87 715.619 1901.2 714.877 1897.94 714.165C1894.38 713.394 1891.27 712.504 1888.6 711.495C1885.98 710.487 1883.82 709.27 1882.1 707.846C1880.38 706.422 1879.1 704.761 1878.27 702.862C1877.44 700.964 1877.03 698.709 1877.03 696.098C1877.03 693.606 1877.53 691.322 1878.54 689.245C1879.55 687.169 1880.97 685.389 1882.81 683.905C1884.65 682.363 1886.82 681.176 1889.31 680.345C1891.8 679.455 1894.53 679.01 1897.5 679.01C1902.06 679.01 1906.04 679.663 1909.42 680.968C1912.86 682.214 1916.19 684.113 1919.39 686.664L1915.3 692.093C1912.39 689.72 1909.45 687.999 1906.48 686.931C1903.58 685.863 1900.52 685.329 1897.32 685.329C1895.3 685.329 1893.46 685.596 1891.8 686.13C1890.2 686.664 1888.8 687.376 1887.62 688.266C1886.49 689.156 1885.6 690.224 1884.95 691.47C1884.35 692.716 1884.06 694.051 1884.06 695.475Z" fill="#4B4B4B"/>
<path d="M1839.95 696.187L1820.63 743.713C1818.67 748.46 1816.48 751.812 1814.05 753.77C1811.67 755.728 1808.77 756.707 1805.32 756.707C1803.43 756.707 1801.7 756.5 1800.16 756.084C1798.62 755.728 1797.08 755.165 1795.53 754.393L1797.85 748.964C1798.98 749.558 1800.07 749.973 1801.14 750.21C1802.27 750.507 1803.57 750.655 1805.06 750.655C1807.13 750.655 1808.88 750.032 1810.31 748.786C1811.73 747.54 1813.13 745.286 1814.49 742.022L1793.58 696.187H1801.14L1817.87 734.546L1832.65 696.187H1839.95Z" fill="#4B4B4B"/>
<path d="M1787.31 734.368C1785 736.979 1782.36 739.115 1779.39 740.776C1776.48 742.438 1772.86 743.268 1768.53 743.268C1765.15 743.268 1762 742.645 1759.1 741.399C1756.25 740.094 1753.76 738.373 1751.62 736.237C1749.54 734.042 1747.91 731.491 1746.73 728.583C1745.54 725.676 1744.95 722.591 1744.95 719.327C1744.95 716.064 1745.54 712.979 1746.73 710.071C1747.91 707.105 1749.54 704.524 1751.62 702.328C1753.76 700.133 1756.25 698.412 1759.1 697.166C1762 695.861 1765.15 695.208 1768.53 695.208C1770.73 695.208 1772.71 695.416 1774.49 695.831C1776.27 696.247 1777.91 696.84 1779.39 697.611C1780.87 698.323 1782.24 699.184 1783.48 700.192C1784.73 701.201 1785.89 702.269 1786.95 703.396L1782.42 708.202C1780.58 706.304 1778.56 704.672 1776.36 703.307C1774.23 701.943 1771.59 701.26 1768.44 701.26C1766.13 701.26 1763.96 701.735 1761.95 702.684C1759.93 703.574 1758.18 704.85 1756.69 706.511C1755.21 708.113 1754.05 710.012 1753.22 712.207C1752.39 714.343 1751.98 716.657 1751.98 719.149C1751.98 721.641 1752.39 723.985 1753.22 726.18C1754.11 728.376 1755.3 730.304 1756.78 731.965C1758.33 733.567 1760.11 734.843 1762.12 735.792C1764.2 736.682 1766.45 737.127 1768.89 737.127C1771.85 737.127 1774.46 736.475 1776.72 735.169C1779.03 733.864 1781.11 732.232 1782.95 730.274L1787.31 734.368Z" fill="#4B4B4B"/>
<path d="M1699.8 715.856V742.2H1692.95V696.187H1699.8V704.197C1701.35 701.705 1703.36 699.599 1705.86 697.878C1708.35 696.098 1711.58 695.208 1715.56 695.208C1718.35 695.208 1720.81 695.653 1722.94 696.543C1725.14 697.433 1726.98 698.709 1728.46 700.37C1730 701.972 1731.16 703.901 1731.93 706.155C1732.76 708.41 1733.18 710.902 1733.18 713.631V742.2H1726.33V715.322C1726.33 711.05 1725.23 707.668 1723.03 705.176C1720.84 702.684 1717.69 701.438 1713.6 701.438C1711.64 701.438 1709.8 701.794 1708.08 702.506C1706.42 703.159 1704.97 704.138 1703.72 705.443C1702.47 706.689 1701.5 708.202 1700.78 709.982C1700.13 711.762 1699.8 713.72 1699.8 715.856Z" fill="#4B4B4B"/>
<path d="M1658.05 701.616C1655.33 701.616 1652.83 701.943 1650.58 702.595C1648.38 703.189 1646.22 703.99 1644.08 704.998L1642.03 699.391C1644.59 698.205 1647.17 697.285 1649.78 696.632C1652.39 695.92 1655.38 695.564 1658.77 695.564C1665.06 695.564 1669.89 697.137 1673.27 700.281C1676.66 703.367 1678.35 707.965 1678.35 714.076V742.2H1671.76V735.258C1670.16 737.335 1667.99 739.174 1665.26 740.776C1662.59 742.378 1659.21 743.179 1655.12 743.179C1652.98 743.179 1650.88 742.883 1648.8 742.289C1646.78 741.696 1644.94 740.806 1643.28 739.619C1641.68 738.373 1640.37 736.86 1639.36 735.08C1638.42 733.3 1637.94 731.194 1637.94 728.761C1637.94 726.329 1638.42 724.193 1639.36 722.353C1640.31 720.455 1641.65 718.882 1643.37 717.636C1645.15 716.39 1647.23 715.441 1649.6 714.788C1652.03 714.136 1654.7 713.809 1657.61 713.809C1660.58 713.809 1663.16 713.987 1665.35 714.343C1667.55 714.699 1669.68 715.174 1671.76 715.767V714.165C1671.76 710.012 1670.54 706.897 1668.11 704.82C1665.74 702.684 1662.39 701.616 1658.05 701.616ZM1658.32 718.882C1653.99 718.882 1650.67 719.743 1648.35 721.463C1646.04 723.184 1644.88 725.528 1644.88 728.494C1644.88 729.978 1645.18 731.283 1645.77 732.41C1646.43 733.538 1647.29 734.517 1648.35 735.347C1649.42 736.119 1650.64 736.712 1652 737.127C1653.43 737.543 1654.91 737.75 1656.45 737.75C1658.59 737.75 1660.58 737.454 1662.42 736.86C1664.31 736.208 1665.95 735.347 1667.31 734.279C1668.73 733.152 1669.83 731.847 1670.6 730.363C1671.43 728.821 1671.85 727.13 1671.85 725.29V720.84C1670.13 720.366 1668.14 719.921 1665.89 719.505C1663.69 719.09 1661.17 718.882 1658.32 718.882Z" fill="#4B4B4B"/>
<path d="M1614.68 702.239V729.117C1614.68 731.965 1615.4 733.953 1616.82 735.08C1618.24 736.208 1620.11 736.771 1622.43 736.771C1623.61 736.771 1624.71 736.653 1625.72 736.415C1626.79 736.178 1627.92 735.763 1629.1 735.169V741.043C1627.92 741.696 1626.64 742.171 1625.28 742.467C1623.97 742.823 1622.49 743.001 1620.83 743.001C1618.99 743.001 1617.27 742.764 1615.66 742.289C1614.06 741.815 1612.67 741.073 1611.48 740.064C1610.35 738.996 1609.46 737.632 1608.81 735.97C1608.16 734.309 1607.83 732.321 1607.83 730.007V702.239H1601.42V696.187H1607.83V682.303H1614.68V696.187H1629.28V702.239H1614.68Z" fill="#4B4B4B"/>
<path d="M1589.52 742.2H1582.67V677.23H1589.52V742.2Z" fill="#4B4B4B"/>
<path d="M1559.87 722.531V696.187H1566.63V742.2H1559.87V734.19C1558.33 736.682 1556.31 738.818 1553.82 740.598C1551.33 742.319 1548.09 743.179 1544.12 743.179C1541.33 743.179 1538.84 742.734 1536.64 741.844C1534.5 740.954 1532.66 739.708 1531.12 738.106C1529.64 736.445 1528.48 734.487 1527.65 732.232C1526.88 729.978 1526.49 727.486 1526.49 724.756V696.187H1533.35V723.065C1533.35 727.337 1534.44 730.719 1536.64 733.211C1538.84 735.703 1541.98 736.949 1546.07 736.949C1548.03 736.949 1549.84 736.623 1551.5 735.97C1553.22 735.258 1554.68 734.279 1555.86 733.033C1557.11 731.728 1558.09 730.185 1558.8 728.405C1559.51 726.625 1559.87 724.667 1559.87 722.531Z" fill="#4B4B4B"/>
<path d="M1514.47 729.295C1514.47 731.491 1514.03 733.449 1513.14 735.169C1512.31 736.831 1511.15 738.255 1509.67 739.441C1508.24 740.628 1506.52 741.548 1504.51 742.2C1502.55 742.794 1500.41 743.09 1498.1 743.09C1494.78 743.09 1491.42 742.497 1488.04 741.31C1484.66 740.064 1481.66 738.403 1479.05 736.326L1482.52 731.431C1485.02 733.33 1487.6 734.784 1490.27 735.792C1493 736.801 1495.73 737.305 1498.45 737.305C1501.24 737.305 1503.53 736.653 1505.31 735.347C1507.09 734.042 1507.98 732.262 1507.98 730.007V729.829C1507.98 728.702 1507.65 727.723 1507 726.892C1506.41 726.062 1505.57 725.35 1504.51 724.756C1503.44 724.104 1502.19 723.54 1500.77 723.065C1499.4 722.591 1497.98 722.146 1496.5 721.73C1494.72 721.196 1492.91 720.633 1491.07 720.039C1489.29 719.387 1487.66 718.586 1486.17 717.636C1484.75 716.687 1483.56 715.5 1482.61 714.076C1481.72 712.652 1481.28 710.872 1481.28 708.736V708.558C1481.28 706.6 1481.66 704.82 1482.43 703.218C1483.21 701.557 1484.27 700.163 1485.64 699.035C1487.06 697.849 1488.72 696.959 1490.62 696.365C1492.58 695.713 1494.69 695.386 1496.94 695.386C1499.79 695.386 1502.67 695.861 1505.57 696.81C1508.48 697.7 1511.12 698.917 1513.5 700.459L1510.38 705.621C1508.24 704.257 1505.99 703.189 1503.62 702.417C1501.3 701.587 1499.02 701.171 1496.76 701.171C1494.03 701.171 1491.87 701.824 1490.27 703.129C1488.66 704.375 1487.86 705.948 1487.86 707.846V708.024C1487.86 709.092 1488.19 710.042 1488.84 710.872C1489.5 711.644 1490.36 712.326 1491.42 712.919C1492.55 713.513 1493.83 714.047 1495.25 714.521C1496.67 714.996 1498.16 715.471 1499.7 715.945C1501.48 716.479 1503.23 717.073 1504.95 717.725C1506.73 718.378 1508.33 719.209 1509.76 720.217C1511.18 721.226 1512.31 722.442 1513.14 723.866C1514.03 725.29 1514.47 727.041 1514.47 729.117V729.295Z" fill="#4B4B4B"/>
<path d="M1434.89 715.856V742.2H1428.04V696.187H1434.89V704.197C1436.43 701.705 1438.45 699.599 1440.94 697.878C1443.43 696.098 1446.67 695.208 1450.64 695.208C1453.43 695.208 1455.89 695.653 1458.03 696.543C1460.23 697.433 1462.06 698.709 1463.55 700.37C1465.09 701.972 1466.25 703.901 1467.02 706.155C1467.85 708.41 1468.27 710.902 1468.27 713.631V742.2H1461.41V715.322C1461.41 711.05 1460.31 707.668 1458.12 705.176C1455.92 702.684 1452.78 701.438 1448.69 701.438C1446.73 701.438 1444.89 701.794 1443.17 702.506C1441.51 703.159 1440.05 704.138 1438.81 705.443C1437.56 706.689 1436.58 708.202 1435.87 709.982C1435.22 711.762 1434.89 713.72 1434.89 715.856Z" fill="#4B4B4B"/>
<path d="M1415.62 719.149C1415.62 722.413 1415 725.528 1413.75 728.494C1412.57 731.402 1410.91 733.953 1408.77 736.148C1406.63 738.344 1404.08 740.094 1401.12 741.399C1398.15 742.645 1394.95 743.268 1391.5 743.268C1388.06 743.268 1384.89 742.645 1381.98 741.399C1379.07 740.094 1376.55 738.373 1374.42 736.237C1372.28 734.042 1370.62 731.491 1369.43 728.583C1368.25 725.676 1367.65 722.591 1367.65 719.327C1367.65 716.064 1368.25 712.979 1369.43 710.071C1370.62 707.105 1372.28 704.524 1374.42 702.328C1376.55 700.133 1379.07 698.412 1381.98 697.166C1384.95 695.861 1388.18 695.208 1391.68 695.208C1395.12 695.208 1398.3 695.861 1401.21 697.166C1404.17 698.412 1406.72 700.133 1408.86 702.328C1411 704.464 1412.66 706.986 1413.84 709.893C1415.03 712.801 1415.62 715.886 1415.62 719.149ZM1408.59 719.327C1408.59 716.835 1408.15 714.492 1407.26 712.296C1406.43 710.101 1405.24 708.202 1403.7 706.6C1402.15 704.939 1400.35 703.634 1398.27 702.684C1396.19 701.735 1393.94 701.26 1391.5 701.26C1389.01 701.26 1386.73 701.735 1384.65 702.684C1382.57 703.574 1380.79 704.85 1379.31 706.511C1377.89 708.113 1376.76 710.012 1375.93 712.207C1375.1 714.343 1374.68 716.657 1374.68 719.149C1374.68 721.641 1375.1 723.985 1375.93 726.18C1376.82 728.376 1378.01 730.274 1379.49 731.876C1381.03 733.478 1382.84 734.754 1384.92 735.703C1387 736.653 1389.25 737.127 1391.68 737.127C1394.17 737.127 1396.46 736.682 1398.54 735.792C1400.61 734.843 1402.39 733.567 1403.88 731.965C1405.36 730.363 1406.52 728.494 1407.35 726.358C1408.18 724.163 1408.59 721.819 1408.59 719.327Z" fill="#4B4B4B"/>
<path d="M1360.22 732.321C1358.62 733.983 1356.93 735.496 1355.15 736.86C1353.43 738.166 1351.56 739.293 1349.54 740.242C1347.52 741.192 1345.36 741.933 1343.04 742.467C1340.73 743.001 1338.15 743.268 1335.3 743.268C1330.79 743.268 1326.64 742.438 1322.84 740.776C1319.04 739.115 1315.75 736.86 1312.96 734.012C1310.17 731.105 1307.98 727.693 1306.37 723.777C1304.83 719.861 1304.06 715.649 1304.06 711.139C1304.06 706.689 1304.83 702.506 1306.37 698.59C1307.98 694.674 1310.17 691.263 1312.96 688.355C1315.75 685.389 1319.07 683.075 1322.93 681.413C1326.79 679.693 1331 678.832 1335.57 678.832C1338.41 678.832 1340.97 679.07 1343.22 679.544C1345.53 680.019 1347.67 680.701 1349.63 681.591C1351.59 682.422 1353.4 683.46 1355.06 684.706C1356.72 685.893 1358.32 687.228 1359.86 688.711L1355.06 693.873C1352.39 691.381 1349.51 689.334 1346.42 687.732C1343.4 686.13 1339.75 685.329 1335.48 685.329C1332.04 685.329 1328.83 685.982 1325.87 687.287C1322.96 688.593 1320.41 690.402 1318.21 692.716C1316.08 695.03 1314.38 697.76 1313.14 700.904C1311.95 703.99 1311.36 707.342 1311.36 710.961C1311.36 714.581 1311.95 717.963 1313.14 721.107C1314.38 724.252 1316.08 726.981 1318.21 729.295C1320.41 731.609 1322.96 733.449 1325.87 734.813C1328.83 736.119 1332.04 736.771 1335.48 736.771C1339.75 736.771 1343.43 736 1346.51 734.457C1349.6 732.855 1352.62 730.63 1355.59 727.782L1360.22 732.321Z" fill="#4B4B4B"/>
<path d="M1263.08 742.2H1256.22V677.23H1263.08V742.2Z" fill="#4B4B4B"/>
<path d="M1243.19 719.149C1243.19 722.413 1242.56 725.528 1241.32 728.494C1240.13 731.402 1238.47 733.953 1236.33 736.148C1234.2 738.344 1231.65 740.094 1228.68 741.399C1225.71 742.645 1222.51 743.268 1219.07 743.268C1215.63 743.268 1212.45 742.645 1209.54 741.399C1206.64 740.094 1204.11 738.373 1201.98 736.237C1199.84 734.042 1198.18 731.491 1196.99 728.583C1195.81 725.676 1195.21 722.591 1195.21 719.327C1195.21 716.064 1195.81 712.979 1196.99 710.071C1198.18 707.105 1199.84 704.524 1201.98 702.328C1204.11 700.133 1206.64 698.412 1209.54 697.166C1212.51 695.861 1215.74 695.208 1219.24 695.208C1222.69 695.208 1225.86 695.861 1228.77 697.166C1231.73 698.412 1234.29 700.133 1236.42 702.328C1238.56 704.464 1240.22 706.986 1241.41 709.893C1242.59 712.801 1243.19 715.886 1243.19 719.149ZM1236.15 719.327C1236.15 716.835 1235.71 714.492 1234.82 712.296C1233.99 710.101 1232.8 708.202 1231.26 706.6C1229.72 704.939 1227.91 703.634 1225.83 702.684C1223.75 701.735 1221.5 701.26 1219.07 701.26C1216.57 701.26 1214.29 701.735 1212.21 702.684C1210.14 703.574 1208.36 704.85 1206.87 706.511C1205.45 708.113 1204.32 710.012 1203.49 712.207C1202.66 714.343 1202.25 716.657 1202.25 719.149C1202.25 721.641 1202.66 723.985 1203.49 726.18C1204.38 728.376 1205.57 730.274 1207.05 731.876C1208.59 733.478 1210.4 734.754 1212.48 735.703C1214.56 736.653 1216.81 737.127 1219.24 737.127C1221.74 737.127 1224.02 736.682 1226.1 735.792C1228.17 734.843 1229.95 733.567 1231.44 731.965C1232.92 730.363 1234.08 728.494 1234.91 726.358C1235.74 724.163 1236.15 721.819 1236.15 719.327Z" fill="#4B4B4B"/>
<path d="M1185.65 719.149C1185.65 722.413 1185.03 725.528 1183.78 728.494C1182.59 731.402 1180.93 733.953 1178.8 736.148C1176.66 738.344 1174.11 740.094 1171.14 741.399C1168.18 742.645 1164.97 743.268 1161.53 743.268C1158.09 743.268 1154.91 742.645 1152.01 741.399C1149.1 740.094 1146.58 738.373 1144.44 736.237C1142.31 734.042 1140.64 731.491 1139.46 728.583C1138.27 725.676 1137.68 722.591 1137.68 719.327C1137.68 716.064 1138.27 712.979 1139.46 710.071C1140.64 707.105 1142.31 704.524 1144.44 702.328C1146.58 700.133 1149.1 698.412 1152.01 697.166C1154.97 695.861 1158.21 695.208 1161.71 695.208C1165.15 695.208 1168.32 695.861 1171.23 697.166C1174.2 698.412 1176.75 700.133 1178.88 702.328C1181.02 704.464 1182.68 706.986 1183.87 709.893C1185.06 712.801 1185.65 715.886 1185.65 719.149ZM1178.62 719.327C1178.62 716.835 1178.17 714.492 1177.28 712.296C1176.45 710.101 1175.27 708.202 1173.72 706.6C1172.18 704.939 1170.37 703.634 1168.29 702.684C1166.22 701.735 1163.96 701.26 1161.53 701.26C1159.04 701.26 1156.75 701.735 1154.68 702.684C1152.6 703.574 1150.82 704.85 1149.34 706.511C1147.91 708.113 1146.79 710.012 1145.95 712.207C1145.12 714.343 1144.71 716.657 1144.71 719.149C1144.71 721.641 1145.12 723.985 1145.95 726.18C1146.84 728.376 1148.03 730.274 1149.51 731.876C1151.06 733.478 1152.87 734.754 1154.94 735.703C1157.02 736.653 1159.28 737.127 1161.71 737.127C1164.2 737.127 1166.48 736.682 1168.56 735.792C1170.64 734.843 1172.42 733.567 1173.9 731.965C1175.38 730.363 1176.54 728.494 1177.37 726.358C1178.2 724.163 1178.62 721.819 1178.62 719.327Z" fill="#4B4B4B"/>
<path d="M1127.88 719.149C1127.88 722.947 1127.26 726.329 1126.01 729.295C1124.77 732.262 1123.11 734.784 1121.03 736.86C1119.01 738.878 1116.67 740.45 1114 741.577C1111.39 742.645 1108.69 743.179 1105.9 743.179C1103.76 743.179 1101.8 742.912 1100.02 742.378C1098.24 741.844 1096.64 741.132 1095.22 740.242C1093.79 739.352 1092.49 738.314 1091.3 737.127C1090.18 735.941 1089.17 734.695 1088.28 733.389V756.44H1081.42V696.187H1088.28V705.443C1089.23 704.079 1090.26 702.773 1091.39 701.527C1092.58 700.281 1093.88 699.213 1095.31 698.323C1096.73 697.374 1098.3 696.632 1100.02 696.098C1101.8 695.505 1103.76 695.208 1105.9 695.208C1108.63 695.208 1111.3 695.742 1113.91 696.81C1116.58 697.878 1118.95 699.451 1121.03 701.527C1123.11 703.545 1124.77 706.037 1126.01 709.003C1127.26 711.97 1127.88 715.352 1127.88 719.149ZM1120.85 719.238C1120.85 716.509 1120.41 714.047 1119.52 711.851C1118.69 709.656 1117.53 707.787 1116.04 706.244C1114.56 704.642 1112.84 703.426 1110.88 702.595C1108.92 701.765 1106.85 701.349 1104.65 701.349C1102.52 701.349 1100.44 701.794 1098.42 702.684C1096.46 703.515 1094.68 704.702 1093.08 706.244C1091.54 707.787 1090.29 709.656 1089.34 711.851C1088.45 714.047 1088.01 716.479 1088.01 719.149C1088.01 721.819 1088.45 724.282 1089.34 726.536C1090.29 728.732 1091.54 730.601 1093.08 732.143C1094.68 733.686 1096.46 734.902 1098.42 735.792C1100.44 736.623 1102.52 737.038 1104.65 737.038C1106.85 737.038 1108.92 736.653 1110.88 735.881C1112.9 735.051 1114.62 733.894 1116.04 732.41C1117.53 730.868 1118.69 728.999 1119.52 726.803C1120.41 724.549 1120.85 722.027 1120.85 719.238Z" fill="#4B4B4B"/>
<path d="M1033.43 715.856V742.2H1026.58V677.23H1033.43V704.197C1034.98 701.705 1036.99 699.599 1039.49 697.878C1041.98 696.098 1045.21 695.208 1049.19 695.208C1051.98 695.208 1054.44 695.653 1056.57 696.543C1058.77 697.433 1060.61 698.709 1062.09 700.37C1063.63 701.972 1064.79 703.901 1065.56 706.155C1066.39 708.41 1066.81 710.902 1066.81 713.631V742.2H1059.96V715.322C1059.96 711.05 1058.86 707.668 1056.66 705.176C1054.47 702.684 1051.32 701.438 1047.23 701.438C1045.27 701.438 1043.43 701.794 1041.71 702.506C1040.05 703.159 1038.6 704.138 1037.35 705.443C1036.1 706.689 1035.13 708.202 1034.41 709.982C1033.76 711.762 1033.43 713.72 1033.43 715.856Z" fill="#4B4B4B"/>
<path d="M1015.25 734.368C1012.94 736.979 1010.3 739.115 1007.33 740.776C1004.42 742.438 1000.81 743.268 996.474 743.268C993.092 743.268 989.947 742.645 987.04 741.399C984.192 740.094 981.7 738.373 979.564 736.237C977.487 734.042 975.855 731.491 974.669 728.583C973.482 725.676 972.889 722.591 972.889 719.327C972.889 716.064 973.482 712.979 974.669 710.071C975.855 707.105 977.487 704.524 979.564 702.328C981.7 700.133 984.192 698.412 987.04 697.166C989.947 695.861 993.092 695.208 996.474 695.208C998.669 695.208 1000.66 695.416 1002.44 695.831C1004.22 696.247 1005.85 696.84 1007.33 697.611C1008.82 698.323 1010.18 699.184 1011.43 700.192C1012.67 701.201 1013.83 702.269 1014.9 703.396L1010.36 708.202C1008.52 706.304 1006.5 704.672 1004.31 703.307C1002.17 701.943 999.529 701.26 996.385 701.26C994.071 701.26 991.905 701.735 989.888 702.684C987.87 703.574 986.12 704.85 984.637 706.511C983.153 708.113 981.996 710.012 981.166 712.207C980.335 714.343 979.92 716.657 979.92 719.149C979.92 721.641 980.335 723.985 981.166 726.18C982.056 728.376 983.242 730.304 984.726 731.965C986.268 733.567 988.048 734.843 990.066 735.792C992.142 736.682 994.397 737.127 996.83 737.127C999.796 737.127 1002.41 736.475 1004.66 735.169C1006.98 733.864 1009.05 732.232 1010.89 730.274L1015.25 734.368Z" fill="#4B4B4B"/>
<path d="M927.161 721.73C927.398 724.222 927.991 726.447 928.941 728.405C929.89 730.304 931.106 731.936 932.59 733.3C934.073 734.606 935.734 735.614 937.574 736.326C939.413 736.979 941.341 737.305 943.359 737.305C946.563 737.305 949.292 736.712 951.547 735.525C953.861 734.339 955.967 732.766 957.866 730.808L962.138 734.635C959.824 737.246 957.183 739.352 954.217 740.954C951.25 742.497 947.571 743.268 943.181 743.268C940.036 743.268 937.069 742.705 934.281 741.577C931.492 740.391 929.059 738.759 926.983 736.682C924.906 734.546 923.245 731.995 921.999 729.028C920.812 726.062 920.219 722.798 920.219 719.238C920.219 715.916 920.753 712.801 921.821 709.893C922.948 706.927 924.491 704.375 926.449 702.239C928.407 700.044 930.721 698.323 933.391 697.077C936.12 695.831 939.087 695.208 942.291 695.208C945.673 695.208 948.699 695.861 951.369 697.166C954.039 698.412 956.293 700.133 958.133 702.328C959.972 704.524 961.366 707.105 962.316 710.071C963.265 713.038 963.74 716.212 963.74 719.594C963.74 719.891 963.74 720.217 963.74 720.573C963.74 720.929 963.71 721.315 963.651 721.73H927.161ZM927.161 716.657H956.798C956.62 714.581 956.175 712.593 955.463 710.694C954.81 708.796 953.861 707.134 952.615 705.71C951.428 704.286 949.945 703.159 948.165 702.328C946.444 701.438 944.427 700.993 942.113 700.993C940.095 700.993 938.226 701.409 936.506 702.239C934.785 703.011 933.272 704.108 931.967 705.532C930.661 706.897 929.593 708.529 928.763 710.427C927.932 712.326 927.398 714.403 927.161 716.657Z" fill="#4B4B4B"/>
<path d="M901.396 686.397V742.2H894.276V686.397H873.361V679.9H922.311V686.397H901.396Z" fill="#4B4B4B"/>
</svg>
