<svg width="186" height="36" viewBox="0 0 186 36" fill="none" xmlns="http://www.w3.org/2000/svg">
<g clip-path="url(#clip0_2208_13663)">
<path d="M74.6091 16.4313V2.41675H85.8755V5.72022H78.451V7.84239H85.1747V10.9056H78.451V13.1279H85.9752V16.4313H74.6091Z" fill="#0504A7"/>
<path d="M62.2781 16.4313V2.41675H66.1598V13.0278H72.9438V16.4313H62.2781Z" fill="#0504A7"/>
<path d="M55.8113 16.4313V2.41675H59.7134V16.4313H55.8113Z" fill="#0504A7"/>
<path d="M42.7554 16.4313V2.41675H53.9616V5.8203H46.6375V8.20278H53.2612V11.4262H46.6375V16.4313H42.7554Z" fill="#0504A7"/>
<path d="M58.6661 20.6464V34.6043H55.2679V26.2335L52.1478 34.6043H49.4053L46.2653 26.2136V34.6043H42.8669V20.6464H46.8814L50.7964 30.3095L54.6717 20.6464H58.6661ZM69.7947 32.1388H64.5877L63.7535 34.6043H60.1957L65.2437 20.6464H69.1785L74.2266 34.6043H70.6295L69.7947 32.1388ZM68.9206 29.5142L67.1912 24.4043L65.4823 29.5142H68.9206ZM88.2432 34.6043H84.8448L79.1612 25.9949V34.6043H75.7628V20.6464H79.1612L84.8448 29.2955V20.6464H88.2432V34.6043ZM99.3916 32.1388H94.1847L93.3499 34.6043H89.7926L94.8401 20.6464H98.7755L103.823 34.6043H100.226L99.3916 32.1388ZM98.517 29.5142L96.7882 24.4043L95.0787 29.5142H98.517ZM114.621 25.0604C114.369 24.5965 114.004 24.2452 113.527 24.0066C113.064 23.7547 112.514 23.6288 111.878 23.6288C110.778 23.6288 109.897 23.9933 109.235 24.7224C108.572 25.4382 108.241 26.3992 108.241 27.6054C108.241 28.8912 108.585 29.8986 109.275 30.6277C109.977 31.3435 110.937 31.7014 112.156 31.7014C112.991 31.7014 113.693 31.4892 114.263 31.0651C114.846 30.6409 115.27 30.0312 115.534 29.2359H111.222V26.7306H118.615V29.892C118.363 30.7403 117.933 31.529 117.323 32.2581C116.727 32.9871 115.965 33.577 115.038 34.0277C114.11 34.4783 113.064 34.7037 111.898 34.7037C110.52 34.7037 109.288 34.4055 108.201 33.809C107.128 33.1992 106.287 32.3575 105.678 31.2838C105.081 30.2101 104.783 28.984 104.783 27.6054C104.783 26.2269 105.081 25.0008 105.678 23.9271C106.287 22.8401 107.128 21.9984 108.201 21.4019C109.275 20.7921 110.5 20.4873 111.878 20.4873C113.547 20.4873 114.952 20.8916 116.091 21.7002C117.244 22.5087 118.006 23.6288 118.377 25.0604H114.621ZM123.896 23.3704V26.1937H128.447V28.8183H123.896V31.8803H129.043V34.6043H120.497V20.6464H129.043V23.3704H123.896ZM147.048 20.6464V34.6043H143.65V26.2335L140.53 34.6043H137.788L134.648 26.2136V34.6043H131.249V20.6464H135.263L139.179 30.3095L143.054 20.6464H147.048ZM152.891 23.3704V26.1937H157.442V28.8183H152.891V31.8803H158.038V34.6043H149.493V20.6464H158.038V23.3704H152.891ZM172.724 34.6043H169.326L163.642 25.9949V34.6043H160.244V20.6464H163.642L169.326 29.2955V20.6464H172.724V34.6043ZM185.224 20.6464V23.3704H181.527V34.6043H178.129V23.3704H174.433V20.6464H185.224Z" fill="#0504A7"/>
<path d="M33.774 0H2.55225C1.23761 0 0.171875 1.06625 0.171875 2.38154V33.6185C0.171875 34.9337 1.23761 36 2.55225 36H33.774C35.0886 36 36.1543 34.9337 36.1543 33.6185V2.38154C36.1543 1.06625 35.0886 0 33.774 0Z" fill="#01083E"/>
<mask id="mask0_2208_13663" style="mask-type:luminance" maskUnits="userSpaceOnUse" x="6" y="6" width="24" height="24">
<path d="M29.7883 6.30273H6.53809V29.5643H29.7883V6.30273Z" fill="white"/>
</mask>
<g mask="url(#mask0_2208_13663)">
<path fill-rule="evenodd" clip-rule="evenodd" d="M6.56144 14.905L13.0117 7.44232C13.028 7.42387 13.0509 7.41258 13.0754 7.41086C13.1 7.4092 13.1242 7.41723 13.1429 7.43323L22.6977 15.6993C22.7161 15.7159 22.7274 15.739 22.7291 15.7638C22.7307 15.7886 22.7228 15.813 22.7068 15.832L16.2567 23.2945C16.2402 23.313 16.2171 23.3244 16.1923 23.3261C16.1675 23.3278 16.1431 23.3198 16.1241 23.3038L6.57068 15.0375C6.56127 15.0295 6.55358 15.0197 6.54799 15.0086C6.54245 14.9976 6.53913 14.9855 6.5383 14.9731C6.53747 14.9608 6.53907 14.9484 6.54306 14.9367C6.5471 14.925 6.55336 14.9142 6.5616 14.905H6.56144Z" fill="#B2C4F0"/>
<path fill-rule="evenodd" clip-rule="evenodd" d="M10.8415 11.3918L15.3445 9.33765L22.6976 15.6994C22.716 15.716 22.7272 15.7391 22.7289 15.7639C22.7306 15.7886 22.7227 15.8131 22.7067 15.832L16.2566 23.2946C16.2401 23.3131 16.2169 23.3244 16.1922 23.3261C16.1674 23.3279 16.143 23.3199 16.124 23.3039L15.6667 22.9073L10.6507 11.9025C10.6085 11.8094 10.6049 11.7034 10.6406 11.6077C10.6764 11.512 10.7486 11.4344 10.8414 11.3918H10.8415Z" fill="#6688E2"/>
<path fill-rule="evenodd" clip-rule="evenodd" d="M10.9624 11.657L19.9352 7.56427C19.9577 7.55424 19.9833 7.55347 20.0064 7.56216C20.0295 7.57086 20.0482 7.5883 20.0585 7.61073L25.2985 19.1091C25.3038 19.1202 25.3069 19.1323 25.3075 19.1446C25.3081 19.1569 25.3062 19.1692 25.3021 19.1809C25.2979 19.1924 25.2914 19.2031 25.2831 19.2121C25.2747 19.2212 25.2647 19.2286 25.2535 19.2338L16.2806 23.3263C16.2579 23.3363 16.2322 23.337 16.2089 23.3283C16.1857 23.3196 16.1667 23.3022 16.1561 23.2799L10.916 11.7819C10.9058 11.7592 10.905 11.7333 10.9137 11.71C10.9224 11.6867 10.9399 11.6677 10.9624 11.6572V11.657Z" fill="#809CE7"/>
<path fill-rule="evenodd" clip-rule="evenodd" d="M16.2885 10.2485H21.261L25.2984 19.109C25.3037 19.1202 25.3068 19.1322 25.3074 19.1446C25.308 19.1569 25.3062 19.1692 25.302 19.1808C25.2977 19.1924 25.2913 19.203 25.283 19.2121C25.2746 19.2212 25.2646 19.2285 25.2534 19.2337L16.2805 23.3262C16.2578 23.3362 16.2321 23.3369 16.2089 23.3282C16.1856 23.3196 16.1666 23.3022 16.1559 23.2798L15.9041 22.7255V10.6344C15.9039 10.5838 15.9139 10.5337 15.9331 10.4869C15.9524 10.4401 15.9807 10.3976 16.0163 10.3618C16.052 10.3259 16.0944 10.2975 16.1412 10.2781C16.1878 10.2586 16.2379 10.2486 16.2885 10.2485Z" fill="#99B0EB"/>
<path fill-rule="evenodd" clip-rule="evenodd" d="M16.2886 10.5403H23.6323L26.2437 13.1529V23.2708C26.2435 23.2957 26.2336 23.3196 26.216 23.3372C26.1984 23.3549 26.1745 23.3649 26.1496 23.365H16.2886C16.2763 23.3649 16.2642 23.3624 16.2529 23.3576C16.2415 23.3528 16.2313 23.3459 16.2227 23.3371C16.2141 23.3284 16.2073 23.318 16.2026 23.3066C16.198 23.2952 16.1957 23.2831 16.1958 23.2708V10.6344C16.1957 10.6221 16.198 10.61 16.2026 10.5985C16.2073 10.5872 16.2141 10.5768 16.2227 10.5681C16.2313 10.5593 16.2415 10.5524 16.2529 10.5476C16.2642 10.5428 16.2763 10.5403 16.2886 10.5403Z" fill="#EAF6FF"/>
<path fill-rule="evenodd" clip-rule="evenodd" d="M23.6323 10.5403V12.5666C23.6326 12.7219 23.6944 12.8708 23.8042 12.9806C23.914 13.0905 24.0628 13.1523 24.2181 13.1527H26.2434L23.6323 10.5403Z" fill="#BEC7CF"/>
<path fill-rule="evenodd" clip-rule="evenodd" d="M18.5473 19.45H26.2529C26.6435 19.4512 27.0177 19.607 27.2939 19.8833C27.5701 20.1596 27.7257 20.534 27.7269 20.9248V26.9816C27.7259 27.3724 27.5703 27.747 27.2942 28.0234C27.0179 28.2997 26.6435 28.4554 26.2529 28.4564H12.5915C12.2009 28.4552 11.8267 28.2995 11.5504 28.0232C11.2743 27.7468 11.1186 27.3724 11.1174 26.9816V17.9752C11.1183 17.6541 11.2462 17.3464 11.4733 17.1195C11.7004 16.8926 12.0081 16.7649 12.329 16.7644H14.9019C15.3288 16.7644 15.6191 17.027 15.9239 17.3241L17.5252 18.8903C17.8302 19.1888 18.1205 19.45 18.5473 19.45Z" fill="#3361D8"/>
<path d="M17.801 13.1171C17.7149 13.1161 17.6326 13.0812 17.572 13.0198C17.5114 12.9585 17.4775 12.8757 17.4775 12.7895C17.4775 12.7033 17.5114 12.6206 17.572 12.5592C17.6326 12.4979 17.7149 12.463 17.801 12.4619H22.1304C22.2166 12.463 22.2989 12.4979 22.3594 12.5592C22.42 12.6206 22.454 12.7033 22.454 12.7895C22.454 12.8757 22.42 12.9585 22.3594 13.0198C22.2989 13.0812 22.2166 13.1161 22.1304 13.1171H17.801ZM17.801 17.8966C17.7142 17.8966 17.6309 17.8621 17.5695 17.8007C17.5081 17.7393 17.4736 17.6559 17.4736 17.5691C17.4736 17.4822 17.5081 17.3989 17.5695 17.3375C17.6309 17.276 17.7142 17.2415 17.801 17.2415H24.6384C24.7252 17.2415 24.8085 17.276 24.8699 17.3375C24.9313 17.3989 24.9658 17.4822 24.9658 17.5691C24.9658 17.6559 24.9313 17.7393 24.8699 17.8007C24.8085 17.8621 24.7252 17.8966 24.6384 17.8966H17.801ZM17.801 16.3039C17.7149 16.3028 17.6326 16.2679 17.572 16.2066C17.5114 16.1452 17.4775 16.0625 17.4775 15.9763C17.4775 15.8901 17.5114 15.8073 17.572 15.746C17.6326 15.6846 17.7149 15.6497 17.801 15.6487H24.6384C24.6817 15.6482 24.7247 15.6563 24.7648 15.6725C24.805 15.6887 24.8416 15.7128 24.8724 15.7432C24.9032 15.7737 24.9277 15.81 24.9444 15.85C24.9611 15.89 24.9697 15.9329 24.9697 15.9763C24.9697 16.0196 24.9611 16.0625 24.9444 16.1025C24.9277 16.1426 24.9032 16.1788 24.8724 16.2093C24.8416 16.2398 24.805 16.2638 24.7648 16.2801C24.7247 16.2963 24.6817 16.3044 24.6384 16.3039H17.801ZM17.801 14.711C17.7581 14.711 17.7155 14.7026 17.6757 14.6861C17.636 14.6697 17.5999 14.6455 17.5695 14.6151C17.5391 14.5847 17.515 14.5486 17.4985 14.5088C17.4821 14.4691 17.4736 14.4265 17.4736 14.3835C17.4736 14.3404 17.4821 14.2979 17.4985 14.2581C17.515 14.2184 17.5391 14.1823 17.5695 14.1519C17.5999 14.1214 17.636 14.0973 17.6757 14.0809C17.7155 14.0644 17.7581 14.0559 17.801 14.0559H24.6384C24.6814 14.0559 24.7239 14.0644 24.7637 14.0809C24.8034 14.0973 24.8395 14.1214 24.8699 14.1519C24.9003 14.1823 24.9244 14.2184 24.9409 14.2581C24.9573 14.2979 24.9658 14.3404 24.9658 14.3835C24.9658 14.4265 24.9573 14.4691 24.9409 14.5088C24.9244 14.5486 24.9003 14.5847 24.8699 14.6151C24.8395 14.6455 24.8034 14.6697 24.7637 14.6861C24.7239 14.7026 24.6814 14.711 24.6384 14.711H17.801Z" fill="#BEC7CF"/>
<path d="M13.1973 24.5016C13.1105 24.5016 13.0271 24.4671 12.9658 24.4057C12.9044 24.3442 12.8699 24.2609 12.8699 24.174C12.8699 24.0871 12.9044 24.0038 12.9658 23.9424C13.0271 23.8809 13.1105 23.8464 13.1973 23.8464H16.3906C16.4774 23.8464 16.5607 23.8809 16.6221 23.9424C16.6835 24.0038 16.718 24.0871 16.718 24.174C16.718 24.2609 16.6835 24.3442 16.6221 24.4057C16.5607 24.4671 16.4774 24.5016 16.3906 24.5016H13.1973ZM13.1973 26.7389C13.1105 26.7389 13.0271 26.7044 12.9658 26.643C12.9044 26.5815 12.8699 26.4982 12.8699 26.4114C12.8699 26.3245 12.9044 26.2412 12.9658 26.1797C13.0271 26.1183 13.1105 26.0838 13.1973 26.0838H25.6471C25.7339 26.0838 25.8172 26.1183 25.8786 26.1797C25.94 26.2412 25.9745 26.3245 25.9745 26.4114C25.9745 26.4982 25.94 26.5815 25.8786 26.643C25.8172 26.7044 25.7339 26.7389 25.6471 26.7389H13.1973Z" fill="#99B0EB"/>
<path fill-rule="evenodd" clip-rule="evenodd" d="M26.2436 19.698C26.4459 19.8324 26.6118 20.0147 26.7268 20.2287C26.8417 20.4427 26.9021 20.6818 26.9025 20.9247V26.9816C26.9015 27.3724 26.7459 27.747 26.4697 28.0234C26.1935 28.2997 25.8191 28.4554 25.4284 28.4564H26.2529C26.6436 28.4554 27.018 28.2997 27.2942 28.0234C27.5704 27.747 27.726 27.3724 27.727 26.9816V20.9247C27.7273 20.7312 27.689 20.5396 27.6143 20.3611C27.5022 20.0921 27.3132 19.8621 27.0711 19.7C26.8289 19.538 26.5443 19.451 26.2529 19.45H25.4284C25.7187 19.4499 26.0025 19.5363 26.2436 19.698ZM17.5253 18.8903L16.1958 17.5906L15.924 17.3241C15.6192 17.027 15.3288 16.7644 14.902 16.7644H14.0789C14.5043 16.7644 14.7946 17.027 15.0995 17.3241L16.1958 18.3956L16.7021 18.8903C17.0057 19.1887 17.296 19.45 17.7229 19.45H18.5473C18.1205 19.45 17.8302 19.1887 17.5253 18.8903Z" fill="#4C75DD"/>
<path fill-rule="evenodd" clip-rule="evenodd" d="M26.9979 23.8039C27.5498 23.8039 28.0893 23.6402 28.5481 23.3334C29.007 23.0266 29.3646 22.5906 29.5758 22.0805C29.787 21.5704 29.8423 21.0091 29.7346 20.4675C29.627 19.926 29.3612 19.4285 28.9709 19.0381C28.5807 18.6477 28.0836 18.3818 27.5423 18.2741C27.001 18.1664 26.4399 18.2217 25.9301 18.433C25.4202 18.6442 24.9844 19.0021 24.6778 19.4612C24.3712 19.9203 24.2075 20.46 24.2075 21.0122C24.2089 21.7522 24.5034 22.4614 25.0264 22.9847C25.5493 23.5079 26.2582 23.8025 26.9979 23.8039Z" fill="#25C73B"/>
<path d="M25.3302 21.3915C25.299 21.3612 25.2741 21.3251 25.257 21.2852C25.2399 21.2453 25.2309 21.2023 25.2305 21.1589C25.2301 21.1154 25.2384 21.0723 25.2548 21.0321C25.2712 20.9919 25.2955 20.9553 25.3261 20.9245C25.3568 20.8938 25.3933 20.8694 25.4334 20.8529C25.4736 20.8363 25.5167 20.828 25.5601 20.8283C25.6035 20.8285 25.6464 20.8375 25.6864 20.8545C25.7264 20.8715 25.7626 20.8963 25.7929 20.9274L26.4212 21.556L28.2013 19.7751C28.2626 19.7137 28.3458 19.6792 28.4325 19.6792C28.5193 19.6792 28.6025 19.7136 28.6639 19.7751C28.7252 19.8364 28.7597 19.9197 28.7597 20.0065C28.7597 20.0933 28.7252 20.1765 28.6639 20.2379L26.6518 22.2509C26.5903 22.312 26.5071 22.3464 26.4205 22.3464C26.3338 22.3464 26.2507 22.312 26.1892 22.2509L25.3302 21.3915Z" fill="#EAF6FF"/>
<path fill-rule="evenodd" clip-rule="evenodd" d="M26.7605 18.2298C27.4452 18.2878 28.0843 18.5965 28.5556 19.0967C29.0269 19.5969 29.2972 20.2535 29.3148 20.9407C29.3323 21.6278 29.0959 22.2974 28.6508 22.821C28.2057 23.3447 27.5832 23.6856 26.9024 23.7787C26.856 23.7853 26.8083 23.7906 26.7605 23.7946C26.8083 23.7986 26.8547 23.8012 26.9024 23.8026C26.9342 23.8039 26.966 23.8039 26.9978 23.8039C27.244 23.8043 27.4892 23.7718 27.7268 23.7071C28.3797 23.5302 28.9461 23.1222 29.3208 22.5588C29.6954 21.9955 29.8529 21.3151 29.7638 20.6444C29.6746 19.9735 29.345 19.358 28.8362 18.9122C28.3275 18.4663 27.6741 18.2205 26.9978 18.2205C26.9182 18.2205 26.8388 18.2231 26.7605 18.2295V18.2298Z" fill="#21B335"/>
<path fill-rule="evenodd" clip-rule="evenodd" d="M25.647 13.1531V18.568C25.8356 18.4637 26.0359 18.3818 26.2435 18.324V13.1531H25.647Z" fill="#D3DDE6"/>
</g>
</g>
<defs>
<clipPath id="clip0_2208_13663">
<rect width="185.559" height="36" fill="white" transform="translate(0.171875)"/>
</clipPath>
</defs>
</svg>
