<svg width="33" height="30" viewBox="0 0 33 30" fill="none" xmlns="http://www.w3.org/2000/svg">
<path d="M32.2 8.42851C32.2 8.1254 32.0796 7.83471 31.8653 7.62038C31.6509 7.40605 31.3603 7.28564 31.0571 7.28564H7.05694C6.75383 7.28564 6.46314 7.40605 6.24881 7.62038C6.03448 7.83471 5.91407 8.1254 5.91407 8.42851V24.4286C5.91547 25.2716 5.60602 26.0854 5.04492 26.7144H9.34267V20.4286H8.77124C8.46813 20.4286 8.17744 20.3082 7.96311 20.0939C7.74878 19.8795 7.62837 19.5889 7.62837 19.2857V17.2823C7.62884 17.1067 7.66957 16.9335 7.74743 16.7761C7.8253 16.6187 7.93822 16.4812 8.07752 16.3743L17.1062 9.47023C17.5052 9.16594 17.9929 9.00075 18.4948 8.99995H19.6193C20.1212 9.00075 20.6089 9.16594 21.0079 9.47023L30.0366 16.3749C30.1758 16.4817 30.2887 16.6191 30.3666 16.7764C30.4444 16.9337 30.4852 17.1068 30.4857 17.2823V19.2857C30.4857 19.5889 30.3653 19.8795 30.151 20.0939C29.9366 20.3082 29.646 20.4286 29.3428 20.4286H28.7714V26.7144H29.9143C30.5205 26.7144 31.1019 26.4736 31.5305 26.0449C31.9592 25.6163 32.2 25.0349 32.2 24.4286V8.42851Z" fill="url(#paint0_radial_4085_41381)"/>
<path d="M12.7721 20.4282H10.4863V29.5712H12.7721V20.4282Z" fill="url(#paint1_radial_4085_41381)"/>
<path d="M15.0573 17.5712H8.77148V19.2855H29.3431V17.5712H23.0573C22.9058 17.5712 22.7604 17.511 22.6533 17.4038C22.5461 17.2967 22.4859 17.1513 22.4859 16.9998C22.4859 16.8482 22.5461 16.7029 22.6533 16.5957C22.7604 16.4886 22.9058 16.4283 23.0573 16.4283H28.2265L20.3144 10.3774C20.1147 10.2253 19.8706 10.1428 19.6196 10.1426H18.495C18.2441 10.1429 18.0003 10.2254 17.8007 10.3774L9.88807 16.4283H15.0573C15.2088 16.4283 15.3542 16.4886 15.4613 16.5957C15.5685 16.7029 15.6287 16.8482 15.6287 16.9998C15.6287 17.1513 15.5685 17.2967 15.4613 17.4038C15.3542 17.511 15.2088 17.5712 15.0573 17.5712ZM18.4859 11.962V11.8569C18.4859 11.7053 18.5461 11.56 18.6532 11.4528C18.7604 11.3456 18.9057 11.2854 19.0573 11.2854C19.2088 11.2854 19.3542 11.3456 19.4614 11.4528C19.5685 11.56 19.6287 11.7053 19.6287 11.8569V11.9712C20.0118 12.1027 20.3358 12.3659 20.543 12.714C20.6134 12.8449 20.6301 12.998 20.5895 13.1409C20.549 13.2838 20.4543 13.4053 20.3257 13.4796C20.197 13.5539 20.0445 13.5752 19.9004 13.539C19.7563 13.5027 19.632 13.4118 19.5539 13.2855C19.5037 13.1987 19.4317 13.1266 19.3449 13.0764C19.2581 13.0263 19.1596 12.9998 19.0594 12.9997C18.9592 12.9997 18.8607 13.026 18.7738 13.076C18.687 13.126 18.6148 13.198 18.5645 13.2847C18.5143 13.3715 18.4877 13.4699 18.4876 13.5701C18.4874 13.6704 18.5136 13.7689 18.5635 13.8558C18.6134 13.9427 18.6853 14.015 18.772 14.0653C18.8587 14.1157 18.9571 14.1423 19.0573 14.1426C19.4612 14.1418 19.8523 14.2841 20.1614 14.544C20.4705 14.804 20.6777 15.165 20.7461 15.5631C20.8145 15.9612 20.7399 16.3706 20.5354 16.7189C20.3309 17.0672 20.0097 17.3319 19.6287 17.4661V17.5712C19.6287 17.7228 19.5685 17.8681 19.4614 17.9753C19.3542 18.0824 19.2088 18.1426 19.0573 18.1426C18.9057 18.1426 18.7604 18.0824 18.6532 17.9753C18.5461 17.8681 18.4859 17.7228 18.4859 17.5712V17.4569C18.1027 17.3254 17.7787 17.0621 17.5716 16.7141C17.5012 16.5832 17.4845 16.4301 17.525 16.2872C17.5656 16.1443 17.6603 16.0228 17.7889 15.9485C17.9176 15.8742 18.0701 15.8529 18.2142 15.8891C18.3582 15.9254 18.4825 16.0163 18.5607 16.1426C18.6108 16.2294 18.6829 16.3015 18.7697 16.3517C18.8565 16.4018 18.9549 16.4283 19.0552 16.4283C19.1554 16.4284 19.2539 16.4021 19.3408 16.3521C19.4276 16.3021 19.4998 16.2301 19.55 16.1434C19.6003 16.0566 19.6268 15.9582 19.627 15.858C19.6272 15.7577 19.601 15.6592 19.5511 15.5723C19.5012 15.4854 19.4293 15.4131 19.3426 15.3628C19.2559 15.3124 19.1575 15.2858 19.0573 15.2855C18.6534 15.2862 18.2622 15.144 17.9531 14.884C17.644 14.6241 17.4369 14.2631 17.3685 13.865C17.3 13.4669 17.3747 13.0575 17.5792 12.7092C17.7837 12.3609 18.1049 12.0962 18.4859 11.962Z" fill="url(#paint2_radial_4085_41381)"/>
<path d="M2.48593 26.7142C2.78644 26.7154 3.08421 26.6571 3.36207 26.5426C3.63994 26.4282 3.89239 26.2599 4.10488 26.0474C4.31738 25.8349 4.48569 25.5824 4.60014 25.3046C4.71458 25.0267 4.77287 24.7289 4.77166 24.4284V8.42829C4.77166 7.82208 5.01248 7.24069 5.44114 6.81203C5.8698 6.38338 6.45118 6.14256 7.0574 6.14256H26.4861V4.42826C26.4861 4.12515 26.3657 3.83446 26.1514 3.62013C25.9371 3.4058 25.6464 3.28539 25.3433 3.28539H13.1489C12.3914 3.28365 11.6651 2.98325 11.1277 2.44938L9.60771 0.92937C9.28511 0.609051 8.84916 0.428961 8.39455 0.428223H1.34306C1.03996 0.428223 0.749262 0.548631 0.534933 0.762961C0.320604 0.97729 0.200195 1.26798 0.200195 1.57109V24.4284C0.200195 25.0346 0.441013 25.616 0.869671 26.0447C1.29833 26.4733 1.87972 26.7142 2.48593 26.7142Z" fill="url(#paint3_radial_4085_41381)"/>
<path d="M16.7722 20.4282H13.915V27.2854H16.7722V20.4282Z" fill="url(#paint4_radial_4085_41381)"/>
<path d="M20.2008 20.4282H17.915V29.5712H20.2008V20.4282Z" fill="url(#paint5_radial_4085_41381)"/>
<path d="M27.6295 20.4282H25.3438V29.5712H27.6295V20.4282Z" fill="url(#paint6_radial_4085_41381)"/>
<path d="M24.1999 20.4282H21.3428V27.2854H24.1999V20.4282Z" fill="url(#paint7_radial_4085_41381)"/>
<defs>
<radialGradient id="paint0_radial_4085_41381" cx="0" cy="0" r="1" gradientUnits="userSpaceOnUse" gradientTransform="translate(18.6225 17) rotate(90) scale(9.71437 13.5775)">
<stop stop-color="#2D90FA"/>
<stop offset="1" stop-color="#2983E4"/>
</radialGradient>
<radialGradient id="paint1_radial_4085_41381" cx="0" cy="0" r="1" gradientUnits="userSpaceOnUse" gradientTransform="translate(11.6292 24.9997) rotate(90) scale(4.57147 1.14287)">
<stop stop-color="#2D90FA"/>
<stop offset="1" stop-color="#2983E4"/>
</radialGradient>
<radialGradient id="paint2_radial_4085_41381" cx="0" cy="0" r="1" gradientUnits="userSpaceOnUse" gradientTransform="translate(19.0573 14.714) rotate(90) scale(4.57147 10.2858)">
<stop stop-color="#2D90FA"/>
<stop offset="1" stop-color="#2983E4"/>
</radialGradient>
<radialGradient id="paint3_radial_4085_41381" cx="0" cy="0" r="1" gradientUnits="userSpaceOnUse" gradientTransform="translate(13.3432 13.5712) rotate(90) scale(13.143 13.143)">
<stop stop-color="#2D90FA"/>
<stop offset="1" stop-color="#2983E4"/>
</radialGradient>
<radialGradient id="paint4_radial_4085_41381" cx="0" cy="0" r="1" gradientUnits="userSpaceOnUse" gradientTransform="translate(15.3436 23.8568) rotate(90) scale(3.4286 1.42858)">
<stop stop-color="#2D90FA"/>
<stop offset="1" stop-color="#2983E4"/>
</radialGradient>
<radialGradient id="paint5_radial_4085_41381" cx="0" cy="0" r="1" gradientUnits="userSpaceOnUse" gradientTransform="translate(19.0579 24.9997) rotate(90) scale(4.57147 1.14287)">
<stop stop-color="#2D90FA"/>
<stop offset="1" stop-color="#2983E4"/>
</radialGradient>
<radialGradient id="paint6_radial_4085_41381" cx="0" cy="0" r="1" gradientUnits="userSpaceOnUse" gradientTransform="translate(26.4866 24.9997) rotate(90) scale(4.57147 1.14287)">
<stop stop-color="#2D90FA"/>
<stop offset="1" stop-color="#2983E4"/>
</radialGradient>
<radialGradient id="paint7_radial_4085_41381" cx="0" cy="0" r="1" gradientUnits="userSpaceOnUse" gradientTransform="translate(22.7714 23.8568) rotate(90) scale(3.4286 1.42858)">
<stop stop-color="#2D90FA"/>
<stop offset="1" stop-color="#2983E4"/>
</radialGradient>
</defs>
</svg>
