<svg width="33" height="26" viewBox="0 0 33 26" fill="none" xmlns="http://www.w3.org/2000/svg">
<path d="M0.599609 0.80957V25.1905H32.5996V6.1429H16.9806L12.0282 0.80957H0.599609ZM15.2425 3.09528L17.3615 5.381H32.5996V3.09528H15.2425ZM16.5401 8.42862C16.7169 8.4127 16.8938 8.45903 17.0401 8.55959L23.5163 13.131C23.6522 13.2231 23.7548 13.3566 23.8088 13.5117C23.8627 13.6668 23.8651 13.8352 23.8156 13.9918C23.7661 14.1483 23.6673 14.2847 23.534 14.3806C23.4007 14.4765 23.24 14.5267 23.0758 14.5239H21.9329V21.381H22.3139C22.7347 21.381 23.0758 21.7221 23.0758 22.1429C23.0758 22.5637 22.7347 22.9048 22.3139 22.9048H10.8853C10.4645 22.9048 10.1234 22.5637 10.1234 22.1429C10.1234 21.7221 10.4645 21.381 10.8853 21.381H11.2663V14.5239H10.1234C9.95923 14.5267 9.79852 14.4765 9.66521 14.3806C9.53191 14.2847 9.43314 14.1483 9.38363 13.9918C9.33412 13.8352 9.33651 13.6668 9.39045 13.5117C9.44439 13.3566 9.54698 13.2231 9.68296 13.131L16.1592 8.55959C16.2721 8.48255 16.4037 8.43731 16.5401 8.42862ZM16.5996 10.1191L12.5163 13.0001H20.683L16.5996 10.1191ZM12.7901 14.5239V21.381H14.3139V14.5239H12.7901ZM15.8377 14.5239V21.381H17.3615V14.5239H15.8377ZM18.8853 14.5239V21.381H20.4091V14.5239H18.8853Z" fill="url(#paint0_radial_4085_41377)"/>
<defs>
<radialGradient id="paint0_radial_4085_41377" cx="0" cy="0" r="1" gradientUnits="userSpaceOnUse" gradientTransform="translate(16.5996 13.0001) rotate(90) scale(12.1905 16)">
<stop stop-color="#2D90FA"/>
<stop offset="1" stop-color="#2983E4"/>
</radialGradient>
</defs>
</svg>
