<svg width="33" height="28" viewBox="0 0 33 28" fill="none" xmlns="http://www.w3.org/2000/svg">
<path d="M13.7158 12.6534H14.669C14.7398 12.6534 14.7937 12.5961 14.7937 12.5287V11.5182C15.053 11.4778 15.2922 11.4138 15.501 11.3229C15.8783 11.1612 16.1612 10.9389 16.3499 10.6593C16.5385 10.3797 16.6328 10.0698 16.6328 9.73296C16.6328 9.33885 16.5284 9.02559 16.3229 8.79317C16.1174 8.56075 15.8715 8.39233 15.5819 8.28454C15.2955 8.17675 14.925 8.06896 14.4737 7.96454C14.0391 7.87022 13.7158 7.77254 13.5035 7.67149C13.2913 7.5738 13.1869 7.42222 13.1869 7.22012C13.1869 7.01801 13.2779 6.85296 13.4631 6.7317C13.645 6.60706 13.9313 6.54643 14.312 6.54643C14.5882 6.54643 14.861 6.58685 15.1372 6.66433C15.1878 6.6778 15.2383 6.69464 15.2854 6.71149C15.5078 6.78559 15.784 6.92706 15.784 6.92706C15.8749 6.97422 15.9827 6.9338 16.0231 6.83949L16.3027 6.14896C16.3431 6.05128 16.2993 5.93338 16.2084 5.88622C16.2084 5.88622 15.9355 5.74138 15.6795 5.65717C15.629 5.64033 15.629 5.64033 15.629 5.64033H15.6257C15.592 5.63022 15.5583 5.62012 15.528 5.61338C15.4943 5.60327 15.464 5.59317 15.4269 5.58643C15.2147 5.53254 15.0025 5.49885 14.7869 5.47528V4.52875C14.7869 4.46138 14.7297 4.40412 14.6623 4.40412H13.709C13.6417 4.40412 13.5844 4.46138 13.5844 4.52875V5.50896C13.3486 5.54938 13.1364 5.61001 12.9478 5.69422C12.5739 5.85927 12.2909 6.07822 12.1057 6.3578C11.9204 6.63738 11.8261 6.94728 11.8261 7.29085C11.8261 7.68496 11.9271 8.00159 12.136 8.23738C12.3414 8.47317 12.5873 8.64496 12.877 8.75275C13.1633 8.86054 13.5339 8.96496 13.9852 9.07275C14.2783 9.14012 14.5107 9.20412 14.6825 9.26138C14.8543 9.31864 14.9958 9.39275 15.1069 9.48706C15.2181 9.58138 15.272 9.69928 15.272 9.83738C15.272 10.0294 15.1777 10.1843 14.9924 10.2989C14.8071 10.4134 14.5174 10.4706 14.1301 10.4706C13.7899 10.4706 13.453 10.4167 13.1128 10.309C13.1027 10.3056 13.0926 10.3022 13.0825 10.2989C13.0421 10.2854 13.005 10.2719 12.9646 10.2551C12.6648 10.1473 12.3381 9.94854 12.3381 9.94854C12.2505 9.89464 12.1427 9.92833 12.0989 10.0226L11.789 10.7098C11.7452 10.8041 11.7823 10.9254 11.8732 10.9793C11.8732 10.9793 12.2269 11.1949 12.5739 11.3127C12.6244 11.3296 12.6244 11.3296 12.6244 11.3296C12.6581 11.3397 12.6884 11.3532 12.7221 11.3633C12.7355 11.3666 12.749 11.3734 12.7659 11.3767C13.0353 11.4542 13.3082 11.5047 13.5911 11.5351V12.5254C13.5911 12.5961 13.6484 12.6534 13.7158 12.6534ZM31.6998 13.7986H30.5915V12.5287C30.5915 12.1447 30.2783 11.8281 29.8909 11.8281H24.3061C23.9221 11.8281 23.6054 12.1414 23.6054 12.5287V13.7986H6.41976C6.03576 13.7986 5.71913 14.1119 5.71913 14.4993V19.6226V25.1469C5.71913 26.0361 4.99829 26.757 4.10902 26.757H2.94018C2.05092 26.757 1.33007 26.0361 1.33007 25.1469V9.2277C1.33007 9.0997 1.43786 8.99191 1.56586 8.99191H6.00881C6.08292 10.3191 6.47029 11.562 7.10018 12.6466C7.18102 12.7847 7.32923 12.8723 7.49092 12.8723C7.83786 12.8723 8.05344 12.4984 7.87829 12.1986C7.72334 11.9359 7.5886 11.6597 7.46734 11.3767C7.08671 10.4774 6.89471 9.51738 6.89471 8.53043C6.89471 7.54349 7.08671 6.58685 7.46734 5.68412C7.8345 4.81506 8.36334 4.03022 9.03365 3.35991C9.70397 2.68959 10.4888 2.16075 11.3579 1.79359C12.2572 1.41296 13.2172 1.22096 14.2042 1.22096C15.1911 1.22096 16.1478 1.41296 17.0505 1.79359C17.9195 2.16075 18.7044 2.68959 19.3747 3.35991C20.045 4.03022 20.5739 4.81506 20.941 5.68412C21.3217 6.58349 21.5137 7.54349 21.5137 8.53043C21.5137 9.51738 21.3217 10.474 20.941 11.3767C20.8198 11.6597 20.685 11.9359 20.5301 12.1986C20.3549 12.4984 20.5705 12.8723 20.9174 12.8723C21.0791 12.8723 21.2273 12.7847 21.3082 12.6466C21.9381 11.562 22.3288 10.3191 22.4029 8.99191H26.8459C26.9772 8.99191 27.0817 9.0997 27.0817 9.2277V10.474C27.0817 10.73 27.2905 10.9389 27.5465 10.9389C27.8025 10.9389 28.0113 10.73 28.0113 10.474V9.2277C28.0113 8.58433 27.4892 8.06559 26.8492 8.06559H22.4029C22.157 3.66306 18.4854 0.230643 14.0358 0.32159C9.73429 0.409169 6.24797 3.80117 6.00881 8.06222H1.5625C0.922496 8.06222 0.400391 8.58433 0.400391 9.22433V25.1435C0.400391 26.5414 1.53892 27.6799 2.93681 27.6799H3.64755H3.64418H30.3254C31.4707 27.6799 32.4004 26.7502 32.4004 25.605V14.4993C32.4004 14.1153 32.0838 13.7986 31.6998 13.7986Z" fill="url(#paint0_radial_4085_41396)"/>
<defs>
<radialGradient id="paint0_radial_4085_41396" cx="0" cy="0" r="1" gradientUnits="userSpaceOnUse" gradientTransform="translate(16.4004 13.9999) rotate(90) scale(13.68 16)">
<stop stop-color="#2D90FA"/>
<stop offset="1" stop-color="#2983E4"/>
</radialGradient>
</defs>
</svg>
