<svg width="33" height="30" viewBox="0 0 33 30" fill="none" xmlns="http://www.w3.org/2000/svg">
<path d="M32.1598 0.814453H1.4398C1.08637 0.814453 0.799805 1.10102 0.799805 1.45445V24.7632C0.799805 25.1166 1.08637 25.4032 1.4398 25.4032H3.60293V9.70414C3.60293 8.64539 4.46418 7.78414 5.52293 7.78414H20.8064L21.7304 5.78227C22.1695 4.80945 23.1551 4.17445 24.2367 4.17445H31.3151C31.8624 4.17445 32.37 4.33918 32.7998 4.61469V1.45445C32.7998 1.10102 32.5132 0.814453 32.1598 0.814453Z" fill="url(#paint0_radial_4085_41392)"/>
<path d="M31.3148 5.45459H24.2364C23.6604 5.45459 23.1292 5.79381 22.8924 6.31857L21.6252 9.0642H5.52281C5.17082 9.0642 4.88281 9.3458 4.88281 9.7042V28.5458C4.88281 28.8978 5.17082 29.1858 5.52281 29.1858H32.1596C32.5116 29.1858 32.7996 28.8978 32.7996 28.5458V6.93939C32.7996 6.12018 32.134 5.45459 31.3148 5.45459ZM9.11961 14.4946H17.9974C18.3509 14.4946 18.6374 14.7812 18.6374 15.1346C18.6374 15.488 18.3509 15.7746 17.9974 15.7746H9.11961C8.76617 15.7746 8.47961 15.488 8.47961 15.1346C8.47961 14.7812 8.76617 14.4946 9.11961 14.4946ZM24.2396 24.6546H9.11961C8.76617 24.6546 8.47961 24.368 8.47961 24.0146C8.47961 23.6612 8.76617 23.3746 9.11961 23.3746H24.2396C24.593 23.3746 24.8796 23.6612 24.8796 24.0146C24.8796 24.368 24.593 24.6546 24.2396 24.6546ZM24.2396 20.2146H9.11961C8.76617 20.2146 8.47961 19.928 8.47961 19.5746C8.47961 19.2212 8.76617 18.9346 9.11961 18.9346H24.2396C24.593 18.9346 24.8796 19.2212 24.8796 19.5746C24.8796 19.928 24.593 20.2146 24.2396 20.2146Z" fill="url(#paint1_radial_4085_41392)"/>
<defs>
<radialGradient id="paint0_radial_4085_41392" cx="0" cy="0" r="1" gradientUnits="userSpaceOnUse" gradientTransform="translate(16.7998 13.1088) rotate(90) scale(12.2944 16)">
<stop stop-color="#2D90FA"/>
<stop offset="1" stop-color="#2983E4"/>
</radialGradient>
<radialGradient id="paint1_radial_4085_41392" cx="0" cy="0" r="1" gradientUnits="userSpaceOnUse" gradientTransform="translate(18.8412 17.3202) rotate(90) scale(11.8656 13.9584)">
<stop stop-color="#2D90FA"/>
<stop offset="1" stop-color="#2983E4"/>
</radialGradient>
</defs>
</svg>
