<svg width="32" height="28" viewBox="0 0 32 28" fill="none" xmlns="http://www.w3.org/2000/svg">
<path d="M31.36 4.60805H12.1984L9.83043 1.11363C9.70883 0.934414 9.51043 0.832031 9.29922 0.832031H0.64C0.288008 0.832031 0 1.11363 0 1.47203V26.528C0 26.88 0.288008 27.168 0.64 27.168H31.36C31.712 27.168 32 26.88 32 26.528V5.24805C32 4.89602 31.712 4.60805 31.36 4.60805ZM12.7176 16.5857C12.9676 16.3357 13.3726 16.3357 13.6226 16.5857L15.3601 18.3232V8.4498C15.3601 8.09637 15.6467 7.8098 16.0001 7.8098C16.3536 7.8098 16.6401 8.09637 16.6401 8.4498V18.3232L18.3776 16.5857C18.6276 16.3357 19.0326 16.3357 19.2826 16.5857C19.5326 16.8357 19.5326 17.2407 19.2826 17.4907L16.4528 20.3205C16.3938 20.3796 16.323 20.4264 16.2447 20.4588C16.1664 20.4912 16.0835 20.5082 16.0001 20.5082C15.9168 20.5082 15.8338 20.4912 15.7555 20.4588C15.6772 20.4264 15.6064 20.3796 15.5474 20.3205L12.7176 17.4907C12.4676 17.2407 12.4676 16.8357 12.7176 16.5857ZM3.62855 4.57605C3.50699 4.69762 3.34699 4.76168 3.17418 4.76168C3.00793 4.76168 2.84137 4.69762 2.72637 4.57605C2.6048 4.45418 2.54074 4.29418 2.54074 4.12168C2.54074 3.95512 2.6048 3.78887 2.72637 3.66699C2.95668 3.43668 3.39199 3.43043 3.62855 3.67355C3.75043 3.78887 3.82074 3.95512 3.82074 4.12168C3.82074 4.28793 3.75043 4.45418 3.62855 4.57605ZM6.55355 4.57605C6.43199 4.69762 6.26543 4.76168 6.09918 4.76168C5.92637 4.76168 5.7598 4.69105 5.6448 4.57605C5.52324 4.46074 5.45918 4.29418 5.45918 4.12168C5.45918 3.95512 5.52324 3.78887 5.6448 3.66699C5.88137 3.43668 6.31043 3.43043 6.55355 3.67355C6.66855 3.78887 6.73918 3.95512 6.73918 4.12168C6.73918 4.29418 6.66855 4.45418 6.55355 4.57605ZM23.6001 23.2298H8.40012C8.04668 23.2298 7.76012 22.9432 7.76012 22.5898C7.76012 22.2364 8.04668 21.9498 8.40012 21.9498H23.6001C23.9536 21.9498 24.2401 22.2364 24.2401 22.5898C24.2401 22.9432 23.9536 23.2298 23.6001 23.2298Z" fill="url(#paint0_radial_4085_41398)"/>
<defs>
<radialGradient id="paint0_radial_4085_41398" cx="0" cy="0" r="1" gradientUnits="userSpaceOnUse" gradientTransform="translate(16 14) rotate(90) scale(13.168 16)">
<stop stop-color="#2D90FA"/>
<stop offset="1" stop-color="#2983E4"/>
</radialGradient>
</defs>
</svg>
