<svg width="66" height="24" viewBox="0 0 66 24" fill="none" xmlns="http://www.w3.org/2000/svg">
<rect width="24" height="24" rx="6" fill="#03346E"/>
<path fill-rule="evenodd" clip-rule="evenodd" d="M10.9654 19.3044C11.5752 19.41 12.4694 19.397 13.0611 19.2829C13.2105 19.2541 13.3639 19.1114 13.4033 18.9645L13.7599 17.6346C13.7993 17.4877 13.9382 17.3067 14.07 17.2307L15.5031 16.4042C15.6349 16.3282 15.8612 16.2984 16.0084 16.3377L17.2908 16.6811C17.4378 16.7204 17.6367 16.6576 17.7345 16.5413C17.8274 16.4303 18.0733 16.0806 18.2907 15.7046C18.5209 15.306 18.7094 14.895 18.7655 14.7361C18.8161 14.5927 18.7699 14.3889 18.6622 14.2813L17.7989 13.4188H14.9745C14.452 14.5587 13.2998 15.3514 11.9638 15.3514C10.1372 15.3514 8.65451 13.8698 8.65451 12.0451C8.65451 10.2201 10.1372 8.73848 11.9638 8.73848C13.1766 8.73848 14.2379 9.39173 14.8141 10.365H18.058L18.6481 9.7756C18.7557 9.66808 18.8014 9.46451 18.7503 9.32107C18.551 8.76341 18.1136 7.99535 17.7203 7.53006C17.6222 7.41399 17.4231 7.35167 17.2761 7.39102L15.9262 7.75244C15.7792 7.79179 15.5527 7.76197 15.4209 7.68597L13.9878 6.85926C13.8562 6.78326 13.7171 6.60218 13.6777 6.45531L13.3159 5.10662C13.2766 4.95976 13.123 4.81875 12.9733 4.79187C12.407 4.69021 11.5576 4.68948 11.006 4.78234C10.8558 4.80776 10.702 4.94754 10.6626 5.09441L10.2977 6.45531C10.2583 6.60218 10.1191 6.78326 9.98729 6.85926L8.55447 7.68597C8.42263 7.76197 8.19541 7.79423 8.04767 7.75806L6.6036 7.40372C6.45562 7.36731 6.25628 7.43256 6.15869 7.54912C6.06574 7.65983 5.81993 8.00952 5.60248 8.38561C5.38969 8.75364 5.2126 9.1329 5.16564 9.26022C5.11305 9.40293 5.15757 9.60601 5.26519 9.71353L6.27707 10.7243C6.38469 10.8318 6.47201 11.0427 6.47201 11.1947V12.8478C6.47201 13.0001 6.3864 13.2127 6.28123 13.3224L5.26617 14.3798C5.16099 14.4898 5.11819 14.6946 5.17078 14.8373C5.36719 15.3703 5.79571 16.1136 6.17287 16.5599C6.27095 16.6759 6.47005 16.7385 6.61705 16.6992L7.96696 16.3377C8.11396 16.2984 8.34045 16.3282 8.47228 16.4042L9.90535 17.2307C10.0372 17.3067 10.1786 17.487 10.2211 17.6331L10.6166 18.9928C10.6592 19.139 10.8152 19.2785 10.9654 19.3044Z" fill="white"/>
<path d="M49.876 2.98535H53.8206C54.5164 2.98535 55.1437 3.10903 55.7025 3.35638C56.2613 3.59824 56.7051 3.96928 57.0338 4.46949C57.368 4.9642 57.5351 5.58534 57.5351 6.3329C57.5351 7.07497 57.368 7.7071 57.0338 8.2293C56.7051 8.74599 56.2613 9.14176 55.7025 9.4166C55.1437 9.68595 54.5164 9.82062 53.8206 9.82062H52.3331V13.869H49.876V2.98535ZM52.3331 7.87475H53.1385C53.4727 7.87475 53.7713 7.82528 54.0342 7.72634C54.3027 7.6274 54.5164 7.47074 54.6752 7.25636C54.8341 7.03649 54.9136 6.74791 54.9136 6.39062C54.9136 6.02783 54.8341 5.742 54.6752 5.53312C54.5164 5.31874 54.3027 5.16483 54.0342 5.07139C53.7713 4.97794 53.4727 4.93122 53.1385 4.93122H52.3331V7.87475Z" fill="#3B3E44"/>
<path d="M40.084 2.98535H44.5052C45.1353 2.98535 45.6968 3.11727 46.1899 3.38112C46.683 3.64497 47.072 4.02699 47.3568 4.5272C47.6472 5.02191 47.7924 5.61282 47.7924 6.29992C47.7924 6.98702 47.6691 7.55044 47.4226 7.99018C47.1815 8.42443 46.8912 8.75149 46.5515 8.97136C46.2118 9.18574 45.8968 9.31491 45.6064 9.35889L48.2444 13.869H45.4832L43.1328 9.54853H42.5411V13.869H40.084V2.98535ZM42.5411 7.84177H43.6259C44.0642 7.84177 44.4477 7.73458 44.7764 7.52021C45.1051 7.30583 45.2695 6.92655 45.2695 6.38237C45.2695 5.83819 45.1079 5.46166 44.7846 5.25278C44.4614 5.0384 44.0806 4.93122 43.6423 4.93122H42.5411V7.84177Z" fill="#3B3E44"/>
<path d="M31.3535 2.98535H38.2812V5.14559H33.8025V7.36355H38.2401V9.45783H33.8025V11.7088H38.2812V13.869H31.3535V2.98535Z" fill="#3B3E44"/>
<path d="M62.5742 16.1379H63.3374V20.246H65.1713V20.9283H62.5742V16.1379Z" fill="#3B3E44"/>
<path d="M57.8761 18.5294C57.8761 18.8585 57.9448 19.1572 58.0823 19.4258C58.2197 19.6919 58.409 19.9036 58.6502 20.0609C58.8913 20.2157 59.1686 20.2931 59.4821 20.2931C59.8004 20.2931 60.0789 20.2157 60.3176 20.0609C60.5588 19.9036 60.7468 19.6919 60.8819 19.4258C61.0193 19.1572 61.0881 18.8585 61.0881 18.5294C61.0881 18.2004 61.0193 17.9028 60.8819 17.6367C60.7468 17.3705 60.5588 17.1601 60.3176 17.0052C60.0789 16.8504 59.8004 16.773 59.4821 16.773C59.1686 16.773 58.8913 16.8504 58.6502 17.0052C58.409 17.1601 58.2197 17.3705 58.0823 17.6367C57.9448 17.9028 57.8761 18.2004 57.8761 18.5294ZM57.084 18.5294C57.084 18.181 57.1443 17.8568 57.2648 17.5568C57.3878 17.2544 57.5566 16.9907 57.7712 16.7657C57.9882 16.5407 58.2426 16.3653 58.5344 16.2395C58.8262 16.1137 59.1421 16.0508 59.4821 16.0508C59.8269 16.0508 60.144 16.1137 60.4334 16.2395C60.7251 16.3653 60.9795 16.5407 61.1966 16.7657C61.4136 16.9907 61.5812 17.2544 61.6993 17.5568C61.8175 17.8568 61.8766 18.181 61.8766 18.5294C61.8766 18.8802 61.8175 19.2068 61.6993 19.5093C61.5836 19.8093 61.4184 20.073 61.2038 20.3004C60.9892 20.5254 60.736 20.7008 60.4442 20.8266C60.1524 20.9524 59.8317 21.0153 59.4821 21.0153C59.13 21.0153 58.8069 20.9524 58.5127 20.8266C58.2209 20.7008 57.9677 20.5254 57.7531 20.3004C57.5409 20.073 57.3758 19.8093 57.2576 19.5093C57.1419 19.2068 57.084 18.8802 57.084 18.5294Z" fill="#3B3E44"/>
<path d="M52.6056 18.5294C52.6056 18.8585 52.6743 19.1572 52.8118 19.4258C52.9492 19.6919 53.1385 19.9036 53.3797 20.0609C53.6208 20.2157 53.8981 20.2931 54.2116 20.2931C54.5299 20.2931 54.8084 20.2157 55.0471 20.0609C55.2882 19.9036 55.4763 19.6919 55.6114 19.4258C55.7488 19.1572 55.8175 18.8585 55.8175 18.5294C55.8175 18.2004 55.7488 17.9028 55.6114 17.6367C55.4763 17.3705 55.2882 17.1601 55.0471 17.0052C54.8084 16.8504 54.5299 16.773 54.2116 16.773C53.8981 16.773 53.6208 16.8504 53.3797 17.0052C53.1385 17.1601 52.9492 17.3705 52.8118 17.6367C52.6743 17.9028 52.6056 18.2004 52.6056 18.5294ZM51.8135 18.5294C51.8135 18.181 51.8738 17.8568 51.9943 17.5568C52.1173 17.2544 52.2861 16.9907 52.5007 16.7657C52.7177 16.5407 52.9721 16.3653 53.2639 16.2395C53.5557 16.1137 53.8716 16.0508 54.2116 16.0508C54.5564 16.0508 54.8735 16.1137 55.1629 16.2395C55.4546 16.3653 55.709 16.5407 55.9261 16.7657C56.1431 16.9907 56.3107 17.2544 56.4288 17.5568C56.547 17.8568 56.6061 18.181 56.6061 18.5294C56.6061 18.8802 56.547 19.2068 56.4288 19.5093C56.3131 19.8093 56.1479 20.073 55.9333 20.3004C55.7187 20.5254 55.4655 20.7008 55.1737 20.8266C54.8819 20.9524 54.5612 21.0153 54.2116 21.0153C53.8595 21.0153 53.5364 20.9524 53.2422 20.8266C52.9504 20.7008 52.6972 20.5254 52.4826 20.3004C52.2704 20.073 52.1053 19.8093 51.9871 19.5093C51.8713 19.2068 51.8135 18.8802 51.8135 18.5294Z" fill="#3B3E44"/>
<path d="M48.2271 16.1379H49.6956C49.9946 16.1379 50.2647 16.1887 50.5058 16.2904C50.7493 16.392 50.9435 16.548 51.0881 16.7585C51.2328 16.969 51.3052 17.24 51.3052 17.5714C51.3052 17.9029 51.2328 18.1799 51.0881 18.4025C50.9435 18.6226 50.7493 18.7884 50.5058 18.8996C50.2647 19.0109 49.9946 19.0666 49.6956 19.0666H48.9866V20.9283H48.2271V16.1379ZM48.9866 18.4424H49.4858C49.6715 18.4424 49.8403 18.4158 49.9922 18.3625C50.1465 18.3069 50.2683 18.2162 50.3575 18.0904C50.4491 17.9646 50.4949 17.7976 50.4949 17.5896C50.4949 17.3791 50.4491 17.2146 50.3575 17.096C50.2683 16.975 50.1465 16.8892 49.9922 16.8383C49.8403 16.7875 49.6715 16.7621 49.4858 16.7621H48.9866V18.4424Z" fill="#3B3E44"/>
<path d="M46.5202 18.867H44.4259V20.9283H43.6699V16.1379H44.4259V18.1884H46.5202V16.1379H47.2725V20.9283H46.5202V18.867Z" fill="#3B3E44"/>
<path d="M41.4514 20.2605C41.7263 20.2605 41.9662 20.223 42.1712 20.148C42.3786 20.0706 42.5293 19.9944 42.6233 19.9194L42.9488 20.5726C42.8403 20.6694 42.651 20.7673 42.381 20.8665C42.1109 20.9657 41.7878 21.0153 41.4116 21.0153C41.0595 21.0153 40.7316 20.9524 40.4278 20.8266C40.1239 20.7008 39.8575 20.5266 39.6284 20.304C39.3993 20.079 39.2209 19.8165 39.0931 19.5165C38.9653 19.2165 38.9014 18.8911 38.9014 18.5403C38.9014 18.1895 38.9653 17.8629 39.0931 17.5605C39.2209 17.258 39.3981 16.9943 39.6248 16.7693C39.8539 16.5443 40.1203 16.3689 40.4241 16.2431C40.7304 16.1149 41.0595 16.0508 41.4116 16.0508C41.7878 16.0508 42.1109 16.1004 42.381 16.1996C42.651 16.2988 42.8403 16.3968 42.9488 16.4935L42.6233 17.1468C42.5293 17.0718 42.3786 16.9968 42.1712 16.9218C41.9662 16.8443 41.7263 16.8056 41.4514 16.8056C41.191 16.8056 40.9546 16.8492 40.7424 16.9363C40.5302 17.0234 40.3482 17.1455 40.1963 17.3028C40.0444 17.4601 39.9274 17.6439 39.8454 17.8544C39.7634 18.0625 39.7224 18.2875 39.7224 18.5294C39.7224 18.7738 39.7634 19.0012 39.8454 19.2117C39.9274 19.4222 40.0444 19.606 40.1963 19.7633C40.3482 19.9206 40.5302 20.0427 40.7424 20.1298C40.9546 20.2169 41.191 20.2605 41.4514 20.2605Z" fill="#3B3E44"/>
<path d="M35.249 16.1379H38.1427V16.8202H36.005V18.1956H38.1065V18.8597H36.005V20.246H38.1427V20.9283H35.249V16.1379Z" fill="#3B3E44"/>
<path d="M32.5942 16.8202H31.3535V16.1379H34.598V16.8202H33.3574V20.9283H32.5942V16.8202Z" fill="#3B3E44"/>
</svg>
