<svg xmlns="http://www.w3.org/2000/svg" width="372" height="402" viewBox="0 0 372 402" fill="none">
<g opacity="0.11" filter="url(#filter0_d_584_9451)">
<path fill-rule="evenodd" clip-rule="evenodd" d="M164.215 382.121C179.948 384.871 203.021 384.534 218.287 381.56C222.143 380.809 226.1 377.091 227.116 373.265L236.317 338.617C237.333 334.791 240.918 330.073 244.319 328.093L281.295 306.562C284.697 304.582 290.534 303.805 294.333 304.83L327.422 313.775C331.215 314.8 336.345 313.164 338.87 310.133C341.268 307.243 347.61 298.132 353.221 288.334C359.159 277.95 364.025 267.241 365.47 263.103C366.777 259.366 365.584 254.056 362.807 251.255L340.531 228.782H267.655C254.175 258.48 224.446 279.134 189.976 279.134C142.846 279.134 104.589 240.533 104.589 192.994C104.589 145.448 142.846 106.847 189.976 106.847C221.266 106.847 248.65 123.866 263.519 149.222H347.216L362.441 133.867C365.218 131.066 366.398 125.762 365.079 122.025C359.936 107.496 348.652 87.486 338.504 75.3639C335.973 72.3398 330.836 70.7163 327.043 71.7413L292.213 81.1576C288.42 82.1826 282.576 81.4059 279.175 79.4258L242.199 57.8876C238.804 55.9075 235.213 51.1899 234.197 47.3635L224.863 12.2261C223.847 8.39978 219.883 4.72624 216.021 4.02591C201.411 1.37739 179.493 1.35829 165.262 3.77761C161.387 4.43974 157.418 8.08145 156.402 11.9078L146.986 47.3635C145.97 51.1899 142.379 55.9075 138.977 57.8876L102.008 79.4258C98.6062 81.4059 92.7434 82.2463 88.9316 81.304L51.6719 72.0724C47.8537 71.1238 42.7103 72.8237 40.1923 75.8605C37.7941 78.7446 31.4516 87.8552 25.8412 97.6535C20.3507 107.242 15.7816 117.123 14.5699 120.44C13.2131 124.158 14.3616 129.448 17.1384 132.25L43.2468 158.582C46.0236 161.383 48.2766 166.878 48.2766 170.838V213.908C48.2766 217.874 46.0677 223.413 43.354 226.272L17.1637 253.82C14.45 256.685 13.3456 262.021 14.7024 265.739C19.7701 279.624 30.8269 298.992 40.5583 310.617C43.089 313.641 48.2261 315.271 52.019 314.246L86.849 304.83C90.6419 303.805 96.4858 304.582 99.8874 306.562L136.863 328.093C140.265 330.073 143.912 334.772 145.01 338.579L155.215 374.003C156.313 377.81 160.34 381.446 164.215 382.121Z" fill="white"/>
</g>
<defs>
<filter id="filter0_d_584_9451" x="0" y="0" width="372" height="402" filterUnits="userSpaceOnUse" color-interpolation-filters="sRGB">
<feFlood flood-opacity="0" result="BackgroundImageFix"/>
<feColorMatrix in="SourceAlpha" type="matrix" values="0 0 0 0 0 0 0 0 0 0 0 0 0 0 0 0 0 0 127 0" result="hardAlpha"/>
<feOffset dx="-4" dy="8"/>
<feGaussianBlur stdDeviation="5"/>
<feComposite in2="hardAlpha" operator="out"/>
<feColorMatrix type="matrix" values="0 0 0 0 0 0 0 0 0 0 0 0 0 0 0 0 0 0 0.68 0"/>
<feBlend mode="normal" in2="BackgroundImageFix" result="effect1_dropShadow_584_9451"/>
<feBlend mode="normal" in="SourceGraphic" in2="effect1_dropShadow_584_9451" result="shape"/>
</filter>
</defs>
</svg>