<svg width="20" height="17" viewBox="0 0 20 17" fill="none" xmlns="http://www.w3.org/2000/svg">
<path d="M7.54614 2.16268H12.8475V11.6681H7.54614V2.16268Z" fill="#FF5F00"/>
<path d="M3.96149 16.4526V15.445C3.96149 15.0586 3.72582 14.8068 3.32188 14.8068C3.11994 14.8068 2.90114 14.874 2.74965 15.0923C2.63189 14.9075 2.46362 14.8068 2.21116 14.8068C2.0428 14.8068 1.8746 14.8571 1.7399 15.0419V14.8404H1.38647V16.4526H1.7399V15.5625C1.7399 15.277 1.89139 15.1426 2.12706 15.1426C2.36257 15.1426 2.48048 15.2938 2.48048 15.5625V16.4526H2.83391V15.5625C2.83391 15.277 3.00211 15.1426 3.22091 15.1426C3.45658 15.1426 3.57434 15.2938 3.57434 15.5625V16.4526H3.96149ZM9.19547 14.8404H8.62333V14.3534H8.2699V14.8404H7.95013V15.1594H8.26982V15.8984C8.26982 16.2679 8.42131 16.4862 8.82526 16.4862C8.97675 16.4862 9.14495 16.4358 9.26286 16.3686L9.16182 16.0663C9.06085 16.1335 8.94309 16.1503 8.85892 16.1503C8.69064 16.1503 8.62333 16.0496 8.62333 15.8816V15.1594H9.19547V14.8404ZM12.1912 14.8067C11.9893 14.8067 11.8547 14.9075 11.7705 15.0419V14.8404H11.4171V16.4526H11.7705V15.5457C11.7705 15.277 11.8883 15.1259 12.1071 15.1259C12.1744 15.1259 12.2585 15.1427 12.3259 15.1595L12.4268 14.8236C12.3595 14.8068 12.2585 14.8068 12.1912 14.8068V14.8067ZM7.66402 14.9747C7.49566 14.8571 7.26007 14.8068 7.00761 14.8068C6.60374 14.8068 6.3345 15.0083 6.3345 15.3274C6.3345 15.5961 6.53643 15.7472 6.88986 15.7976L7.05814 15.8145C7.24328 15.848 7.34425 15.8984 7.34425 15.9824C7.34425 16.0999 7.20963 16.1839 6.97396 16.1839C6.73837 16.1839 6.55322 16.0999 6.43539 16.016L6.26711 16.2846C6.45225 16.419 6.70471 16.4862 6.95709 16.4862C7.42835 16.4862 7.69768 16.2679 7.69768 15.9656C7.69768 15.6801 7.47887 15.5289 7.14224 15.4785L6.97396 15.4617C6.82247 15.4449 6.70471 15.4114 6.70471 15.3106C6.70471 15.193 6.82247 15.1259 7.00761 15.1259C7.20963 15.1259 7.41156 15.2098 7.51253 15.2602L7.66402 14.9747ZM17.0551 14.8068C16.8531 14.8068 16.7184 14.9075 16.6343 15.0419V14.8404H16.2808V16.4526H16.6343V15.5457C16.6343 15.277 16.7521 15.1259 16.9708 15.1259C17.0382 15.1259 17.1224 15.1427 17.1897 15.1595L17.2907 14.8236C17.2234 14.8068 17.1224 14.8068 17.0551 14.8068ZM12.5447 15.6465C12.5447 16.1335 12.8812 16.4862 13.403 16.4862C13.6386 16.4862 13.8069 16.4358 13.9751 16.3015L13.8069 16.016C13.6722 16.1167 13.5376 16.1671 13.3861 16.1671C13.1 16.1671 12.8981 15.9656 12.8981 15.6465C12.8981 15.3442 13.1 15.1426 13.3861 15.1259C13.5376 15.1259 13.6722 15.1762 13.8069 15.277L13.9751 14.9915C13.8069 14.8571 13.6386 14.8068 13.403 14.8068C12.8812 14.8068 12.5447 15.1595 12.5447 15.6465ZM15.8097 15.6465V14.8404H15.4562V15.0419C15.3384 14.8908 15.1701 14.8068 14.9513 14.8068C14.4969 14.8068 14.1435 15.1595 14.1435 15.6465C14.1435 16.1335 14.4969 16.4862 14.9513 16.4862C15.1869 16.4862 15.3553 16.4022 15.4562 16.2511V16.4526H15.8097V15.6465ZM14.5137 15.6465C14.5137 15.361 14.6989 15.1259 15.0018 15.1259C15.2879 15.1259 15.4899 15.3442 15.4899 15.6465C15.4899 15.932 15.2879 16.1671 15.0018 16.1671C14.6989 16.1502 14.5137 15.932 14.5137 15.6465ZM10.2895 14.8068C9.81822 14.8068 9.48159 15.1426 9.48159 15.6465C9.48159 16.1503 9.81815 16.4862 10.3063 16.4862C10.5419 16.4862 10.7775 16.419 10.9627 16.2679L10.7943 16.016C10.6597 16.1167 10.4914 16.1839 10.3231 16.1839C10.1043 16.1839 9.88554 16.0831 9.83501 15.7976H11.03V15.6633C11.0469 15.1426 10.7439 14.8068 10.2894 14.8068H10.2895ZM10.2895 15.109C10.5082 15.109 10.6598 15.2435 10.6934 15.4954H9.85188C9.88554 15.277 10.037 15.109 10.2895 15.109ZM19.0578 15.6465V14.2022H18.7044V15.0419C18.5865 14.8908 18.4183 14.8068 18.1994 14.8068C17.7451 14.8068 17.3916 15.1595 17.3916 15.6465C17.3916 16.1335 17.7451 16.4862 18.1994 16.4862C18.4351 16.4862 18.6034 16.4022 18.7044 16.2511V16.4526H19.0578V15.6465ZM17.7619 15.6465C17.7619 15.361 17.947 15.1259 18.25 15.1259C18.5361 15.1259 18.738 15.3442 18.738 15.6465C18.738 15.932 18.5361 16.1671 18.25 16.1671C17.947 16.1502 17.7619 15.932 17.7619 15.6465ZM5.94734 15.6465V14.8404H5.59392V15.0419C5.47608 14.8908 5.3078 14.8068 5.089 14.8068C4.63461 14.8068 4.28118 15.1595 4.28118 15.6465C4.28118 16.1335 4.63461 16.4862 5.089 16.4862C5.32467 16.4862 5.49295 16.4022 5.59392 16.2511V16.4526H5.94734V15.6465ZM4.63461 15.6465C4.63461 15.361 4.81975 15.1259 5.12266 15.1259C5.40877 15.1259 5.61078 15.3442 5.61078 15.6465C5.61078 15.932 5.40877 16.1671 5.12266 16.1671C4.81975 16.1502 4.63461 15.932 4.63461 15.6465Z" fill="white"/>
<path d="M7.88261 6.91543C7.88261 4.98414 8.79139 3.27111 10.1882 2.16267C9.16168 1.35657 7.86582 0.86956 6.45212 0.86956C3.10287 0.86956 0.393311 3.57337 0.393311 6.91543C0.393311 10.2574 3.10287 12.9613 6.45205 12.9613C7.86574 12.9613 9.16161 12.4743 10.1882 11.6681C8.79139 10.5765 7.88261 8.84672 7.88261 6.91543Z" fill="#EB001B"/>
<path d="M20 6.91543C20 10.2574 17.2904 12.9613 13.9413 12.9613C12.5276 12.9613 11.2317 12.4743 10.2051 11.6681C11.6188 10.5598 12.5108 8.84672 12.5108 6.91543C12.5108 4.98414 11.6019 3.27111 10.2051 2.16267C11.2316 1.35657 12.5276 0.869562 13.9413 0.869562C17.2904 0.869562 20.0001 3.5902 20.0001 6.91543H20Z" fill="#F79E1B"/>
</svg>
