<svg width="28" height="18" viewBox="0 0 28 18" fill="none" xmlns="http://www.w3.org/2000/svg">
<path d="M23.25 15.75C24.4875 15.75 25.5 14.7375 25.5 13.5V2.25C25.5 1.0125 24.4875 0 23.25 0H5.25C4.0125 0 3 1.0125 3 2.25V13.5C3 14.7375 4.0125 15.75 5.25 15.75H0.75V18H27.75V15.75H23.25ZM5.25 2.25H23.25V13.5H5.25V2.25Z" fill="#979797"/>
<path d="M23.25 15.75C24.4875 15.75 25.5 14.7375 25.5 13.5V2.25C25.5 1.0125 24.4875 0 23.25 0H5.25C4.0125 0 3 1.0125 3 2.25V13.5C3 14.7375 4.0125 15.75 5.25 15.75H0.75V18H27.75V15.75H23.25ZM5.25 2.25H23.25V13.5H5.25V2.25Z" stroke="#979797"/>
</svg>
