<svg width="385" height="241" viewBox="0 0 385 241" fill="none" xmlns="http://www.w3.org/2000/svg">
<path d="M297.301 103.436C301.335 99.6232 307.429 98.0327 312.352 101.123C315.644 103.193 317.928 107.429 316.004 111.213C315.582 112.042 314.699 112.99 313.675 112.86C313.37 112.806 313.087 112.667 312.857 112.46C312.628 112.253 312.461 111.985 312.375 111.687C312.274 111.225 312.29 110.744 312.423 110.29C312.556 109.835 312.8 109.422 313.134 109.087C314.479 107.53 316.572 107.062 318.536 107.305C321.034 107.615 323.189 109.798 324.41 111.885C325.382 113.584 325.959 115.481 326.098 117.434C326.261 119.482 325.755 121.529 325.294 123.509" stroke="white" stroke-linecap="round" stroke-linejoin="round"/>
<path d="M321.642 118.997L325.243 123.559L329.508 119.764" stroke="white" stroke-linecap="round" stroke-linejoin="round"/>
<path d="M300.863 15.4347C300.864 15.3095 300.828 15.1868 300.759 15.0822C300.691 14.9776 300.593 14.8958 300.478 14.8471C300.362 14.7984 300.236 14.7851 300.113 14.8088C299.99 14.8326 299.878 14.8923 299.789 14.9804C299.7 15.0685 299.64 15.181 299.615 15.3037C299.59 15.4264 299.602 15.5537 299.65 15.6695C299.697 15.7852 299.778 15.8842 299.882 15.9539C299.986 16.0235 300.108 16.0607 300.232 16.0607C300.399 16.0607 300.558 15.995 300.676 15.8777C300.794 15.7605 300.861 15.6012 300.863 15.4347Z" fill="white"/>
<path d="M306.253 15.4347C306.254 15.3095 306.218 15.1868 306.15 15.0822C306.081 14.9776 305.983 14.8958 305.868 14.8471C305.753 14.7984 305.626 14.7851 305.503 14.8088C305.381 14.8326 305.268 14.8923 305.179 14.9804C305.091 15.0685 305.03 15.181 305.005 15.3037C304.98 15.4264 304.993 15.5537 305.04 15.6695C305.088 15.7852 305.168 15.8842 305.272 15.9539C305.376 16.0235 305.498 16.0607 305.623 16.0607C305.789 16.0607 305.948 15.995 306.066 15.8777C306.184 15.7605 306.252 15.6012 306.253 15.4347Z" fill="white"/>
<path d="M311.655 15.4347C311.656 15.3095 311.62 15.1868 311.551 15.0822C311.483 14.9776 311.385 14.8958 311.27 14.8471C311.154 14.7984 311.028 14.7851 310.905 14.8088C310.782 14.8326 310.67 14.8923 310.581 14.9804C310.492 15.0685 310.432 15.181 310.407 15.3037C310.382 15.4264 310.394 15.5537 310.442 15.6695C310.489 15.7852 310.57 15.8842 310.674 15.9539C310.778 16.0235 310.9 16.0607 311.024 16.0607C311.191 16.0607 311.35 15.995 311.468 15.8777C311.586 15.7605 311.653 15.6012 311.655 15.4347Z" fill="white"/>
<path d="M300.863 21.7628C300.864 21.6376 300.828 21.515 300.759 21.4103C300.691 21.3057 300.593 21.2239 300.478 21.1752C300.362 21.1265 300.236 21.1132 300.113 21.1369C299.99 21.1607 299.878 21.2204 299.789 21.3085C299.7 21.3966 299.64 21.5092 299.615 21.6318C299.59 21.7545 299.602 21.8818 299.65 21.9976C299.697 22.1133 299.778 22.2123 299.882 22.282C299.986 22.3516 300.108 22.3888 300.232 22.3888C300.399 22.3889 300.558 22.3231 300.676 22.2058C300.794 22.0886 300.861 21.9294 300.863 21.7628Z" fill="white"/>
<path d="M306.253 21.7628C306.254 21.6376 306.218 21.515 306.15 21.4103C306.081 21.3057 305.983 21.2239 305.868 21.1752C305.753 21.1265 305.626 21.1132 305.503 21.1369C305.381 21.1607 305.268 21.2204 305.179 21.3085C305.091 21.3966 305.03 21.5092 305.005 21.6318C304.98 21.7545 304.993 21.8818 305.04 21.9976C305.088 22.1133 305.168 22.2123 305.272 22.282C305.376 22.3516 305.498 22.3888 305.623 22.3888C305.789 22.3889 305.948 22.3231 306.066 22.2058C306.184 22.0886 306.252 21.9294 306.253 21.7628Z" fill="white"/>
<path d="M311.655 21.7628C311.656 21.6376 311.62 21.515 311.551 21.4103C311.483 21.3057 311.385 21.2239 311.27 21.1752C311.154 21.1265 311.028 21.1132 310.905 21.1369C310.782 21.1607 310.67 21.2204 310.581 21.3085C310.492 21.3966 310.432 21.5092 310.407 21.6318C310.382 21.7545 310.394 21.8818 310.442 21.9976C310.489 22.1133 310.57 22.2123 310.674 22.282C310.778 22.3516 310.9 22.3888 311.024 22.3888C311.191 22.3889 311.35 22.3231 311.468 22.2058C311.586 22.0886 311.653 21.9294 311.655 21.7628Z" fill="white"/>
<path d="M300.863 28.0852C300.858 27.9613 300.818 27.8415 300.746 27.7406C300.674 27.6397 300.574 27.5623 300.459 27.5179C300.343 27.4736 300.217 27.4642 300.096 27.4911C299.976 27.5179 299.865 27.5798 299.78 27.669C299.694 27.7582 299.636 27.8707 299.613 27.9926C299.591 28.1145 299.605 28.2403 299.653 28.3544C299.701 28.4685 299.782 28.5659 299.885 28.6343C299.988 28.7028 300.109 28.7394 300.233 28.7394C300.317 28.7395 300.401 28.7224 300.479 28.6893C300.557 28.6561 300.628 28.6076 300.686 28.5465C300.745 28.4854 300.791 28.4131 300.821 28.3339C300.852 28.2546 300.866 28.17 300.863 28.0852Z" fill="white"/>
<path d="M306.253 28.0853C306.253 27.9604 306.216 27.8382 306.147 27.7343C306.078 27.6305 305.979 27.5495 305.864 27.5017C305.749 27.4539 305.622 27.4414 305.5 27.4658C305.378 27.4901 305.265 27.5503 305.177 27.6386C305.089 27.727 305.029 27.8395 305.005 27.9621C304.98 28.0846 304.993 28.2116 305.041 28.327C305.088 28.4425 305.169 28.5411 305.273 28.6105C305.376 28.6799 305.498 28.717 305.623 28.717C305.79 28.717 305.95 28.6504 306.068 28.532C306.187 28.4135 306.253 28.2528 306.253 28.0853Z" fill="white"/>
<path d="M311.655 28.0853C311.655 27.9604 311.618 27.8382 311.548 27.7343C311.479 27.6305 311.381 27.5495 311.266 27.5017C311.15 27.4539 311.024 27.4414 310.902 27.4658C310.779 27.4901 310.667 27.5503 310.579 27.6386C310.491 27.727 310.431 27.8395 310.406 27.9621C310.382 28.0846 310.395 28.2116 310.442 28.327C310.49 28.4425 310.571 28.5411 310.674 28.6105C310.778 28.6799 310.9 28.717 311.024 28.717C311.192 28.717 311.352 28.6504 311.47 28.532C311.588 28.4135 311.655 28.2528 311.655 28.0853Z" fill="white"/>
<path d="M76.2968 155.792C76.2968 155.667 76.2598 155.545 76.1905 155.441C76.1213 155.337 76.0229 155.256 75.9077 155.208C75.7926 155.16 75.6659 155.148 75.5436 155.172C75.4214 155.197 75.3091 155.257 75.221 155.345C75.1328 155.434 75.0728 155.546 75.0485 155.669C75.0242 155.791 75.0367 155.918 75.0843 156.034C75.132 156.149 75.2128 156.248 75.3165 156.317C75.4201 156.386 75.5419 156.424 75.6666 156.424C75.8337 156.424 75.994 156.357 76.1122 156.239C76.2304 156.12 76.2968 155.959 76.2968 155.792Z" fill="white"/>
<path d="M81.6871 155.792C81.6871 155.667 81.65 155.544 81.5805 155.44C81.511 155.336 81.4123 155.255 81.2968 155.208C81.1813 155.16 81.0543 155.148 80.9319 155.173C80.8095 155.198 80.6972 155.258 80.6093 155.347C80.5214 155.436 80.4619 155.549 80.4382 155.672C80.4145 155.795 80.4278 155.922 80.4764 156.037C80.5249 156.153 80.6066 156.251 80.7109 156.32C80.8153 156.389 80.9377 156.425 81.0626 156.424C81.2287 156.422 81.3876 156.355 81.5045 156.236C81.6215 156.118 81.6871 155.958 81.6871 155.792Z" fill="white"/>
<path d="M87.0831 155.792C87.0831 155.667 87.0462 155.545 86.9769 155.441C86.9077 155.337 86.8093 155.256 86.6941 155.208C86.579 155.16 86.4522 155.148 86.33 155.172C86.2078 155.197 86.0955 155.257 86.0073 155.345C85.9192 155.434 85.8592 155.546 85.8349 155.669C85.8105 155.791 85.823 155.918 85.8707 156.034C85.9184 156.149 85.9992 156.248 86.1028 156.317C86.2065 156.386 86.3283 156.424 86.4529 156.424C86.6201 156.424 86.7804 156.357 86.8986 156.239C87.0167 156.12 87.0831 155.959 87.0831 155.792Z" fill="white"/>
<path d="M76.2968 162.12C76.2968 161.995 76.2598 161.873 76.1905 161.769C76.1213 161.665 76.0229 161.584 75.9077 161.536C75.7926 161.489 75.6659 161.476 75.5436 161.5C75.4214 161.525 75.3091 161.585 75.221 161.673C75.1328 161.762 75.0728 161.874 75.0485 161.997C75.0242 162.119 75.0367 162.246 75.0843 162.362C75.132 162.477 75.2128 162.576 75.3165 162.645C75.4201 162.715 75.5419 162.752 75.6666 162.752C75.8337 162.752 75.994 162.685 76.1122 162.567C76.2304 162.448 76.2968 162.287 76.2968 162.12Z" fill="white"/>
<path d="M81.0626 162.752C81.4106 162.752 81.6927 162.469 81.6927 162.12C81.6927 161.771 81.4106 161.488 81.0626 161.488C80.7145 161.488 80.4324 161.771 80.4324 162.12C80.4324 162.469 80.7145 162.752 81.0626 162.752Z" fill="white"/>
<path d="M86.4529 162.752C86.801 162.752 87.0831 162.469 87.0831 162.12C87.0831 161.771 86.801 161.488 86.4529 161.488C86.1049 161.488 85.8228 161.771 85.8228 162.12C85.8228 162.469 86.1049 162.752 86.4529 162.752Z" fill="white"/>
<path d="M76.2968 168.448C76.2968 168.323 76.2598 168.201 76.1905 168.097C76.1213 167.993 76.0229 167.912 75.9077 167.864C75.7926 167.817 75.6659 167.804 75.5436 167.829C75.4214 167.853 75.3091 167.913 75.221 168.001C75.1328 168.09 75.0728 168.202 75.0485 168.325C75.0242 168.447 75.0367 168.574 75.0843 168.69C75.132 168.805 75.2128 168.904 75.3165 168.973C75.4201 169.043 75.5419 169.08 75.6666 169.08C75.8337 169.08 75.994 169.013 76.1122 168.895C76.2304 168.776 76.2968 168.616 76.2968 168.448Z" fill="white"/>
<path d="M81.6871 168.448C81.6871 168.323 81.65 168.201 81.5805 168.097C81.511 167.993 81.4123 167.912 81.2968 167.864C81.1813 167.816 81.0543 167.804 80.9319 167.829C80.8095 167.854 80.6972 167.915 80.6093 168.003C80.5214 168.092 80.4619 168.205 80.4382 168.328C80.4145 168.451 80.4278 168.578 80.4764 168.694C80.5249 168.809 80.6066 168.907 80.7109 168.976C80.8153 169.045 80.9377 169.081 81.0626 169.08C81.2287 169.078 81.3876 169.011 81.5045 168.893C81.6215 168.774 81.6871 168.615 81.6871 168.448Z" fill="white"/>
<path d="M87.0831 168.448C87.0831 168.323 87.0462 168.201 86.9769 168.097C86.9077 167.993 86.8093 167.912 86.6941 167.864C86.579 167.817 86.4522 167.804 86.33 167.829C86.2078 167.853 86.0955 167.913 86.0073 168.001C85.9192 168.09 85.8592 168.202 85.8349 168.325C85.8105 168.447 85.823 168.574 85.8707 168.69C85.9184 168.805 85.9992 168.904 86.1028 168.973C86.2065 169.043 86.3283 169.08 86.4529 169.08C86.6201 169.08 86.7804 169.013 86.8986 168.895C87.0167 168.776 87.0831 168.616 87.0831 168.448Z" fill="white"/>
<path d="M342.776 14.3293C336.727 14.1037 330.093 15.8803 324.663 18.5311C319.234 21.1819 314.969 25.5191 313.376 31.4129C310.383 42.5124 317.174 54.6441 327.364 59.2632C339.799 64.9032 355.025 58.8966 360.365 46.2912C365.862 33.3192 358.874 15.4348 343.592 14.3575L342.776 14.3293Z" fill="#EBE3FB"/>
<path d="M125.975 126.712C121.046 124.507 114.963 123.768 109.59 124.151C104.216 124.535 99.2481 126.701 95.9733 131.049C89.8121 139.238 91.4101 151.545 98.3084 158.764C106.748 167.574 121.327 167.675 129.919 159.04C138.781 150.135 138.922 133 126.633 127.022L125.975 126.712Z" fill="#EBE3FB"/>
<path d="M218.01 19.1178L205.823 39.0608C205.152 40.159 204.747 41.399 204.64 42.682C204.532 43.9649 204.725 45.2553 205.203 46.4502C205.682 47.6451 206.432 48.7115 207.394 49.5642C208.356 50.4169 209.504 51.0325 210.746 51.3616L249.362 61.5926C250.507 61.8957 251.703 61.9481 252.87 61.746C254.037 61.5439 255.147 61.0922 256.124 60.4216C257.101 59.751 257.923 58.8773 258.532 57.8599C259.142 56.8425 259.527 55.7053 259.659 54.5257L262.883 25.6771C263.008 24.5523 262.901 23.4137 262.57 22.3319C262.238 21.25 261.688 20.248 260.954 19.3877C260.221 18.5275 259.319 17.8274 258.304 17.3308C257.289 16.8342 256.184 16.5517 255.056 16.5008L225.403 15.2036C223.935 15.1377 222.476 15.4656 221.176 16.1537C219.876 16.8418 218.784 17.865 218.01 19.1178Z" fill="#EBE3FB"/>
<path d="M211.19 126.526L204.697 147.772C204.145 149.585 204.065 151.51 204.465 153.363C204.865 155.216 205.733 156.936 206.984 158.357C208.235 159.779 209.829 160.856 211.614 161.485C213.398 162.114 215.313 162.274 217.177 161.951L254.437 155.459C256.061 155.177 257.601 154.536 258.946 153.581C260.291 152.626 261.406 151.382 262.21 149.94C263.014 148.498 263.487 146.894 263.593 145.246C263.7 143.597 263.438 141.946 262.826 140.412L262.033 138.421C261.493 137.059 260.689 135.817 259.667 134.769C258.645 133.72 257.426 132.886 256.08 132.313L226.129 119.544C224.699 118.931 223.156 118.628 221.601 118.653C220.046 118.679 218.514 119.032 217.104 119.691C215.695 120.35 214.44 121.299 213.421 122.477C212.402 123.654 211.642 125.034 211.19 126.526Z" fill="#EBE3FB"/>
<path d="M194.744 151.658L213.959 158.736L223.963 143.164L194.744 151.658Z" fill="#D1C0FC"/>
<path d="M201.366 160.603L199.971 153.581L203.938 155.047L201.366 160.603Z" fill="#D1C0FC"/>
<path d="M207.73 156.44L201.366 160.603L203.938 155.047L207.73 156.44Z" fill="#4F41C9"/>
<path d="M199.971 153.581L223.963 143.164L203.938 155.047" stroke="white" stroke-linecap="round" stroke-linejoin="round"/>
<path d="M201.068 153.987L208.732 156.813" stroke="white" stroke-linecap="round" stroke-linejoin="round"/>
<path d="M226.54 138.827H214.6V130.903C214.6 129.861 214.804 128.83 215.2 127.868C215.597 126.906 216.18 126.032 216.914 125.296C217.648 124.559 218.52 123.975 219.479 123.576C220.439 123.178 221.467 122.973 222.506 122.973H226.54C227.579 122.972 228.608 123.177 229.568 123.575C230.529 123.973 231.401 124.557 232.136 125.294C232.871 126.03 233.453 126.905 233.851 127.867C234.248 128.829 234.452 129.861 234.451 130.903C234.451 131.944 234.247 132.974 233.849 133.936C233.451 134.898 232.868 135.772 232.134 136.508C231.399 137.244 230.527 137.827 229.567 138.225C228.607 138.623 227.579 138.827 226.54 138.827Z" fill="#527FFA"/>
<path d="M220.953 131.269C220.953 131.18 220.926 131.093 220.877 131.018C220.827 130.944 220.757 130.886 220.675 130.852C220.593 130.818 220.502 130.809 220.415 130.827C220.327 130.844 220.247 130.887 220.184 130.95C220.121 131.013 220.079 131.094 220.061 131.181C220.044 131.269 220.053 131.359 220.087 131.442C220.121 131.524 220.179 131.595 220.253 131.644C220.327 131.694 220.414 131.72 220.503 131.72C220.562 131.72 220.62 131.709 220.675 131.686C220.73 131.663 220.779 131.63 220.821 131.588C220.863 131.546 220.896 131.496 220.918 131.442C220.941 131.387 220.953 131.328 220.953 131.269Z" fill="white"/>
<path d="M224.807 131.269C224.807 131.18 224.781 131.093 224.731 131.018C224.682 130.944 224.611 130.886 224.529 130.852C224.447 130.818 224.356 130.809 224.269 130.827C224.182 130.844 224.102 130.887 224.039 130.95C223.976 131.013 223.933 131.094 223.915 131.181C223.898 131.269 223.907 131.359 223.941 131.442C223.975 131.524 224.033 131.595 224.107 131.644C224.181 131.694 224.268 131.72 224.357 131.72C224.416 131.72 224.475 131.709 224.529 131.686C224.584 131.663 224.633 131.63 224.675 131.588C224.717 131.546 224.75 131.496 224.773 131.442C224.795 131.387 224.807 131.328 224.807 131.269Z" fill="white"/>
<path d="M228.661 131.269C228.661 131.18 228.635 131.093 228.585 131.018C228.536 130.944 228.466 130.886 228.383 130.852C228.301 130.818 228.211 130.809 228.123 130.827C228.036 130.844 227.956 130.887 227.893 130.95C227.83 131.013 227.787 131.094 227.77 131.181C227.752 131.269 227.761 131.359 227.795 131.442C227.829 131.524 227.887 131.595 227.961 131.644C228.035 131.694 228.122 131.72 228.211 131.72C228.27 131.72 228.329 131.709 228.383 131.686C228.438 131.663 228.488 131.63 228.529 131.588C228.571 131.546 228.604 131.496 228.627 131.442C228.65 131.387 228.661 131.328 228.661 131.269Z" fill="white"/>
<path d="M366.374 22.8176H335.669V40.6344H366.374V22.8176Z" fill="#527FFA"/>
<path d="M341.499 27.6736H360.539" stroke="white" stroke-linecap="round" stroke-linejoin="round"/>
<path d="M341.499 29.6982H360.539" stroke="white" stroke-linecap="round" stroke-linejoin="round"/>
<path d="M341.499 31.7231H360.539" stroke="white" stroke-linecap="round" stroke-linejoin="round"/>
<path d="M341.499 33.7534H360.539" stroke="white" stroke-linecap="round" stroke-linejoin="round"/>
<path d="M341.499 35.7783H349.37" stroke="white" stroke-linecap="round" stroke-linejoin="round"/>
<path d="M256.361 33.1445V28.5479H252.743C252.552 27.8549 252.276 27.1881 251.922 26.5626L254.482 24.0021L251.235 20.7478L248.681 23.314C248.057 22.9592 247.392 22.6826 246.7 22.4905V18.864H242.115V22.4905C241.423 22.6826 240.758 22.9592 240.134 23.314L237.574 20.7478L234.333 24.0021L236.893 26.5626C236.537 27.187 236.261 27.8541 236.072 28.5479H232.454V33.1445H236.072C236.261 33.8383 236.537 34.5054 236.893 35.1298L234.333 37.6903L237.574 40.9446L240.134 38.3784C240.757 38.7355 241.422 39.0122 242.115 39.2019V42.8397H246.7V39.2131C247.393 39.0235 248.058 38.7468 248.681 38.3897L251.235 40.9559L254.482 37.7016L251.922 35.1411C252.276 34.5155 252.552 33.8488 252.743 33.1558L256.361 33.1445ZM244.405 34.6673C243.65 34.6673 242.912 34.4429 242.285 34.0225C241.657 33.602 241.168 33.0045 240.88 32.3054C240.591 31.6064 240.516 30.8372 240.664 30.0953C240.811 29.3534 241.175 28.672 241.709 28.1375C242.243 27.6029 242.923 27.2392 243.664 27.0922C244.404 26.9453 245.171 27.0219 245.868 27.3122C246.565 27.6024 247.161 28.0934 247.579 28.723C247.998 29.3526 248.221 30.0925 248.22 30.849C248.22 31.3509 248.121 31.8479 247.929 32.3115C247.737 32.7751 247.456 33.1963 247.102 33.5509C246.748 33.9056 246.327 34.1867 245.864 34.3783C245.401 34.5698 244.905 34.668 244.405 34.6673Z" fill="#4F41C9"/>
<path d="M244.405 37.8538C248.264 37.8538 251.393 34.7176 251.393 30.8489C251.393 26.9802 248.264 23.844 244.405 23.844C240.545 23.844 237.417 26.9802 237.417 30.8489C237.417 34.7176 240.545 37.8538 244.405 37.8538Z" stroke="white" stroke-linecap="round" stroke-linejoin="round"/>
<path d="M240.151 46.7876L251.787 46.3984V47.8084C251.784 51.788 253.347 55.6081 256.136 58.4398L256.283 58.5978L243.904 59.8498C241.197 56.9509 240.162 52.484 240.162 49.2805L240.151 46.7876Z" fill="#D1C0FC"/>
<path d="M249.666 51.1135L242.976 51.5422" stroke="white" stroke-linecap="round" stroke-linejoin="round"/>
<path d="M250.583 53.6062L243.893 54.0348" stroke="white" stroke-linecap="round" stroke-linejoin="round"/>
<path d="M98.0888 130.316L97.8469 134.698C97.5532 140.075 98.8427 145.419 101.555 150.067L102.163 151.105L119.706 150.479L118.508 148.505C115.933 144.252 114.557 139.379 114.524 134.405V130.333L98.0888 130.316Z" fill="white"/>
<path d="M102.951 133.504L100.673 133.556L100.725 135.84L103.004 135.787L102.951 133.504Z" stroke="white" stroke-linecap="round" stroke-linejoin="round"/>
<path d="M101.262 134.54L101.729 134.992L103.507 132.91" stroke="white" stroke-linecap="round" stroke-linejoin="round"/>
<path d="M105.201 133.525L111.441 133.378" stroke="white" stroke-linecap="round" stroke-linejoin="round"/>
<path d="M105.224 134.597L111.464 134.45" stroke="white" stroke-linecap="round" stroke-linejoin="round"/>
<path d="M105.252 135.668L107.727 135.612" stroke="white" stroke-linecap="round" stroke-linejoin="round"/>
<path d="M103.502 140.789L101.223 140.846L101.032 138.562L103.311 138.505L103.502 140.789Z" stroke="white" stroke-linecap="round" stroke-linejoin="round"/>
<path d="M101.679 139.543L102.174 139.989L103.817 137.919" stroke="white" stroke-linecap="round" stroke-linejoin="round"/>
<path d="M105.55 138.528L111.779 138.381" stroke="white" stroke-linecap="round" stroke-linejoin="round"/>
<path d="M105.646 139.594L111.88 139.453" stroke="white" stroke-linecap="round" stroke-linejoin="round"/>
<path d="M105.741 140.665L108.217 140.609" stroke="white" stroke-linecap="round" stroke-linejoin="round"/>
<path d="M104.835 145.95L102.551 146.007L102.14 143.728L104.43 143.677L104.835 145.95Z" stroke="white" stroke-linecap="round" stroke-linejoin="round"/>
<path d="M102.883 144.709L103.423 145.155L104.892 143.085" stroke="white" stroke-linecap="round" stroke-linejoin="round"/>
<path d="M106.687 143.694L112.949 143.547" stroke="white" stroke-linecap="round" stroke-linejoin="round"/>
<path d="M106.878 144.766L113.123 144.619" stroke="white" stroke-linecap="round" stroke-linejoin="round"/>
<path d="M107.063 145.826L109.545 145.77" stroke="white" stroke-linecap="round" stroke-linejoin="round"/>
<path d="M322.137 31.7231H343.012L347.446 48.598H326.565L322.137 31.7231Z" fill="white"/>
<path d="M317.129 48.598L322.137 31.7231L326.565 48.598H317.129Z" fill="#4F41C9"/>
<path d="M317.788 48.1469L321.738 45.2253L325.84 48.1469" stroke="white" stroke-linecap="round" stroke-linejoin="round"/>
<path d="M323.898 31.5595V31.176C323.897 31.0543 323.921 30.9337 323.967 30.8211C324.013 30.7085 324.081 30.6063 324.167 30.5202C324.253 30.4342 324.355 30.3661 324.467 30.3199C324.579 30.2737 324.7 30.2502 324.821 30.251C325.046 30.2507 325.264 30.3331 325.433 30.4828C325.602 30.6324 325.711 30.8388 325.738 31.0632L326.014 33.3192" stroke="white" stroke-linecap="round" stroke-linejoin="round"/>
<path d="M326.605 31.5595V31.176C326.605 31.054 326.629 30.9333 326.676 30.8207C326.722 30.7081 326.791 30.6059 326.877 30.5199C326.963 30.4339 327.066 30.3659 327.178 30.3198C327.291 30.2736 327.411 30.2503 327.533 30.251C327.759 30.2507 327.976 30.3331 328.145 30.4828C328.314 30.6324 328.423 30.8388 328.45 31.0632L328.72 33.3192" stroke="white" stroke-linecap="round" stroke-linejoin="round"/>
<path d="M329.317 31.5595V31.176C329.316 31.0543 329.34 30.9337 329.386 30.8211C329.432 30.7085 329.5 30.6063 329.586 30.5202C329.671 30.4342 329.773 30.3661 329.886 30.3199C329.998 30.2737 330.118 30.2502 330.24 30.251C330.465 30.2507 330.683 30.3331 330.852 30.4828C331.021 30.6324 331.129 30.8388 331.157 31.0632L331.433 33.3192" stroke="white" stroke-linecap="round" stroke-linejoin="round"/>
<path d="M332.023 31.5595V31.176C332.023 31.054 332.047 30.9333 332.094 30.8207C332.141 30.7081 332.209 30.6059 332.295 30.5199C332.382 30.4339 332.484 30.3659 332.597 30.3198C332.709 30.2736 332.83 30.2503 332.952 30.251C333.177 30.2507 333.395 30.3331 333.564 30.4828C333.733 30.6324 333.841 30.8388 333.869 31.0632L334.144 33.3192" stroke="white" stroke-linecap="round" stroke-linejoin="round"/>
<path d="M334.724 31.5595V31.176C334.724 30.9307 334.821 30.6954 334.994 30.5219C335.167 30.3484 335.402 30.251 335.647 30.251C335.873 30.2493 336.092 30.3311 336.263 30.4809C336.433 30.6306 336.542 30.8379 336.57 31.0632L336.84 33.3192" stroke="white" stroke-linecap="round" stroke-linejoin="round"/>
<path d="M337.447 31.5595V31.176C337.447 31.0543 337.47 30.9337 337.516 30.8211C337.562 30.7085 337.63 30.6063 337.716 30.5202C337.802 30.4342 337.904 30.3661 338.016 30.3199C338.128 30.2737 338.249 30.2502 338.37 30.251C338.595 30.2507 338.813 30.3331 338.982 30.4828C339.151 30.6324 339.26 30.8388 339.287 31.0632L339.563 33.3192" stroke="white" stroke-linecap="round" stroke-linejoin="round"/>
<path d="M340.154 31.5595V31.176C340.154 31.054 340.178 30.9333 340.225 30.8207C340.271 30.7081 340.34 30.6059 340.426 30.5199C340.512 30.4339 340.615 30.3659 340.727 30.3198C340.84 30.2736 340.961 30.2503 341.082 30.251C341.308 30.2507 341.525 30.3331 341.694 30.4828C341.863 30.6324 341.972 30.8388 341.999 31.0632L342.269 33.3192" stroke="white" stroke-linecap="round" stroke-linejoin="round"/>
<path d="M325.063 38.5249H344.756" stroke="white" stroke-linecap="round" stroke-linejoin="round"/>
<path d="M325.907 41.7793H345.6" stroke="white" stroke-linecap="round" stroke-linejoin="round"/>
<path d="M326.869 45.0334H346.562" stroke="white" stroke-linecap="round" stroke-linejoin="round"/>
<path d="M328.242 48.5979L325.84 38.5249" stroke="white" stroke-linecap="round" stroke-linejoin="round"/>
<path d="M332.091 48.5979L329.508 38.5249" stroke="white" stroke-linecap="round" stroke-linejoin="round"/>
<path d="M336.046 48.5979L333.458 38.5249" stroke="white" stroke-linecap="round" stroke-linejoin="round"/>
<path d="M339.996 48.5979L337.408 38.5249" stroke="white" stroke-linecap="round" stroke-linejoin="round"/>
<path d="M343.946 48.5979L341.358 38.5249" stroke="white" stroke-linecap="round" stroke-linejoin="round"/>
<path d="M231.891 38.0185L219.661 34.4058C217.276 33.7014 214.774 35.0681 214.071 37.4584L210.467 49.7174C209.764 52.1076 211.127 54.6164 213.512 55.3208L225.742 58.9334C228.127 59.6378 230.629 58.2712 231.332 55.8809L234.936 43.6219C235.639 41.2316 234.276 38.7229 231.891 38.0185Z" stroke="white" stroke-linecap="round" stroke-linejoin="round"/>
<path d="M227.879 52.1568L227.671 51.841C227.203 51.1147 226.897 50.2959 226.774 49.4404C226.651 48.5848 226.713 47.7127 226.956 46.8834L227.322 45.637C227.476 45.1134 227.525 44.5645 227.466 44.0219C227.408 43.4793 227.243 42.9535 226.982 42.4747C226.721 41.9959 226.368 41.5735 225.943 41.2315C225.519 40.8896 225.032 40.6349 224.509 40.4821C223.986 40.3282 223.439 40.2791 222.898 40.3376C222.356 40.3962 221.832 40.5611 221.354 40.823C220.876 41.0849 220.455 41.4387 220.114 41.8641C219.773 42.2895 219.519 42.7781 219.366 43.3021L219 44.5485C218.756 45.3774 218.336 46.1436 217.768 46.7948C217.201 47.4459 216.501 47.9668 215.714 48.3216L215.371 48.4796L215.214 49.0436L227.705 52.7321L227.879 52.1568Z" fill="#527FFA"/>
<path d="M223.209 51.3673C223.198 51.4437 223.181 51.5192 223.158 51.5929C223.1 51.8336 222.993 52.0598 222.844 52.2579C222.696 52.456 222.509 52.6219 222.295 52.7456C222.081 52.8692 221.844 52.9481 221.598 52.9774C221.353 53.0066 221.104 52.9857 220.867 52.9159C220.63 52.8461 220.409 52.7288 220.218 52.5711C220.028 52.4134 219.871 52.2186 219.757 51.9985C219.644 51.7784 219.576 51.5375 219.558 51.2904C219.54 51.0433 219.573 50.7951 219.653 50.5608C219.653 50.4818 219.704 50.4141 219.732 50.3408" fill="#527FFA"/>
<path d="M218.308 48.7842L227.649 51.5421" stroke="white" stroke-linecap="round" stroke-linejoin="round"/>
<path d="M218.832 50.0757L224.244 51.6718" stroke="white" stroke-linecap="round" stroke-linejoin="round"/>
<path d="M354.209 61.4516C355.813 61.7438 357.467 61.5525 358.962 60.9022C360.457 60.2519 361.726 59.1716 362.608 57.7981C363.49 56.4247 363.946 54.8197 363.919 53.1863C363.891 51.553 363.38 49.9646 362.451 48.6222C361.522 47.2798 360.217 46.2438 358.701 45.6452C357.184 45.0465 355.525 44.9122 353.932 45.2592C352.34 45.6063 350.886 46.419 349.754 47.5946C348.623 48.7702 347.864 50.2559 347.575 51.8636C347.188 54.0167 347.67 56.2356 348.913 58.0333C350.157 59.831 352.062 61.0604 354.209 61.4516ZM356.871 46.7876C358.159 47.022 359.348 47.6341 360.289 48.5463C361.23 49.4585 361.88 50.6299 362.156 51.9123C362.433 53.1948 362.323 54.5306 361.842 55.7509C361.361 56.9711 360.53 58.021 359.454 58.7676C358.378 59.5142 357.104 59.9241 355.796 59.9453C354.487 59.9666 353.201 59.5983 352.101 58.887C351.001 58.1757 350.137 57.1534 349.616 55.9494C349.096 54.7454 348.944 53.4138 349.179 52.1231C349.503 50.4008 350.494 48.877 351.935 47.8847C353.376 46.8923 355.151 46.5121 356.871 46.8271V46.7876Z" fill="#527FFA"/>
<path d="M348.172 51.9763C347.9 53.4656 348.075 55.0021 348.675 56.3916C349.275 57.7811 350.272 58.9611 351.541 59.7823C352.81 60.6036 354.293 61.0292 355.803 61.0053C357.313 60.9814 358.783 60.5091 360.025 59.6481C361.267 58.7871 362.227 57.5762 362.783 56.1684C363.338 54.7606 363.465 53.2193 363.147 51.7394C362.828 50.2595 362.079 48.9074 360.994 47.8543C359.909 46.8012 358.537 46.0943 357.051 45.8231C355.059 45.4596 353.005 45.9035 351.341 47.0574C349.676 48.2112 348.536 49.9805 348.172 51.9763Z" stroke="white" stroke-linecap="round" stroke-linejoin="round"/>
<path d="M354.834 53.1947C354.8 53.3826 354.839 53.5764 354.944 53.736C355.049 53.8956 355.211 54.0087 355.396 54.052C355.54 54.0843 355.689 54.0729 355.826 54.0194C355.963 53.9658 356.081 53.8725 356.164 53.7514C356.248 53.6303 356.293 53.4869 356.295 53.3397C356.297 53.1924 356.255 53.0481 356.174 52.925C356.093 52.802 355.977 52.706 355.842 52.6493C355.706 52.5926 355.557 52.5778 355.413 52.6067C355.269 52.6357 355.137 52.7072 355.034 52.8119C354.93 52.9167 354.861 53.05 354.834 53.1947Z" stroke="white" stroke-linecap="round" stroke-linejoin="round"/>
<path d="M359.774 54.097L356.347 53.4709" stroke="white" stroke-linecap="round" stroke-linejoin="round"/>
<path d="M356.404 48.677L355.689 52.6024" stroke="white" stroke-linecap="round" stroke-linejoin="round"/>
<path d="M256.919 139.035L236.061 136.708C235.199 136.612 234.423 137.234 234.327 138.098L232.669 153.031C232.573 153.894 233.194 154.672 234.056 154.769L254.914 157.095C255.776 157.191 256.552 156.569 256.648 155.705L258.306 140.773C258.402 139.909 257.781 139.131 256.919 139.035Z" stroke="white" stroke-linecap="round" stroke-linejoin="round"/>
<path d="M238.508 140.79C238.485 140.997 238.402 141.193 238.268 141.353C238.134 141.513 237.956 141.63 237.756 141.688C237.556 141.747 237.344 141.744 237.145 141.682C236.946 141.619 236.771 141.498 236.641 141.335C236.51 141.172 236.431 140.974 236.414 140.766C236.396 140.558 236.44 140.35 236.54 140.167C236.641 139.984 236.793 139.835 236.978 139.739C237.163 139.643 237.373 139.604 237.579 139.628C237.856 139.659 238.109 139.799 238.283 140.016C238.457 140.234 238.538 140.512 238.508 140.79Z" stroke="white" stroke-linecap="round" stroke-linejoin="round"/>
<path d="M239.448 140.254L244.5 140.818" stroke="white" stroke-linecap="round" stroke-linejoin="round"/>
<path d="M239.375 140.885L244.433 141.449" stroke="white" stroke-linecap="round" stroke-linejoin="round"/>
<path d="M239.307 141.523L241.4 141.76" stroke="white" stroke-linecap="round" stroke-linejoin="round"/>
<path d="M235.807 143.153L255.292 145.33" stroke="white" stroke-linecap="round" stroke-linejoin="round"/>
<path d="M248.208 144.963L247.145 154.545" stroke="white" stroke-linecap="round" stroke-linejoin="round"/>
<path d="M249.643 146.728L253.188 147.129" stroke="white" stroke-linecap="round" stroke-linejoin="round"/>
<path d="M249.542 147.625L253.092 148.02" stroke="white" stroke-linecap="round" stroke-linejoin="round"/>
<path d="M249.446 148.522L252.991 148.917" stroke="white" stroke-linecap="round" stroke-linejoin="round"/>
<path d="M240.534 146.119L245.857 146.711" stroke="white" stroke-linecap="round" stroke-linejoin="round"/>
<path d="M240.432 147.016L245.755 147.608" stroke="white" stroke-linecap="round" stroke-linejoin="round"/>
<path d="M240.337 147.907L245.654 148.505" stroke="white" stroke-linecap="round" stroke-linejoin="round"/>
<path d="M240.168 149.39L245.491 149.983" stroke="white" stroke-linecap="round" stroke-linejoin="round"/>
<path d="M240.072 150.287L245.395 150.879" stroke="white" stroke-linecap="round" stroke-linejoin="round"/>
<path d="M239.971 151.178L245.294 151.776" stroke="white" stroke-linecap="round" stroke-linejoin="round"/>
<path d="M249.345 149.413L252.89 149.808" stroke="white" stroke-linecap="round" stroke-linejoin="round"/>
<path d="M249.244 150.31L252.794 150.705" stroke="white" stroke-linecap="round" stroke-linejoin="round"/>
<path d="M249.148 151.201L252.693 151.596" stroke="white" stroke-linecap="round" stroke-linejoin="round"/>
<path d="M239.353 145.603L235.958 145.225L235.199 152.063L238.594 152.442L239.353 145.603Z" stroke="white" stroke-linecap="round" stroke-linejoin="round"/>
<path d="M139.814 145.534L117.937 140.479L114.948 153.477L136.825 158.532L139.814 145.534Z" fill="#527FFA"/>
<path d="M138.764 146.052L128.709 150C128.249 150.189 127.743 150.237 127.256 150.136C126.769 150.036 126.323 149.792 125.975 149.436L118.57 141.432" stroke="white" stroke-miterlimit="10" stroke-linecap="round"/>
<path d="M115.931 152.848L125.603 149.03" stroke="white" stroke-miterlimit="10" stroke-linecap="round"/>
<path d="M136.26 157.54L129.227 149.87" stroke="white" stroke-miterlimit="10" stroke-linecap="round"/>
<path d="M118.396 142.115L116.072 152.216" stroke="#A386F7" stroke-miterlimit="10" stroke-linecap="round"/>
<path d="M138.73 146.813L136.406 156.914" stroke="#A386F7" stroke-miterlimit="10" stroke-linecap="round"/>
<path d="M125.44 105.528H132.851C136.679 105.53 140.471 106.287 144.007 107.758C147.544 109.229 150.757 111.383 153.463 114.099C156.168 116.815 158.314 120.038 159.776 123.585C161.238 127.132 161.989 130.933 161.985 134.772V179.108C161.985 182.945 162.739 186.745 164.204 190.29C165.669 193.835 167.817 197.056 170.524 199.77C173.231 202.483 176.444 204.636 179.981 206.104C183.518 207.573 187.309 208.328 191.137 208.328H248.912C256.858 208.328 264.479 205.164 270.098 199.532C275.717 193.9 278.874 186.261 278.874 178.295V134.602C278.874 130.959 278.158 127.352 276.767 123.986C275.376 120.621 273.337 117.563 270.767 114.987C268.197 112.411 265.145 110.368 261.788 108.975C258.43 107.581 254.831 106.864 251.196 106.865H207.466C200.125 106.865 193.085 103.942 187.895 98.739C182.704 93.5362 179.788 86.4796 179.788 79.1216V32.6875C179.788 25.3296 182.704 18.273 187.895 13.0701C193.085 7.86727 200.125 4.94434 207.466 4.94434H362.497C368.317 4.94434 373.899 7.26177 378.014 11.3868C382.129 15.5119 384.441 21.1066 384.441 26.9403V98.997C384.44 103.896 382.497 108.594 379.04 112.058C375.584 115.522 370.896 117.468 366.008 117.468H344.289" stroke="white" stroke-miterlimit="10"/>
<path d="M233.151 102.623C232.387 103.451 231.793 104.421 231.403 105.478C231.013 106.536 230.835 107.66 230.878 108.786C230.921 109.913 231.186 111.02 231.656 112.044C232.126 113.068 232.793 113.989 233.618 114.755C237.084 117.976 243.437 118.63 246.65 115.156C249.863 111.681 248.72 105.376 245.249 102.184C243.586 100.635 241.378 99.8113 239.109 99.8938C236.841 99.9763 234.698 100.958 233.151 102.623Z" fill="#E8A9CA"/>
<path d="M339.698 3.07756C338.158 4.74872 337.342 6.96403 337.43 9.23737C337.517 11.5107 338.501 13.6564 340.165 15.2036C343.637 18.424 349.989 19.0839 353.202 15.604C356.415 12.1241 355.273 5.82988 351.801 2.632C350.977 1.86467 350.01 1.26752 348.956 0.874639C347.902 0.481755 346.781 0.300836 345.657 0.34221C344.534 0.383584 343.429 0.64644 342.406 1.11577C341.384 1.58511 340.463 2.25172 339.698 3.07756Z" fill="#E8A9CA"/>
<path d="M233.151 3.07757C232.387 3.90437 231.793 4.87394 231.403 5.9309C231.013 6.98785 230.835 8.11147 230.878 9.23756C230.922 10.3636 231.186 11.4701 231.656 12.4938C232.126 13.5175 232.793 14.4383 233.618 15.2036C237.084 18.424 243.437 19.0839 246.65 15.604C249.863 12.1241 248.72 5.82989 245.249 2.63201C244.425 1.86485 243.459 1.26782 242.405 0.875012C241.352 0.482206 240.231 0.301323 239.108 0.342699C237.985 0.384076 236.88 0.646899 235.858 1.11616C234.836 1.58541 233.916 2.25191 233.151 3.07757Z" fill="#E8A9CA"/>
<path d="M132.85 105.528H54.3471C47.696 105.528 41.3173 102.88 36.6142 98.1655C31.9112 93.4513 29.269 87.0575 29.269 80.3906V20.8435" stroke="white" stroke-miterlimit="10"/>
<path d="M120.044 103.385C119.28 104.212 118.686 105.181 118.296 106.238C117.906 107.295 117.728 108.419 117.771 109.545C117.815 110.671 118.079 111.777 118.549 112.801C119.019 113.825 119.686 114.746 120.511 115.511C123.977 118.731 130.33 119.391 133.543 115.911C136.755 112.431 135.613 106.137 132.141 102.939C131.318 102.172 130.352 101.575 129.298 101.182C128.245 100.79 127.124 100.609 126.001 100.65C124.877 100.691 123.773 100.954 122.751 101.424C121.729 101.893 120.809 102.559 120.044 103.385Z" fill="#E8A9CA"/>
</svg>
