<svg xmlns="http://www.w3.org/2000/svg" width="176" height="174" viewBox="0 0 176 174" fill="none">
<g id="Group">
<g id="Vrstva_x0020_1_30_">
<g id="Vector" filter="url(#filter0_d_1121_15600)">
<path fill-rule="evenodd" clip-rule="evenodd" d="M52.8636 34.0801H101.067L141.859 75.9805V157.35C141.859 167.541 133.501 175.817 123.145 175.817H52.8636C42.5605 175.817 34.1499 167.541 34.1499 157.35V52.4955C34.1497 42.3567 42.5605 34.0801 52.8636 34.0801Z" fill="#E5252A"/>
</g>
<g id="Group_2">
<path id="Vector_2" opacity="0.302" fill-rule="evenodd" clip-rule="evenodd" d="M101.022 34.0801V75.6184H141.867L101.022 34.0801Z" fill="white"/>
<path id="Vector_3" d="M70.541 112.148V98.5396H76.3877C77.8353 98.5396 78.9821 98.9305 79.8469 99.731C80.7116 100.513 81.1441 101.574 81.1441 102.896C81.1441 104.217 80.7116 105.278 79.8469 106.06C78.9821 106.861 77.8353 107.252 76.3877 107.252H74.0565V112.148H70.541ZM74.0565 104.292H75.9929C76.5193 104.292 76.9329 104.18 77.2149 103.92C77.4969 103.678 77.6474 103.342 77.6474 102.896C77.6474 102.449 77.497 102.114 77.2149 101.872C76.933 101.611 76.5194 101.5 75.9929 101.5H74.0565V104.292ZM82.5916 112.148V98.5396H87.4607C88.4194 98.5396 89.3218 98.6698 90.1678 98.9491C91.0137 99.2283 91.7846 99.6193 92.4613 100.159C93.1381 100.68 93.6833 101.388 94.0781 102.281C94.4541 103.175 94.6609 104.199 94.6609 105.353C94.6609 106.489 94.4542 107.512 94.0781 108.406C93.6833 109.299 93.1381 110.007 92.4613 110.528C91.7845 111.068 91.0137 111.459 90.1678 111.738C89.3218 112.017 88.4194 112.148 87.4607 112.148H82.5916ZM86.0319 109.188H87.047C87.5922 109.188 88.0998 109.132 88.5698 109.002C89.021 108.871 89.4534 108.667 89.867 108.387C90.2618 108.108 90.5814 107.717 90.807 107.196C91.0326 106.675 91.1454 106.06 91.1454 105.353C91.1454 104.627 91.0326 104.013 90.807 103.491C90.5814 102.97 90.2618 102.579 89.867 102.3C89.4534 102.021 89.0211 101.816 88.5698 101.686C88.0998 101.555 87.5922 101.499 87.047 101.499H86.0319V109.188ZM96.4281 112.148V98.5396H106.204V101.499H99.9436V103.677H104.944V106.619H99.9436V112.148H96.4281Z" fill="white"/>
</g>
</g>
</g>
<defs>
<filter id="filter0_d_1121_15600" x="0.149902" y="0.0800781" width="175.709" height="209.737" filterUnits="userSpaceOnUse" color-interpolation-filters="sRGB">
<feFlood flood-opacity="0" result="BackgroundImageFix"/>
<feColorMatrix in="SourceAlpha" type="matrix" values="0 0 0 0 0 0 0 0 0 0 0 0 0 0 0 0 0 0 127 0" result="hardAlpha"/>
<feOffset/>
<feGaussianBlur stdDeviation="17"/>
<feComposite in2="hardAlpha" operator="out"/>
<feColorMatrix type="matrix" values="0 0 0 0 0 0 0 0 0 0 0 0 0 0 0 0 0 0 0.16 0"/>
<feBlend mode="normal" in2="BackgroundImageFix" result="effect1_dropShadow_1121_15600"/>
<feBlend mode="normal" in="SourceGraphic" in2="effect1_dropShadow_1121_15600" result="shape"/>
</filter>
</defs>
</svg>