<svg width="76" height="76" viewBox="0 0 76 76" fill="none" xmlns="http://www.w3.org/2000/svg">
<path d="M71.9995 75H21.9307C20.2738 75 18.9307 73.6569 18.9307 72V4C18.9307 2.34314 20.2738 1 21.9307 1H51.2375L74.9995 25.5903V72C74.9995 73.6569 73.6563 75 71.9995 75Z" fill="#EEF1F7" stroke="#CBD0DC" stroke-width="2"/>
<rect y="33.5811" width="51.2372" height="30.9302" rx="2" fill="#D82042"/>
<path d="M8.49121 56.5576V41.7754H13.5828C14.6941 41.7754 15.6148 41.9847 16.3448 42.4033C17.0748 42.822 17.6212 43.3946 17.9839 44.1212C18.3465 44.843 18.5279 45.6562 18.5279 46.5609C18.5279 47.4703 18.3442 48.2883 17.9769 49.0149C17.6142 49.7367 17.0655 50.3093 16.3308 50.7328C15.6008 51.1514 14.6825 51.3608 13.5758 51.3608H10.0745V49.4697H13.3805C14.0826 49.4697 14.6522 49.3446 15.0893 49.0943C15.5264 48.8393 15.8473 48.4928 16.0518 48.055C16.2564 47.6171 16.3587 47.119 16.3587 46.5609C16.3587 46.0027 16.2564 45.507 16.0518 45.074C15.8473 44.6409 15.5241 44.3017 15.0824 44.0562C14.6453 43.8108 14.0687 43.6881 13.3526 43.6881H10.6464V56.5576H8.49121Z" fill="white"/>
<path d="M25.6788 56.5576H21.0545V41.7754H25.8252C27.2248 41.7754 28.4268 42.0713 29.4312 42.6632C30.4355 43.2502 31.2051 44.0947 31.7398 45.1967C32.2792 46.2938 32.5489 47.6099 32.5489 49.1449C32.5489 50.6847 32.2769 52.008 31.7328 53.1147C31.1935 54.2214 30.4123 55.0732 29.3893 55.6698C28.3664 56.2617 27.1295 56.5576 25.6788 56.5576ZM23.2097 54.6088H25.5602C26.6482 54.6088 27.5526 54.3971 28.2734 53.9736C28.9941 53.5454 29.5335 52.927 29.8915 52.1186C30.2495 51.3054 30.4286 50.3142 30.4286 49.1449C30.4286 47.9852 30.2495 47.0011 29.8915 46.1927C29.5381 45.3843 29.0104 44.7708 28.3082 44.3522C27.6061 43.9335 26.7343 43.7242 25.6927 43.7242H23.2097V54.6088Z" fill="white"/>
<path d="M35.2289 56.5576V41.7754H44.0869V43.6954H37.3841V48.1993H43.4522V50.1121H37.3841V56.5576H35.2289Z" fill="white"/>
</svg>
