<svg xmlns="http://www.w3.org/2000/svg" width="32" height="32" viewBox="0 0 32 32" fill="none">
<path d="M27.9992 31H11.5498C9.89295 31 8.5498 29.6569 8.5498 28V4C8.5498 2.34315 9.89295 1 11.5498 1H21.3278L30.9992 11.0089V28C30.9992 29.6569 29.6561 31 27.9992 31Z" fill="#EEF1F7" stroke="#CBD0DC" stroke-width="2"/>
<rect y="14.1394" width="21.573" height="13.0233" rx="2" fill="#D82042"/>
<path d="M3.5752 23.8139V17.5898H5.71896C6.18687 17.5898 6.57451 17.678 6.88189 17.8542C7.18926 18.0305 7.4193 18.2716 7.572 18.5776C7.72471 18.8815 7.80106 19.2239 7.80106 19.6048C7.80106 19.9877 7.72373 20.3321 7.56907 20.6381C7.41636 20.942 7.18534 21.1831 6.87601 21.3614C6.56864 21.5377 6.18198 21.6258 5.71603 21.6258H4.24182V20.8295H5.6338C5.92943 20.8295 6.16925 20.7769 6.35329 20.6715C6.53732 20.5641 6.6724 20.4182 6.75855 20.2339C6.84469 20.0495 6.88776 19.8398 6.88776 19.6048C6.88776 19.3698 6.84469 19.1611 6.75855 18.9787C6.6724 18.7964 6.53634 18.6535 6.35035 18.5502C6.16632 18.4469 5.92355 18.3952 5.62205 18.3952H4.48263V23.8139H3.5752Z" fill="white"/>
<path d="M10.8119 23.8139H8.86487V17.5898H10.8736C11.4628 17.5898 11.9689 17.7144 12.3918 17.9637C12.8147 18.2108 13.1387 18.5664 13.3639 19.0304C13.591 19.4923 13.7045 20.0465 13.7045 20.6928C13.7045 21.3411 13.59 21.8983 13.3609 22.3643C13.1338 22.8303 12.8049 23.1889 12.3742 23.4401C11.9435 23.6893 11.4227 23.8139 10.8119 23.8139ZM9.7723 22.9934H10.762C11.2201 22.9934 11.6009 22.9042 11.9043 22.7259C12.2078 22.5456 12.4349 22.2853 12.5856 21.9449C12.7364 21.6025 12.8118 21.1851 12.8118 20.6928C12.8118 20.2045 12.7364 19.7902 12.5856 19.4498C12.4368 19.1094 12.2146 18.8511 11.919 18.6748C11.6234 18.4985 11.2563 18.4104 10.8178 18.4104H9.7723V22.9934Z" fill="white"/>
<path d="M14.8329 23.8139V17.5898H18.5625V18.3982H15.7404V20.2947H18.2953V21.1H15.7404V23.8139H14.8329Z" fill="white"/>
</svg>