<svg width="20" height="21" viewBox="0 0 20 21" fill="none" xmlns="http://www.w3.org/2000/svg">
<path d="M10.7461 5.96042L9.0794 2.62709C9.01018 2.48867 8.90377 2.37226 8.77212 2.29091C8.64046 2.20957 8.48875 2.16649 8.33398 2.1665H1.66732C1.4463 2.1665 1.23434 2.2543 1.07806 2.41058C0.921782 2.56686 0.833984 2.77882 0.833984 2.99984V6.33317C0.833984 6.55418 0.921782 6.76615 1.07806 6.92243C1.23434 7.07871 1.4463 7.1665 1.66732 7.1665H10.0007C10.1427 7.16652 10.2824 7.13022 10.4065 7.06105C10.5306 6.99188 10.6349 6.89213 10.7096 6.77129C10.7843 6.65044 10.8269 6.51251 10.8332 6.37059C10.8396 6.22867 10.8096 6.08748 10.7461 5.96042Z" fill="#376CFB"/>
<path d="M18.334 5.5H0.833984V18C0.833984 18.221 0.921782 18.433 1.07806 18.5893C1.23434 18.7455 1.4463 18.8333 1.66732 18.8333H18.334C18.555 18.8333 18.767 18.7455 18.9232 18.5893C19.0795 18.433 19.1673 18.221 19.1673 18V6.33333C19.1673 6.11232 19.0795 5.90036 18.9232 5.74408C18.767 5.5878 18.555 5.5 18.334 5.5Z" fill="#4294FF"/>
</svg>
