<svg width="126" height="40" viewBox="0 0 126 40" fill="none" xmlns="http://www.w3.org/2000/svg">
<path d="M37.2585 0H2.6394C1.1817 0 0 1.18386 0 2.64421V37.3265C0 38.7868 1.1817 39.9707 2.6394 39.9707H37.2585C38.7162 39.9707 39.8979 38.7868 39.8979 37.3265V2.64421C39.8979 1.18386 38.7162 0 37.2585 0Z" fill="#01083E"/>
<path fill-rule="evenodd" clip-rule="evenodd" d="M17.9634 34.2331C19.1661 34.4405 20.9298 34.415 22.0968 34.1909C22.3915 34.1343 22.694 33.8541 22.7716 33.5657L23.475 30.9542C23.5527 30.6658 23.8267 30.3102 24.0867 30.161L26.9132 28.538C27.1732 28.3888 27.6194 28.3302 27.9099 28.4075L30.4392 29.0817C30.7291 29.159 31.1213 29.0356 31.3143 28.8072C31.4976 28.5894 31.9824 27.9027 32.4113 27.1641C32.8653 26.3815 33.2372 25.5743 33.3477 25.2624C33.4475 24.9807 33.3563 24.5805 33.1441 24.3694L31.4412 22.6755H25.8705C24.8401 24.914 22.5676 26.4707 19.9326 26.4707C16.33 26.4707 13.4056 23.5612 13.4056 19.978C13.4056 16.3944 16.33 13.4849 19.9326 13.4849C22.3245 13.4849 24.4178 14.7677 25.5544 16.6789H31.9523L33.1161 15.5215C33.3284 15.3103 33.4185 14.9106 33.3178 14.6289C32.9246 13.5338 32.062 12.0256 31.2863 11.1119C31.0928 10.884 30.7002 10.7617 30.4102 10.8389L27.7478 11.5486C27.4579 11.6259 27.0111 11.5673 26.7511 11.4181L23.9246 9.79467C23.6651 9.64543 23.3906 9.28987 23.3129 9.00147L22.5994 6.35307C22.5218 6.06467 22.2188 5.78776 21.9236 5.735C20.8068 5.53533 19.1314 5.53392 18.0435 5.71625C17.7473 5.76618 17.4439 6.04062 17.3662 6.32903L16.6465 9.00147C16.5687 9.28987 16.2942 9.64543 16.0342 9.79467L13.2082 11.4181C12.9482 11.5673 12.5001 11.6307 12.2087 11.5597L9.36048 10.8639C9.06867 10.7923 8.67546 10.9205 8.48297 11.1494C8.29969 11.3667 7.81483 12.0534 7.38596 12.792C6.9663 13.5146 6.61704 14.2594 6.52441 14.5094C6.42068 14.7897 6.50845 15.1884 6.72071 15.3996L8.71647 17.3844C8.92872 17.5955 9.10096 18.0096 9.10096 18.3081V21.5544C9.10096 21.8534 8.9321 22.2709 8.72469 22.4863L6.72268 24.5627C6.51521 24.7787 6.43081 25.1808 6.53454 25.4611C6.92192 26.5077 7.76708 27.9674 8.51096 28.8437C8.70444 29.0716 9.09709 29.1945 9.38706 29.1172L12.0495 28.4075C12.3394 28.3302 12.7861 28.3888 13.0462 28.538L15.8726 30.161C16.1326 30.3102 16.4115 30.6643 16.4955 30.9513L17.2755 33.6213C17.3595 33.9082 17.6672 34.1823 17.9634 34.2331Z" fill="white"/>
<path fill-rule="evenodd" clip-rule="evenodd" d="M44.6243 0V26.9637H66.4638V20.608H52.0065V16.3323H64.9255V10.4388H52.0065V6.35571H66.271V0H44.6243ZM70.2694 26.9637V0H82.9962C87.1106 0 89.9556 1.07853 91.7627 2.92751C93.3396 4.46829 94.1468 6.54831 94.1468 9.20617V9.28322C94.1468 13.4048 91.9554 16.1397 88.6102 17.565L95.0313 26.9637H86.4182L80.997 18.7976H80.9203H77.7291V26.9637H70.2694ZM77.7291 12.9426H82.6506C85.1881 12.9426 86.649 11.7099 86.649 9.74547V9.66842C86.649 7.54985 85.1114 6.47131 82.612 6.47131H77.7291V12.9426ZM97.9051 26.9637V0H109.44C116.246 0 120.629 3.50531 120.629 9.47582V9.55287C120.629 15.9086 115.746 19.2598 109.056 19.2598H105.364V26.9637H97.9051ZM105.364 13.4048H108.902C111.555 13.4048 113.169 12.0181 113.169 9.89957V9.82252C113.169 7.51135 111.555 6.27872 108.864 6.27872H105.364V13.4048Z" fill="#0504A7"/>
<path d="M123.133 37.8491C123.147 38.0023 123.184 38.1391 123.242 38.2595C123.3 38.3763 123.375 38.4766 123.466 38.5605C123.557 38.6408 123.659 38.7028 123.772 38.7466C123.885 38.7868 124.003 38.8068 124.127 38.8068C124.324 38.8068 124.491 38.7704 124.629 38.6974C124.772 38.6244 124.901 38.5277 125.017 38.4073L125.279 38.6426C125.137 38.8032 124.975 38.9327 124.793 39.0312C124.611 39.1261 124.386 39.1735 124.116 39.1735C123.923 39.1735 123.741 39.1388 123.57 39.0695C123.399 38.9965 123.249 38.8962 123.122 38.7685C122.994 38.6372 122.892 38.4803 122.815 38.2978C122.743 38.1154 122.706 37.9147 122.706 37.6958C122.706 37.4915 122.739 37.2999 122.805 37.1212C122.874 36.9387 122.969 36.7818 123.089 36.6505C123.209 36.5155 123.351 36.4097 123.515 36.3331C123.683 36.2564 123.864 36.2181 124.061 36.2181C124.269 36.2181 124.454 36.2583 124.618 36.3385C124.782 36.4152 124.921 36.521 125.034 36.656C125.147 36.7909 125.232 36.9497 125.29 37.1321C125.349 37.3146 125.378 37.5097 125.378 37.7177C125.378 37.736 125.378 37.756 125.378 37.7779C125.378 37.7998 125.376 37.8235 125.373 37.8491H123.133ZM123.133 37.5371H124.951C124.941 37.4094 124.913 37.2872 124.87 37.1704C124.83 37.0536 124.772 36.9515 124.695 36.8639C124.622 36.7764 124.531 36.7071 124.422 36.656C124.316 36.6012 124.192 36.5739 124.05 36.5739C123.926 36.5739 123.812 36.5994 123.706 36.6505C123.601 36.6979 123.508 36.7654 123.427 36.853C123.348 36.9369 123.282 37.0372 123.231 37.154C123.18 37.2708 123.147 37.3984 123.133 37.5371Z" fill="#4B4B4B"/>
<path d="M122.266 38.6262C122.124 38.7868 121.962 38.9181 121.78 39.0203C121.601 39.1224 121.379 39.1735 121.114 39.1735C120.906 39.1735 120.713 39.1352 120.534 39.0586C120.36 38.9783 120.206 38.8725 120.076 38.7411C119.948 38.6062 119.848 38.4492 119.775 38.2705C119.702 38.0917 119.666 37.9019 119.666 37.7013C119.666 37.5006 119.702 37.3109 119.775 37.1321C119.848 36.9497 119.948 36.7909 120.076 36.656C120.206 36.521 120.36 36.4152 120.534 36.3385C120.713 36.2583 120.906 36.2181 121.114 36.2181C121.248 36.2181 121.37 36.2309 121.479 36.2564C121.589 36.282 121.689 36.3185 121.78 36.3659C121.871 36.4097 121.954 36.4626 122.031 36.5246C122.108 36.5867 122.178 36.6523 122.244 36.7216L121.965 37.0172C121.853 36.9004 121.729 36.8001 121.594 36.7162C121.463 36.6322 121.301 36.5903 121.108 36.5903C120.966 36.5903 120.833 36.6195 120.709 36.6779C120.586 36.7326 120.478 36.8111 120.387 36.9132C120.296 37.0117 120.225 37.1285 120.174 37.2635C120.123 37.3948 120.097 37.5371 120.097 37.6904C120.097 37.8436 120.123 37.9877 120.174 38.1227C120.228 38.2577 120.301 38.3763 120.392 38.4784C120.487 38.577 120.596 38.6554 120.72 38.7138C120.848 38.7685 120.986 38.7959 121.135 38.7959C121.317 38.7959 121.478 38.7557 121.616 38.6755C121.758 38.5952 121.886 38.4949 121.999 38.3745L122.266 38.6262Z" fill="#4B4B4B"/>
<path d="M118.897 35.66H118.416V35.1948H118.897V35.66ZM118.864 39.108H118.443V36.2785H118.864V39.108Z" fill="#4B4B4B"/>
<path d="M116.336 38.6263L117.291 36.2784H117.745L116.516 39.1298H116.144L114.921 36.2784H115.385L116.336 38.6263Z" fill="#4B4B4B"/>
<path d="M113.406 37.9805V39.1079H112.985V36.2784H113.406V37.0172C113.457 36.9005 113.521 36.7928 113.597 36.6943C113.674 36.5958 113.761 36.5119 113.86 36.4426C113.958 36.3696 114.065 36.3148 114.182 36.2784C114.298 36.2419 114.424 36.2255 114.559 36.2291V36.6834H114.526C114.373 36.6834 114.227 36.7107 114.089 36.7655C113.954 36.8202 113.836 36.9023 113.734 37.0118C113.632 37.1212 113.551 37.258 113.493 37.4222C113.435 37.5828 113.406 37.7689 113.406 37.9805Z" fill="#4B4B4B"/>
<path d="M110.003 37.8491C110.018 38.0023 110.054 38.1391 110.113 38.2595C110.171 38.3763 110.246 38.4766 110.337 38.5605C110.428 38.6408 110.529 38.7028 110.642 38.7466C110.755 38.7868 110.874 38.8068 110.998 38.8068C111.194 38.8068 111.362 38.7704 111.5 38.6974C111.642 38.6244 111.772 38.5277 111.888 38.4073L112.151 38.6426C112.008 38.8032 111.846 38.9327 111.664 39.0312C111.482 39.1261 111.256 39.1735 110.987 39.1735C110.794 39.1735 110.612 39.1388 110.44 39.0695C110.269 38.9965 110.12 38.8962 109.992 38.7685C109.865 38.6372 109.763 38.4803 109.687 38.2978C109.614 38.1154 109.577 37.9147 109.577 37.6958C109.577 37.4915 109.61 37.2999 109.676 37.1212C109.745 36.9387 109.839 36.7818 109.96 36.6505C110.08 36.5155 110.222 36.4097 110.386 36.3331C110.553 36.2564 110.736 36.2181 110.932 36.2181C111.14 36.2181 111.326 36.2583 111.489 36.3385C111.653 36.4152 111.791 36.521 111.904 36.656C112.017 36.7909 112.103 36.9497 112.162 37.1321C112.22 37.3146 112.249 37.5097 112.249 37.7177C112.249 37.736 112.249 37.756 112.249 37.7779C112.249 37.7998 112.247 37.8235 112.243 37.8491H110.003ZM110.003 37.5371H111.823C111.812 37.4094 111.785 37.2872 111.74 37.1704C111.701 37.0536 111.642 36.9515 111.566 36.8639C111.493 36.7764 111.402 36.7071 111.293 36.656C111.187 36.6012 111.063 36.5739 110.921 36.5739C110.798 36.5739 110.683 36.5994 110.577 36.6505C110.472 36.6979 110.378 36.7654 110.299 36.853C110.218 36.9369 110.153 37.0372 110.102 37.154C110.051 37.2708 110.018 37.3984 110.003 37.5371Z" fill="#4B4B4B"/>
<path d="M106.662 36.2345C106.662 36.3257 106.677 36.4078 106.706 36.4808C106.735 36.5538 106.788 36.6213 106.864 36.6833C106.941 36.7417 107.046 36.7964 107.181 36.8475C107.316 36.8949 107.489 36.9405 107.7 36.9843C108.126 37.0792 108.439 37.2106 108.64 37.3784C108.844 37.5462 108.946 37.7779 108.946 38.0734C108.946 38.2376 108.913 38.3872 108.847 38.5222C108.782 38.6572 108.691 38.7721 108.574 38.867C108.462 38.9619 108.325 39.0348 108.164 39.0859C108.004 39.137 107.829 39.1625 107.64 39.1625C107.334 39.1625 107.053 39.1133 106.799 39.0148C106.548 38.9126 106.307 38.7575 106.078 38.5496L106.345 38.2321C106.546 38.4146 106.748 38.5514 106.952 38.6426C107.155 38.7302 107.39 38.774 107.656 38.774C107.915 38.774 108.121 38.7138 108.274 38.5934C108.43 38.473 108.509 38.3142 108.509 38.1172C108.509 38.026 108.494 37.9457 108.465 37.8764C108.436 37.8034 108.385 37.7377 108.312 37.6794C108.239 37.621 108.137 37.5681 108.006 37.5207C107.878 37.4733 107.715 37.4276 107.514 37.3838C107.296 37.3364 107.104 37.2817 106.941 37.2197C106.78 37.1576 106.648 37.0828 106.542 36.9953C106.437 36.9077 106.358 36.8056 106.307 36.6888C106.256 36.572 106.23 36.4334 106.23 36.2728C106.23 36.1196 106.262 35.9792 106.324 35.8514C106.386 35.7237 106.473 35.6142 106.586 35.5231C106.699 35.4282 106.831 35.3552 106.985 35.3041C107.138 35.2494 107.305 35.222 107.487 35.222C107.767 35.222 108.012 35.2622 108.219 35.3424C108.43 35.4191 108.634 35.5358 108.831 35.6927L108.579 36.0266C108.401 35.8806 108.221 35.7748 108.039 35.7091C107.861 35.6435 107.673 35.6106 107.476 35.6106C107.352 35.6106 107.239 35.627 107.138 35.6599C107.039 35.6927 106.953 35.7365 106.88 35.7912C106.812 35.846 106.757 35.9116 106.716 35.9883C106.68 36.0649 106.662 36.147 106.662 36.2345Z" fill="#4B4B4B"/>
<path d="M103.954 36.2784L102.769 39.201C102.649 39.4929 102.514 39.699 102.364 39.8194C102.219 39.9398 102.04 40 101.829 40C101.713 40 101.607 39.9872 101.512 39.9617C101.418 39.9398 101.323 39.9051 101.228 39.8577L101.371 39.5239C101.439 39.5603 101.507 39.5859 101.573 39.6005C101.642 39.6188 101.722 39.6279 101.813 39.6279C101.94 39.6279 102.048 39.5896 102.135 39.5129C102.223 39.4363 102.309 39.2976 102.392 39.097L101.108 36.2784H101.573L102.599 38.6373L103.507 36.2784H103.954Z" fill="#4B4B4B"/>
<path d="M100.724 38.6262C100.581 38.7868 100.419 38.9181 100.238 39.0203C100.059 39.1224 99.8367 39.1735 99.5709 39.1735C99.3634 39.1735 99.1701 39.1352 98.9921 39.0586C98.8172 38.9783 98.6643 38.8725 98.533 38.7411C98.4053 38.6062 98.3052 38.4492 98.2322 38.2705C98.1598 38.0917 98.1229 37.9019 98.1229 37.7013C98.1229 37.5006 98.1598 37.3109 98.2322 37.1321C98.3052 36.9497 98.4053 36.7909 98.533 36.656C98.6643 36.521 98.8172 36.4152 98.9921 36.3385C99.1701 36.2583 99.3634 36.2181 99.5709 36.2181C99.706 36.2181 99.8275 36.2309 99.9367 36.2564C100.046 36.282 100.146 36.3185 100.238 36.3659C100.328 36.4097 100.412 36.4626 100.489 36.5246C100.565 36.5867 100.636 36.6523 100.702 36.7216L100.423 37.0172C100.31 36.9004 100.187 36.8001 100.052 36.7162C99.9208 36.6322 99.7587 36.5903 99.5654 36.5903C99.4236 36.5903 99.2904 36.6195 99.1664 36.6779C99.043 36.7326 98.9356 36.8111 98.8442 36.9132C98.7533 37.0117 98.6821 37.1285 98.6312 37.2635C98.5802 37.3948 98.5551 37.5371 98.5551 37.6904C98.5551 37.8436 98.5802 37.9877 98.6312 38.1227C98.6858 38.2577 98.7588 38.3763 98.8497 38.4784C98.9442 38.577 99.0535 38.6554 99.1775 38.7138C99.3051 38.7685 99.4432 38.7959 99.593 38.7959C99.7747 38.7959 99.9349 38.7557 100.074 38.6755C100.215 38.5952 100.343 38.4949 100.456 38.3745L100.724 38.6262Z" fill="#4B4B4B"/>
<path d="M95.3521 37.4879V39.1078H94.9316V36.2783H95.3521V36.7709C95.4472 36.6177 95.5706 36.4882 95.7235 36.3823C95.8769 36.2729 96.0752 36.2181 96.3195 36.2181C96.4901 36.2181 96.6417 36.2455 96.7725 36.3002C96.9075 36.355 97.0204 36.4334 97.1113 36.5356C97.2058 36.6341 97.277 36.7526 97.3243 36.8913C97.3752 37.03 97.401 37.1832 97.401 37.351V39.1078H96.9799V37.455C96.9799 37.1923 96.913 36.9843 96.778 36.8311C96.6436 36.6779 96.4502 36.6012 96.1992 36.6012C96.0789 36.6012 95.9659 36.6231 95.8603 36.6669C95.7584 36.7071 95.6688 36.7673 95.5927 36.8475C95.516 36.9241 95.4558 37.0172 95.4123 37.1266C95.3724 37.2361 95.3521 37.3565 95.3521 37.4879Z" fill="#4B4B4B"/>
<path d="M92.7896 36.6123C92.622 36.6123 92.4691 36.6323 92.331 36.6725C92.196 36.7089 92.0634 36.7582 91.9321 36.8202L91.8062 36.4754C91.9628 36.4025 92.1217 36.3459 92.2819 36.3058C92.4421 36.262 92.6257 36.2401 92.8331 36.2401C93.2192 36.2401 93.5163 36.3368 93.7238 36.5302C93.9313 36.7199 94.035 37.0027 94.035 37.3785V39.1079H93.6311V38.681C93.5329 38.8088 93.3997 38.9218 93.2321 39.0204C93.0682 39.1189 92.8608 39.1681 92.6097 39.1681C92.4784 39.1681 92.3488 39.1499 92.2218 39.1134C92.0978 39.0769 91.9849 39.0222 91.883 38.9492C91.7847 38.8726 91.7043 38.7795 91.6423 38.6701C91.584 38.5606 91.5552 38.4311 91.5552 38.2815C91.5552 38.1319 91.584 38.0005 91.6423 37.8875C91.7007 37.7707 91.7829 37.674 91.8885 37.5974C91.9977 37.5208 92.1248 37.4624 92.2709 37.4223C92.42 37.3821 92.5839 37.3621 92.7626 37.3621C92.9442 37.3621 93.1032 37.373 93.2376 37.3949C93.3727 37.4168 93.5034 37.446 93.6311 37.4825V37.384C93.6311 37.1286 93.5562 36.937 93.4071 36.8093C93.2616 36.6779 93.0553 36.6123 92.7896 36.6123ZM92.8061 37.674C92.5403 37.674 92.3366 37.7269 92.1942 37.8327C92.0524 37.9386 91.9812 38.0826 91.9812 38.2651C91.9812 38.3563 91.9996 38.4366 92.0358 38.5059C92.0757 38.5752 92.1285 38.6354 92.1942 38.6865C92.2598 38.7339 92.3347 38.7704 92.4182 38.796C92.5054 38.8215 92.5968 38.8343 92.6913 38.8343C92.8227 38.8343 92.9442 38.816 93.0572 38.7795C93.1738 38.7394 93.2739 38.6865 93.3579 38.6208C93.4451 38.5515 93.5126 38.4712 93.5599 38.38C93.6108 38.2851 93.6366 38.1812 93.6366 38.0681V37.7944C93.531 37.7652 93.4089 37.7378 93.2702 37.7123C93.1358 37.6868 92.9811 37.674 92.8061 37.674Z" fill="#4B4B4B"/>
<path d="M90.1275 36.6506V38.3034C90.1275 38.4786 90.1717 38.6008 90.2589 38.6701C90.346 38.7394 90.4608 38.7741 90.6032 38.7741C90.6756 38.7741 90.7432 38.7668 90.8052 38.7522C90.8708 38.7376 90.9396 38.7121 91.0126 38.6756V39.0368C90.9396 39.077 90.8616 39.1061 90.7775 39.1244C90.6977 39.1463 90.6069 39.1572 90.5044 39.1572C90.3914 39.1572 90.2859 39.1426 90.1877 39.1134C90.0895 39.0842 90.0041 39.0386 89.9311 38.9766C89.8617 38.9109 89.8071 38.827 89.7672 38.7248C89.7273 38.6227 89.707 38.5005 89.707 38.3582V36.6506H89.3136V36.2785H89.707V35.4247H90.1275V36.2785H91.0237V36.6506H90.1275Z" fill="#4B4B4B"/>
<path d="M88.5832 39.1079H88.1627V35.1127H88.5832V39.1079Z" fill="#4B4B4B"/>
<path d="M86.763 37.8984V36.2784H87.178V39.1079H86.763V38.6154C86.6685 38.7686 86.5445 38.9 86.3917 39.0094C86.2382 39.1153 86.0399 39.1681 85.7957 39.1681C85.625 39.1681 85.4716 39.1408 85.3371 39.086C85.2058 39.0313 85.0928 38.9547 84.9983 38.8562C84.9075 38.754 84.8363 38.6336 84.7853 38.495C84.7381 38.3563 84.7141 38.2031 84.7141 38.0352V36.2784H85.1352V37.9313C85.1352 38.194 85.2021 38.4019 85.3371 38.5552C85.4716 38.7084 85.6649 38.785 85.916 38.785C86.0363 38.785 86.1474 38.765 86.2493 38.7248C86.3548 38.6811 86.4445 38.6208 86.5169 38.5442C86.5936 38.464 86.6538 38.3691 86.6973 38.2596C86.7409 38.1502 86.763 38.0298 86.763 37.8984Z" fill="#4B4B4B"/>
<path d="M83.9765 38.3143C83.9765 38.4493 83.9495 38.5697 83.8949 38.6755C83.8439 38.7777 83.7727 38.8652 83.6819 38.9382C83.5941 39.0112 83.4885 39.0677 83.3651 39.1079C83.2448 39.1443 83.1135 39.1626 82.9717 39.1626C82.7673 39.1626 82.5617 39.1261 82.3542 39.0531C82.1467 38.9765 81.9626 38.8744 81.8024 38.7467L82.0154 38.4457C82.1682 38.5624 82.3272 38.6518 82.4911 38.7138C82.658 38.7759 82.8256 38.8069 82.9932 38.8069C83.1644 38.8069 83.305 38.7667 83.4142 38.6865C83.5235 38.6062 83.5781 38.4968 83.5781 38.3581V38.3471C83.5781 38.2778 83.5579 38.2176 83.518 38.1665C83.4812 38.1154 83.4302 38.0717 83.3651 38.0352C83.2995 37.995 83.2227 37.9604 83.1356 37.9312C83.0515 37.902 82.9643 37.8746 82.8735 37.8491C82.7642 37.8163 82.6531 37.7816 82.5402 37.7451C82.4309 37.705 82.3303 37.6557 82.2394 37.5974C82.1522 37.539 82.0792 37.466 82.0209 37.3784C81.9663 37.2909 81.9393 37.1814 81.9393 37.0501V37.0391C81.9393 36.9187 81.9626 36.8093 82.0098 36.7107C82.0571 36.6086 82.1228 36.5228 82.2069 36.4535C82.294 36.3805 82.3959 36.3258 82.5126 36.2893C82.6329 36.2492 82.7624 36.2291 82.9005 36.2291C83.0754 36.2291 83.2522 36.2583 83.4302 36.3167C83.6088 36.3714 83.7709 36.4462 83.9163 36.5411L83.7255 36.8585C83.5941 36.7746 83.456 36.7089 83.3105 36.6615C83.1681 36.6104 83.0282 36.5849 82.8894 36.5849C82.7219 36.5849 82.5893 36.625 82.4911 36.7053C82.3922 36.7819 82.3431 36.8786 82.3431 36.9953V37.0063C82.3431 37.072 82.3634 37.1303 82.4033 37.1814C82.4432 37.2288 82.496 37.2708 82.5617 37.3073C82.631 37.3438 82.7096 37.3766 82.7968 37.4058C82.8839 37.435 82.9754 37.4642 83.0699 37.4934C83.1792 37.5262 83.2866 37.5627 83.3921 37.6028C83.5014 37.643 83.5996 37.694 83.6874 37.7561C83.7746 37.8181 83.8439 37.8929 83.8949 37.9805C83.9495 38.068 83.9765 38.1756 83.9765 38.3034V38.3143Z" fill="#4B4B4B"/>
<path d="M79.0917 37.4879V39.1078H78.6713V36.2783H79.0917V36.7709C79.1863 36.6177 79.3102 36.4882 79.4631 36.3823C79.6159 36.2729 79.8148 36.2181 80.0585 36.2181C80.2297 36.2181 80.3807 36.2455 80.5121 36.3002C80.6465 36.355 80.7595 36.4334 80.8509 36.5356C80.9454 36.6341 81.0166 36.7526 81.0639 36.8913C81.1149 37.03 81.14 37.1832 81.14 37.351V39.1078H80.7196V37.455C80.7196 37.1923 80.652 36.9843 80.5176 36.8311C80.3826 36.6779 80.1898 36.6012 79.9382 36.6012C79.8185 36.6012 79.7055 36.6231 79.6 36.6669C79.4975 36.7071 79.4084 36.7673 79.3317 36.8475C79.2556 36.9241 79.1955 37.0172 79.1519 37.1266C79.112 37.2361 79.0917 37.3565 79.0917 37.4879Z" fill="#4B4B4B"/>
<path d="M77.9089 37.6904C77.9089 37.891 77.8709 38.0826 77.7942 38.265C77.7217 38.4438 77.6192 38.6007 77.4885 38.7357C77.3571 38.8707 77.2006 38.9783 77.0183 39.0586C76.8366 39.1352 76.6396 39.1735 76.4284 39.1735C76.2173 39.1735 76.0227 39.1352 75.8441 39.0586C75.6655 38.9783 75.5108 38.8725 75.3794 38.7411C75.2487 38.6062 75.1468 38.4492 75.0737 38.2705C75.0007 38.0917 74.9645 37.9019 74.9645 37.7013C74.9645 37.5006 75.0007 37.3109 75.0737 37.1321C75.1468 36.9497 75.2487 36.7909 75.3794 36.656C75.5108 36.521 75.6655 36.4152 75.8441 36.3385C76.0264 36.2583 76.2246 36.2181 76.4395 36.2181C76.6506 36.2181 76.8458 36.2583 77.0238 36.3385C77.2061 36.4152 77.3626 36.521 77.494 36.656C77.6247 36.7873 77.7273 36.9424 77.7997 37.1212C77.8727 37.2999 77.9089 37.4897 77.9089 37.6904ZM77.4774 37.7013C77.4774 37.5481 77.4504 37.4039 77.3958 37.2689C77.3448 37.134 77.2718 37.0172 77.1773 36.9187C77.0821 36.8165 76.971 36.7362 76.844 36.6779C76.7163 36.6195 76.5782 36.5903 76.4284 36.5903C76.2756 36.5903 76.1356 36.6195 76.008 36.6779C75.8803 36.7326 75.771 36.8111 75.6802 36.9132C75.593 37.0117 75.5237 37.1285 75.4727 37.2635C75.4218 37.3948 75.396 37.5371 75.396 37.6904C75.396 37.8436 75.4218 37.9877 75.4727 38.1227C75.5273 38.2577 75.5998 38.3745 75.6912 38.473C75.7858 38.5715 75.8969 38.65 76.0245 38.7083C76.1516 38.7667 76.2903 38.7959 76.4395 38.7959C76.5923 38.7959 76.7329 38.7685 76.8599 38.7138C76.9876 38.6554 77.0969 38.577 77.1877 38.4784C77.2792 38.3799 77.3498 38.265 77.4007 38.1337C77.4523 37.9987 77.4774 37.8545 77.4774 37.7013Z" fill="#4B4B4B"/>
<path d="M74.5083 38.5004C74.4101 38.6025 74.3058 38.6956 74.1965 38.7795C74.0909 38.8598 73.9768 38.9291 73.8528 38.9875C73.7288 39.0458 73.5956 39.0915 73.4538 39.1243C73.312 39.1571 73.1536 39.1736 72.9787 39.1736C72.7019 39.1736 72.4472 39.1225 72.2139 39.0203C71.9807 38.9182 71.7787 38.7795 71.6075 38.6044C71.4362 38.4256 71.3012 38.2158 71.203 37.975C71.1084 37.7342 71.0612 37.4751 71.0612 37.1978C71.0612 36.9242 71.1084 36.667 71.203 36.4262C71.3012 36.1854 71.4362 35.9755 71.6075 35.7968C71.7787 35.6143 71.9825 35.472 72.2194 35.3699C72.4557 35.2641 72.7148 35.2112 72.9947 35.2112C73.1696 35.2112 73.3261 35.2258 73.4649 35.255C73.6066 35.2842 73.738 35.3261 73.8583 35.3808C73.978 35.4319 74.0891 35.4958 74.1916 35.5724C74.2935 35.6454 74.3917 35.7275 74.4862 35.8187L74.1916 36.1361C74.0277 35.9829 73.8509 35.857 73.6613 35.7585C73.4759 35.66 73.2519 35.6107 72.9898 35.6107C72.778 35.6107 72.5816 35.6509 72.3993 35.7311C72.2213 35.8114 72.0647 35.9227 71.9297 36.065C71.7983 36.2073 71.6946 36.3751 71.6185 36.5685C71.5455 36.7582 71.5092 36.9644 71.5092 37.1869C71.5092 37.4094 71.5455 37.6174 71.6185 37.8108C71.6946 38.0042 71.7983 38.172 71.9297 38.3143C72.0647 38.4566 72.2213 38.5697 72.3993 38.6536C72.5816 38.7339 72.778 38.774 72.9898 38.774C73.2519 38.774 73.4777 38.7266 73.6668 38.6317C73.8565 38.5332 74.0418 38.3964 74.2241 38.2213L74.5083 38.5004Z" fill="#4B4B4B"/>
<path d="M68.5451 39.1079H68.1246V35.1127H68.5451V39.1079Z" fill="#4B4B4B"/>
<path d="M67.3241 37.6904C67.3241 37.891 67.286 38.0826 67.2099 38.265C67.1369 38.4438 67.035 38.6007 66.9036 38.7357C66.7729 38.8707 66.6158 38.9783 66.4341 39.0586C66.2518 39.1352 66.0553 39.1735 65.8442 39.1735C65.6324 39.1735 65.4379 39.1352 65.2592 39.0586C65.0806 38.9783 64.9259 38.8725 64.7952 38.7411C64.6638 38.6062 64.5619 38.4492 64.4889 38.2705C64.4165 38.0917 64.3796 37.9019 64.3796 37.7013C64.3796 37.5006 64.4165 37.3109 64.4889 37.1321C64.5619 36.9497 64.6638 36.7909 64.7952 36.656C64.9259 36.521 65.0806 36.4152 65.2592 36.3385C65.4415 36.2583 65.6398 36.2181 65.8546 36.2181C66.0658 36.2181 66.261 36.2583 66.4396 36.3385C66.6213 36.4152 66.7778 36.521 66.9092 36.656C67.0405 36.7873 67.1424 36.9424 67.2148 37.1212C67.2879 37.2999 67.3241 37.4897 67.3241 37.6904ZM66.8926 37.7013C66.8926 37.5481 66.8656 37.4039 66.811 37.2689C66.76 37.134 66.687 37.0172 66.5924 36.9187C66.4979 36.8165 66.3868 36.7362 66.2591 36.6779C66.1315 36.6195 65.9934 36.5903 65.8442 36.5903C65.6907 36.5903 65.5508 36.6195 65.4231 36.6779C65.2961 36.7326 65.1868 36.8111 65.0953 36.9132C65.0082 37.0117 64.9388 37.1285 64.8879 37.2635C64.8369 37.3948 64.8112 37.5371 64.8112 37.6904C64.8112 37.8436 64.8369 37.9877 64.8879 38.1227C64.9425 38.2577 65.0155 38.3745 65.1064 38.473C65.2009 38.5715 65.312 38.65 65.4397 38.7083C65.5674 38.7667 65.7055 38.7959 65.8546 38.7959C66.0081 38.7959 66.148 38.7685 66.2757 38.7138C66.4028 38.6554 66.512 38.577 66.6035 38.4784C66.6943 38.3799 66.7655 38.265 66.8165 38.1337C66.8674 37.9987 66.8926 37.8545 66.8926 37.7013Z" fill="#4B4B4B"/>
<path d="M63.793 37.6904C63.793 37.891 63.7543 38.0826 63.6782 38.265C63.6052 38.4438 63.5033 38.6007 63.3719 38.7357C63.2412 38.8707 63.0846 38.9783 62.9023 39.0586C62.72 39.1352 62.5236 39.1735 62.3125 39.1735C62.1013 39.1735 61.9061 39.1352 61.7281 39.0586C61.5495 38.9783 61.3948 38.8725 61.2634 38.7411C61.1321 38.6062 61.0302 38.4492 60.9578 38.2705C60.8847 38.0917 60.8485 37.9019 60.8485 37.7013C60.8485 37.5006 60.8847 37.3109 60.9578 37.1321C61.0302 36.9497 61.1321 36.7909 61.2634 36.656C61.3948 36.521 61.5495 36.4152 61.7281 36.3385C61.9098 36.2583 62.1087 36.2181 62.3235 36.2181C62.5347 36.2181 62.7292 36.2583 62.9079 36.3385C63.0902 36.4152 63.2467 36.521 63.3774 36.656C63.5088 36.7873 63.6107 36.9424 63.6837 37.1212C63.7562 37.2999 63.793 37.4897 63.793 37.6904ZM63.3615 37.7013C63.3615 37.5481 63.3338 37.4039 63.2792 37.2689C63.2283 37.134 63.1552 37.0172 63.0607 36.9187C62.9662 36.8165 62.8551 36.7362 62.7274 36.6779C62.6003 36.6195 62.4616 36.5903 62.3125 36.5903C62.1596 36.5903 62.0191 36.6195 61.892 36.6779C61.7643 36.7326 61.6551 36.8111 61.5642 36.9132C61.4764 37.0117 61.4071 37.1285 61.3561 37.2635C61.3052 37.3948 61.28 37.5371 61.28 37.6904C61.28 37.8436 61.3052 37.9877 61.3561 38.1227C61.4108 38.2577 61.4838 38.3745 61.5747 38.473C61.6698 38.5715 61.7809 38.65 61.908 38.7083C62.0356 38.7667 62.1737 38.7959 62.3235 38.7959C62.4763 38.7959 62.6163 38.7685 62.744 38.7138C62.8716 38.6554 62.9809 38.577 63.0718 38.4784C63.1626 38.3799 63.2338 38.265 63.2847 38.1337C63.3357 37.9987 63.3615 37.8545 63.3615 37.7013Z" fill="#4B4B4B"/>
<path d="M60.2472 37.6904C60.2472 37.9238 60.2091 38.1318 60.1324 38.3143C60.0563 38.4967 59.9538 38.6517 59.8267 38.7795C59.7027 38.9035 59.5591 39.0002 59.3952 39.0695C59.235 39.1352 59.0693 39.168 58.898 39.168C58.7666 39.168 58.6463 39.1516 58.5371 39.1188C58.4278 39.0859 58.3296 39.0422 58.2424 38.9874C58.1547 38.9327 58.0749 38.8689 58.0018 38.7959C57.9325 38.7229 57.8711 38.6463 57.8165 38.566V39.9835H57.3954V36.2783H57.8165V36.8475C57.8742 36.7636 57.938 36.6833 58.0074 36.6067C58.0804 36.5301 58.1602 36.4644 58.248 36.4097C58.3351 36.3513 58.4315 36.3057 58.5371 36.2729C58.6463 36.2364 58.7666 36.2181 58.898 36.2181C59.0656 36.2181 59.2295 36.251 59.3897 36.3167C59.5536 36.3823 59.699 36.479 59.8267 36.6067C59.9538 36.7307 60.0563 36.884 60.1324 37.0664C60.2091 37.2489 60.2472 37.4569 60.2472 37.6904ZM59.8156 37.6958C59.8156 37.528 59.788 37.3765 59.7334 37.2416C59.6825 37.1066 59.6119 36.9917 59.5204 36.8968C59.4296 36.7983 59.324 36.7235 59.2037 36.6724C59.0834 36.6213 58.9563 36.5958 58.8213 36.5958C58.6905 36.5958 58.5629 36.6231 58.4389 36.6779C58.3186 36.729 58.2093 36.8019 58.1111 36.8968C58.0166 36.9917 57.9398 37.1066 57.8815 37.2416C57.8269 37.3765 57.7999 37.5262 57.7999 37.6904C57.7999 37.8545 57.8269 38.0059 57.8815 38.1446C57.9398 38.2796 58.0166 38.3945 58.1111 38.4894C58.2093 38.5843 58.3186 38.6591 58.4389 38.7138C58.5629 38.7649 58.6905 38.7904 58.8213 38.7904C58.9563 38.7904 59.0834 38.7667 59.2037 38.7193C59.3277 38.6682 59.4332 38.597 59.5204 38.5058C59.6119 38.4109 59.6825 38.296 59.7334 38.161C59.788 38.0224 59.8156 37.8673 59.8156 37.6958Z" fill="#4B4B4B"/>
<path d="M54.4495 37.4879V39.1079H54.0291V35.1127H54.4495V36.771C54.5447 36.6177 54.668 36.4882 54.8209 36.3824C54.9743 36.2729 55.1726 36.2182 55.4169 36.2182C55.5875 36.2182 55.7391 36.2456 55.8699 36.3003C56.0049 36.355 56.1179 36.4335 56.2087 36.5356C56.3032 36.6341 56.3744 36.7527 56.4217 36.8914C56.4726 37.03 56.4984 37.1833 56.4984 37.3511V39.1079H56.0773V37.4551C56.0773 37.1924 56.0104 36.9844 55.8754 36.8312C55.741 36.6779 55.5476 36.6013 55.2966 36.6013C55.1763 36.6013 55.0633 36.6232 54.9578 36.667C54.8559 36.7071 54.7662 36.7673 54.6901 36.8476C54.6134 36.9242 54.5533 37.0172 54.5097 37.1267C54.4698 37.2362 54.4495 37.3566 54.4495 37.4879Z" fill="#4B4B4B"/>
<path d="M53.3337 38.6262C53.1919 38.7868 53.0299 38.9181 52.8476 39.0203C52.6691 39.1224 52.4469 39.1735 52.1811 39.1735C51.9735 39.1735 51.7804 39.1352 51.602 39.0586C51.4272 38.9783 51.2742 38.8725 51.1431 38.7411C51.0156 38.6062 50.9155 38.4492 50.8427 38.2705C50.7698 38.0917 50.7334 37.9019 50.7334 37.7013C50.7334 37.5006 50.7698 37.3109 50.8427 37.1321C50.9155 36.9497 51.0156 36.7909 51.1431 36.656C51.2742 36.521 51.4272 36.4152 51.602 36.3385C51.7804 36.2583 51.9735 36.2181 52.1811 36.2181C52.3158 36.2181 52.4378 36.2309 52.5471 36.2564C52.6564 36.282 52.7565 36.3185 52.8476 36.3659C52.9384 36.4097 53.0225 36.4626 53.0986 36.5246C53.1753 36.5867 53.2465 36.6523 53.3122 36.7216L53.0335 37.0172C52.9206 36.9004 52.7965 36.8001 52.6618 36.7162C52.5307 36.6322 52.3687 36.5903 52.1756 36.5903C52.0336 36.5903 51.9006 36.6195 51.7768 36.6779C51.653 36.7326 51.5455 36.8111 51.4545 36.9132C51.3635 37.0117 51.2925 37.1285 51.2415 37.2635C51.1904 37.3948 51.165 37.5371 51.165 37.6904C51.165 37.8436 51.1904 37.9877 51.2415 38.1227C51.2961 38.2577 51.3689 38.3763 51.46 38.4784C51.5547 38.577 51.6639 38.6554 51.7877 38.7138C51.9152 38.7685 52.0536 38.7959 52.2029 38.7959C52.3851 38.7959 52.5453 38.7557 52.6837 38.6755C52.8257 38.5952 52.9531 38.4949 53.0661 38.3745L53.3337 38.6262Z" fill="#4B4B4B"/>
<path d="M47.9265 37.8491C47.9411 38.0023 47.9775 38.1391 48.0357 38.2595C48.094 38.3763 48.1687 38.4766 48.2597 38.5605C48.3508 38.6408 48.4528 38.7028 48.5656 38.7466C48.6786 38.7868 48.7969 38.8068 48.9207 38.8068C49.1174 38.8068 49.285 38.7704 49.4233 38.6974C49.5654 38.6244 49.6947 38.5277 49.8112 38.4073L50.0734 38.6426C49.9314 38.8032 49.7693 38.9327 49.5872 39.0312C49.4052 39.1261 49.1793 39.1735 48.9098 39.1735C48.7168 39.1735 48.5347 39.1388 48.3635 39.0695C48.1924 38.9965 48.043 38.8962 47.9155 38.7685C47.7881 38.6372 47.6861 38.4803 47.6096 38.2978C47.5368 38.1154 47.5004 37.9147 47.5004 37.6958C47.5004 37.4915 47.5331 37.2999 47.5987 37.1212C47.6679 36.9387 47.7626 36.7818 47.8828 36.6505C48.003 36.5155 48.145 36.4097 48.3089 36.3331C48.4765 36.2564 48.6585 36.2181 48.8552 36.2181C49.0628 36.2181 49.2485 36.2583 49.4124 36.3385C49.5763 36.4152 49.7147 36.521 49.8276 36.656C49.9405 36.7909 50.0261 36.9497 50.0843 37.1321C50.1427 37.3146 50.1717 37.5097 50.1717 37.7177C50.1717 37.736 50.1717 37.756 50.1717 37.7779C50.1717 37.7998 50.17 37.8235 50.1663 37.8491H47.9265ZM47.9265 37.5371H49.7456C49.7347 37.4094 49.7074 37.2872 49.6637 37.1704C49.6237 37.0536 49.5654 36.9515 49.4889 36.8639C49.4161 36.7764 49.325 36.7071 49.2157 36.656C49.1102 36.6012 48.9863 36.5739 48.8442 36.5739C48.7204 36.5739 48.6057 36.5994 48.5001 36.6505C48.3945 36.6979 48.3016 36.7654 48.2215 36.853C48.1414 36.9369 48.0758 37.0372 48.0248 37.154C47.9739 37.2708 47.9411 37.3984 47.9265 37.5371Z" fill="#4B4B4B"/>
<path d="M46.3451 35.6764V39.1079H45.9081V35.6764H44.6243V35.2769H47.6289V35.6764H46.3451Z" fill="#4B4B4B"/>
</svg>
