<svg width="176" height="174" viewBox="0 0 176 174" fill="none" xmlns="http://www.w3.org/2000/svg">
<g filter="url(#filter0_d_1121_15631)">
<path fill-rule="evenodd" clip-rule="evenodd" d="M52.8636 34.0801H101.067L141.859 75.9805V157.35C141.859 167.541 133.501 175.817 123.145 175.817H52.8636C42.5605 175.817 34.1499 167.541 34.1499 157.35V52.4955C34.1497 42.3567 42.5605 34.0801 52.8636 34.0801Z" fill="#13A154"/>
</g>
<path opacity="0.302" fill-rule="evenodd" clip-rule="evenodd" d="M101.021 34.0801V75.6184H141.866L101.021 34.0801Z" fill="white"/>
<path d="M73.4551 103.134L75.3266 99.3884H78.4802L75.2794 104.976L78.5672 110.656H75.3825L73.4562 106.841L71.5299 110.656H68.3528L71.6319 104.976L68.4387 99.3884H71.5847L73.4562 103.134H73.4551Z" fill="white"/>
<path d="M82.2254 108.567H87.0303V110.657H79.4648V99.3892H82.2254V108.568V108.567Z" fill="white"/>
<path d="M94.0969 107.662C94.0969 107.264 93.9541 106.955 93.6685 106.733C93.3829 106.511 92.8804 106.282 92.162 106.044C91.4437 105.806 90.8564 105.577 90.4 105.355C88.9162 104.638 88.1742 103.653 88.1742 102.399C88.1742 101.774 88.3589 101.224 88.7283 100.746C89.0976 100.269 89.6205 99.8978 90.297 99.6315C90.9734 99.3663 91.7336 99.2332 92.5776 99.2332C93.4215 99.2332 94.1388 99.3779 94.7916 99.6664C95.4444 99.9559 95.9512 100.367 96.3131 100.9C96.6749 101.434 96.8553 102.045 96.8553 102.731H94.1033C94.1033 102.271 93.9605 101.916 93.6749 101.662C93.3893 101.41 93.0028 101.283 92.5153 101.283C92.0278 101.283 91.6327 101.39 91.3471 101.604C91.0615 101.819 90.9187 102.09 90.9187 102.421C90.9187 102.71 91.0754 102.971 91.39 103.206C91.7046 103.441 92.2576 103.684 93.0489 103.933C93.8403 104.183 94.4909 104.453 94.9988 104.741C96.2358 105.443 96.8553 106.411 96.8553 107.644C96.8553 108.63 96.4773 109.403 95.7225 109.965C94.9677 110.527 93.9315 110.808 92.6162 110.808C91.6885 110.808 90.8478 110.645 90.0962 110.317C89.3435 109.99 88.7776 109.54 88.3975 108.971C88.0174 108.401 87.8274 107.744 87.8274 107.001H90.5955C90.5955 107.605 90.7544 108.05 91.0711 108.336C91.3879 108.622 91.9033 108.766 92.6162 108.766C93.0726 108.766 93.4323 108.669 93.6975 108.475C93.9616 108.282 94.0947 108.009 94.0947 107.659L94.0969 107.662Z" fill="white"/>
<path d="M102.545 103.134L104.416 99.3884H107.57L104.369 104.976L107.657 110.656H104.472L102.546 106.841L100.62 110.656H97.4426L100.722 104.976L97.5285 99.3884H100.675L102.546 103.134H102.545Z" fill="white"/>
<defs>
<filter id="filter0_d_1121_15631" x="0.149902" y="0.0800781" width="175.709" height="209.737" filterUnits="userSpaceOnUse" color-interpolation-filters="sRGB">
<feFlood flood-opacity="0" result="BackgroundImageFix"/>
<feColorMatrix in="SourceAlpha" type="matrix" values="0 0 0 0 0 0 0 0 0 0 0 0 0 0 0 0 0 0 127 0" result="hardAlpha"/>
<feOffset/>
<feGaussianBlur stdDeviation="17"/>
<feComposite in2="hardAlpha" operator="out"/>
<feColorMatrix type="matrix" values="0 0 0 0 0 0 0 0 0 0 0 0 0 0 0 0 0 0 0.16 0"/>
<feBlend mode="normal" in2="BackgroundImageFix" result="effect1_dropShadow_1121_15631"/>
<feBlend mode="normal" in="SourceGraphic" in2="effect1_dropShadow_1121_15631" result="shape"/>
</filter>
</defs>
</svg>
